<?xml version="1.0" standalone="no"?>
<!DOCTYPE svg PUBLIC "-//W3C//DTD SVG 1.1//EN" "http://www.w3.org/Graphics/SVG/1.1/DTD/svg11.dtd" >
<svg xmlns="http://www.w3.org/2000/svg" xmlns:xlink="http://www.w3.org/1999/xlink" version="1.1">
<metadata>
Created by FontForge 20161116 at Thu Jul  6 12:46:15 2017
 By Jimmy Wärting
Copyright (c) 2015 by Jan-Christian Bruun. All rights reserved.
</metadata>
<defs>
<font id="Monty-Regular" horiz-adv-x="402" >
  <font-face 
    font-family="Monty Rg"
    font-weight="400"
    font-stretch="normal"
    units-per-em="1000"
    panose-1="2 0 5 3 0 0 0 2 0 4"
    ascent="750"
    descent="-250"
    x-height="532"
    cap-height="700"
    bbox="-263 -279 1381 985"
    underline-thickness="50"
    underline-position="-100"
    unicode-range="U+0020-FB02"
  />
<missing-glyph horiz-adv-x="249" 
 />
    <glyph glyph-name=".notdef" horiz-adv-x="249" 
 />
    <glyph glyph-name=".null" horiz-adv-x="0" 
 />
    <glyph glyph-name="nonmarkingreturn" horiz-adv-x="249" 
 />
    <glyph glyph-name="space" unicode=" " horiz-adv-x="313" 
 />
    <glyph glyph-name="space" unicode="&#xa0;" horiz-adv-x="313" 
 />
    <glyph glyph-name="l" unicode="l" horiz-adv-x="349" 
d="M205 724l-1 -566q0 -38 16 -55t41 -17q12 0 22 1.5t19 3.5l17 -17v-59l-15 -20q-23 -5 -62 -5q-74 0 -113 39t-39 129v566l17 17h80z" />
    <glyph glyph-name="o" unicode="o" horiz-adv-x="637" 
d="M322 536q61 0 112 -19.5t88 -55t57 -85.5t20 -110t-20 -109.5t-57 -85.5t-88 -55.5t-112 -19.5q-62 0 -113 19.5t-88 55.5t-57 85.5t-20 109.5t20 110t57 85.5t88 55t113 19.5zM322 437q-36 0 -66 -12.5t-51.5 -35t-33.5 -54.5t-12 -70q0 -39 12 -70.5t33.5 -54.5
t51.5 -35.5t66 -12.5t65.5 12.5t51 35.5t33.5 54.5t12 70.5q0 38 -12 70t-33.5 54.5t-51 35t-65.5 12.5z" />
    <glyph glyph-name="r" unicode="r" 
d="M366 425q-45 0 -89.5 -11.5t-76.5 -34.5v-361l-18 -18h-79l-18 18v497l18 17h79l18 -17v-56q25 27 69 50.5t97 27.5l18 -18v-77z" />
    <glyph glyph-name="c" unicode="c" horiz-adv-x="606" 
d="M340 92q56 0 108 10t92 26l16 -10l-5 -73l-14 -18q-39 -15 -90.5 -23t-106.5 -8q-67 0 -120 19t-90 54t-56.5 84.5t-19.5 111.5q0 58 19.5 108t56 86t88 56.5t115.5 20.5q54 0 97 -13.5t73 -38.5t45.5 -60.5t15.5 -78.5l-18 -18h-79l-18 18q0 43 -30 68t-84 25
q-74 0 -120 -42.5t-46 -123.5v-6q0 -45 12.5 -78t35 -54.5t54 -31.5t69.5 -10z" />
    <glyph glyph-name="n" unicode="n" horiz-adv-x="662" 
d="M390 536q94 0 146 -54.5t52 -150.5v-313l-17 -18h-80l-18 18v293q0 60 -32.5 94.5t-95.5 34.5q-42 0 -83 -15t-68 -39v-368l-17 -18h-80l-18 18v497l18 17h80l17 -17v-56q35 38 85.5 57.5t110.5 19.5z" />
    <glyph glyph-name="d" unicode="d" horiz-adv-x="683" 
d="M609 723v-705l-18 -18h-80l-17 18v51q-29 -35 -75 -54.5t-103 -19.5q-123 0 -193.5 70.5t-70.5 203.5q0 127 70 197.5t194 70.5q55 0 102 -19.5t76 -54.5v260l17 18h80zM494 349q-22 41 -67.5 65.5t-95.5 24.5q-77 0 -120.5 -44.5t-43.5 -124.5q0 -86 43.5 -131.5
t120.5 -45.5q51 0 95.5 23.5t67.5 63.5v169z" />
    <glyph glyph-name="e" unicode="e" horiz-adv-x="610" 
d="M515 28q-40 -14 -89.5 -23t-101.5 -9q-135 0 -207 70t-72 199q0 59 19.5 108.5t56 85.5t88 56.5t115.5 20.5q70 0 118 -21t75.5 -59.5t35 -94t-4.5 -124.5l-18 -12h-370q0 -63 41 -98t125 -35q45 0 94.5 9t97.5 28l16 -11l-6 -71zM326 443q-74 0 -116 -36t-50 -103h289
q5 29 0 54.5t-20 44t-41 29.5t-62 11z" />
    <glyph glyph-name="m" unicode="m" horiz-adv-x="1053" 
d="M774 536q94 0 146 -54.5t52 -150.5v-313l-17 -18h-80l-18 18v293q0 60 -32.5 94.5t-95.5 34.5q-38 0 -76 -13t-65 -33q3 -14 5 -30t2 -33v-313l-18 -18h-79l-18 18v293q0 60 -32.5 94.5t-95.5 34.5q-42 0 -83 -15t-68 -39v-368l-18 -18h-79l-18 18v497l18 17h79l18 -17
v-56q35 38 85 57.5t111 19.5q58 0 100.5 -21.5t67.5 -62.5q41 41 96.5 62.5t112.5 21.5z" />
    <glyph glyph-name="u" unicode="u" horiz-adv-x="646" 
d="M266 -4q-94 0 -146 54.5t-52 150.5v314l18 17h80l17 -17v-294q0 -60 33 -94.5t95 -34.5q41 0 83 15.5t68 38.5v369l18 17h80l17 -17v-497l-17 -18h-80l-18 18v55q-35 -37 -85 -57t-111 -20z" />
    <glyph glyph-name="a" unicode="a" horiz-adv-x="671" 
d="M600 514v-496l-18 -18h-80l-17 18v51q-29 -35 -75 -54.5t-103 -19.5q-123 0 -193.5 70.5t-70.5 203.5q0 127 70 197.5t194 70.5q55 0 102 -19.5t76 -54.5v51l17 18h80zM485 349q-22 41 -67.5 65.5t-95.5 24.5q-77 0 -120.5 -44.5t-43.5 -124.5q0 -86 43.5 -131.5
t120.5 -45.5q51 0 96 23.5t67 63.5v169z" />
    <glyph glyph-name="b" unicode="b" horiz-adv-x="669" 
d="M88 741h80l17 -18v-260q29 35 76 54.5t102 19.5q124 0 194 -70.5t70 -197.5q0 -133 -70.5 -203.5t-193.5 -70.5q-57 0 -103 19.5t-75 54.5v-51l-17 -18h-80l-18 18v705zM185 180q23 -40 67.5 -63.5t95.5 -23.5q78 0 121 45.5t43 131.5q0 80 -43.5 124.5t-120.5 44.5
q-50 0 -95.5 -24.5t-67.5 -65.5v-169z" />
    <glyph glyph-name="h" unicode="h" horiz-adv-x="658" 
d="M391 536q94 0 146 -54.5t52 -150.5v-313l-18 -18h-79l-18 18v293q0 60 -32.5 94.5t-95.5 34.5q-42 0 -83 -15t-68 -39v-368l-18 -18h-79l-18 18v708l18 17h79l18 -17v-267q35 38 85.5 57.5t110.5 19.5z" />
    <glyph glyph-name="ae" unicode="&#xe6;" horiz-adv-x="978" 
d="M907 224h-371q0 -63 41.5 -97.5t125.5 -34.5q48 0 96 8.5t95 27.5l16 -11l-5 -73l-14 -18q-39 -14 -90 -22.5t-108 -8.5q-135 0 -206 77q-34 -36 -84.5 -57t-101.5 -21q-123 0 -193.5 70.5t-70.5 203.5q0 128 70 198t194 70q53 0 105.5 -21.5t86.5 -60.5q37 38 89 59.5
t118 21.5q70 0 118.5 -21t76 -59.5t34.5 -93.5t-5 -124zM316 92q35 0 68.5 12t59.5 34q-23 55 -23 126q0 70 27 124q-26 23 -61 36.5t-71 13.5q-77 0 -120.5 -44.5t-43.5 -124.5q0 -86 43.5 -131.5t120.5 -45.5zM825 303q6 29 1 54.5t-20 44t-41 29.5t-63 11q-74 0 -116 -36
t-50 -103h289z" />
    <glyph glyph-name="oslash" unicode="&#xf8;" horiz-adv-x="630" 
d="M425 518q78 -28 123.5 -93.5t45.5 -158.5q0 -60 -20 -109.5t-57 -85.5t-88 -55.5t-112 -19.5q-16 0 -30.5 1.5t-28.5 3.5l-48 -147h-30v65l30 95q-79 28 -125 94t-46 158q0 60 20 110t57 85.5t88 55t113 19.5q16 0 31 -1.5t29 -3.5l43 134h33v-60zM349 444q-15 3 -32 3
q-38 0 -69 -13.5t-53 -37.5t-34.5 -57.5t-12.5 -73.5q0 -58 24 -100.5t66 -63.5zM317 83q37 0 68 13t53.5 37t35 57.5t12.5 74.5q0 57 -24 100t-66 64l-111 -343q15 -3 32 -3z" />
    <glyph glyph-name="aring" unicode="&#xe5;" horiz-adv-x="685" 
d="M348 584q-24 0 -45.5 9t-37.5 25t-25.5 37t-9.5 45t9.5 45t25.5 36.5t37.5 25t45.5 9.5t45.5 -9.5t37.5 -25t25.5 -36.5t9.5 -45t-9.5 -45t-25.5 -37t-37.5 -25t-45.5 -9zM348 764q-28 0 -48 -19t-20 -45t20 -45t48 -19t48 19t20 45t-20 45t-48 19zM600 514v-496l-18 -18
h-80l-17 18v51q-29 -35 -75 -54.5t-103 -19.5q-123 0 -193.5 70.5t-70.5 203.5q0 127 70 197.5t194 70.5q55 0 102 -19.5t76 -54.5v51l17 18h80zM485 349q-22 41 -67.5 65.5t-95.5 24.5q-77 0 -120.5 -44.5t-43.5 -124.5q0 -86 43.5 -131.5t120.5 -45.5q51 0 96 23.5
t67 63.5v169z" />
    <glyph glyph-name="AE" unicode="&#xc6;" horiz-adv-x="904" 
d="M532 594v-190h194l17 -18v-68l-17 -17h-194v-195h300l18 -18v-71l-18 -17h-401l-17 17v137h-229l-59 -137l-19 -17h-97l-18 17l309 674l17 9h514l18 -18v-71l-18 -17h-300zM414 592h-49l-140 -339h189v339z" />
    <glyph glyph-name="i" unicode="i" horiz-adv-x="290" 
d="M182 532l18 -17v-497l-18 -18h-80l-17 18v497l17 17h80zM92 634q-20 18 -20 50q0 31 20 50.5t50 19.5q32 0 51.5 -19.5t19.5 -50.5t-21 -50l-16 -6h-67z" />
    <glyph glyph-name="k" unicode="k" horiz-adv-x="583" 
d="M554 514l-191 -214l191 -283l-18 -17h-110l-16 12l-126 205l-100 -103v-97l-18 -17h-79l-18 17v707l18 18h79l18 -18v-462l236 261l14 9h102l18 -18v0z" />
    <glyph glyph-name="q" unicode="q" horiz-adv-x="661" 
d="M582 -193h-80l-17 18v244q-30 -35 -76.5 -54.5t-101.5 -19.5q-124 0 -194 70.5t-70 197.5q0 133 70.5 203.5t193.5 70.5q57 0 103 -19.5t75 -54.5v51l17 18h80l18 -18v-689zM485 352q-23 39 -68 63t-96 24q-77 0 -120 -45.5t-43 -131.5q0 -80 43 -124.5t120 -44.5
q51 0 96.5 24.5t67.5 65.5v169z" />
    <glyph glyph-name="f" unicode="f" horiz-adv-x="373" 
d="M375 711l-6 -62l-17 -17q-14 6 -31.5 10t-34.5 4q-28 0 -46.5 -17t-18.5 -55v-42h104l18 -17v-62l-18 -17h-104l1 -418l-18 -18h-80l-17 18v418h-53l-17 17v62l17 17h53v46q0 90 39 129.5t113 39.5q26 0 53 -4t48 -12z" />
    <glyph glyph-name="g" unicode="g" horiz-adv-x="667" 
d="M599 514v-457q-2 -125 -76.5 -189t-199.5 -64q-63 0 -118 12.5t-98 38.5l-14 19v74l17 13q44 -29 100.5 -45.5t107.5 -16.5q38 0 68.5 8.5t52.5 28t33.5 51t11.5 76.5v45q-29 -35 -75 -54.5t-103 -19.5q-62 0 -110.5 17.5t-83 50t-52.5 79.5t-18 107q0 57 18 103
t52.5 78.5t83 50t110.5 17.5q55 0 102 -19.5t76 -54.5v51l17 18h80zM484 349q-11 20 -28 36.5t-39 28.5t-46.5 18.5t-49.5 6.5q-38 0 -68.5 -11.5t-51.5 -31.5t-32.5 -47.5t-11.5 -60.5q0 -73 43.5 -114.5t120.5 -41.5q51 0 96 24t67 63v130z" />
    <glyph glyph-name="y" unicode="y" horiz-adv-x="644" 
d="M570 515v-452q0 -63 -19.5 -111.5t-55.5 -81.5t-87 -49.5t-114 -16.5t-117.5 12.5t-97.5 38.5l-15 19v74l17 13q44 -29 100.5 -45.5t107.5 -16.5q38 0 68.5 8.5t52.5 28t33.5 51t11.5 76.5v70q-35 -38 -85 -58t-111 -20q-94 0 -146 54.5t-52 150.5v255l18 17h80l17 -17
v-234q0 -60 33 -94.5t95 -34.5q41 0 83 15t68 38v310l18 17h80z" />
    <glyph glyph-name="t" unicode="t" horiz-adv-x="418" 
d="M384 28l-15 -20q-20 -5 -48 -9t-54 -4q-74 0 -113.5 39t-39.5 129v275h-61l-18 18v58l18 18h61l59 122h38l18 -18v-104h138l17 -18v-58l-17 -18h-138v-270q0 -38 18 -55t47 -17q20 0 37.5 3t29.5 8l17 -17z" />
    <glyph glyph-name="p" unicode="p" horiz-adv-x="670" 
d="M65 -175v689l18 18h80l17 -18v-51q29 35 75 54.5t103 19.5q123 0 193.5 -70.5t70.5 -203.5q0 -127 -70 -197.5t-194 -70.5q-55 0 -101.5 19.5t-76.5 54.5v-244l-17 -18h-80zM180 183q22 -41 67.5 -65.5t96.5 -24.5q77 0 120 44.5t43 124.5q0 86 -43 131.5t-120 45.5
q-51 0 -96 -24t-68 -63v-169z" />
    <glyph glyph-name="j" unicode="j" horiz-adv-x="287" 
d="M184 532l18 -17v-545q0 -90 -40 -129.5t-113 -39.5q-20 0 -35.5 2t-26.5 4l-15 20v63l17 17q10 -2 19.5 -3.5t21.5 -1.5q25 0 41 17t16 55v541l17 17h80zM94 634q-20 20 -20 50q0 31 20 50.5t50 19.5q32 0 51.5 -19.5t19.5 -50.5q0 -30 -20 -50l-17 -6h-66z" />
    <glyph glyph-name="period" unicode="." horiz-adv-x="214" 
d="M109 123q27 0 45 -18t18 -47t-18 -48t-45 -19t-45 19t-18 48t18 47t45 18z" />
    <glyph glyph-name="v" unicode="v" horiz-adv-x="552" 
d="M206 13l-194 502l18 17h95l19 -14l128 -406h15l127 406l19 14h90l18 -18l-193 -500l-18 -14h-107z" />
    <glyph glyph-name="w" unicode="w" horiz-adv-x="923" 
d="M576 10l-111 369h-5l-114 -367l-20 -12h-129l-18 10l-158 504l17 18h100l15 -9l108 -405h10l122 396l17 18h106l17 -18l124 -396h9l106 404l17 10h96l18 -18l-160 -504l-18 -10h-131z" />
    <glyph glyph-name="z" unicode="z" horiz-adv-x="544" 
d="M482 92l18 -17v-58l-18 -17h-419l-18 17v61l303 361h-277l-18 17v59l18 17h401l18 -17v-60l-303 -363h295z" />
    <glyph glyph-name="B" unicode="B" horiz-adv-x="758" 
d="M565 350q74 -11 108.5 -54t34.5 -116q0 -97 -74 -138.5t-231 -41.5h-323v699h323q151 0 218.5 -45t67.5 -142q0 -34 -6 -59.5t-20 -44.5t-38 -32.5t-60 -22.5v-3zM199 400h204q92 0 129.5 22.5t37.5 76.5q0 27 -8.5 45.5t-28 30t-51.5 17t-79 5.5h-204v-197zM403 101
q45 0 79.5 4t58 14.5t36 29t12.5 47.5q0 31 -12.5 51t-36.5 32t-58.5 16.5t-78.5 4.5h-204v-199h204z" />
    <glyph glyph-name="C" unicode="C" horiz-adv-x="690" 
d="M647 126l9 -75l-13 -21q-57 -20 -112.5 -28.5t-112.5 -8.5q-80 0 -148.5 25.5t-118.5 72t-79 111.5t-29 144v4q0 78 29 143t79 111.5t118.5 72.5t148.5 26q114 0 225 -37l13 -22l-9 -74l-22 -13q-48 18 -95 29.5t-112 11.5q-54 0 -100.5 -17.5t-81 -49.5t-54 -78
t-19.5 -103v-4q0 -57 19.5 -103t54 -78t81 -49.5t100.5 -17.5q65 0 112 11.5t95 28.5z" />
    <glyph glyph-name="D" unicode="D" horiz-adv-x="763" 
d="M362 700q79 0 145.5 -26t114.5 -72.5t75 -111t27 -140.5t-27 -140t-76 -110.5t-116 -73t-146 -26.5h-266l-18 17v665l18 18h269zM365 106q51 0 95 17t76 48.5t50.5 76.5t18.5 101q0 54 -18 99t-50.5 77.5t-77.5 50.5t-99 18h-167v-488h172z" />
    <glyph glyph-name="E" unicode="E" horiz-adv-x="616" 
d="M197 594v-189h234l17 -18v-68l-17 -17h-234v-196h364l18 -18v-71l-18 -17h-465l-17 17v665l17 18h465l18 -18v-71l-18 -17h-364z" />
    <glyph glyph-name="F" unicode="F" horiz-adv-x="557" 
d="M545 682v-71l-18 -17h-334v-203h220l17 -18v-67l-17 -18h-220v-271l-18 -17h-82l-18 17v665l18 18h434z" />
    <glyph glyph-name="G" unicode="G" horiz-adv-x="735" 
d="M689 372v-356l-20 -16h-79l-17 18v34h-5q-14 -15 -33 -25.5t-41.5 -17.5t-46 -10.5t-45.5 -3.5q-78 0 -145 25t-116.5 71.5t-78 112t-28.5 146.5q0 79 29 144t79 111.5t118.5 72t148.5 25.5q57 0 112.5 -8.5t112.5 -28.5l13 -21l-10 -75l-21 -12q-24 9 -47.5 16.5
t-48 12.5t-52 8t-59.5 3q-54 0 -100.5 -17.5t-81 -49.5t-54 -78t-19.5 -103q0 -53 20 -98t54.5 -79t81 -53t100.5 -19q48 0 88.5 11.5t72.5 31.5v145h-163l-14 13v76l12 12h266z" />
    <glyph glyph-name="H" unicode="H" horiz-adv-x="790" 
d="M699 682v-665l-18 -17h-82l-18 17v281h-371v-281l-18 -17h-82l-18 17v665l18 18h82l18 -18v-282h371v282l18 18h82z" />
    <glyph glyph-name="I" unicode="I" horiz-adv-x="300" 
d="M210 682v-665l-18 -17h-83l-17 17v665l17 18h83z" />
    <glyph glyph-name="J" unicode="J" horiz-adv-x="476" 
d="M413 683v-467q0 -106 -58 -163.5t-160 -57.5q-35 0 -66 4.5t-61 12.5l-16 20l1 91l22 12q32 -15 60.5 -20.5t58.5 -5.5q48 0 74 28.5t26 82.5v375h-207l-18 17v71l18 17h309z" />
    <glyph glyph-name="K" unicode="K" horiz-adv-x="697" 
d="M683 682l-273 -301l268 -363l-18 -18h-99l-23 14l-205 285l-123 -131v-151l-17 -17h-83l-18 17v665l18 18h83l17 -18v-374l343 382l24 10h88l18 -18v0z" />
    <glyph glyph-name="L" unicode="L" horiz-adv-x="531" 
d="M501 89v-72l-18 -17h-386l-17 17v665l17 18h83l18 -18v-575h285z" />
    <glyph glyph-name="M" unicode="M" horiz-adv-x="918" 
d="M832 682v-665l-17 -17h-83l-18 17v521h-7l-194 -320h-101l-194 320h-8v-521l-17 -17h-83l-18 17v665l18 18h141l207 -349h8l208 349h141z" />
    <glyph glyph-name="N" unicode="N" horiz-adv-x="790" 
d="M702 682v-665l-18 -17h-146l-320 538h-7v-521l-18 -17h-82l-18 17v665l18 18h140l324 -534h9v516l18 18h82z" />
    <glyph glyph-name="O" unicode="O" horiz-adv-x="810" 
d="M405 703q78 0 146 -27t118 -74.5t78.5 -112t28.5 -139.5t-28.5 -140t-78.5 -112.5t-118 -75t-146 -27.5t-146 27.5t-118 75t-78.5 112.5t-28.5 140t28.5 140t78.5 112t118 74t146 27zM406 597q-52 0 -97.5 -19t-80 -52.5t-54.5 -78.5t-20 -97t20 -97.5t54.5 -79t80.5 -53
t97 -19.5t96.5 19.5t79.5 53t53.5 79t19.5 97.5t-19.5 97t-53.5 78.5t-79.5 52.5t-96.5 19z" />
    <glyph glyph-name="P" unicode="P" horiz-adv-x="669" 
d="M361 700q133 0 205 -62t72 -177q0 -119 -72 -184.5t-205 -65.5h-161v-194l-18 -17h-82l-18 17v665l18 18h261zM356 317q81 0 125 34.5t44 106.5q0 69 -44 102.5t-125 33.5h-156v-277h156z" />
    <glyph glyph-name="Q" unicode="Q" horiz-adv-x="812" 
d="M781 350q0 -92 -41.5 -167t-113.5 -123l128 -197l-18 -18h-99l-106 169q-29 -9 -59 -14t-62 -5q-78 0 -146 27.5t-118 75t-78.5 112.5t-28.5 140t28.5 140t78.5 112t118 74t146 27t146 -27t118 -74.5t78.5 -112t28.5 -139.5zM411 101q51 0 96.5 19.5t79.5 53t53.5 79
t19.5 97.5t-19.5 97t-53.5 78.5t-79.5 52.5t-96.5 19q-52 0 -97.5 -19t-80 -52.5t-54.5 -78.5t-20 -97t20 -97.5t54.5 -79t80.5 -53t97 -19.5z" />
    <glyph glyph-name="R" unicode="R" horiz-adv-x="685" 
d="M640 461q0 -85 -37.5 -142.5t-107.5 -84.5l161 -216l-18 -18h-115l-150 212q-8 -1 -16 -1h-16h-149v-193l-18 -18h-82l-18 18v664l18 18h266q135 0 208.5 -62t73.5 -177zM358 317q81 0 125.5 34.5t44.5 106.5q0 69 -44.5 102.5t-125.5 33.5h-166v-277h166z" />
    <glyph glyph-name="S" unicode="S" horiz-adv-x="615" 
d="M310 705q53 0 95 -6t71 -13q34 -8 61 -18l13 -21l-9 -75l-22 -12q-25 11 -57 20q-27 8 -63 14t-78 6q-62 0 -95 -22t-33 -57q0 -38 28 -59.5t70 -36.5t91 -28.5t91 -36.5t69.5 -61t27.5 -101q0 -47 -19 -84.5t-53.5 -63.5t-83 -40t-106.5 -14q-55 0 -98 5.5t-74 12.5
q-36 8 -63 19l-12 21l9 75l21 13q49 -18 99 -29.5t116 -11.5q62 0 97.5 25t35.5 66q0 39 -28 60.5t-70 36t-91 27.5t-91 35.5t-70 59.5t-28 99q0 90 66 142.5t183 52.5z" />
    <glyph glyph-name="T" unicode="T" horiz-adv-x="581" 
d="M571 682v-71l-18 -18h-204l-1 -576l-17 -17h-83l-17 17v576h-204l-17 18v71l17 18h526z" />
    <glyph glyph-name="U" unicode="U" horiz-adv-x="762" 
d="M687 683v-393q0 -69 -21 -123.5t-60 -92.5t-95.5 -58.5t-127.5 -20.5t-127.5 20.5t-96 58.5t-60.5 92.5t-21 123.5v393l17 17h83l18 -17v-393q0 -89 50.5 -139t137.5 -50q86 0 135.5 49.5t49.5 139.5v393l17 17h83z" />
    <glyph glyph-name="V" unicode="V" horiz-adv-x="683" 
d="M276 11l-267 671l18 18h92l20 -16l198 -560h17l201 560l20 16h88l17 -18l-272 -672l-15 -10h-102z" />
    <glyph glyph-name="W" unicode="W" horiz-adv-x="1060" 
d="M692 11l-152 523h-11l-153 -523l-13 -11h-134l-14 12l-204 670l17 18h98l14 -12l156 -536h11l153 530l18 18h116l18 -18l156 -530h12l153 537l15 11h91l18 -18l-207 -672l-12 -10h-132z" />
    <glyph glyph-name="X" unicode="X" horiz-adv-x="644" 
d="M393 364l232 -346l-17 -18h-88l-22 11l-180 274l-178 -273l-23 -12h-83l-18 18l231 341l-214 323l18 18h84l21 -11l162 -257l164 258l21 10h83l17 -18l-210 -318v0z" />
    <glyph glyph-name="Y" unicode="Y" horiz-adv-x="611" 
d="M604 682l-237 -449v-216l-18 -17h-81l-18 17v212l-243 453l18 18h89l18 -10l172 -357h8l174 357l19 10h81z" />
    <glyph glyph-name="Z" unicode="Z" horiz-adv-x="663" 
d="M628 88v-71l-18 -17h-555l-18 17v68l423 509h-396l-18 17v71l18 18h537l18 -18v-67l-422 -509h413z" />
    <glyph glyph-name="zero" unicode="0" horiz-adv-x="693" 
d="M346 703q144 0 220.5 -91t76.5 -262t-76.5 -262t-220.5 -91q-145 0 -221.5 91t-76.5 262t76.5 262t221.5 91zM346 610q-89 0 -133 -63t-44 -197t44 -197t133 -63q88 0 132 63t44 197t-44 197t-132 63z" />
    <glyph glyph-name="x" unicode="x" horiz-adv-x="520" 
d="M336 273l164 -255l-18 -18h-88l-20 10l-117 196l-126 -197l-19 -9h-86l-17 18l169 255l-157 242l17 17h92l15 -7l112 -187l112 185l19 9h85l18 -17l-155 -242v0z" />
    <glyph glyph-name="Oslash" unicode="&#xd8;" horiz-adv-x="813" 
d="M558 673q49 -20 89 -52.5t68.5 -74t44.5 -91.5t16 -105q0 -75 -28.5 -140t-78.5 -112.5t-118 -75t-146 -27.5q-41 0 -75 7l-41 -120h-59v76l22 67q-49 20 -89 52.5t-68.5 74.5t-44.5 92t-16 106q0 75 28.5 140t78.5 112t118 74t146 27q41 0 75 -7l40 119h61v-72zM445 594
q-20 3 -39 3q-52 0 -97.5 -19t-80 -52.5t-54.5 -78.5t-20 -97q0 -36 10 -69t27.5 -61.5t42 -51t54.5 -38.5zM406 101q51 0 96.5 19.5t79.5 53t53.5 79t19.5 97.5q0 72 -37 130t-96 89l-158 -465q21 -3 42 -3z" />
    <glyph glyph-name="Aring" unicode="&#xc5;" horiz-adv-x="740" 
d="M734 18l-18 -18h-97l-13 12l-61 142h-363l-58 -140l-13 -14h-95l-18 18l263 603q-28 34 -28 81q0 27 10.5 51.5t28.5 42.5t42.5 28.5t51.5 10.5q28 0 52 -10.5t42 -28.5t28.5 -42.5t10.5 -51.5q0 -23 -7 -43t-19 -37zM366 759q-23 0 -40 -17t-17 -40q0 -24 17 -40.5
t40 -16.5q24 0 40.5 16.5t16.5 40.5q0 23 -16.5 40t-40.5 17zM503 253l-129 324h-20l-130 -323z" />
    <glyph glyph-name="one" unicode="1" horiz-adv-x="360" 
d="M273 682v-664l-17 -18h-83l-18 18v491h-72l-18 17v70l18 18h20q36 0 63.5 19.5t44.5 54.5l12 12h32z" />
    <glyph glyph-name="two" unicode="2" horiz-adv-x="566" 
d="M516 91v-74l-18 -17h-435l-6 35q-9 55 3 100t42.5 84t78 75.5t108.5 75.5q25 18 44 34.5t32.5 33t20.5 34.5t7 40q0 42 -29.5 65t-100.5 23q-34 0 -67 -6t-59 -13q-31 -9 -59 -19l-22 13l-9 75l13 21q28 9 61 17q29 6 67 11.5t84 5.5q122 0 183 -49t61 -138
q0 -36 -12 -65.5t-32.5 -56t-48.5 -50t-61 -47.5q-65 -43 -102.5 -72t-56.5 -51t-23.5 -40t-4.5 -40l323 13z" />
    <glyph glyph-name="three" unicode="3" horiz-adv-x="566" 
d="M408 345q26 -9 45 -25t31 -37t18 -45t6 -49q0 -90 -61 -142t-183 -52q-45 0 -83.5 5t-67.5 12q-33 7 -61 17l-13 22l10 75l21 12q28 -11 59 -19q26 -8 59 -13.5t67 -5.5q71 0 100.5 26t29.5 73q0 44 -30 73t-81 29h-120l-18 18v58l18 17h120q52 0 81.5 28t29.5 74
q0 21 -7 39.5t-22.5 33t-40.5 23t-60 8.5q-34 0 -67 -6t-59 -13q-31 -8 -59 -18l-21 12l-10 75l13 21q28 9 61 17q29 6 67.5 11.5t83.5 5.5q122 0 183 -54t61 -143q0 -51 -24 -93t-76 -64v-6v0z" />
    <glyph glyph-name="four" unicode="4" horiz-adv-x="679" 
d="M651 214v-69l-18 -18h-90v-110l-18 -17h-83l-17 17v110h-372l-18 17v71l340 475l22 11h128l18 -18v-451h90zM425 581l-249 -349h249v349z" />
    <glyph glyph-name="five" unicode="5" horiz-adv-x="603" 
d="M305 444q57 0 101.5 -16t74.5 -44.5t46 -67.5t16 -85q0 -53 -19 -96.5t-53.5 -74.5t-82.5 -47.5t-107 -16.5q-46 0 -85.5 5t-68.5 11q-34 7 -63 17l-13 22l9 75l22 12q30 -11 63 -19q28 -7 62.5 -12.5t67.5 -5.5q69 0 105.5 31.5t36.5 91.5q0 54 -38.5 84.5t-106.5 30.5
q-33 0 -68 -9.5t-59 -24.5h-26l-40 40v337l18 18h400l18 -18v-70l-18 -17h-300v-173q14 6 31 11q14 4 34 7.5t43 3.5z" />
    <glyph glyph-name="six" unicode="6" horiz-adv-x="627" 
d="M356 705q48 0 81.5 -5t56.5 -10q26 -6 44 -14l13 -21l-9 -75l-22 -12q-19 9 -43 16q-20 6 -48.5 11t-60.5 5q-96 0 -146 -53t-50 -172q30 35 77 55t105 20q106 0 165.5 -57t59.5 -163q0 -54 -17.5 -97.5t-49.5 -74t-77.5 -47t-101.5 -16.5q-66 0 -119 23t-90 67
t-56.5 107t-19.5 144q0 92 21.5 161t61.5 115.5t97 69.5t128 23zM332 353q-48 0 -89 -20t-66 -54v-10q0 -35 9 -65.5t28 -54t47 -37t66 -13.5q60 0 94.5 31t34.5 101q0 55 -31 88.5t-93 33.5z" />
    <glyph glyph-name="seven" unicode="7" horiz-adv-x="572" 
d="M547 682v-70q0 -58 -17 -105t-43 -89t-55.5 -82.5t-55.5 -87t-43 -102.5t-17 -128l-18 -18h-82l-17 18v58q0 53 17 100.5t42 90.5t54.5 83t54.5 80t42 80.5t17 84.5h-260v-119l-17 -18h-86l-17 18v206l18 18h466z" />
    <glyph glyph-name="eight" unicode="8" horiz-adv-x="622" 
d="M466 372q62 -22 89.5 -67.5t27.5 -108.5q0 -47 -19 -84t-54 -63t-85 -40t-112 -14t-111.5 14t-84.5 39.5t-54 62.5t-19 83q0 63 29.5 109t93.5 68v5q-48 23 -68 62.5t-20 89.5q0 41 16.5 74t47 56t73.5 35t97 12t97.5 -12.5t74 -36t47 -57t16.5 -75.5q0 -50 -17.5 -88.5
t-64.5 -60.5v-3zM316 600q-59 0 -92 -24.5t-33 -72.5q0 -45 31.5 -70t90.5 -25q60 0 93.5 25.5t33.5 69.5q0 48 -32 72.5t-92 24.5zM313 100q75 0 116.5 28t41.5 84q0 53 -41.5 81t-116.5 28t-116 -28t-41 -81q0 -56 41 -84t116 -28z" />
    <glyph glyph-name="nine" unicode="9" horiz-adv-x="612" 
d="M262 -5q-48 0 -81.5 4.5t-56.5 9.5q-26 6 -44 14l-13 21l9 75l22 13q19 -9 43 -16q20 -6 48 -11t61 -5q96 0 146 53t50 171q-30 -35 -77 -55t-106 -20q-106 0 -165.5 57.5t-59.5 163.5q0 54 17.5 97.5t49.5 74t77.5 47t101.5 16.5q66 0 119 -23t90 -67t56.5 -107
t19.5 -144q0 -92 -21.5 -161.5t-61 -115.5t-96.5 -69t-128 -23zM285 346q49 0 90 20t66 55v10q0 34 -9.5 65t-28 54t-47 36.5t-66.5 13.5q-60 0 -94.5 -31t-34.5 -100q0 -56 31.5 -89.5t92.5 -33.5z" />
    <glyph glyph-name="exclam" unicode="!" horiz-adv-x="239" 
d="M120 123q27 0 45 -18t18 -47t-18 -48t-45 -19t-45 19t-18 48t18 47t45 18zM86 241l-21 260v173l17 17h74l18 -17v-173l-22 -260l-17 -18h-31z" />
    <glyph glyph-name="dollar" unicode="$" horiz-adv-x="632" 
d="M576 197q0 -84 -58 -136t-155 -63v-122l-18 -18h-52l-18 18v120q-46 2 -82 8t-61 12q-30 7 -52 16l-13 21l9 75l22 13q48 -18 98.5 -29.5t115.5 -11.5q62 0 97.5 25t35.5 66q0 39 -28 60.5t-70 36t-91 27.5t-91 35.5t-70 59.5t-28 99q0 81 55 132.5t153 60.5v115l17 17
h53l18 -17v-114q42 -3 75.5 -9t56.5 -12q27 -7 48 -15l13 -21l-9 -75l-22 -13q-25 11 -57 20q-27 8 -63 14.5t-78 6.5q-62 0 -95 -22t-33 -57q0 -38 28 -59.5t70 -36.5t91 -28.5t91 -36.5t69.5 -61t27.5 -101z" />
    <glyph glyph-name="percent" unicode="%" horiz-adv-x="980" 
d="M223 702q87 0 136 -55t49 -153q0 -99 -49 -154.5t-136 -55.5t-136 55.5t-49 154.5q0 98 49 153t136 55zM223 634q-52 0 -80 -36.5t-28 -103.5q0 -68 28 -105t80 -37t80.5 37t28.5 105q0 67 -28.5 103.5t-80.5 36.5zM750 415q87 0 136 -55t49 -153q0 -99 -49 -154
t-136 -55t-136 55t-49 154q0 98 49 153t136 55zM750 348q-52 0 -80 -37t-28 -104q0 -68 28 -104.5t80 -36.5t80.5 36.5t28.5 104.5q0 67 -28.5 104t-80.5 37zM782 682l-489 -664l-31 -18h-68l-11 18l489 664l24 18h74z" />
    <glyph glyph-name="ampersand" unicode="&#x26;" horiz-adv-x="696" 
d="M660 391v-52l-18 -17h-89q19 -24 28 -57t9 -69q0 -47 -19 -84t-54 -63t-85 -40t-112 -14t-111.5 14t-84.5 39.5t-54 62.5t-19 83q0 63 29.5 109t93.5 68v5q-48 23 -68 62.5t-20 89.5q0 41 16.5 74t47 56t73.5 35t97 12q43 0 84.5 -8t71.5 -22l9 -27l-15 -67l-22 -8
q-28 12 -61.5 19.5t-63.5 7.5q-59 0 -92 -24.5t-33 -72.5q0 -45 31.5 -70t90.5 -25h322zM478 212q0 69 -40 109h-118q-75 0 -116 -28t-41 -81q0 -56 41 -84t116 -28t116.5 28t41.5 84z" />
    <glyph glyph-name="parenleft" unicode="(" horiz-adv-x="346" 
d="M189 -107q-54 85 -82.5 191t-28.5 225q0 121 27.5 226t83.5 190l22 17h64l18 -17q-52 -85 -79.5 -190t-27.5 -226q0 -119 28 -224.5t79 -190.5l-17 -18h-60z" />
    <glyph glyph-name="parenright" unicode=")" horiz-adv-x="347" 
d="M138 -124h-60l-17 18q51 85 79 190.5t28 224.5q0 121 -27.5 226t-79.5 190l18 17h64l22 -17q56 -85 83.5 -190t27.5 -226q0 -119 -28.5 -225t-82.5 -191z" />
    <glyph glyph-name="plus" unicode="+" horiz-adv-x="499" 
d="M463 344v-40l-17 -18h-159v-159l-18 -17h-40l-18 17v159h-159l-18 18v40l18 18h159v159l18 18h40l18 -18v-159h159z" />
    <glyph glyph-name="comma" unicode="," horiz-adv-x="219" 
d="M109 121q25 0 44 -17.5t19 -48.5q0 -29 -19 -54l-68 -103h-49v25l37 79q-14 9 -20.5 23t-6.5 30q0 29 17.5 47.5t45.5 18.5z" />
    <glyph glyph-name="colon" unicode=":" horiz-adv-x="226" 
d="M109 420q27 0 45 -18t18 -47t-18 -48t-45 -19t-45 19t-18 48t18 47t45 18zM109 123q27 0 45 -18t18 -47t-18 -48t-45 -19t-45 19t-18 48t18 47t45 18z" />
    <glyph glyph-name="semicolon" unicode=";" horiz-adv-x="221" 
d="M109 288q-27 0 -45 19t-18 48t18 47t45 18t45 -18t18 -47t-18 -48t-45 -19zM109 121q25 0 44 -17.5t19 -48.5q0 -29 -19 -54l-68 -103h-49v25l37 79q-14 9 -20.5 23t-6.5 30q0 29 17.5 47.5t45.5 18.5z" />
    <glyph glyph-name="slash" unicode="/" horiz-adv-x="372" 
d="M388 798l-305 -898l-25 -17h-55l-18 17l305 898l24 18h57z" />
    <glyph glyph-name="quotedblbase" unicode="&#x201e;" horiz-adv-x="375" 
d="M109 121q25 0 44 -17.5t19 -48.5q0 -29 -19 -54l-68 -103h-49v25l37 79q-14 9 -20.5 23t-6.5 30q0 29 17.5 47.5t45.5 18.5zM272 121q25 0 44 -17.5t19 -48.5q0 -29 -19 -54l-68 -103h-49v25l37 79q-14 9 -20.5 23t-6.5 30q0 29 17.5 47.5t45.5 18.5z" />
    <glyph glyph-name="equal" unicode="=" horiz-adv-x="503" 
d="M463 451v-44l-18 -17h-393l-17 17v44l17 18h393zM445 259l18 -18v-44l-18 -17h-393l-17 17v44l17 18h393z" />
    <glyph glyph-name="question" unicode="?" horiz-adv-x="534" 
d="M221 123q27 0 45 -18t18 -47t-18 -48t-45 -19t-45 19t-18 48t18 47t45 18zM246 696q122 0 183 -48.5t61 -138.5q0 -36 -17.5 -70t-45.5 -65.5t-61.5 -60t-66.5 -52.5l-36 -25h-9q-23 9 -42 6t-28 -6h-6v62l48 34q25 18 50 39t45 43t33 44.5t13 44.5q0 42 -29.5 65
t-100.5 23q-34 0 -67 -6t-59 -13q-31 -8 -59 -18l-22 12l-9 75l13 22q28 9 61 16q29 6 67 11.5t84 5.5z" />
    <glyph glyph-name="at" unicode="@" horiz-adv-x="1022" 
d="M517 702q96 0 178 -32t142 -89.5t93.5 -136.5t33.5 -172q0 -57 -14 -103t-39.5 -78.5t-60.5 -50t-77 -17.5q-46 0 -77 19.5t-39 61.5v6q-26 -31 -68.5 -53.5t-91.5 -22.5q-109 0 -170 61.5t-61 178.5q0 111 61 172.5t170 61.5q48 0 88.5 -17t66.5 -47v39l15 15h56l16 -15
v-344q2 -23 14.5 -33.5t30.5 -10.5t35 12.5t30 35.5t21 55t8 71q0 75 -25 139t-72 111.5t-114 74.5t-150 27q-78 0 -146 -27.5t-118.5 -75.5t-79.5 -112.5t-29 -138.5q0 -73 27.5 -135t76 -107t114 -70t142.5 -25q40 0 88 12.5t89 36.5l24 -5l24 -42l-4 -25q-23 -14 -50 -25
t-56.5 -19t-58.5 -12t-56 -4q-95 0 -176.5 31.5t-141.5 88t-94 133.5t-34 167q0 92 35.5 171.5t97.5 138t145.5 92t180.5 33.5zM652 344q-9 18 -24.5 33t-34.5 26t-40.5 17.5t-43.5 6.5q-33 0 -62 -10.5t-50 -30.5t-33 -48t-12 -63q0 -38 12 -67t33 -49t50 -30.5t62 -10.5
q45 0 84 22t59 56v148z" />
    <glyph glyph-name="backslash" unicode="\" horiz-adv-x="465" 
d="M93 816h57l24 -18l305 -898l-18 -17h-55l-25 17l-305 898z" />
    <glyph glyph-name="hyphen" unicode="-" horiz-adv-x="361" 
d="M78 344h211l18 -17v-44l-18 -18h-211l-17 18v44z" />
    <glyph glyph-name="quotesinglbase" unicode="&#x201a;" horiz-adv-x="214" 
d="M109 121q25 0 44 -17.5t19 -48.5q0 -29 -19 -54l-68 -103h-49v25l37 79q-14 9 -20.5 23t-6.5 30q0 29 17.5 47.5t45.5 18.5z" />
    <glyph glyph-name="bracketleft" unicode="[" horiz-adv-x="358" 
d="M195 650v-682h106l18 -18v-57l-18 -17h-191l-18 17v831l18 18h191l18 -18v-56l-18 -18h-106z" />
    <glyph glyph-name="bracketright" unicode="]" horiz-adv-x="310" 
d="M46 650l-18 18v56l18 18h191l18 -18v-831l-18 -17h-191l-18 17v57l18 18h106v682h-106z" />
    <glyph glyph-name="quotedbl" unicode="&#x22;" horiz-adv-x="362" 
d="M148 683v-211l-17 -18h-53l-18 18v211l18 17h53zM302 683v-211l-17 -18h-53l-18 18v211l18 17h53z" />
    <glyph glyph-name="Ccedilla" unicode="&#xc7;" horiz-adv-x="683" 
d="M413 599q-54 0 -100.5 -17.5t-81 -49.5t-54 -78t-19.5 -103v-4q0 -57 19.5 -103t54 -78t81 -49.5t100.5 -17.5q65 0 112 11.5t95 29.5l22 -12l9 -75l-13 -22q-93 -31 -182 -35l-9 -44q37 -5 57 -29.5t20 -61.5q0 -48 -34 -76.5t-87 -28.5q-23 0 -45 4.5t-39 12.5l-9 16
l4 46l13 8q15 -9 34.5 -13.5t36.5 -4.5q24 0 37.5 12.5t13.5 32.5q0 19 -14 30.5t-39 11.5q-7 0 -14 -1t-15 -3l-8 8l15 80q-72 6 -133.5 34.5t-106.5 74t-70.5 107t-25.5 135.5v4q0 79 29 144t79 111.5t118.5 72t148.5 25.5q57 0 112.5 -8.5t112.5 -27.5l13 -22l-9 -75
l-22 -12q-48 18 -95 29t-112 11z" />
    <glyph glyph-name="Eth" unicode="&#xd0;" horiz-adv-x="821" 
d="M399 700q79 0 145.5 -26t114.5 -72.5t75 -111t27 -140.5t-27 -140t-76 -110.5t-116 -73t-146 -26.5h-266l-18 18v293h-94l-18 18v43l18 18h94v293l18 17h269zM402 106q51 0 95 17t76 49t50.5 76.5t18.5 100.5q0 54 -18 99t-50.5 77.5t-77.5 50.5t-99 18h-167v-204h181
l17 -18v-43l-17 -18h-181v-205h172z" />
    <glyph glyph-name="ccedilla" unicode="&#xe7;" horiz-adv-x="579" 
d="M322 93q56 0 108.5 10t91.5 26l16 -10l-5 -73l-13 -18q-34 -13 -76.5 -21t-89.5 -10l-8 -39q37 -5 57 -29.5t20 -61.5q0 -48 -34 -76.5t-87 -28.5q-23 0 -45 4.5t-39 12.5l-10 16l5 46l13 8q15 -9 34.5 -13.5t36.5 -4.5q24 0 37.5 12.5t13.5 32.5q0 19 -14 30.5t-39 11.5
q-7 0 -14 -1t-15 -3l-8 8l14 77q-112 14 -174 84t-62 182q0 59 19.5 108.5t56 85.5t88 56.5t115.5 20.5q54 0 97 -13.5t73 -38.5t45.5 -60t15.5 -78l-17 -18h-80l-18 18q0 42 -30 67t-84 25q-74 0 -120 -42t-46 -123v-7q0 -90 47.5 -131.5t123.5 -41.5z" />
    <glyph glyph-name="eth" unicode="&#xf0;" horiz-adv-x="593" 
d="M405 603q72 -73 111.5 -159.5t39.5 -178.5q0 -62 -19.5 -111.5t-55.5 -85t-86.5 -54.5t-112.5 -19q-56 0 -101.5 16t-77.5 46t-49.5 72.5t-17.5 94.5q0 50 16 90.5t45.5 69t71.5 44t94 15.5q57 0 105.5 -22t72.5 -59q-17 54 -52.5 106.5t-86.5 100.5l-136 -44l-22 11
l-9 26l12 22l99 33q-25 19 -51.5 36.5t-55.5 32.5v20l50 34h24q38 -18 72.5 -40t66.5 -48l115 38l22 -12l9 -26l-11 -22zM437 279q-17 20 -40 37q-20 14 -47 25.5t-61 11.5q-66 0 -104.5 -31.5t-38.5 -90.5q0 -62 39 -98t104 -36q66 0 103.5 34.5t43.5 119.5z" />
    <glyph glyph-name="divide" unicode="&#xf7;" horiz-adv-x="499" 
d="M463 346v-44l-17 -17h-393l-18 17v44l18 18h393zM248 567q26 0 43.5 -18t17.5 -45q0 -28 -17.5 -46t-43.5 -18t-43 18t-17 46q0 27 17 45t43 18zM248 212q26 0 43.5 -18t17.5 -45q0 -28 -17.5 -46t-43.5 -18t-43 18t-17 46q0 27 17 45t43 18z" />
    <glyph glyph-name="Euro" unicode="&#x20ac;" horiz-adv-x="777" 
d="M728 127l9 -75l-12 -21q-112 -37 -225 -37q-65 0 -122.5 17t-104 48.5t-80.5 76t-51 99.5h-90l-18 18v29l18 17h76q-3 24 -3 48v4q0 27 3 53h-76l-18 18v29l18 17h91q18 54 52.5 97.5t81 74.5t103 47.5t120.5 16.5q57 0 112.5 -8.5t112.5 -28.5l12 -21l-9 -75l-22 -12
q-24 9 -47 16t-47.5 12.5t-52 8.5t-59.5 3q-77 0 -137.5 -34t-91.5 -97h236l18 -17v-29l-18 -18h-257q-3 -13 -4 -26t-1 -27v-4q0 -12 1 -24t3 -24h258l18 -17v-29l-18 -18h-239q31 -64 92.5 -100t139.5 -36q64 0 111 11.5t95 29.5z" />
    <glyph glyph-name="florin" unicode="&#x192;" horiz-adv-x="452" 
d="M344 384h-125l-51 -414q-10 -78 -55.5 -124t-122.5 -45q-24 1 -49.5 8.5t-45.5 20.5l-8 24l20 52l21 7q26 -14 50 -16q35 -1 54 23.5t24 66.5l49 397h-49l-18 18l6 45l17 17h53l15 119q10 78 61 124t128 45q30 -1 60 -8.5t54 -20.5l7 -23l-25 -53l-24 -8q-27 16 -56 16
q-37 1 -62.5 -22.5t-30.5 -65.5l-13 -103h121l17 -17l-5 -45z" />
    <glyph glyph-name="thorn" unicode="&#xfe;" horiz-adv-x="693" 
d="M108 742h80l17 -18v-262q30 35 76.5 54.5t101.5 19.5q124 0 194 -70.5t70 -197.5q0 -133 -70.5 -203.5t-193.5 -70.5q-57 0 -103 19.5t-75 54.5v-244l-17 -18h-80l-18 18v900zM205 179q23 -39 68 -63t96 -24q77 0 120 45.5t43 131.5q0 80 -43 124.5t-120 44.5
q-51 0 -96.5 -24.5t-67.5 -65.5v-169z" />
    <glyph glyph-name="quotesingle" unicode="'" horiz-adv-x="209" 
d="M148 683v-211l-17 -18h-53l-18 18v211l18 17h53z" />
    <glyph glyph-name="numbersign" unicode="#" horiz-adv-x="731" 
d="M662 241l-5 -50l-18 -18h-126l-20 -155l-17 -18h-49l-18 18l19 155h-177l-20 -155l-17 -18h-49l-18 18l19 155h-121l-17 18l4 51l18 17h127l21 176h-120l-17 18l4 50l18 18h126l20 161l18 18h49l18 -18l-20 -161h177l20 161l18 18h49l18 -18l-20 -161h120l18 -18l-4 -50
l-18 -18h-127l-22 -176h121zM460 435h-177l-22 -176h178z" />
    <glyph glyph-name="s" unicode="s" horiz-adv-x="489" 
d="M149 392q0 -25 21 -38.5t52 -24.5t68 -22.5t68 -30.5t52 -50t21 -80q0 -41 -16 -69.5t-44.5 -46.5t-67.5 -26t-85 -8q-37 0 -67 3.5t-52 8.5q-26 5 -46 12l-13 22l7 63l22 12q22 -9 47 -15q21 -5 47.5 -9.5t54.5 -4.5q48 0 74.5 14t26.5 41t-20.5 42.5t-52 27t-67.5 22.5
t-67 29.5t-51.5 48t-20.5 77.5q0 40 16.5 68.5t43.5 45.5t62.5 25t73.5 8q33 0 63 -4t53 -9q26 -6 49 -13l13 -21l-8 -63l-21 -12q-23 8 -48 14q-21 5 -46.5 10t-51.5 5q-48 0 -69 -11.5t-21 -40.5z" />
    <glyph glyph-name="asterisk" unicode="*" horiz-adv-x="354" 
d="M317 504l-20 -38l-14 -2l-80 47l1 -93l-9 -10h-41l-10 10l1 93l-79 -46l-15 3l-21 37l3 14l82 46l-83 46l-2 12l22 41l13 2l80 -48l-1 94l9 9h41l10 -10l-1 -93l80 47l14 -4l20 -37l-3 -14l-82 -45l82 -46z" />
    <glyph glyph-name="fraction" unicode="&#x2044;" horiz-adv-x="103" 
d="M334 682l-488 -664l-36 -18h-55l-18 18l488 664l37 18h55z" />
    <glyph glyph-name="asciicircum" unicode="^" horiz-adv-x="537" 
d="M104 132h-47l-17 18l178 376h101l178 -376l-18 -18h-46l-25 17l-138 296h-3l-139 -295z" />
    <glyph glyph-name="braceleft" unicode="{" horiz-adv-x="343" 
d="M214 416q0 -47 -15 -71t-51 -35v-3q36 -11 51 -35t15 -71v-164q0 -39 17 -54.5t60 -15.5l18 -18v-57l-18 -18h-25q-84 0 -120 31t-36 96v207q0 29 -10 41t-33 12h-13l-18 18v60l18 17h13q23 0 33 12t10 41v207q0 65 36 96t120 31h25l18 -18v-57l-18 -17q-43 0 -60 -15.5
t-17 -55.5v-164v0z" />
    <glyph glyph-name="braceright" unicode="}" horiz-adv-x="360" 
d="M131 416v164q0 40 -17 55.5t-60 15.5l-18 17v57l18 18h25q84 0 120 -31t36 -96v-207q0 -29 10 -41t33 -12h13l18 -17v-60l-18 -18h-13q-23 0 -33 -12t-10 -41v-207q0 -65 -36 -96t-120 -31h-25l-18 18v57l18 18q43 0 60 15.5t17 54.5v164q0 47 15 71t51 35v3
q-36 11 -51 35t-15 71z" />
    <glyph glyph-name="breve" unicode="&#x2d8;" horiz-adv-x="351" 
d="M315 731q-8 -57 -46 -90.5t-94 -33.5t-93.5 33.5t-45.5 90.5l18 18h44l17 -18q6 -21 22 -34t38 -13t38 13t22 34l18 18h44z" />
    <glyph glyph-name="ring" unicode="&#x2da;" horiz-adv-x="349" 
d="M175 801q24 0 45.5 -9.5t37.5 -25t25.5 -36.5t9.5 -45t-9.5 -45t-25.5 -37t-37.5 -25t-45.5 -9t-45.5 9t-37.5 25t-25.5 37t-9.5 45t9.5 45t25.5 36.5t37.5 25t45.5 9.5zM175 749q-28 0 -48 -19t-20 -45t20 -45t48 -19t48 19t20 45t-20 45t-48 19z" />
    <glyph glyph-name="dotaccent" unicode="&#x2d9;" horiz-adv-x="338" 
d="M175 754q29 0 48 -19.5t19 -50.5q0 -30 -19 -49.5t-48 -19.5t-48 19.5t-19 49.5q0 31 19 50.5t48 19.5z" />
    <glyph glyph-name="perthousand" unicode="&#x2030;" horiz-adv-x="1425" 
d="M223 702q87 0 136 -55t49 -153q0 -99 -49 -154.5t-136 -55.5t-136 55.5t-49 154.5q0 98 49 153t136 55zM223 634q-52 0 -80 -36.5t-28 -103.5q0 -68 28 -105t80 -37t80.5 37t28.5 105q0 67 -28.5 103.5t-80.5 36.5zM750 415q87 0 136 -55t49 -153q0 -99 -49 -154
t-136 -55t-136 55t-49 154q0 98 49 153t136 55zM1196 415q87 0 136 -55t49 -153q0 -99 -49 -154t-136 -55t-136 55t-49 154q0 98 49 153t136 55zM750 348q-52 0 -80 -37t-28 -104q0 -68 28 -104.5t80 -36.5t80.5 36.5t28.5 104.5q0 67 -28.5 104t-80.5 37zM1196 348
q-52 0 -80 -37t-28 -104q0 -68 28 -104.5t80 -36.5t80.5 36.5t28.5 104.5q0 67 -28.5 104t-80.5 37zM782 682l-489 -664l-31 -18h-68l-11 18l489 664l24 18h74z" />
    <glyph glyph-name="questiondown" unicode="&#xbf;" horiz-adv-x="517" 
d="M286 408q-27 0 -45 18t-18 47t18 48t45 19t45 -19t18 -48t-18 -47t-45 -18zM265 -159q-122 0 -183 48.5t-61 138.5q0 36 17.5 70t45.5 65.5t61.5 60t66.5 52.5l36 25h9q23 -9 42 -6t28 6h6v-62l-48 -34q-25 -18 -50 -39t-45.5 -43t-33 -44.5t-12.5 -44.5q0 -42 29.5 -65
t100.5 -23q34 0 67 5.5t59 12.5q31 8 59 19l22 -12l9 -75l-13 -22q-28 -10 -61 -17q-29 -6 -67.5 -11t-83.5 -5z" />
    <glyph glyph-name="dotlessi" unicode="&#x131;" horiz-adv-x="325" 
d="M254 593l18 -18v-415l-18 -18h-58l-17 18v349h-149l-17 17v49l17 18h224v0z" />
    <glyph glyph-name="less" unicode="&#x3c;" horiz-adv-x="527" 
d="M485 161v-47l-18 -17l-410 178v101l410 178l18 -18v-46l-17 -24l-330 -139v-3l329 -139z" />
    <glyph glyph-name="greater" unicode="&#x3e;" horiz-adv-x="536" 
d="M75 185l329 139v3l-330 139l-17 24v46l18 18l410 -178v-101l-410 -178l-18 17v47z" />
    <glyph glyph-name="multiply" unicode="&#xd7;" horiz-adv-x="502" 
d="M416 189l-28 -29h-25l-113 113l-112 -113h-25l-28 29v24l112 113l-112 112v25l28 29h25l112 -113l113 113h25l28 -29v-25l-112 -112l112 -113v-24z" />
    <glyph glyph-name="currency" unicode="&#xa4;" horiz-adv-x="707" 
d="M663 47l-42 -43h-25l-90 90q-32 -23 -70.5 -36t-80.5 -13q-43 0 -81.5 13.5t-70.5 37.5l-91 -92h-25l-42 43v25l92 93q-21 32 -32.5 70t-11.5 80t11.5 79t32.5 69l-93 94v24l42 43h25l91 -92q32 23 71.5 37t81.5 14t80.5 -12.5t70.5 -35.5l89 90h25l43 -42v-25l-91 -91
q23 -33 35 -71.5t12 -80.5q0 -43 -12 -81.5t-34 -71.5l90 -90v-25zM355 136q34 0 64.5 12t53.5 34.5t36 56t13 76.5q0 36 -12 68t-34 56t-53 38t-68 14q-35 0 -65 -12.5t-52 -35.5t-34.5 -55.5t-12.5 -72.5q0 -88 45.5 -133.5t118.5 -45.5z" />
    <glyph glyph-name="underscore" unicode="_" horiz-adv-x="568" 
d="M18 -45h530l18 -18v-35l-18 -17h-530l-18 17v35z" />
    <glyph glyph-name="bar" unicode="|" horiz-adv-x="261" 
d="M80 729h101v-846h-101v846v0z" />
    <glyph glyph-name="brokenbar" unicode="&#xa6;" horiz-adv-x="256" 
d="M178 793v-311l-18 -17h-53l-18 17v311l18 17h53zM160 230l18 -17v-311l-18 -18h-53l-18 18v311l18 17h53z" />
    <glyph glyph-name="dagger" unicode="&#x2020;" horiz-adv-x="539" 
d="M519 468v-71l-17 -18h-181v-552l-18 -18h-74l-17 18v552h-181l-18 18v71l18 18h181v195l17 17h74l18 -17v-195h181z" />
    <glyph glyph-name="daggerdbl" unicode="&#x2021;" horiz-adv-x="536" 
d="M321 380v-231h181l17 -18v-71l-17 -17h-181v-216l-18 -17h-73l-18 17v216h-181l-18 17v71l18 18h181v231h-181l-18 17v71l18 18h181v195l18 18h73l18 -18v-195h181l17 -18v-71l-17 -17h-181z" />
    <glyph glyph-name="circumflex" unicode="&#x2c6;" horiz-adv-x="355" 
d="M330 614h-93l-59 85h-5l-60 -85h-92v23l101 118h106l102 -118v-23z" />
    <glyph glyph-name="guilsinglleft" unicode="&#x2039;" horiz-adv-x="261" 
d="M209 86h-68l-116 179l116 169h68l17 -17l-104 -152l104 -161z" />
    <glyph glyph-name="guilsinglright" unicode="&#x203a;" horiz-adv-x="273" 
d="M36 104l104 161l-104 152l17 17h68l116 -169l-116 -179h-68z" />
    <glyph glyph-name="OE" unicode="&#x152;" horiz-adv-x="1105" 
d="M677 594v-189h219l17 -18v-68l-17 -17h-219v-196h365l17 -18v-71l-17 -17h-643q-80 0 -146.5 26.5t-115.5 73t-76 110.5t-27 140t27 140.5t75 111t114.5 72.5t145.5 26h646l17 -18v-71l-17 -17h-365zM559 594h-161q-54 0 -99 -18t-77.5 -50.5t-50.5 -77.5t-18 -99
q0 -56 18.5 -101t50.5 -76.5t76 -48.5t95 -17h166v488z" />
    <glyph glyph-name="cent" unicode="&#xa2;" horiz-adv-x="564" 
d="M346 94q47 3 89 12.5t75 22.5l16 -10l-5 -73l-13 -18q-33 -13 -74.5 -20.5t-87.5 -9.5v-127l-17 -17h-53l-18 17v129q-111 14 -172.5 84t-61.5 182q0 53 16.5 99t46.5 81.5t73.5 58t97.5 29.5v128l18 18h53l17 -18v-128q90 -11 139 -60.5t49 -127.5l-17 -18h-80l-18 18
q0 69 -73 88v-340zM139 267q0 -75 32.5 -115.5t86.5 -52.5v335q-54 -12 -86.5 -52.5t-32.5 -108.5v-6z" />
    <glyph glyph-name="sterling" unicode="&#xa3;" horiz-adv-x="563" 
d="M347 605q-52 0 -80 -34t-28 -91v-98h158l17 -17v-49l-17 -18h-158v-202h262l17 -17v-61l-17 -18h-446l-17 18v61l17 17h66v202h-66l-17 18v49l17 17h66v101q0 50 16 90.5t45 69t68.5 44t87.5 15.5q41 0 73.5 -5.5t55.5 -11.5q26 -8 47 -17l12 -21l-9 -65l-21 -12
q-20 9 -44 17q-20 7 -47.5 12.5t-57.5 5.5z" />
    <glyph glyph-name="yen" unicode="&#xa5;" horiz-adv-x="636" 
d="M545 322l18 -18v-29l-18 -18h-156l-12 -24v-44h168l18 -17v-29l-18 -18h-168v-108l-18 -17h-81l-18 17v108h-173l-17 18v29l17 17h173v40l-15 28h-158l-17 18v29l17 18h124l-191 361l17 17h82l19 -9l176 -358h8l174 357l19 10h81l18 -17l-190 -361h121z" />
    <glyph glyph-name="section" unicode="&#xa7;" horiz-adv-x="506" 
d="M360 175q44 -19 64 -44t20 -68q0 -32 -14.5 -59.5t-41 -47t-64 -30.5t-83.5 -11t-78.5 3.5t-52.5 8.5q-24 5 -39 13l-13 22l8 51l21 13q23 -9 48 -15q21 -6 47.5 -10.5t54.5 -4.5q55 0 79.5 19t24.5 45q0 28 -22.5 44.5t-56 29t-72.5 24t-72.5 29.5t-56 46t-22.5 74
q0 47 32 79.5t87 46.5v2q-55 23 -76.5 49t-21.5 66q0 63 52 102.5t140 41.5q36 0 66.5 -4t52.5 -9q26 -6 46 -13l13 -21l-7 -52l-22 -12q-21 8 -46 15q-21 5 -47.5 10t-52.5 5q-51 0 -73 -16.5t-22 -42.5q0 -28 22.5 -44.5t56.5 -28.5t73.5 -23.5t73.5 -29.5t56.5 -47
t22.5 -75q0 -21 -8 -41.5t-22.5 -37.5t-33.5 -29.5t-41 -19.5v-3zM266 235q48 0 72.5 18t24.5 46q0 35 -35 56t-89 21q-48 0 -74 -16.5t-26 -44.5q0 -18 10 -32.5t27 -25t40 -16.5t50 -6z" />
    <glyph glyph-name="copyright" unicode="&#xa9;" horiz-adv-x="746" 
d="M373 689q71 0 133 -27t107.5 -73t71.5 -107.5t26 -131.5q0 -69 -26.5 -131t-72 -108.5t-107.5 -74t-134 -27.5q-71 0 -132.5 27t-107 73t-71.5 108t-26 131t26 131t72 108.5t107.5 74t133.5 27.5zM373 629q-60 0 -111.5 -22.5t-89.5 -60.5t-59.5 -89.5t-21.5 -108.5
t21.5 -108t59 -89t88.5 -60t111 -22t111.5 22.5t90 60.5t60 89.5t21.5 108.5t-21.5 108t-59.5 89t-89 60t-111 22zM380 467q-52 0 -87 -31t-35 -87v-2q0 -56 35 -86t87 -30q32 0 54.5 5.5t45.5 14.5l11 -6l4 -41l-6 -10q-27 -10 -54 -14t-55 -4q-39 0 -72 12.5t-57.5 35
t-38.5 54t-14 69.5v2q0 38 14 69.5t38.5 54t57.5 35t72 12.5q28 0 55 -4t54 -13l6 -11l-4 -38l-11 -6q-23 8 -45.5 13.5t-54.5 5.5z" />
    <glyph glyph-name="registered" unicode="&#xae;" horiz-adv-x="749" 
d="M373 689q71 0 133 -27t107.5 -73t71.5 -107.5t26 -131.5q0 -69 -26.5 -131t-72 -108.5t-107.5 -74t-134 -27.5q-71 0 -132.5 27t-107 73t-71.5 108t-26 131t26 131t72 108.5t107.5 74t133.5 27.5zM371 69q60 0 111.5 22.5t90 60.5t60 89.5t21.5 108.5t-21.5 108t-59.5 89
t-89 60t-111 22t-111.5 -22.5t-89.5 -60.5t-59.5 -89.5t-21.5 -108.5t21.5 -108t59 -89t88.5 -60t111 -22zM526 410q0 -82 -70 -110l70 -104l-8 -8h-54l-62 102q-5 -1 -15 -1h-77v-93l-9 -8h-40l-8 8v320l8 9h129q65 0 100.5 -30t35.5 -85zM390 340q39 0 60.5 17t21.5 51
t-21.5 50t-60.5 16h-80v-134h80z" />
    <glyph glyph-name="ordfeminine" unicode="&#xaa;" horiz-adv-x="407" 
d="M354 763v-295l-11 -10h-48l-10 10v31q-17 -21 -44.5 -32.5t-60.5 -11.5q-74 0 -115.5 42t-41.5 121q0 75 41.5 117t115.5 42q32 0 60 -11.5t45 -32.5v30l10 11h48zM285 662q-17 22 -40 35t-57 13q-45 0 -71 -24t-26 -68q0 -48 26 -73t71 -25q31 0 56 11t41 34v97z" />
    <glyph glyph-name="guillemotleft" unicode="&#xab;" horiz-adv-x="442" 
d="M389 82h-68l-116 178l116 170h68l17 -18l-104 -152l104 -161zM206 82h-67l-116 178l116 170h67l18 -18l-104 -152l104 -161z" />
    <glyph glyph-name="guillemotright" unicode="&#xbb;" horiz-adv-x="505" 
d="M58 99l104 161l-104 152l17 18h68l116 -170l-116 -178h-68zM240 99l104 161l-104 152l18 18h67l116 -170l-116 -178h-67z" />
    <glyph glyph-name="dieresis" unicode="&#xa8;" horiz-adv-x="386" 
d="M107 621q-26 0 -43.5 18t-17.5 45q0 28 17.5 46t43.5 18t43 -18t17 -46q0 -27 -17 -45t-43 -18zM284 621q-26 0 -43.5 18t-17.5 45q0 28 17.5 46t43.5 18t43 -18t17 -46q0 -27 -17 -45t-43 -18z" />
    <glyph glyph-name="oe" unicode="&#x153;" horiz-adv-x="1030" 
d="M970 225h-370q0 -63 41 -97.5t125 -34.5q48 0 96 8.5t96 27.5l16 -11l-6 -72l-13 -19q-39 -14 -90 -22.5t-108 -8.5q-149 0 -220 92q-37 -44 -92 -68t-124 -24q-62 0 -113 19.5t-88 55.5t-57 85.5t-20 109.5t20 110t57 85.5t88 55t113 19.5q72 0 128 -25.5t93 -71.5
q37 45 93 71t129 26q70 0 118 -21t75.5 -59.5t35 -93.5t-4.5 -124zM321 92q36 0 65.5 12.5t51 35.5t33.5 54.5t12 70.5q0 38 -12 70t-33.5 54.5t-51 35t-65.5 12.5t-66 -12.5t-51.5 -35t-33.5 -54.5t-12 -70q0 -39 12 -70.5t33.5 -54.5t51.5 -35.5t66 -12.5zM889 304
q6 29 1 54.5t-20.5 44t-41.5 29.5t-62 11q-74 0 -116 -36t-50 -103h289z" />
    <glyph glyph-name="endash" unicode="&#x2013;" horiz-adv-x="476" 
d="M51 304h370l18 -17v-44l-18 -18h-370l-17 18v44z" />
    <glyph glyph-name="emdash" unicode="&#x2014;" horiz-adv-x="770" 
d="M56 304h656l18 -17v-44l-18 -18h-656l-17 18v44z" />
    <glyph glyph-name="minus" unicode="&#x2212;" horiz-adv-x="507" 
d="M53 364h393l18 -18v-44l-18 -17h-393l-17 17v44z" />
    <glyph glyph-name="logicalnot" unicode="&#xac;" horiz-adv-x="531" 
d="M486 386v-224l-18 -17h-49l-17 17v163h-349l-18 17v44l18 18h415z" />
    <glyph glyph-name="plusminus" unicode="&#xb1;" horiz-adv-x="496" 
d="M445 99l18 -18v-43l-18 -18h-393l-17 18v43l17 18h393zM463 413v-40l-18 -18h-159v-159l-17 -17h-41l-17 17v159h-159l-18 18v40l18 18h159v159l17 18h41l17 -18v-159h159z" />
    <glyph glyph-name="twosuperior" unicode="&#xb2;" horiz-adv-x="352" 
d="M318 341v-43l-10 -11h-257l-4 21q-5 33 2 59t25 49t46 44.5t64 45.5q29 21 45.5 39t16.5 44q0 25 -17.5 38.5t-59.5 13.5q-20 0 -39 -3.5t-35 -7.5q-18 -5 -35 -11l-13 7l-5 45l7 12q17 6 36 10q17 4 39.5 7t49.5 3q72 0 108 -28.5t36 -81.5q0 -43 -26 -71.5t-65 -57.5
q-38 -26 -60 -43t-33 -30t-14 -23.5t-3 -23.5l191 8z" />
    <glyph glyph-name="threesuperior" unicode="&#xb3;" horiz-adv-x="341" 
d="M246 489q31 -11 45 -36.5t14 -55.5q0 -53 -36 -83.5t-108 -30.5q-27 0 -49.5 3t-39.5 7q-19 4 -36 10l-8 13l6 44l13 7q17 -7 35 -11q16 -5 35 -8t39 -3q42 0 59 15t17 43q0 26 -17.5 43t-47.5 17h-12l-10 11v34l10 10h12q31 0 48 16.5t17 43.5q0 25 -17 43.5t-59 18.5
q-20 0 -39 -3.5t-35 -7.5q-18 -5 -35 -11l-13 7l-6 44l8 13q17 6 36 10q17 4 39.5 7t49.5 3q72 0 108 -32t36 -85q0 -29 -14 -54t-45 -38v-4v0z" />
    <glyph glyph-name="onesuperior" unicode="&#xb9;" horiz-adv-x="228" 
d="M158 689v-391l-10 -11h-50l-11 11v295h-43l-10 10v42l10 11h12q22 0 38 8t27 29l7 7h19z" />
    <glyph glyph-name="ordmasculine" unicode="&#xba;" 
d="M203 776q39 0 71 -11.5t55 -32.5t35.5 -50.5t12.5 -65.5t-12.5 -65.5t-35.5 -50.5t-55 -32.5t-71 -11.5t-70.5 11.5t-54.5 32.5t-35.5 50.5t-12.5 65.5t12.5 65.5t35.5 50.5t54.5 32.5t70.5 11.5zM203 710q-41 0 -66.5 -26t-25.5 -69t25.5 -69t66.5 -26t66 26t25 69
t-25 69t-66 26z" />
    <glyph glyph-name="bullet" unicode="&#x2022;" horiz-adv-x="281" 
d="M140 366q42 0 68.5 -27.5t26.5 -70.5t-26.5 -71.5t-68.5 -28.5q-41 0 -67.5 28.5t-26.5 71.5t26.5 70.5t67.5 27.5z" />
    <glyph glyph-name="degree" unicode="&#xb0;" horiz-adv-x="390" 
d="M197 810q24 0 45 -9t37 -25t25 -36.5t9 -44.5t-9 -44.5t-25 -36.5t-37 -25t-45 -9t-45 9t-36.5 25t-25 36.5t-9.5 44.5t9 44.5t25 36.5t37 25t45 9zM197 759q-28 0 -47.5 -19t-19.5 -45t19.5 -44.5t47.5 -18.5t47.5 18.5t19.5 44.5t-19.5 45t-47.5 19z" />
    <glyph glyph-name="caron" unicode="&#x2c7;" horiz-adv-x="353" 
d="M21 746h92l60 -85h5l59 85h93v-23l-102 -118h-106l-101 118v23z" />
    <glyph glyph-name="Lslash" unicode="&#x141;" horiz-adv-x="569" 
d="M530 90v-72l-18 -18h-386l-17 18v349l-65 -19l-22 12l-13 43l12 22l88 26v232l17 17h83l18 -17v-197l139 41l22 -12l13 -43l-12 -22l-162 -48v-295h285z" />
    <glyph glyph-name="Thorn" unicode="&#xde;" horiz-adv-x="687" 
d="M354 601q143 0 219.5 -61t76.5 -173q0 -118 -76.5 -181.5t-219.5 -63.5h-147v-104l-17 -18h-83l-18 18v665l18 17h83l17 -17v-82h147zM349 220q181 0 181 144q0 139 -181 139h-142v-283h142z" />
    <glyph glyph-name="germandbls" unicode="&#xdf;" horiz-adv-x="642" 
d="M455 380q33 -7 60.5 -21t47.5 -35.5t31.5 -49.5t11.5 -64q0 -46 -18.5 -84.5t-53 -66.5t-83 -43.5t-108.5 -15.5h-33l-18 18v54l17 17h43q65 0 103.5 33t38.5 85q0 57 -43 87.5t-119 30.5l-18 18v54l18 17q59 4 91 36t32 86q0 55 -34 86.5t-90 31.5q-65 0 -102 -42.5
t-37 -115.5v-478l-18 -18h-78l-18 18v470q0 59 17.5 107t50.5 81.5t80 52t107 18.5q51 0 94 -13.5t74 -39t48 -61t17 -79.5q0 -57 -30 -103t-81 -67v-4v0z" />
    <glyph glyph-name="trademark" unicode="&#x2122;" horiz-adv-x="914" 
d="M323 700l18 -17v-39l-18 -18h-105v-328l-18 -18h-49l-18 18v328h-104l-18 18v39l18 17h294zM858 683v-385l-18 -18h-49l-18 18v287h-4l-117 -163h-56l-116 163h-4v-287l-18 -18h-49l-18 18v385l18 17h78l134 -193h6l134 193h79z" />
    <glyph glyph-name="cedilla" unicode="&#xb8;" horiz-adv-x="327" 
d="M206 -60q42 -5 64 -33t22 -69q0 -54 -38 -85.5t-97 -31.5q-54 0 -94 19l-11 17l6 52l14 8q17 -10 38.5 -15t40.5 -5q27 0 42 14t15 37q0 21 -15.5 34t-43.5 13q-14 0 -32 -5l-9 9l20 112h92l-14 -71v0z" />
    <glyph glyph-name="periodcentered" unicode="&#xb7;" horiz-adv-x="217" 
d="M106 350q26 0 43 -17.5t17 -45.5q0 -27 -17 -45t-43 -18t-43 18t-17 45q0 28 17 45.5t43 17.5z" />
    <glyph glyph-name="onequarter" unicode="&#xbc;" horiz-adv-x="786" 
d="M631 683l-488 -665l-36 -18h-33l-17 18l488 665l36 17h32zM158 689v-391l-10 -11h-50l-11 11v295h-43l-10 10v42l10 11h12q22 0 38 8t27 29l7 7h19zM746 126v-41l-11 -10h-50v-64l-11 -11h-49l-10 11v64h-219l-11 11v41l207 280l12 6h70l11 -10v-266h50zM615 330
l-143 -193h143v193z" />
    <glyph glyph-name="onehalf" unicode="&#xbd;" horiz-adv-x="824" 
d="M780 55v-44l-11 -10h-256l-4 21q-6 33 1.5 59t25.5 49t46 44.5t64 44.5q29 22 45 40t16 44q0 25 -17.5 38.5t-59.5 13.5q-20 0 -39 -3.5t-35 -7.5q-18 -5 -35 -11l-12 7l-6 44l8 13q17 6 36 10q17 4 39.5 7t49.5 3q72 0 108 -29t36 -82q0 -42 -26.5 -71.5t-64.5 -57.5
q-38 -25 -60.5 -42t-33.5 -30t-14 -23.5t-3 -23.5l191 7zM626 683l-488 -665l-36 -18h-32l-18 18l488 665l37 17h32zM158 689v-391l-10 -11h-50l-11 11v295h-43l-10 10v42l10 11h12q22 0 38 8t27 29l7 7h19z" />
    <glyph glyph-name="threequarters" unicode="&#xbe;" horiz-adv-x="899" 
d="M262 490q30 -11 44.5 -36.5t14.5 -55.5q0 -53 -36 -83.5t-108 -30.5q-27 0 -49.5 3t-39.5 7q-19 4 -36 10l-8 13l6 44l12 7q17 -7 35 -11q16 -5 35.5 -8t39.5 -3q42 0 59 15.5t17 42.5q0 26 -17.5 43t-47.5 17h-12l-11 11v34l11 10h12q30 0 47.5 16.5t17.5 43.5
q0 25 -17 43.5t-59 18.5q-20 0 -39.5 -3.5t-35.5 -7.5q-18 -5 -35 -11l-12 7l-6 44l8 13q17 6 36 10q17 4 39.5 7t49.5 3q72 0 108 -32t36 -84q0 -30 -14.5 -55t-44.5 -38v-4zM736 683l-489 -665l-36 -18h-32l-18 18l488 665l37 17h32zM852 126v-41l-11 -10h-50v-64l-11 -11
h-49l-10 11v64h-219l-11 11v41l207 280l12 6h70l11 -10v-266h50zM721 330l-143 -193h143v193z" />
    <glyph glyph-name="tilde" unicode="&#x2dc;" horiz-adv-x="386" 
d="M359 735q-4 -115 -90 -115q-24 0 -44 8.5t-37 18.5t-32 18.5t-29 8.5q-30 0 -36 -31l-16 -16h-43l-17 16q2 60 24.5 87.5t66.5 27.5q22 0 42 -8.5t37.5 -18t33 -18t30.5 -8.5t23.5 7t11.5 24l16 16h43z" />
    <glyph glyph-name="asciitilde" unicode="~" horiz-adv-x="502" 
d="M432 371q-2 -63 -26.5 -93t-69.5 -30q-26 0 -47 9t-39 19.5t-34 19.5t-31 9q-32 0 -38 -32l-17 -18h-46l-18 18q2 64 26.5 93t70.5 29q24 0 45 -9t39.5 -19.5t35.5 -19.5t32 -9q16 0 25 7.5t12 25.5l18 17h45z" />
    <glyph glyph-name="ogonek" unicode="&#x2db;" horiz-adv-x="288" 
d="M273 -192q-21 -28 -49.5 -43t-59.5 -15q-18 0 -35.5 5.5t-31 17t-22 29.5t-8.5 44q0 37 19.5 78t54.5 88h73q-38 -50 -55 -85.5t-17 -58.5q0 -18 10.5 -28.5t27.5 -10.5q13 0 26 7.5t24 19.5h21l22 -26v-22z" />
    <glyph glyph-name="lslash" unicode="&#x142;" horiz-adv-x="387" 
d="M279 87q12 0 21.5 1.5t19.5 3.5l17 -17v-59l-15 -20q-11 -2 -26.5 -4t-35.5 -2q-74 0 -113.5 39.5t-39.5 129.5v229l-73 -22l-22 12l-13 43l12 22l96 28v253l18 18h80l17 -18v-219l92 27l22 -12l13 -42l-12 -22l-115 -34v-263q0 -38 16 -55t41 -17z" />
    <glyph glyph-name="mu" unicode="&#xb5;" horiz-adv-x="693" 
d="M599 515v-497l-18 -18h-80l-17 18v56q-35 -38 -85.5 -58t-110.5 -20q-47 0 -83 15v-187l-18 -18h-80l-17 18v691l17 17h80l18 -17v-293q0 -60 32.5 -94.5t95.5 -34.5q42 0 83 15t68 38v369l17 17h80z" />
    <glyph glyph-name="quotedblright" unicode="&#x201d;" horiz-adv-x="371" 
d="M109 701q25 0 44 -17.5t19 -48.5q0 -29 -19 -54l-68 -103h-49v25l37 79q-14 9 -20.5 23t-6.5 30q0 29 17.5 47.5t45.5 18.5zM272 701q25 0 44 -17.5t19 -48.5q0 -29 -19 -54l-68 -103h-49v25l37 79q-14 9 -20.5 23t-6.5 30q0 29 17.5 47.5t45.5 18.5z" />
    <glyph glyph-name="quotedblleft" unicode="&#x201c;" horiz-adv-x="367" 
d="M260 503q-25 0 -44 17.5t-19 48.5q0 29 19 54l68 103h49v-25l-37 -79q14 -9 20.5 -23t6.5 -30q0 -29 -17.5 -47.5t-45.5 -18.5zM97 503q-25 0 -44 17.5t-19 48.5q0 29 19 54l68 103h49v-25l-37 -79q14 -9 20.5 -23t6.5 -30q0 -29 -17.5 -47.5t-45.5 -18.5z" />
    <glyph glyph-name="quoteright" unicode="&#x2019;" horiz-adv-x="206" 
d="M109 701q25 0 44 -17.5t19 -48.5q0 -29 -19 -54l-68 -103h-49v25l37 79q-14 9 -20.5 23t-6.5 30q0 29 17.5 47.5t45.5 18.5z" />
    <glyph glyph-name="quoteleft" unicode="&#x2018;" horiz-adv-x="207" 
d="M97 503q-25 0 -44 17.5t-19 48.5q0 29 19 54l68 103h49v-25l-37 -79q14 -9 20.5 -23t6.5 -30q0 -29 -17.5 -47.5t-45.5 -18.5z" />
    <glyph glyph-name="grave" unicode="`" horiz-adv-x="301" 
d="M180 757l90 -126v-22h-86l-143 116v20z" />
    <glyph glyph-name="acute" unicode="&#xb4;" horiz-adv-x="316" 
d="M294 745v-20l-143 -116h-86v22l90 126z" />
    <glyph glyph-name="A" unicode="A" horiz-adv-x="731" 
d="M728 18l-18 -18h-95l-13 12l-61 142h-362l-59 -140l-12 -14h-94l-17 18l289 670l16 12h125l13 -10zM499 253l-129 324h-19l-131 -323z" />
    <glyph glyph-name="exclamdown" unicode="&#xa1;" horiz-adv-x="238" 
d="M117 408q-27 0 -45 18t-18 47t18 48t45 19t45 -19t18 -48t-18 -47t-45 -18zM150 290l22 -260v-173l-18 -17h-74l-17 17v173l21 260l18 18h31z" />
    <glyph glyph-name="hungarumlaut" unicode="&#x2dd;" horiz-adv-x="448" 
d="M233 725l-143 -116h-86v22l90 126l139 -12v-20zM431 745v-20l-143 -116h-86v22l90 126z" />
    <glyph glyph-name="AV2" horiz-adv-x="743" 
d="M374 705q71 0 127.5 -20.5t96 -58.5t60.5 -92.5t21 -123.5v-393l-17 -17h-83l-18 17v195h-373v-195l-17 -17h-83l-18 17v393q0 69 21 123.5t60 92.5t95.5 58.5t127.5 20.5zM561 312v98q0 89 -50.5 139t-137.5 50q-86 0 -135.5 -49.5t-49.5 -139.5v-98h373z" />
    <glyph glyph-name="OO" horiz-adv-x="831" 
d="M482 377q29 0 43.5 -10t14.5 -39q0 -27 -14.5 -38.5t-43.5 -11.5l-26 1v98h26zM762 451v-244h-690v244h690zM220 414h-91v-37h48v-59q0 -24 -8 -34t-24 -10q-19 0 -30 11l-28 -28q20 -20 58 -20q37 0 56 21.5t19 59.5v96zM329 275q-25 0 -38.5 14.5t-13.5 37.5
q0 22 13.5 37t37.5 15q25 0 41 -19l35 25q-14 16 -33.5 24.5t-41.5 8.5q-41 0 -68.5 -25t-27.5 -67q0 -40 27 -65t69 -25q20 0 40 7.5t35 24.5l-35 25q-8 -10 -18.5 -14t-21.5 -4zM482 241q49 0 75.5 20.5t26.5 66.5t-26 66t-76 20h-70v-173h70zM658 237q38 0 59 15t21 41
q0 24 -16.5 37.5t-54.5 18.5l-7 1q-17 2 -21.5 6t-4.5 10q0 15 30 15q10 0 21 -4t19 -9l28 28q-27 22 -68 22q-35 0 -54.5 -14t-19.5 -38q0 -28 15.5 -39.5t49.5 -15.5l7 -1q32 -3 32 -18q0 -7 -8.5 -12t-27.5 -5q-12 0 -25 3.5t-22 11.5l-27 -27q12 -14 32.5 -20t41.5 -6z
" />
    <glyph glyph-name="fi" unicode="&#xfb01;" horiz-adv-x="613" 
d="M524 532l18 -17v-497l-18 -18h-80l-17 18v497l17 17h80zM434 634q-20 18 -20 50q0 31 20 50.5t50 19.5q32 0 51.5 -19.5t19.5 -50.5t-21 -50l-16 -6h-67zM370 716q-4 -9 -5 -20q-2 -9 -1 -20.5t6 -23.5l-17 -17q-12 5 -29.5 8t-38.5 3q-28 0 -46.5 -17t-18.5 -55v-42h104
l18 -17v-64l-18 -17h-104l1 -416l-18 -18h-80l-17 18v416h-53l-17 17v64l17 17h53v46q0 90 39 129.5t113 39.5q26 0 51.5 -3t45.5 -8z" />
    <glyph glyph-name="fl" unicode="&#xfb02;" horiz-adv-x="709" 
d="M676 75v-59l-15 -20q-11 -2 -26.5 -4t-35.5 -2q-74 0 -113.5 39.5t-39.5 129.5v352q0 72 -30 103.5t-86 31.5q-45 0 -77 -22.5t-32 -68.5v-23h104l18 -17v-64l-18 -17h-104l1 -416l-18 -18h-80l-17 18v416h-53l-17 17v64l17 17h53v27q0 45 17.5 80t47.5 59t70.5 36.5
t87.5 12.5q112 0 171.5 -57t59.5 -175v-356q0 -38 16 -55t41 -17q12 0 21.5 1.5t19.5 3.5z" />
    <glyph glyph-name="Zcaron" unicode="&#x17d;" horiz-adv-x="669" 
d="M628 88v-71l-18 -17h-555l-18 17v68l423 509h-396l-18 17v71l18 18h537l18 -18v-67l-422 -509h413zM185 909h92l60 -85h5l59 85h93v-23l-102 -118h-106l-101 118v23z" />
    <glyph glyph-name="zcaron" unicode="&#x17e;" horiz-adv-x="545" 
d="M482 92l18 -17v-58l-18 -17h-419l-18 17v61l303 361h-277l-18 17v59l18 17h401l18 -17v-60l-303 -363h295zM119 746h92l60 -85h5l59 85h93v-23l-102 -118h-106l-101 118v23z" />
    <glyph glyph-name="Scaron" unicode="&#x160;" horiz-adv-x="615" 
d="M310 705q53 0 95 -6t71 -13q34 -8 61 -18l13 -21l-9 -75l-22 -12q-25 11 -57 20q-27 8 -63 14t-78 6q-62 0 -95 -22t-33 -57q0 -38 28 -59.5t70 -36.5t91 -28.5t91 -36.5t69.5 -61t27.5 -101q0 -47 -19 -84.5t-53.5 -63.5t-83 -40t-106.5 -14q-55 0 -98 5.5t-74 12.5
q-36 8 -63 19l-12 21l9 75l21 13q49 -18 99 -29.5t116 -11.5q62 0 97.5 25t35.5 66q0 39 -28 60.5t-70 36t-91 27.5t-91 35.5t-70 59.5t-28 99q0 90 66 142.5t183 52.5zM172 911h92l60 -85h5l59 85h93v-23l-102 -118h-106l-101 118v23z" />
    <glyph glyph-name="scaron" unicode="&#x161;" horiz-adv-x="463" 
d="M149 392q0 -25 21 -38.5t52 -24.5t68 -22.5t68 -30.5t52 -50t21 -80q0 -41 -16 -69.5t-44.5 -46.5t-67.5 -26t-85 -8q-37 0 -67 3.5t-52 8.5q-26 5 -46 12l-13 22l7 63l22 12q22 -9 47 -15q21 -5 47.5 -9.5t54.5 -4.5q48 0 74.5 14t26.5 41t-20.5 42.5t-52 27t-67.5 22.5
t-67 29.5t-51.5 48t-20.5 77.5q0 40 16.5 68.5t43.5 45.5t62.5 25t73.5 8q33 0 63 -4t53 -9q26 -6 49 -13l13 -21l-8 -63l-21 -12q-23 8 -48 14q-21 5 -46.5 10t-51.5 5q-48 0 -69 -11.5t-21 -40.5zM82 746h92l60 -85h5l59 85h93v-23l-102 -118h-106l-101 118v23z" />
    <glyph glyph-name="Ydieresis" unicode="&#x178;" horiz-adv-x="611" 
d="M604 682l-237 -449v-216l-18 -17h-81l-18 17v212l-243 453l18 18h89l18 -10l172 -357h8l174 357l19 10h81zM216 761q-26 0 -43.5 18t-17.5 45q0 28 17.5 46t43.5 18t43 -18t17 -46q0 -27 -17 -45t-43 -18zM393 761q-26 0 -43.5 18t-17.5 45q0 28 17.5 46t43.5 18t43 -18
t17 -46q0 -27 -17 -45t-43 -18z" />
    <glyph glyph-name="ydieresis" unicode="&#xff;" horiz-adv-x="640" 
d="M570 515v-452q0 -63 -19.5 -111.5t-55.5 -81.5t-87 -49.5t-114 -16.5t-117.5 12.5t-97.5 38.5l-15 19v74l17 13q44 -29 100.5 -45.5t107.5 -16.5q38 0 68.5 8.5t52.5 28t33.5 51t11.5 76.5v70q-35 -38 -85 -58t-111 -20q-94 0 -146 54.5t-52 150.5v255l18 17h80l17 -17
v-234q0 -60 33 -94.5t95 -34.5q41 0 83 15t68 38v310l18 17h80zM229 613q-26 0 -43.5 18t-17.5 45q0 28 17.5 46t43.5 18t43 -18t17 -46q0 -27 -17 -45t-43 -18zM406 613q-26 0 -43.5 18t-17.5 45q0 28 17.5 46t43.5 18t43 -18t17 -46q0 -27 -17 -45t-43 -18z" />
    <glyph glyph-name="agrave" unicode="&#xe0;" horiz-adv-x="671" 
d="M600 514v-496l-18 -18h-80l-17 18v51q-29 -35 -75 -54.5t-103 -19.5q-123 0 -193.5 70.5t-70.5 203.5q0 127 70 197.5t194 70.5q55 0 102 -19.5t76 -54.5v51l17 18h80zM485 349q-22 41 -67.5 65.5t-95.5 24.5q-77 0 -120.5 -44.5t-43.5 -124.5q0 -86 43.5 -131.5
t120.5 -45.5q51 0 96 23.5t67 63.5v169zM285 757l90 -126v-22h-86l-143 116v20z" />
    <glyph glyph-name="Agrave" unicode="&#xc0;" horiz-adv-x="730" 
d="M728 18l-18 -18h-95l-13 12l-61 142h-362l-59 -140l-12 -14h-94l-17 18l289 670l16 12h125l13 -10zM499 253l-129 324h-19l-131 -323zM316 918l90 -126v-22h-86l-143 116v20z" />
    <glyph glyph-name="Aacute" unicode="&#xc1;" horiz-adv-x="730" 
d="M728 18l-18 -18h-95l-13 12l-61 142h-362l-59 -140l-12 -14h-94l-17 18l289 670l16 12h125l13 -10zM499 253l-129 324h-19l-131 -323zM557 908v-20l-143 -116h-86v22l90 126z" />
    <glyph glyph-name="acircumflex" unicode="&#xe2;" horiz-adv-x="670" 
d="M600 514v-496l-18 -18h-80l-17 18v51q-29 -35 -75 -54.5t-103 -19.5q-123 0 -193.5 70.5t-70.5 203.5q0 127 70 197.5t194 70.5q55 0 102 -19.5t76 -54.5v51l17 18h80zM485 349q-22 41 -67.5 65.5t-95.5 24.5q-77 0 -120.5 -44.5t-43.5 -124.5q0 -86 43.5 -131.5
t120.5 -45.5q51 0 96 23.5t67 63.5v169zM484 614h-93l-59 85h-5l-60 -85h-92v23l101 118h106l102 -118v-23z" />
    <glyph glyph-name="Acircumflex" unicode="&#xc2;" horiz-adv-x="733" 
d="M728 18l-18 -18h-95l-13 12l-61 142h-362l-59 -140l-12 -14h-94l-17 18l289 670l16 12h125l13 -10zM499 253l-129 324h-19l-131 -323zM514 776h-93l-59 85h-5l-60 -85h-92v23l101 118h106l102 -118v-23z" />
    <glyph glyph-name="atilde" unicode="&#xe3;" horiz-adv-x="670" 
d="M600 514v-496l-18 -18h-80l-17 18v51q-29 -35 -75 -54.5t-103 -19.5q-123 0 -193.5 70.5t-70.5 203.5q0 127 70 197.5t194 70.5q55 0 102 -19.5t76 -54.5v51l17 18h80zM485 349q-22 41 -67.5 65.5t-95.5 24.5q-77 0 -120.5 -44.5t-43.5 -124.5q0 -86 43.5 -131.5
t120.5 -45.5q51 0 96 23.5t67 63.5v169zM502 735q-4 -115 -90 -115q-24 0 -44 8.5t-37 18.5t-32 18.5t-29 8.5q-30 0 -36 -31l-16 -16h-43l-17 16q2 60 24.5 87.5t66.5 27.5q22 0 42 -8.5t37.5 -18t33 -18t30.5 -8.5t23.5 7t11.5 24l16 16h43z" />
    <glyph glyph-name="Atilde" unicode="&#xc3;" horiz-adv-x="730" 
d="M728 18l-18 -18h-95l-13 12l-61 142h-362l-59 -140l-12 -14h-94l-17 18l289 670l16 12h125l13 -10zM499 253l-129 324h-19l-131 -323zM531 889q-4 -115 -90 -115q-24 0 -44 8.5t-37 18.5t-32 18.5t-29 8.5q-30 0 -36 -31l-16 -16h-43l-17 16q2 60 24.5 87.5t66.5 27.5
q22 0 42 -8.5t37.5 -18t33 -18t30.5 -8.5t23.5 7t11.5 24l16 16h43z" />
    <glyph glyph-name="aacute" unicode="&#xe1;" horiz-adv-x="673" 
d="M600 514v-496l-18 -18h-80l-17 18v51q-29 -35 -75 -54.5t-103 -19.5q-123 0 -193.5 70.5t-70.5 203.5q0 127 70 197.5t194 70.5q55 0 102 -19.5t76 -54.5v51l17 18h80zM485 349q-22 41 -67.5 65.5t-95.5 24.5q-77 0 -120.5 -44.5t-43.5 -124.5q0 -86 43.5 -131.5
t120.5 -45.5q51 0 96 23.5t67 63.5v169zM526 745v-20l-143 -116h-86v22l90 126z" />
    <glyph glyph-name="Adieresis" unicode="&#xc4;" horiz-adv-x="735" 
d="M728 18l-18 -18h-95l-13 12l-61 142h-362l-59 -140l-12 -14h-94l-17 18l289 670l16 12h125l13 -10zM499 253l-129 324h-19l-131 -323zM273 773q-26 0 -43.5 18t-17.5 45q0 28 17.5 46t43.5 18t43 -18t17 -46q0 -27 -17 -45t-43 -18zM450 773q-26 0 -43.5 18t-17.5 45
q0 28 17.5 46t43.5 18t43 -18t17 -46q0 -27 -17 -45t-43 -18z" />
    <glyph glyph-name="adieresis" unicode="&#xe4;" horiz-adv-x="671" 
d="M600 514v-496l-18 -18h-80l-17 18v51q-29 -35 -75 -54.5t-103 -19.5q-123 0 -193.5 70.5t-70.5 203.5q0 127 70 197.5t194 70.5q55 0 102 -19.5t76 -54.5v51l17 18h80zM485 349q-22 41 -67.5 65.5t-95.5 24.5q-77 0 -120.5 -44.5t-43.5 -124.5q0 -86 43.5 -131.5
t120.5 -45.5q51 0 96 23.5t67 63.5v169zM244 621q-26 0 -43.5 18t-17.5 45q0 28 17.5 46t43.5 18t43 -18t17 -46q0 -27 -17 -45t-43 -18zM421 621q-26 0 -43.5 18t-17.5 45q0 28 17.5 46t43.5 18t43 -18t17 -46q0 -27 -17 -45t-43 -18z" />
    <glyph glyph-name="Egrave" unicode="&#xc8;" horiz-adv-x="628" 
d="M210 594v-189h234l17 -18v-68l-17 -17h-234v-196h364l18 -18v-71l-18 -17h-465l-17 17v665l17 18h465l18 -18v-71l-18 -17h-364zM295 924l90 -126v-22h-86l-143 116v20z" />
    <glyph glyph-name="Eacute" unicode="&#xc9;" horiz-adv-x="630" 
d="M210 594v-189h234l17 -18v-68l-17 -17h-234v-196h364l18 -18v-71l-18 -17h-465l-17 17v665l17 18h465l18 -18v-71l-18 -17h-364zM534 907v-20l-143 -116h-86v22l90 126z" />
    <glyph glyph-name="Ecircumflex" unicode="&#xca;" horiz-adv-x="628" 
d="M210 594v-189h234l17 -18v-68l-17 -17h-234v-196h364l18 -18v-71l-18 -17h-465l-17 17v665l17 18h465l18 -18v-71l-18 -17h-364zM495 769h-93l-59 85h-5l-60 -85h-92v23l101 118h106l102 -118v-23z" />
    <glyph glyph-name="Edieresis" unicode="&#xcb;" horiz-adv-x="628" 
d="M210 594v-189h234l17 -18v-68l-17 -17h-234v-196h364l18 -18v-71l-18 -17h-465l-17 17v665l17 18h465l18 -18v-71l-18 -17h-364zM260 768q-26 0 -43.5 18t-17.5 45q0 28 17.5 46t43.5 18t43 -18t17 -46q0 -27 -17 -45t-43 -18zM437 768q-26 0 -43.5 18t-17.5 45
q0 28 17.5 46t43.5 18t43 -18t17 -46q0 -27 -17 -45t-43 -18z" />
    <glyph glyph-name="egrave" unicode="&#xe8;" horiz-adv-x="590" 
d="M515 28q-40 -14 -89.5 -23t-101.5 -9q-135 0 -207 70t-72 199q0 59 19.5 108.5t56 85.5t88 56.5t115.5 20.5q70 0 118 -21t75.5 -59.5t35 -94t-4.5 -124.5l-18 -12h-370q0 -63 41 -98t125 -35q45 0 94.5 9t97.5 28l16 -11l-6 -71zM326 443q-74 0 -116 -36t-50 -103h289
q5 29 0 54.5t-20 44t-41 29.5t-62 11zM267 757l90 -126v-22h-86l-143 116v20z" />
    <glyph glyph-name="eacute" unicode="&#xe9;" horiz-adv-x="593" 
d="M515 28q-40 -14 -89.5 -23t-101.5 -9q-135 0 -207 70t-72 199q0 59 19.5 108.5t56 85.5t88 56.5t115.5 20.5q70 0 118 -21t75.5 -59.5t35 -94t-4.5 -124.5l-18 -12h-370q0 -63 41 -98t125 -35q45 0 94.5 9t97.5 28l16 -11l-6 -71zM326 443q-74 0 -116 -36t-50 -103h289
q5 29 0 54.5t-20 44t-41 29.5t-62 11zM510 745v-20l-143 -116h-86v22l90 126z" />
    <glyph glyph-name="ecircumflex" unicode="&#xea;" horiz-adv-x="595" 
d="M515 28q-40 -14 -89.5 -23t-101.5 -9q-135 0 -207 70t-72 199q0 59 19.5 108.5t56 85.5t88 56.5t115.5 20.5q70 0 118 -21t75.5 -59.5t35 -94t-4.5 -124.5l-18 -12h-370q0 -63 41 -98t125 -35q45 0 94.5 9t97.5 28l16 -11l-6 -71zM326 443q-74 0 -116 -36t-50 -103h289
q5 29 0 54.5t-20 44t-41 29.5t-62 11zM471 609h-93l-59 85h-5l-60 -85h-92v23l101 118h106l102 -118v-23z" />
    <glyph glyph-name="edieresis" unicode="&#xeb;" horiz-adv-x="593" 
d="M515 28q-40 -14 -89.5 -23t-101.5 -9q-135 0 -207 70t-72 199q0 59 19.5 108.5t56 85.5t88 56.5t115.5 20.5q70 0 118 -21t75.5 -59.5t35 -94t-4.5 -124.5l-18 -12h-370q0 -63 41 -98t125 -35q45 0 94.5 9t97.5 28l16 -11l-6 -71zM326 443q-74 0 -116 -36t-50 -103h289
q5 29 0 54.5t-20 44t-41 29.5t-62 11zM226 621q-26 0 -43.5 18t-17.5 45q0 28 17.5 46t43.5 18t43 -18t17 -46q0 -27 -17 -45t-43 -18zM403 621q-26 0 -43.5 18t-17.5 45q0 28 17.5 46t43.5 18t43 -18t17 -46q0 -27 -17 -45t-43 -18z" />
    <glyph glyph-name="Ntilde" unicode="&#xd1;" horiz-adv-x="785" 
d="M702 682v-665l-18 -17h-146l-320 538h-7v-521l-18 -17h-82l-18 17v665l18 18h140l324 -534h9v516l18 18h82zM563 883q-4 -115 -90 -115q-24 0 -44 8.5t-37 18.5t-32 18.5t-29 8.5q-30 0 -36 -31l-16 -16h-43l-17 16q2 60 24.5 87.5t66.5 27.5q22 0 42 -8.5t37.5 -18
t33 -18t30.5 -8.5t23.5 7t11.5 24l16 16h43z" />
    <glyph glyph-name="ntilde" unicode="&#xf1;" horiz-adv-x="660" 
d="M390 536q94 0 146 -54.5t52 -150.5v-313l-17 -18h-80l-18 18v293q0 60 -32.5 94.5t-95.5 34.5q-42 0 -83 -15t-68 -39v-368l-17 -18h-80l-18 18v497l18 17h80l17 -17v-56q35 38 85.5 57.5t110.5 19.5zM495 734q-4 -115 -90 -115q-24 0 -44 8.5t-37 18.5t-32 18.5t-29 8.5
q-30 0 -36 -31l-16 -16h-43l-17 16q2 60 24.5 87.5t66.5 27.5q22 0 42 -8.5t37.5 -18t33 -18t30.5 -8.5t23.5 7t11.5 24l16 16h43z" />
    <glyph glyph-name="Ograve" unicode="&#xd2;" horiz-adv-x="803" 
d="M405 703q78 0 146 -27t118 -74.5t78.5 -112t28.5 -139.5t-28.5 -140t-78.5 -112.5t-118 -75t-146 -27.5t-146 27.5t-118 75t-78.5 112.5t-28.5 140t28.5 140t78.5 112t118 74t146 27zM406 597q-52 0 -97.5 -19t-80 -52.5t-54.5 -78.5t-20 -97t20 -97.5t54.5 -79t80.5 -53
t97 -19.5t96.5 19.5t79.5 53t53.5 79t19.5 97.5t-19.5 97t-53.5 78.5t-79.5 52.5t-96.5 19zM371 920l90 -126v-22h-86l-143 116v20z" />
    <glyph glyph-name="Oacute" unicode="&#xd3;" horiz-adv-x="810" 
d="M405 703q78 0 146 -27t118 -74.5t78.5 -112t28.5 -139.5t-28.5 -140t-78.5 -112.5t-118 -75t-146 -27.5t-146 27.5t-118 75t-78.5 112.5t-28.5 140t28.5 140t78.5 112t118 74t146 27zM406 597q-52 0 -97.5 -19t-80 -52.5t-54.5 -78.5t-20 -97t20 -97.5t54.5 -79t80.5 -53
t97 -19.5t96.5 19.5t79.5 53t53.5 79t19.5 97.5t-19.5 97t-53.5 78.5t-79.5 52.5t-96.5 19zM586 907v-20l-143 -116h-86v22l90 126z" />
    <glyph glyph-name="Ocircumflex" unicode="&#xd4;" horiz-adv-x="813" 
d="M405 703q78 0 146 -27t118 -74.5t78.5 -112t28.5 -139.5t-28.5 -140t-78.5 -112.5t-118 -75t-146 -27.5t-146 27.5t-118 75t-78.5 112.5t-28.5 140t28.5 140t78.5 112t118 74t146 27zM406 597q-52 0 -97.5 -19t-80 -52.5t-54.5 -78.5t-20 -97t20 -97.5t54.5 -79t80.5 -53
t97 -19.5t96.5 19.5t79.5 53t53.5 79t19.5 97.5t-19.5 97t-53.5 78.5t-79.5 52.5t-96.5 19zM563 772h-93l-59 85h-5l-60 -85h-92v23l101 118h106l102 -118v-23z" />
    <glyph glyph-name="Otilde" unicode="&#xd5;" horiz-adv-x="805" 
d="M405 703q78 0 146 -27t118 -74.5t78.5 -112t28.5 -139.5t-28.5 -140t-78.5 -112.5t-118 -75t-146 -27.5t-146 27.5t-118 75t-78.5 112.5t-28.5 140t28.5 140t78.5 112t118 74t146 27zM406 597q-52 0 -97.5 -19t-80 -52.5t-54.5 -78.5t-20 -97t20 -97.5t54.5 -79t80.5 -53
t97 -19.5t96.5 19.5t79.5 53t53.5 79t19.5 97.5t-19.5 97t-53.5 78.5t-79.5 52.5t-96.5 19zM581 886q-4 -115 -90 -115q-24 0 -44 8.5t-37 18.5t-32 18.5t-29 8.5q-30 0 -36 -31l-16 -16h-43l-17 16q2 60 24.5 87.5t66.5 27.5q22 0 42 -8.5t37.5 -18t33 -18t30.5 -8.5
t23.5 7t11.5 24l16 16h43z" />
    <glyph glyph-name="Odieresis" unicode="&#xd6;" horiz-adv-x="817" 
d="M405 703q78 0 146 -27t118 -74.5t78.5 -112t28.5 -139.5t-28.5 -140t-78.5 -112.5t-118 -75t-146 -27.5t-146 27.5t-118 75t-78.5 112.5t-28.5 140t28.5 140t78.5 112t118 74t146 27zM406 597q-52 0 -97.5 -19t-80 -52.5t-54.5 -78.5t-20 -97t20 -97.5t54.5 -79t80.5 -53
t97 -19.5t96.5 19.5t79.5 53t53.5 79t19.5 97.5t-19.5 97t-53.5 78.5t-79.5 52.5t-96.5 19zM314 763q-26 0 -43.5 18t-17.5 45q0 28 17.5 46t43.5 18t43 -18t17 -46q0 -27 -17 -45t-43 -18zM491 763q-26 0 -43.5 18t-17.5 45q0 28 17.5 46t43.5 18t43 -18t17 -46
q0 -27 -17 -45t-43 -18z" />
    <glyph glyph-name="ograve" unicode="&#xf2;" horiz-adv-x="639" 
d="M322 536q61 0 112 -19.5t88 -55t57 -85.5t20 -110t-20 -109.5t-57 -85.5t-88 -55.5t-112 -19.5q-62 0 -113 19.5t-88 55.5t-57 85.5t-20 109.5t20 110t57 85.5t88 55t113 19.5zM322 437q-36 0 -66 -12.5t-51.5 -35t-33.5 -54.5t-12 -70q0 -39 12 -70.5t33.5 -54.5
t51.5 -35.5t66 -12.5t65.5 12.5t51 35.5t33.5 54.5t12 70.5q0 38 -12 70t-33.5 54.5t-51 35t-65.5 12.5zM285 757l90 -126v-22h-86l-143 116v20z" />
    <glyph glyph-name="oacute" unicode="&#xf3;" horiz-adv-x="641" 
d="M322 536q61 0 112 -19.5t88 -55t57 -85.5t20 -110t-20 -109.5t-57 -85.5t-88 -55.5t-112 -19.5q-62 0 -113 19.5t-88 55.5t-57 85.5t-20 109.5t20 110t57 85.5t88 55t113 19.5zM322 437q-36 0 -66 -12.5t-51.5 -35t-33.5 -54.5t-12 -70q0 -39 12 -70.5t33.5 -54.5
t51.5 -35.5t66 -12.5t65.5 12.5t51 35.5t33.5 54.5t12 70.5q0 38 -12 70t-33.5 54.5t-51 35t-65.5 12.5zM510 745v-20l-143 -116h-86v22l90 126z" />
    <glyph glyph-name="ocircumflex" unicode="&#xf4;" horiz-adv-x="641" 
d="M322 536q61 0 112 -19.5t88 -55t57 -85.5t20 -110t-20 -109.5t-57 -85.5t-88 -55.5t-112 -19.5q-62 0 -113 19.5t-88 55.5t-57 85.5t-20 109.5t20 110t57 85.5t88 55t113 19.5zM322 437q-36 0 -66 -12.5t-51.5 -35t-33.5 -54.5t-12 -70q0 -39 12 -70.5t33.5 -54.5
t51.5 -35.5t66 -12.5t65.5 12.5t51 35.5t33.5 54.5t12 70.5q0 38 -12 70t-33.5 54.5t-51 35t-65.5 12.5zM479 614h-93l-59 85h-5l-60 -85h-92v23l101 118h106l102 -118v-23z" />
    <glyph glyph-name="otilde" unicode="&#xf5;" horiz-adv-x="641" 
d="M322 536q61 0 112 -19.5t88 -55t57 -85.5t20 -110t-20 -109.5t-57 -85.5t-88 -55.5t-112 -19.5q-62 0 -113 19.5t-88 55.5t-57 85.5t-20 109.5t20 110t57 85.5t88 55t113 19.5zM322 437q-36 0 -66 -12.5t-51.5 -35t-33.5 -54.5t-12 -70q0 -39 12 -70.5t33.5 -54.5
t51.5 -35.5t66 -12.5t65.5 12.5t51 35.5t33.5 54.5t12 70.5q0 38 -12 70t-33.5 54.5t-51 35t-65.5 12.5zM493 717q-4 -115 -90 -115q-24 0 -44 8.5t-37 18.5t-32 18.5t-29 8.5q-30 0 -36 -31l-16 -16h-43l-17 16q2 60 24.5 87.5t66.5 27.5q22 0 42 -8.5t37.5 -18t33 -18
t30.5 -8.5t23.5 7t11.5 24l16 16h43z" />
    <glyph glyph-name="odieresis" unicode="&#xf6;" horiz-adv-x="638" 
d="M322 536q61 0 112 -19.5t88 -55t57 -85.5t20 -110t-20 -109.5t-57 -85.5t-88 -55.5t-112 -19.5q-62 0 -113 19.5t-88 55.5t-57 85.5t-20 109.5t20 110t57 85.5t88 55t113 19.5zM322 437q-36 0 -66 -12.5t-51.5 -35t-33.5 -54.5t-12 -70q0 -39 12 -70.5t33.5 -54.5
t51.5 -35.5t66 -12.5t65.5 12.5t51 35.5t33.5 54.5t12 70.5q0 38 -12 70t-33.5 54.5t-51 35t-65.5 12.5zM237 621q-26 0 -43.5 18t-17.5 45q0 28 17.5 46t43.5 18t43 -18t17 -46q0 -27 -17 -45t-43 -18zM414 621q-26 0 -43.5 18t-17.5 45q0 28 17.5 46t43.5 18t43 -18
t17 -46q0 -27 -17 -45t-43 -18z" />
    <glyph glyph-name="Ugrave" unicode="&#xd9;" horiz-adv-x="760" 
d="M687 683v-393q0 -69 -21 -123.5t-60 -92.5t-95.5 -58.5t-127.5 -20.5t-127.5 20.5t-96 58.5t-60.5 92.5t-21 123.5v393l17 17h83l18 -17v-393q0 -89 50.5 -139t137.5 -50q86 0 135.5 49.5t49.5 139.5v393l17 17h83zM343 925l90 -126v-22h-86l-143 116v20z" />
    <glyph glyph-name="Uacute" unicode="&#xda;" horiz-adv-x="766" 
d="M687 683v-393q0 -69 -21 -123.5t-60 -92.5t-95.5 -58.5t-127.5 -20.5t-127.5 20.5t-96 58.5t-60.5 92.5t-21 123.5v393l17 17h83l18 -17v-393q0 -89 50.5 -139t137.5 -50q86 0 135.5 49.5t49.5 139.5v393l17 17h83zM557 910v-20l-143 -116h-86v22l90 126z" />
    <glyph glyph-name="Ucircumflex" unicode="&#xdb;" horiz-adv-x="757" 
d="M687 683v-393q0 -69 -21 -123.5t-60 -92.5t-95.5 -58.5t-127.5 -20.5t-127.5 20.5t-96 58.5t-60.5 92.5t-21 123.5v393l17 17h83l18 -17v-393q0 -89 50.5 -139t137.5 -50q86 0 135.5 49.5t49.5 139.5v393l17 17h83zM529 773h-93l-59 85h-5l-60 -85h-92v23l101 118h106
l102 -118v-23z" />
    <glyph glyph-name="Udieresis" unicode="&#xdc;" horiz-adv-x="760" 
d="M687 683v-393q0 -69 -21 -123.5t-60 -92.5t-95.5 -58.5t-127.5 -20.5t-127.5 20.5t-96 58.5t-60.5 92.5t-21 123.5v393l17 17h83l18 -17v-393q0 -89 50.5 -139t137.5 -50q86 0 135.5 49.5t49.5 139.5v393l17 17h83zM295 757q-26 0 -43.5 18t-17.5 45q0 28 17.5 46
t43.5 18t43 -18t17 -46q0 -27 -17 -45t-43 -18zM472 757q-26 0 -43.5 18t-17.5 45q0 28 17.5 46t43.5 18t43 -18t17 -46q0 -27 -17 -45t-43 -18z" />
    <glyph glyph-name="Yacute" unicode="&#xdd;" horiz-adv-x="613" 
d="M604 682l-237 -449v-216l-18 -17h-81l-18 17v212l-243 453l18 18h89l18 -10l172 -357h8l174 357l19 10h81zM495 905v-20l-143 -116h-86v22l90 126z" />
    <glyph glyph-name="ugrave" unicode="&#xf9;" horiz-adv-x="648" 
d="M266 -4q-94 0 -146 54.5t-52 150.5v314l18 17h80l17 -17v-294q0 -60 33 -94.5t95 -34.5q41 0 83 15.5t68 38.5v369l18 17h80l17 -17v-497l-17 -18h-80l-18 18v55q-35 -37 -85 -57t-111 -20zM278 754l90 -126v-22h-86l-143 116v20z" />
    <glyph glyph-name="uacute" unicode="&#xfa;" horiz-adv-x="648" 
d="M266 -4q-94 0 -146 54.5t-52 150.5v314l18 17h80l17 -17v-294q0 -60 33 -94.5t95 -34.5q41 0 83 15.5t68 38.5v369l18 17h80l17 -17v-497l-17 -18h-80l-18 18v55q-35 -37 -85 -57t-111 -20zM507 745v-20l-143 -116h-86v22l90 126z" />
    <glyph glyph-name="ucircumflex" unicode="&#xfb;" horiz-adv-x="647" 
d="M266 -4q-94 0 -146 54.5t-52 150.5v314l18 17h80l17 -17v-294q0 -60 33 -94.5t95 -34.5q41 0 83 15.5t68 38.5v369l18 17h80l17 -17v-497l-17 -18h-80l-18 18v55q-35 -37 -85 -57t-111 -20zM474 603h-93l-59 85h-5l-60 -85h-92v23l101 118h106l102 -118v-23z" />
    <glyph glyph-name="udieresis" unicode="&#xfc;" horiz-adv-x="648" 
d="M266 -4q-94 0 -146 54.5t-52 150.5v314l18 17h80l17 -17v-294q0 -60 33 -94.5t95 -34.5q41 0 83 15.5t68 38.5v369l18 17h80l17 -17v-497l-17 -18h-80l-18 18v55q-35 -37 -85 -57t-111 -20zM234 621q-26 0 -43.5 18t-17.5 45q0 28 17.5 46t43.5 18t43 -18t17 -46
q0 -27 -17 -45t-43 -18zM411 621q-26 0 -43.5 18t-17.5 45q0 28 17.5 46t43.5 18t43 -18t17 -46q0 -27 -17 -45t-43 -18z" />
    <glyph glyph-name="yacute" unicode="&#xfd;" horiz-adv-x="636" 
d="M570 515v-452q0 -63 -19.5 -111.5t-55.5 -81.5t-87 -49.5t-114 -16.5t-117.5 12.5t-97.5 38.5l-15 19v74l17 13q44 -29 100.5 -45.5t107.5 -16.5q38 0 68.5 8.5t52.5 28t33.5 51t11.5 76.5v70q-35 -38 -85 -58t-111 -20q-94 0 -146 54.5t-52 150.5v255l18 17h80l17 -17
v-234q0 -60 33 -94.5t95 -34.5q41 0 83 15t68 38v310l18 17h80zM502 745v-20l-143 -116h-86v22l90 126z" />
    <glyph glyph-name="Igrave" unicode="&#xcc;" horiz-adv-x="290" 
d="M210 682v-665l-18 -17h-83l-17 17v665l17 18h83zM104 919l90 -126v-22h-86l-143 116v20z" />
    <glyph glyph-name="Iacute" unicode="&#xcd;" horiz-adv-x="303" 
d="M210 682v-665l-18 -17h-83l-17 17v665l17 18h83zM331 908v-20l-143 -116h-86v22l90 126z" />
    <glyph glyph-name="Icircumflex" unicode="&#xce;" horiz-adv-x="304" 
d="M210 682v-665l-18 -17h-83l-17 17v665l17 18h83zM306 770h-93l-59 85h-5l-60 -85h-92v23l101 118h106l102 -118v-23z" />
    <glyph glyph-name="Idieresis" unicode="&#xcf;" horiz-adv-x="299" 
d="M210 682v-665l-18 -17h-83l-17 17v665l17 18h83zM62 791q-26 0 -43.5 18t-17.5 45q0 28 17.5 46t43.5 18t43 -18t17 -46q0 -27 -17 -45t-43 -18zM239 791q-26 0 -43.5 18t-17.5 45q0 28 17.5 46t43.5 18t43 -18t17 -46q0 -27 -17 -45t-43 -18z" />
    <glyph glyph-name="igrave" unicode="&#xec;" horiz-adv-x="283" 
d="M182 532l18 -17v-497l-18 -18h-80l-17 18v497l17 17h80zM93 757l90 -126v-22h-86l-143 116v20z" />
    <glyph glyph-name="iacute" unicode="&#xed;" horiz-adv-x="281" 
d="M182 532l18 -17v-497l-18 -18h-80l-17 18v497l17 17h80zM329 745v-20l-143 -116h-86v22l90 126z" />
    <glyph glyph-name="icircumflex" unicode="&#xee;" horiz-adv-x="275" 
d="M182 532l18 -17v-497l-18 -18h-80l-17 18v497l17 17h80zM298 614h-93l-59 85h-5l-60 -85h-92v23l101 118h106l102 -118v-23z" />
    <glyph glyph-name="idieresis" unicode="&#xef;" horiz-adv-x="283" 
d="M182 532l18 -17v-497l-18 -18h-80l-17 18v497l17 17h80zM56 621q-26 0 -43.5 18t-17.5 45q0 28 17.5 46t43.5 18t43 -18t17 -46q0 -27 -17 -45t-43 -18zM233 621q-26 0 -43.5 18t-17.5 45q0 28 17.5 46t43.5 18t43 -18t17 -46q0 -27 -17 -45t-43 -18z" />
    <glyph glyph-name="abreve" unicode="&#x103;" horiz-adv-x="673" 
d="M600 514v-496l-18 -18h-80l-17 18v51q-29 -35 -75 -54.5t-103 -19.5q-123 0 -193.5 70.5t-70.5 203.5q0 127 70 197.5t194 70.5q55 0 102 -19.5t76 -54.5v51l17 18h80zM485 349q-22 41 -67.5 65.5t-95.5 24.5q-77 0 -120.5 -44.5t-43.5 -124.5q0 -86 43.5 -131.5
t120.5 -45.5q51 0 96 23.5t67 63.5v169zM466 764q-8 -57 -46 -90.5t-94 -33.5t-93.5 33.5t-45.5 90.5l18 18h44l17 -18q6 -21 22 -34t38 -13t38 13t22 34l18 18h44z" />
    <glyph glyph-name="Abreve" unicode="&#x102;" horiz-adv-x="730" 
d="M728 18l-18 -18h-95l-13 12l-61 142h-362l-59 -140l-12 -14h-94l-17 18l289 670l16 12h125l13 -10zM499 253l-129 324h-19l-131 -323zM500 902q-8 -57 -46 -90.5t-94 -33.5t-93.5 33.5t-45.5 90.5l18 18h44l17 -18q6 -21 22 -34t38 -13t38 13t22 34l18 18h44z" />
    <glyph glyph-name="Sacute" unicode="&#x15a;" horiz-adv-x="611" 
d="M310 705q53 0 95 -6t71 -13q34 -8 61 -18l13 -21l-9 -75l-22 -12q-25 11 -57 20q-27 8 -63 14t-78 6q-62 0 -95 -22t-33 -57q0 -38 28 -59.5t70 -36.5t91 -28.5t91 -36.5t69.5 -61t27.5 -101q0 -47 -19 -84.5t-53.5 -63.5t-83 -40t-106.5 -14q-55 0 -98 5.5t-74 12.5
q-36 8 -63 19l-12 21l9 75l21 13q49 -18 99 -29.5t116 -11.5q62 0 97.5 25t35.5 66q0 39 -28 60.5t-70 36t-91 27.5t-91 35.5t-70 59.5t-28 99q0 90 66 142.5t183 52.5zM500 914v-20l-143 -116h-86v22l90 126z" />
    <glyph glyph-name="Tcaron" unicode="&#x164;" horiz-adv-x="571" 
d="M563 682v-71l-18 -18h-204l-1 -576l-17 -17h-83l-17 17v576h-204l-17 18v71l17 18h526zM131 911h92l60 -85h5l59 85h93v-23l-102 -118h-106l-101 118v23z" />
    <glyph glyph-name="Zacute" unicode="&#x179;" horiz-adv-x="671" 
d="M628 88v-71l-18 -17h-555l-18 17v68l423 509h-396l-18 17v71l18 18h537l18 -18v-67l-422 -509h413zM523 914v-20l-143 -116h-86v22l90 126z" />
    <glyph glyph-name="sacute" unicode="&#x15b;" horiz-adv-x="456" 
d="M149 392q0 -25 21 -38.5t52 -24.5t68 -22.5t68 -30.5t52 -50t21 -80q0 -41 -16 -69.5t-44.5 -46.5t-67.5 -26t-85 -8q-37 0 -67 3.5t-52 8.5q-26 5 -46 12l-13 22l7 63l22 12q22 -9 47 -15q21 -5 47.5 -9.5t54.5 -4.5q48 0 74.5 14t26.5 41t-20.5 42.5t-52 27t-67.5 22.5
t-67 29.5t-51.5 48t-20.5 77.5q0 40 16.5 68.5t43.5 45.5t62.5 25t73.5 8q33 0 63 -4t53 -9q26 -6 49 -13l13 -21l-8 -63l-21 -12q-23 8 -48 14q-21 5 -46.5 10t-51.5 5q-48 0 -69 -11.5t-21 -40.5zM415 745v-20l-143 -116h-86v22l90 126z" />
    <glyph glyph-name="zacute" unicode="&#x17a;" horiz-adv-x="536" 
d="M482 92l18 -17v-58l-18 -17h-419l-18 17v61l303 361h-277l-18 17v59l18 17h401l18 -17v-60l-303 -363h295zM466 745v-20l-143 -116h-86v22l90 126z" />
    <glyph glyph-name="Zdotaccent" unicode="&#x17b;" horiz-adv-x="663" 
d="M628 88v-71l-18 -17h-555l-18 17v68l423 509h-396l-18 17v71l18 18h537l18 -18v-67l-422 -509h413zM331 932q29 0 48 -19.5t19 -50.5q0 -30 -19 -49.5t-48 -19.5t-48 19.5t-19 49.5q0 31 19 50.5t48 19.5z" />
    <glyph glyph-name="zdotaccent" unicode="&#x17c;" horiz-adv-x="539" 
d="M482 92l18 -17v-58l-18 -17h-419l-18 17v61l303 361h-277l-18 17v59l18 17h401l18 -17v-60l-303 -363h295zM267 754q29 0 48 -19.5t19 -50.5q0 -30 -19 -49.5t-48 -19.5t-48 19.5t-19 49.5q0 31 19 50.5t48 19.5z" />
    <glyph glyph-name="Racute" unicode="&#x154;" horiz-adv-x="700" 
d="M650 461q0 -85 -37.5 -142.5t-107.5 -84.5l161 -216l-18 -18h-115l-150 212q-8 -1 -16 -1h-16h-149v-193l-18 -18h-82l-18 18v664l18 18h266q135 0 208.5 -62t73.5 -177zM368 317q81 0 125.5 34.5t44.5 106.5q0 69 -44.5 102.5t-125.5 33.5h-166v-277h166zM509 916v-20
l-143 -116h-86v22l90 126z" />
    <glyph glyph-name="Lacute" unicode="&#x139;" horiz-adv-x="523" 
d="M501 89v-72l-18 -17h-386l-17 17v665l17 18h83l18 -18v-575h285zM325 928v-20l-143 -116h-86v22l90 126z" />
    <glyph glyph-name="Cacute" unicode="&#x106;" horiz-adv-x="683" 
d="M647 126l9 -75l-13 -21q-57 -20 -112.5 -28.5t-112.5 -8.5q-80 0 -148.5 25.5t-118.5 72t-79 111.5t-29 144v4q0 78 29 143t79 111.5t118.5 72.5t148.5 26q114 0 225 -37l13 -22l-9 -74l-22 -13q-48 18 -95 29.5t-112 11.5q-54 0 -100.5 -17.5t-81 -49.5t-54 -78
t-19.5 -103v-4q0 -57 19.5 -103t54 -78t81 -49.5t100.5 -17.5q65 0 112 11.5t95 28.5zM592 911v-20l-143 -116h-86v22l90 126z" />
    <glyph glyph-name="racute" unicode="&#x155;" horiz-adv-x="397" 
d="M366 425q-45 0 -89.5 -11.5t-76.5 -34.5v-361l-18 -18h-79l-18 18v497l18 17h79l18 -17v-56q25 27 69 50.5t97 27.5l18 -18v-77zM415 745v-20l-143 -116h-86v22l90 126z" />
    <glyph glyph-name="lacute" unicode="&#x13a;" horiz-adv-x="344" 
d="M205 724l-1 -566q0 -38 16 -55t41 -17q12 0 22 1.5t19 3.5l17 -17v-59l-15 -20q-23 -5 -62 -5q-74 0 -113 39t-39 129v566l17 17h80zM341 947v-20l-143 -116h-86v22l90 126z" />
    <glyph glyph-name="cacute" unicode="&#x107;" horiz-adv-x="603" 
d="M340 92q56 0 108 10t92 26l16 -10l-5 -73l-14 -18q-39 -15 -90.5 -23t-106.5 -8q-67 0 -120 19t-90 54t-56.5 84.5t-19.5 111.5q0 58 19.5 108t56 86t88 56.5t115.5 20.5q54 0 97 -13.5t73 -38.5t45.5 -60.5t15.5 -78.5l-18 -18h-79l-18 18q0 43 -30 68t-84 25
q-74 0 -120 -42.5t-46 -123.5v-6q0 -45 12.5 -78t35 -54.5t54 -31.5t69.5 -10zM519 745v-20l-143 -116h-86v22l90 126z" />
    <glyph glyph-name="Ccaron" unicode="&#x10c;" horiz-adv-x="697" 
d="M647 126l9 -75l-13 -21q-57 -20 -112.5 -28.5t-112.5 -8.5q-80 0 -148.5 25.5t-118.5 72t-79 111.5t-29 144v4q0 78 29 143t79 111.5t118.5 72.5t148.5 26q114 0 225 -37l13 -22l-9 -74l-22 -13q-48 18 -95 29.5t-112 11.5q-54 0 -100.5 -17.5t-81 -49.5t-54 -78
t-19.5 -103v-4q0 -57 19.5 -103t54 -78t81 -49.5t100.5 -17.5q65 0 112 11.5t95 28.5zM257 915h92l60 -85h5l59 85h93v-23l-102 -118h-106l-101 118v23z" />
    <glyph glyph-name="Ecaron" unicode="&#x11a;" horiz-adv-x="627" 
d="M210 594v-189h234l17 -18v-68l-17 -17h-234v-196h364l18 -18v-71l-18 -17h-465l-17 17v665l17 18h465l18 -18v-71l-18 -17h-364zM191 912h92l60 -85h5l59 85h93v-23l-102 -118h-106l-101 118v23z" />
    <glyph glyph-name="ccaron" unicode="&#x10d;" horiz-adv-x="589" 
d="M340 92q56 0 108 10t92 26l16 -10l-5 -73l-14 -18q-39 -15 -90.5 -23t-106.5 -8q-67 0 -120 19t-90 54t-56.5 84.5t-19.5 111.5q0 58 19.5 108t56 86t88 56.5t115.5 20.5q54 0 97 -13.5t73 -38.5t45.5 -60.5t15.5 -78.5l-18 -18h-79l-18 18q0 43 -30 68t-84 25
q-74 0 -120 -42.5t-46 -123.5v-6q0 -45 12.5 -78t35 -54.5t54 -31.5t69.5 -10zM177 746h92l60 -85h5l59 85h93v-23l-102 -118h-106l-101 118v23z" />
    <glyph glyph-name="ecaron" unicode="&#x11b;" horiz-adv-x="593" 
d="M515 28q-40 -14 -89.5 -23t-101.5 -9q-135 0 -207 70t-72 199q0 59 19.5 108.5t56 85.5t88 56.5t115.5 20.5q70 0 118 -21t75.5 -59.5t35 -94t-4.5 -124.5l-18 -12h-370q0 -63 41 -98t125 -35q45 0 94.5 9t97.5 28l16 -11l-6 -71zM326 443q-74 0 -116 -36t-50 -103h289
q5 29 0 54.5t-20 44t-41 29.5t-62 11zM149 746h92l60 -85h5l59 85h93v-23l-102 -118h-106l-101 118v23z" />
    <glyph glyph-name="Dcaron" unicode="&#x10e;" horiz-adv-x="764" 
d="M362 700q79 0 145.5 -26t114.5 -72.5t75 -111t27 -140.5t-27 -140t-76 -110.5t-116 -73t-146 -26.5h-266l-18 17v665l18 18h269zM365 106q51 0 95 17t76 48.5t50.5 76.5t18.5 101q0 54 -18 99t-50.5 77.5t-77.5 50.5t-99 18h-167v-488h172zM184 915h92l60 -85h5l59 85h93
v-23l-102 -118h-106l-101 118v23z" />
    <glyph glyph-name="Nacute" unicode="&#x143;" horiz-adv-x="787" 
d="M702 682v-665l-18 -17h-146l-320 538h-7v-521l-18 -17h-82l-18 17v665l18 18h140l324 -534h9v516l18 18h82zM588 908v-20l-143 -116h-86v22l90 126z" />
    <glyph glyph-name="Ncaron" unicode="&#x147;" horiz-adv-x="785" 
d="M702 682v-665l-18 -17h-146l-320 538h-7v-521l-18 -17h-82l-18 17v665l18 18h140l324 -534h9v516l18 18h82zM250 913h92l60 -85h5l59 85h93v-23l-102 -118h-106l-101 118v23z" />
    <glyph glyph-name="nacute" unicode="&#x144;" horiz-adv-x="657" 
d="M390 536q94 0 146 -54.5t52 -150.5v-313l-17 -18h-80l-18 18v293q0 60 -32.5 94.5t-95.5 34.5q-42 0 -83 -15t-68 -39v-368l-17 -18h-80l-18 18v497l18 17h80l17 -17v-56q35 38 85.5 57.5t110.5 19.5zM520 745v-20l-143 -116h-86v22l90 126z" />
    <glyph glyph-name="ncaron" unicode="&#x148;" horiz-adv-x="655" 
d="M390 536q94 0 146 -54.5t52 -150.5v-313l-17 -18h-80l-18 18v293q0 60 -32.5 94.5t-95.5 34.5q-42 0 -83 -15t-68 -39v-368l-17 -18h-80l-18 18v497l18 17h80l17 -17v-56q35 38 85.5 57.5t110.5 19.5zM182 746h92l60 -85h5l59 85h93v-23l-102 -118h-106l-101 118v23z" />
    <glyph glyph-name="Ohungarumlaut" unicode="&#x150;" horiz-adv-x="813" 
d="M405 703q78 0 146 -27t118 -74.5t78.5 -112t28.5 -139.5t-28.5 -140t-78.5 -112.5t-118 -75t-146 -27.5t-146 27.5t-118 75t-78.5 112.5t-28.5 140t28.5 140t78.5 112t118 74t146 27zM406 597q-52 0 -97.5 -19t-80 -52.5t-54.5 -78.5t-20 -97t20 -97.5t54.5 -79t80.5 -53
t97 -19.5t96.5 19.5t79.5 53t53.5 79t19.5 97.5t-19.5 97t-53.5 78.5t-79.5 52.5t-96.5 19zM482 888l-143 -116h-86v22l90 126l139 -12v-20zM680 908v-20l-143 -116h-86v22l90 126z" />
    <glyph glyph-name="ohungarumlaut" unicode="&#x151;" horiz-adv-x="634" 
d="M322 536q61 0 112 -19.5t88 -55t57 -85.5t20 -110t-20 -109.5t-57 -85.5t-88 -55.5t-112 -19.5q-62 0 -113 19.5t-88 55.5t-57 85.5t-20 109.5t20 110t57 85.5t88 55t113 19.5zM322 437q-36 0 -66 -12.5t-51.5 -35t-33.5 -54.5t-12 -70q0 -39 12 -70.5t33.5 -54.5
t51.5 -35.5t66 -12.5t65.5 12.5t51 35.5t33.5 54.5t12 70.5q0 38 -12 70t-33.5 54.5t-51 35t-65.5 12.5zM394 725l-143 -116h-86v22l90 126l139 -12v-20zM592 745v-20l-143 -116h-86v22l90 126z" />
    <glyph glyph-name="Rcaron" unicode="&#x158;" horiz-adv-x="688" 
d="M650 461q0 -85 -37.5 -142.5t-107.5 -84.5l161 -216l-18 -18h-115l-150 212q-8 -1 -16 -1h-16h-149v-193l-18 -18h-82l-18 18v664l18 18h266q135 0 208.5 -62t73.5 -177zM368 317q81 0 125.5 34.5t44.5 106.5q0 69 -44.5 102.5t-125.5 33.5h-166v-277h166zM185 908h92
l60 -85h5l59 85h93v-23l-102 -118h-106l-101 118v23z" />
    <glyph glyph-name="rcaron" unicode="&#x159;" horiz-adv-x="399" 
d="M366 425q-45 0 -89.5 -11.5t-76.5 -34.5v-361l-18 -18h-79l-18 18v497l18 17h79l18 -17v-56q25 27 69 50.5t97 27.5l18 -18v-77zM54 746h92l60 -85h5l59 85h93v-23l-102 -118h-106l-101 118v23z" />
    <glyph glyph-name="Uring" unicode="&#x16e;" horiz-adv-x="758" 
d="M687 683v-393q0 -69 -21 -123.5t-60 -92.5t-95.5 -58.5t-127.5 -20.5t-127.5 20.5t-96 58.5t-60.5 92.5t-21 123.5v393l17 17h83l18 -17v-393q0 -89 50.5 -139t137.5 -50q86 0 135.5 49.5t49.5 139.5v393l17 17h83zM384 985q24 0 45.5 -9.5t37.5 -25t25.5 -36.5t9.5 -45
t-9.5 -45t-25.5 -37t-37.5 -25t-45.5 -9t-45.5 9t-37.5 25t-25.5 37t-9.5 45t9.5 45t25.5 36.5t37.5 25t45.5 9.5zM384 933q-28 0 -48 -19t-20 -45t20 -45t48 -19t48 19t20 45t-20 45t-48 19z" />
    <glyph glyph-name="uring" unicode="&#x16f;" horiz-adv-x="644" 
d="M266 -4q-94 0 -146 54.5t-52 150.5v314l18 17h80l17 -17v-294q0 -60 33 -94.5t95 -34.5q41 0 83 15.5t68 38.5v369l18 17h80l17 -17v-497l-17 -18h-80l-18 18v55q-35 -37 -85 -57t-111 -20zM323 816q24 0 45.5 -9.5t37.5 -25t25.5 -36.5t9.5 -45t-9.5 -45t-25.5 -37
t-37.5 -25t-45.5 -9t-45.5 9t-37.5 25t-25.5 37t-9.5 45t9.5 45t25.5 36.5t37.5 25t45.5 9.5zM323 764q-28 0 -48 -19t-20 -45t20 -45t48 -19t48 19t20 45t-20 45t-48 19z" />
    <glyph glyph-name="Uhungarumlaut" unicode="&#x170;" horiz-adv-x="762" 
d="M687 683v-393q0 -69 -21 -123.5t-60 -92.5t-95.5 -58.5t-127.5 -20.5t-127.5 20.5t-96 58.5t-60.5 92.5t-21 123.5v393l17 17h83l18 -17v-393q0 -89 50.5 -139t137.5 -50q86 0 135.5 49.5t49.5 139.5v393l17 17h83zM463 885l-143 -116h-86v22l90 126l139 -12v-20z
M661 905v-20l-143 -116h-86v22l90 126z" />
    <glyph glyph-name="uhungarumlaut" unicode="&#x171;" horiz-adv-x="646" 
d="M266 -4q-94 0 -146 54.5t-52 150.5v314l18 17h80l17 -17v-294q0 -60 33 -94.5t95 -34.5q41 0 83 15.5t68 38.5v369l18 17h80l17 -17v-497l-17 -18h-80l-18 18v55q-35 -37 -85 -57t-111 -20zM415 725l-143 -116h-86v22l90 126l139 -12v-20zM613 745v-20l-143 -116h-86v22
l90 126z" />
    <glyph glyph-name="Aogonek" unicode="&#x104;" horiz-adv-x="730" 
d="M752 -145v-22q-21 -28 -49 -43t-59 -15q-18 0 -35.5 5.5t-31.5 17t-22.5 29.5t-8.5 44q0 32 15 67t43 75l-61 140l-362 1l-59 -141l-12 -13h-93l-18 17l289 671l16 12h125l13 -10l288 -673l-17 -17h-46q-23 -35 -34 -61.5t-11 -45.5q0 -18 10.5 -28.5t27.5 -10.5
q13 0 25.5 7.5t24.5 19.5h20zM502 253l-130 323h-19l-131 -323h280z" />
    <glyph glyph-name="aogonek" unicode="&#x105;" horiz-adv-x="680" 
d="M625 -134l22 -26v-22q-21 -28 -49 -43t-59 -15q-18 0 -35.5 5.5t-31.5 17t-22.5 29.5t-8.5 44q0 33 15.5 69t44.5 78l-15 15v51q-29 -35 -75 -54.5t-103 -19.5q-124 0 -194 70.5t-70 203.5q0 128 70 198t194 70q55 0 102 -19.5t76 -54.5v51l17 18h80l18 -18v-496l-18 -18
h-11q-29 -42 -42 -71.5t-13 -50.5q0 -18 10.5 -28.5t27.5 -10.5q13 0 25.5 7.5t24.5 19.5h20zM486 349q-22 42 -67.5 66t-95.5 24q-77 0 -120.5 -44t-43.5 -125q0 -86 43 -131.5t121 -45.5q51 0 95.5 24t67.5 63v169z" />
    <glyph glyph-name="Eogonek" unicode="&#x118;" horiz-adv-x="640" 
d="M209 594v-189h234l18 -17v-68l-18 -18h-234v-196h365l17 -17v-71l-17 -18h-57q-29 -42 -42.5 -72t-13.5 -51q0 -18 10.5 -28.5t27.5 -10.5q13 0 25.5 7.5t24.5 19.5h20l22 -26v-22q-21 -28 -49 -43t-59 -15q-18 0 -35.5 5.5t-31.5 17t-22.5 29.5t-8.5 44q0 33 15.5 68.5
t44.5 76.5h-336l-18 18v665l18 17h465l17 -17v-71l-17 -18h-365z" />
    <glyph glyph-name="eogonek" unicode="&#x119;" horiz-adv-x="590" 
d="M314 535q70 0 118 -20.5t75.5 -59.5t35 -94t-4.5 -124l-18 -13h-370q0 -63 41.5 -97.5t124.5 -34.5q45 0 95 8.5t97 27.5l16 -10l-6 -72l-13 -18q-15 -6 -32 -10.5t-35 -8.5q-32 -45 -47 -77.5t-15 -54.5q0 -18 10.5 -28.5t27.5 -10.5q13 0 25.5 7.5t24.5 19.5h21l22 -26
v-22q-21 -28 -49.5 -43t-59.5 -15q-18 0 -35.5 5.5t-31 17t-22 29.5t-8.5 44q0 32 14.5 67t41.5 75q-11 -1 -21.5 -1.5t-21.5 -0.5q-135 0 -207 70.5t-72 198.5q0 59 19.5 108.5t56 85.5t88 56.5t115.5 20.5zM439 303q6 29 1 54.5t-20.5 44.5t-41.5 30t-62 11
q-74 0 -116 -36.5t-50 -103.5h289z" />
    <glyph glyph-name="dcroat" unicode="&#x111;" horiz-adv-x="677" 
d="M661 664v-31l-18 -18h-51v-597l-18 -18h-80l-17 18v51q-29 -35 -75 -54.5t-103 -19.5q-123 0 -193.5 70.5t-70.5 203.5q0 127 70 197.5t194 70.5q55 0 102 -19.5t76 -54.5v152h-82l-18 18v31l18 18h82v41l17 18h80l18 -18v-41h51zM477 349q-22 41 -67.5 65.5t-95.5 24.5
q-77 0 -120.5 -44.5t-43.5 -124.5q0 -86 43.5 -131.5t120.5 -45.5q51 0 95.5 24t67.5 63v169z" />
    <glyph glyph-name="paragraph" unicode="&#xb6;" horiz-adv-x="606" 
d="M505 742l18 -17v-816l-18 -18h-51l-18 18v761h-132v-761l-18 -18h-51l-18 18v447h-31q-56 0 -92 19t-57 47.5t-29.5 61.5t-8.5 61q0 37 12.5 72.5t39.5 63.5t69.5 44.5t103.5 16.5h281z" />
    <glyph glyph-name="Gbreve" unicode="&#x11e;" horiz-adv-x="754" 
d="M689 372v-356l-20 -16h-79l-17 18v34h-5q-14 -15 -33 -25.5t-41.5 -17.5t-46 -10.5t-45.5 -3.5q-78 0 -145 25t-116.5 71.5t-78 112t-28.5 146.5q0 79 29 144t79 111.5t118.5 72t148.5 25.5q57 0 112.5 -8.5t112.5 -28.5l13 -21l-10 -75l-21 -12q-24 9 -47.5 16.5
t-48 12.5t-52 8t-59.5 3q-54 0 -100.5 -17.5t-81 -49.5t-54 -78t-19.5 -103q0 -53 20 -98t54.5 -79t81 -53t100.5 -19q48 0 88.5 11.5t72.5 31.5v145h-163l-14 13v76l12 12h266zM542 899q-8 -57 -46 -90.5t-94 -33.5t-93.5 33.5t-45.5 90.5l18 18h44l17 -18q6 -21 22 -34
t38 -13t38 13t22 34l18 18h44z" />
    <glyph glyph-name="gbreve" unicode="&#x11f;" horiz-adv-x="669" 
d="M599 514v-457q-2 -125 -76.5 -189t-199.5 -64q-63 0 -118 12.5t-98 38.5l-14 19v74l17 13q44 -29 100.5 -45.5t107.5 -16.5q38 0 68.5 8.5t52.5 28t33.5 51t11.5 76.5v45q-29 -35 -75 -54.5t-103 -19.5q-62 0 -110.5 17.5t-83 50t-52.5 79.5t-18 107q0 57 18 103
t52.5 78.5t83 50t110.5 17.5q55 0 102 -19.5t76 -54.5v51l17 18h80zM484 349q-11 20 -28 36.5t-39 28.5t-46.5 18.5t-49.5 6.5q-38 0 -68.5 -11.5t-51.5 -31.5t-32.5 -47.5t-11.5 -60.5q0 -73 43.5 -114.5t120.5 -41.5q51 0 96 24t67 63v130zM472 743q-8 -57 -46 -90.5
t-94 -33.5t-93.5 33.5t-45.5 90.5l18 18h44l17 -18q6 -21 22 -34t38 -13t38 13t22 34l18 18h44z" />
    <glyph glyph-name="Idotaccent" unicode="&#x130;" horiz-adv-x="279" 
d="M210 682v-665l-18 -17h-83l-17 17v665l17 18h83zM219 959q29 0 48 -19.5t19 -50.5q0 -30 -19 -49.5t-48 -19.5t-48 19.5t-19 49.5q0 31 19 50.5t48 19.5z" />
    <glyph glyph-name="ellipsis" unicode="&#x2026;" horiz-adv-x="613" 
d="M106 118q26 0 43 -17.5t17 -45.5t-17 -46t-43 -18t-43 18t-17 46t17 45.5t43 17.5zM304 118q26 0 43 -17.5t17 -45.5t-17 -46t-43 -18t-43 18t-17 46t17 45.5t43 17.5zM502 118q26 0 43 -17.5t17 -45.5t-17 -46t-43 -18t-43 18t-17 46t17 45.5t43 17.5z" />
    <glyph glyph-name="Scommaaccent" unicode="&#x218;" horiz-adv-x="615" 
d="M300 -41q25 0 44 -17.5t19 -48.5q0 -29 -19 -54l-68 -103h-49v25l37 79q-14 9 -20.5 23t-6.5 30q0 29 17.5 47.5t45.5 18.5zM310 705q53 0 95 -6t71 -13q34 -8 61 -18l13 -21l-9 -75l-22 -12q-25 11 -57 20q-27 8 -63 14t-78 6q-62 0 -95 -22t-33 -57q0 -38 28 -59.5
t70 -36.5t91 -28.5t91 -36.5t69.5 -61t27.5 -101q0 -47 -19 -84.5t-53.5 -63.5t-83 -40t-106.5 -14q-55 0 -98 5.5t-74 12.5q-36 8 -63 19l-12 21l9 75l21 13q49 -18 99 -29.5t116 -11.5q62 0 97.5 25t35.5 66q0 39 -28 60.5t-70 36t-91 27.5t-91 35.5t-70 59.5t-28 99
q0 90 66 142.5t183 52.5z" />
    <glyph glyph-name="scommaaccent" unicode="&#x219;" horiz-adv-x="472" 
d="M225 -40q25 0 44 -17.5t19 -48.5q0 -29 -19 -54l-68 -103h-49v25l37 79q-14 9 -20.5 23t-6.5 30q0 29 17.5 47.5t45.5 18.5zM149 392q0 -25 21 -38.5t52 -24.5t68 -22.5t68 -30.5t52 -50t21 -80q0 -41 -16 -69.5t-44.5 -46.5t-67.5 -26t-85 -8q-37 0 -67 3.5t-52 8.5
q-26 5 -46 12l-13 22l7 63l22 12q22 -9 47 -15q21 -5 47.5 -9.5t54.5 -4.5q48 0 74.5 14t26.5 41t-20.5 42.5t-52 27t-67.5 22.5t-67 29.5t-51.5 48t-20.5 77.5q0 40 16.5 68.5t43.5 45.5t62.5 25t73.5 8q33 0 63 -4t53 -9q26 -6 49 -13l13 -21l-8 -63l-21 -12q-23 8 -48 14
q-21 5 -46.5 10t-51.5 5q-48 0 -69 -11.5t-21 -40.5z" />
    <glyph glyph-name="Lcaron" unicode="&#x13d;" horiz-adv-x="531" 
d="M501 89v-72l-18 -17h-386l-17 17v665l17 18h83l18 -18v-575h285zM335 696q25 0 44 -17.5t19 -48.5q0 -29 -19 -54l-68 -103h-49v25l37 79q-14 9 -20.5 23t-6.5 30q0 29 17.5 47.5t45.5 18.5z" />
    <glyph glyph-name="lcaron" unicode="&#x13e;" horiz-adv-x="365" 
d="M205 724l-1 -566q0 -38 16 -55t41 -17q12 0 22 1.5t19 3.5l17 -17v-59l-15 -20q-23 -5 -62 -5q-74 0 -113 39t-39 129v566l17 17h80zM317 731q25 0 44 -17.5t19 -48.5q0 -29 -19 -54l-68 -103h-49v25l37 79q-14 9 -20.5 23t-6.5 30q0 29 17.5 47.5t45.5 18.5z" />
    <glyph glyph-name="tcaron" unicode="&#x165;" horiz-adv-x="419" 
d="M384 28l-15 -20q-20 -5 -48 -9t-54 -4q-74 0 -113.5 39t-39.5 129v275h-61l-18 18v58l18 18h61l59 122h38l18 -18v-104h138l17 -18v-58l-17 -18h-138v-270q0 -38 18 -55t47 -17q20 0 37.5 3t29.5 8l17 -17zM344 800q25 0 44 -17.5t19 -48.5q0 -29 -19 -54l-68 -103h-49
v25l37 79q-14 9 -20.5 23t-6.5 30q0 29 17.5 47.5t45.5 18.5z" />
    <glyph glyph-name="Dcroat" unicode="&#x110;" horiz-adv-x="763" 
d="M210 849h281l18 -17v-44l-18 -18h-281l-17 18v44zM362 700q79 0 145.5 -26t114.5 -72.5t75 -111t27 -140.5t-27 -140t-76 -110.5t-116 -73t-146 -26.5h-266l-18 17v665l18 18h269zM365 106q51 0 95 17t76 48.5t50.5 76.5t18.5 101q0 54 -18 99t-50.5 77.5t-77.5 50.5
t-99 18h-167v-488h172z" />
    <glyph glyph-name="dcaron" unicode="&#x10f;" horiz-adv-x="767" 
d="M609 723v-705l-18 -18h-80l-17 18v51q-29 -35 -75 -54.5t-103 -19.5q-123 0 -193.5 70.5t-70.5 203.5q0 127 70 197.5t194 70.5q55 0 102 -19.5t76 -54.5v260l17 18h80zM494 349q-22 41 -67.5 65.5t-95.5 24.5q-77 0 -120.5 -44.5t-43.5 -124.5q0 -86 43.5 -131.5
t120.5 -45.5q51 0 95.5 23.5t67.5 63.5v169zM722 728q25 0 44 -17.5t19 -48.5q0 -29 -19 -54l-68 -103h-49v25l37 79q-14 9 -20.5 23t-6.5 30q0 29 17.5 47.5t45.5 18.5z" />
    <glyph glyph-name="Omega" unicode="&#x2126;" horiz-adv-x="894" 
d="M873 83v-65l-18 -18h-296l-18 18v75q34 20 62.5 50t49 66t32 75t11.5 78q0 52 -19 96t-53 75.5t-81 49.5t-102 18t-101.5 -18t-80.5 -49.5t-53 -75.5t-19 -96q0 -39 11.5 -78t32 -75t49 -66.5t62.5 -50.5v-74l-17 -18h-298l-18 18v65l18 17h192q-30 22 -55 53.5
t-43.5 67.5t-28.5 74.5t-10 76.5q0 72 27 133t75 106t113.5 70t143.5 25t144 -25t114 -70t75 -106t27 -133q0 -38 -10 -76.5t-28.5 -74.5t-43.5 -67.5t-55 -53.5h191z" />
    <glyph glyph-name="partialdiff" unicode="&#x2202;" horiz-adv-x="613" 
d="M88 676q18 8 44 14q23 5 56.5 10t81.5 5q71 0 128 -23t97 -69.5t61.5 -115.5t21.5 -161q0 -81 -19.5 -144t-56.5 -107t-90 -67t-119 -23q-56 0 -101.5 16.5t-77.5 47t-49.5 74t-17.5 97.5q0 106 59.5 163t165.5 57q59 0 106 -19.5t77 -54.5q0 118 -50 171t-146 53
q-33 0 -61.5 -5t-48.5 -11q-24 -7 -43 -16l-21 12l-9 75zM450 279q-25 34 -66 54.5t-90 20.5q-61 0 -92.5 -34t-31.5 -89q0 -69 34.5 -100t94.5 -31q38 0 66.5 13.5t47 36.5t28 53.5t9.5 65.5v10z" />
    <glyph glyph-name="product" unicode="&#x220f;" horiz-adv-x="735" 
d="M658 724v-901l-18 -17h-79l-18 17v821h-336v-821l-18 -17h-80l-17 17v901l17 18h531z" />
    <glyph glyph-name="summation" unicode="&#x2211;" horiz-adv-x="650" 
d="M608 -50v-70l-18 -18h-541l-17 18v73l294 353l-286 345l-1 74l18 18h523l18 -18v-70l-18 -18h-404l255 -304v-52l-257 -313h416z" />
    <glyph glyph-name="radical" unicode="&#x221a;" horiz-adv-x="702" 
d="M681 732l-273 -886h-123l-151 456h-105l-18 17v62l18 18h172l17 -18l127 -403h4l222 754l24 18h68z" />
    <glyph glyph-name="integral" unicode="&#x222b;" horiz-adv-x="359" 
d="M318 748q-18 6 -36 6q-42 0 -59 -27t-17 -93q0 -29 1.5 -72t4 -93t5.5 -103t5.5 -103.5t4 -95.5t1.5 -77q0 -59 -8.5 -100.5t-26.5 -67.5t-46.5 -38t-69.5 -12q-21 0 -37.5 2.5t-32.5 10.5l-13 19l9 48l20 13q19 -8 41 -8q42 0 60 28.5t18 96.5q0 32 -1.5 76.5t-4.5 94.5
t-5.5 103t-5.5 102.5t-4.5 92.5t-1.5 73q0 59 8 100.5t26 67.5t46.5 38t69.5 12q17 0 32 -3.5t32 -10.5l11 -16l-9 -52z" />
    <glyph glyph-name="approxequal" unicode="&#x2248;" horiz-adv-x="502" 
d="M432 488q-2 -63 -26.5 -93t-69.5 -30q-26 0 -47 9t-39 19.5t-34 19.5t-31 9q-32 0 -38 -32l-17 -18h-46l-18 18q2 64 26.5 93t70.5 29q24 0 45 -9t39.5 -19.5t35.5 -19.5t32 -9q16 0 25 7.5t12 25.5l18 17h45zM434 270q-2 -63 -26.5 -93t-69.5 -30q-26 0 -47 9t-39 19.5
t-34 19.5t-31 9q-32 0 -38 -32l-17 -18h-46l-18 18q2 64 26.5 93t70.5 29q24 0 45 -9t39.5 -19.5t35.5 -19.5t32 -9q16 0 25 7.5t12 25.5l18 17h45z" />
    <glyph glyph-name="notequal" unicode="&#x2260;" horiz-adv-x="503" 
d="M308 388l-42 -131h180l17 -18v-44l-17 -17h-205l-40 -129l-26 -18h-45l-17 18l40 129h-100l-18 17v44l18 18h125l42 131h-167l-18 17v44l18 18h192l40 128l24 18h47l17 -18l-40 -128h113l17 -18v-44l-17 -17h-138z" />
    <glyph glyph-name="lessequal" unicode="&#x2264;" horiz-adv-x="499" 
d="M445 99l18 -18v-43l-18 -18h-392l-18 18v43l18 18h392zM116 394v-3l329 -139l18 -24v-47l-18 -18l-410 178v101l410 179l18 -18v-47l-17 -24z" />
    <glyph glyph-name="greaterequal" unicode="&#x2265;" horiz-adv-x="509" 
d="M445 99l18 -18v-43l-18 -18h-392l-18 18v43l18 18h392zM52 532l-17 24v47l18 18l410 -179v-101l-410 -178l-18 18v47l18 24l329 139v3z" />
    <glyph glyph-name="lozenge" unicode="&#x25ca;" horiz-adv-x="528" 
d="M249 10l-214 320l216 321h35l215 -321l-215 -320h-37zM141 330l123 -179h7l124 179l-124 181h-5z" />
    <glyph glyph-name="pi" unicode="&#x3c0;" horiz-adv-x="767" 
d="M742 514v-52l-17 -18h-130v-426l-18 -18h-60l-18 18v426h-147l-48 -426l-17 -18h-61l-17 18l46 426h-51q-42 0 -69.5 -23.5t-26.5 -60.5q0 -26 16 -58l-5 -24l-47 -18l-24 5q-14 26 -22 56t-9 59q0 32 12.5 60t36 48.5t55 32t69.5 11.5h535z" />
    <glyph glyph-name="oneeighth" unicode="&#x215b;" horiz-adv-x="821" 
d="M711 220q36 -13 52.5 -40t16.5 -64q0 -56 -42.5 -87.5t-116.5 -31.5t-116.5 31.5t-42.5 86.5q0 37 17 64t55 41v2q-29 14 -40 37.5t-11 52.5q0 49 37 76.5t101 27.5t101 -28.5t37 -78.5q0 -29 -10.5 -51.5t-37.5 -35.5v-2zM622 354q-35 0 -54.5 -14.5t-19.5 -42.5
q0 -26 18.5 -41t53.5 -15t55 15t20 41q0 57 -73 57zM621 59q45 0 69 17t24 49t-24 48.5t-69 16.5t-69 -16.5t-24 -48.5t24 -49t69 -17zM634 682l-488 -664l-36 -18h-33l-17 18l488 664l36 18h32zM158 689v-391l-10 -11h-50l-11 11v295h-43l-10 10v42l10 11h12q22 0 38 8
t27 29l7 7h19z" />
    <glyph glyph-name="threeeighths" unicode="&#x215c;" horiz-adv-x="898" 
d="M788 220q36 -13 52.5 -40t16.5 -64q0 -56 -42.5 -87.5t-116.5 -31.5t-116.5 31.5t-42.5 86.5q0 37 17 64t55 41v2q-29 14 -40 37.5t-11 52.5q0 49 37 76.5t101 27.5t101 -28.5t37 -78.5q0 -29 -10.5 -51.5t-37.5 -35.5v-2zM699 354q-35 0 -54.5 -14.5t-19.5 -42.5
q0 -26 18.5 -41t53.5 -15t55 15t20 41q0 57 -73 57zM698 59q45 0 69 17t24 49t-24 48.5t-69 16.5t-69 -16.5t-24 -48.5t24 -49t69 -17zM250 490q31 -11 45 -37t14 -55q0 -54 -36 -84.5t-108 -30.5q-26 0 -49 3t-40 7q-20 4 -36 10l-7 13l5 44l13 8q17 -7 35 -12q16 -5 35 -8
t39 -3q42 0 59.5 15.5t17.5 43.5q0 26 -18 43t-48 17h-12l-10 10v35l10 10h12q31 0 48.5 16.5t17.5 43.5q0 24 -17.5 42.5t-59.5 18.5q-20 0 -39 -3.5t-35 -7.5q-18 -5 -35 -11l-13 7l-5 45l7 12q16 6 36 10q17 4 40 7t49 3q72 0 108 -32t36 -84q0 -30 -14 -55t-45 -38v-3z
M717 682l-488 -664l-36 -18h-33l-17 18l488 664l36 18h32z" />
    <glyph glyph-name="fiveeighths" unicode="&#x215d;" horiz-adv-x="921" 
d="M794 220q36 -13 52.5 -40t16.5 -64q0 -56 -42.5 -87.5t-116.5 -31.5t-116.5 31.5t-42.5 86.5q0 37 17 64t55 41v2q-29 14 -40 37.5t-11 52.5q0 49 37 76.5t101 27.5t101 -28.5t37 -78.5q0 -29 -10.5 -51.5t-37.5 -35.5v-2zM705 354q-35 0 -54.5 -14.5t-19.5 -42.5
q0 -26 18.5 -41t53.5 -15t55 15t20 41q0 57 -73 57zM704 59q45 0 69 17t24 49t-24 48.5t-69 16.5t-69 -16.5t-24 -48.5t24 -49t69 -17zM188 549q68 0 104.5 -35.5t36.5 -90.5q0 -63 -42.5 -100.5t-112.5 -38.5q-27 0 -50.5 3t-40.5 7q-20 4 -37 10l-7 13l5 44l13 8
q18 -7 37 -12q17 -5 37 -8t40 -3q40 0 62 19t22 54q0 32 -23 50t-63 18q-20 0 -40.5 -6t-34.5 -14h-15l-24 23v199l11 11h236l10 -11v-41l-10 -10h-177v-102q8 3 18 6q8 2 19.5 4.5t25.5 2.5zM723 682l-488 -664l-36 -18h-33l-18 18l488 664l37 18h32z" />
    <glyph glyph-name="seveneighths" unicode="&#x215e;" horiz-adv-x="864" 
d="M752 220q36 -13 52.5 -40t16.5 -64q0 -56 -42.5 -87.5t-116.5 -31.5q-73 0 -116 31.5t-43 86.5q0 37 17.5 64t55.5 41v2q-29 14 -40.5 37.5t-11.5 52.5q0 49 37.5 76.5t100.5 27.5q64 0 101.5 -28.5t37.5 -78.5q0 -29 -11 -51.5t-38 -35.5v-2zM663 354q-35 0 -54 -14.5
t-19 -42.5q0 -26 18.5 -41t53.5 -15t55 15t20 41q0 28 -19.5 42.5t-54.5 14.5zM662 59q45 0 69 17t24 49t-24 48.5t-69 16.5q-44 0 -68.5 -16.5t-24.5 -48.5t24 -49t69 -17zM682 682l-489 -664l-36 -18h-32l-18 18l488 664l37 18h32zM331 690v-41q0 -36 -20 -78t-44.5 -87.5
t-44.5 -92.5t-20 -92l-11 -12h-48l-10 11v35q0 35 20 78t43.5 85.5t43.5 80.5t20 62h-152v-70l-11 -10h-51l-11 10v121l11 10h274z" />
    <glyph glyph-name="zeroinferior" unicode="&#x2080;" horiz-adv-x="449" 
d="M223 415q86 0 130.5 -53.5t44.5 -154.5t-45 -155t-130 -54q-86 0 -131 54t-45 155t45.5 154.5t130.5 53.5zM223 360q-53 0 -79 -37t-26 -116t26 -116.5t79 -37.5q52 0 78 37.5t26 116.5t-26 116t-78 37z" />
    <glyph glyph-name="foursuperior" unicode="&#x2074;" horiz-adv-x="412" 
d="M387 413v-41l-11 -10h-50v-64l-11 -11h-49l-10 11v64h-219l-11 11v41l207 280l12 6h70l11 -10v-266h50zM256 617l-143 -193h143v193z" />
    <glyph glyph-name="zerosuperior" unicode="&#x2070;" horiz-adv-x="445" 
d="M223 701q86 0 130.5 -53.5t44.5 -154.5t-45 -155t-130 -54q-86 0 -131 54t-45 155t45.5 154.5t130.5 53.5zM223 646q-53 0 -79 -37t-26 -116t26 -116.5t79 -37.5q52 0 78 37.5t26 116.5t-26 116t-78 37z" />
    <glyph glyph-name="fivesuperior" unicode="&#x2075;" horiz-adv-x="380" 
d="M194 549q68 0 104.5 -36t36.5 -90q0 -63 -42.5 -101t-112.5 -38q-27 0 -50.5 3t-40.5 7q-20 4 -37 10l-7 13l5 44l13 7q18 -7 37 -11q17 -5 37 -8t40 -3q41 0 62.5 19t21.5 54q0 32 -23 50t-63 18q-20 0 -40.5 -6t-34.5 -15h-15l-24 24v199l11 11h236l10 -11v-41l-10 -10
h-177v-102q8 3 18 6q8 2 19.5 4.5t25.5 2.5z" />
    <glyph glyph-name="sixsuperior" unicode="&#x2076;" 
d="M230 701q28 0 47.5 -2.5t33.5 -5.5q15 -4 26 -8l8 -13l-6 -44l-13 -7q-11 5 -25 9q-12 3 -28.5 6t-35.5 3q-57 0 -86.5 -31t-29.5 -101q17 20 45 32t63 12q62 0 97 -33.5t35 -96.5q0 -64 -39.5 -101t-105.5 -37q-78 0 -123 52.5t-45 148.5q0 109 48.5 163t133.5 54z
M216 494q-29 0 -53.5 -12t-38.5 -32v-6q0 -41 22 -70.5t67 -29.5q35 0 55.5 18t20.5 60q0 32 -18.5 52t-54.5 20z" />
    <glyph glyph-name="sevensuperior" unicode="&#x2077;" horiz-adv-x="362" 
d="M331 690v-41q0 -36 -20 -78t-44.5 -87.5t-44.5 -92.5t-20 -92l-11 -12h-48l-10 11v35q0 35 20 78t43.5 85.5t43.5 80.5t20 62h-152v-70l-11 -10h-51l-11 10v121l11 10h274z" />
    <glyph glyph-name="eightsuperior" unicode="&#x2078;" horiz-adv-x="407" 
d="M294 506q36 -13 52.5 -40t16.5 -64q0 -56 -42.5 -87.5t-116.5 -31.5q-73 0 -116 31.5t-43 86.5q0 37 17.5 64.5t55.5 40.5v2q-29 14 -40.5 37.5t-11.5 52.5q0 49 37.5 76.5t100.5 27.5q64 0 101.5 -28t37.5 -78q0 -29 -10.5 -52t-38.5 -36v-2zM205 641q-35 0 -54 -15
t-19 -42q0 -26 18.5 -41.5t53.5 -15.5t55 15.5t20 41.5q0 27 -19.5 42t-54.5 15zM204 345q45 0 69 17t24 50q0 31 -24 47.5t-69 16.5q-44 0 -68.5 -16.5t-24.5 -47.5q0 -33 24 -50t69 -17z" />
    <glyph glyph-name="ninesuperior" unicode="&#x2079;" 
d="M170 285q-29 0 -48.5 2.5t-33.5 5.5q-16 4 -26 8l-7 13l5 44l13 7q11 -6 25 -10q12 -4 28.5 -6.5t36.5 -2.5q57 0 86.5 31.5t29.5 101.5q-18 -20 -45.5 -32t-62.5 -12q-63 0 -98 33.5t-35 96.5q0 64 39.5 101t105.5 37q79 0 124 -52.5t45 -148.5q0 -109 -48.5 -163
t-133.5 -54zM184 492q29 0 53 12t39 32v6q0 20 -5.5 38.5t-17 32t-28 21.5t-38.5 8q-35 0 -55.5 -18t-20.5 -60q0 -32 18.5 -52t54.5 -20z" />
    <glyph glyph-name="oneinferior" unicode="&#x2081;" horiz-adv-x="237" 
d="M158 402v-391l-10 -11h-50l-11 11v295h-43l-10 10v42l10 11h12q22 0 38 8t27 29l7 7h19z" />
    <glyph glyph-name="twoinferior" unicode="&#x2082;" horiz-adv-x="362" 
d="M318 54v-43l-10 -11h-257l-4 21q-5 33 2 59t25 49t46 44.5t64 45.5q29 21 45.5 39t16.5 44q0 25 -17.5 38.5t-59.5 13.5q-20 0 -39 -3.5t-35 -7.5q-18 -5 -35 -11l-13 7l-5 45l7 12q17 6 36 10q17 4 39.5 7t49.5 3q72 0 108 -28.5t36 -81.5q0 -43 -26 -71.5t-65 -57.5
q-38 -26 -60 -43t-33 -30t-14 -23.5t-3 -23.5l191 8z" />
    <glyph glyph-name="threeinferior" unicode="&#x2083;" horiz-adv-x="342" 
d="M246 203q31 -11 45 -36.5t14 -55.5q0 -53 -36 -83.5t-108 -30.5q-27 0 -49.5 3t-39.5 7q-19 4 -36 10l-8 13l6 44l13 7q17 -7 35 -11q16 -5 35 -8t39 -3q42 0 59 15t17 43q0 26 -17.5 43t-47.5 17h-12l-10 11v34l10 10h12q31 0 48 16.5t17 43.5q0 25 -17 43.5t-59 18.5
q-20 0 -39 -3.5t-35 -7.5q-18 -5 -35 -11l-13 7l-6 44l8 13q17 6 36 10q17 4 39.5 7t49.5 3q72 0 108 -32t36 -85q0 -29 -14 -54t-45 -38v-4v0z" />
    <glyph glyph-name="fourinferior" unicode="&#x2084;" horiz-adv-x="412" 
d="M387 126v-41l-11 -10h-50v-64l-11 -11h-49l-10 11v64h-219l-11 11v41l207 280l12 6h70l11 -10v-266h50zM256 330l-143 -193h143v193z" />
    <glyph glyph-name="fiveinferior" unicode="&#x2085;" horiz-adv-x="370" 
d="M194 262q68 0 104.5 -36t36.5 -90q0 -63 -42.5 -101t-112.5 -38q-27 0 -50.5 3t-40.5 7q-20 4 -37 10l-7 13l5 44l13 7q18 -7 37 -11q17 -5 37 -8t40 -3q41 0 62.5 19t21.5 54q0 32 -23 50t-63 18q-20 0 -40.5 -6t-34.5 -15h-15l-24 24v199l11 11h236l10 -11v-41l-10 -10
h-177v-102q8 3 18 6q8 2 19.5 4.5t25.5 2.5z" />
    <glyph glyph-name="sixinferior" unicode="&#x2086;" horiz-adv-x="405" 
d="M230 415q28 0 47.5 -2.5t33.5 -5.5q15 -4 26 -8l8 -13l-6 -44l-13 -7q-11 5 -25 9q-12 3 -28.5 6t-35.5 3q-57 0 -86.5 -31t-29.5 -101q17 20 45 32t63 12q62 0 97 -33.5t35 -96.5q0 -64 -39.5 -101t-105.5 -37q-78 0 -123 52.5t-45 148.5q0 109 48.5 163t133.5 54z
M216 208q-29 0 -53.5 -12t-38.5 -32v-6q0 -41 22 -70.5t67 -29.5q35 0 55.5 18t20.5 60q0 32 -18.5 52t-54.5 20z" />
    <glyph glyph-name="seveninferior" unicode="&#x2087;" horiz-adv-x="365" 
d="M331 403v-41q0 -36 -20 -78t-44.5 -87.5t-44.5 -92.5t-20 -92l-11 -12h-48l-10 11v35q0 35 20 78t43.5 85.5t43.5 80.5t20 62h-152v-70l-11 -10h-51l-11 10v121l11 10h274z" />
    <glyph glyph-name="eightinferior" unicode="&#x2088;" 
d="M294 220q36 -13 52.5 -40t16.5 -64q0 -56 -42.5 -87.5t-116.5 -31.5q-73 0 -116 31.5t-43 86.5q0 37 17.5 64.5t55.5 40.5v2q-29 14 -40.5 37.5t-11.5 52.5q0 49 37.5 76.5t100.5 27.5q64 0 101.5 -28t37.5 -78q0 -29 -10.5 -52t-38.5 -36v-2zM205 355q-35 0 -54 -15
t-19 -42q0 -26 18.5 -41.5t53.5 -15.5t55 15.5t20 41.5q0 27 -19.5 42t-54.5 15zM204 59q45 0 69 17t24 50q0 31 -24 47.5t-69 16.5q-44 0 -68.5 -16.5t-24.5 -47.5q0 -33 24 -50t69 -17z" />
    <glyph glyph-name="nineinferior" unicode="&#x2089;" horiz-adv-x="407" 
d="M176 -3q-29 0 -48.5 2.5t-33.5 5.5q-16 4 -26 8l-7 13l5 44l13 7q11 -6 25 -10q12 -4 28.5 -6.5t36.5 -2.5q57 0 86.5 31.5t29.5 101.5q-18 -20 -45.5 -32t-62.5 -12q-63 0 -98 33.5t-35 96.5q0 64 39.5 101t105.5 37q79 0 124 -52.5t45 -148.5q0 -109 -48.5 -163
t-133.5 -54zM190 204q29 0 53 12t39 32v6q0 20 -5.5 38.5t-17 32t-28 21.5t-38.5 8q-35 0 -55.5 -18t-20.5 -60q0 -32 18.5 -52t54.5 -20z" />
    <glyph glyph-name="kgreenlandic" unicode="&#x138;" horiz-adv-x="560" 
d="M536 520l-190 -226l190 -282l-12 -12h-98l-16 10l-135 202l-92 -107v-87l-17 -18h-79l-18 18v497l18 17h79l17 -17v-267l232 273l20 11h89l12 -12v0z" />
    <glyph glyph-name="Emacron" unicode="&#x112;" horiz-adv-x="616" 
d="M187 849h281l18 -17v-44l-18 -18h-281l-17 18v44zM197 594v-189h234l17 -18v-68l-17 -17h-234v-196h364l18 -18v-71l-18 -17h-465l-17 17v665l17 18h465l18 -18v-71l-18 -17h-364z" />
    <glyph glyph-name="Umacron" unicode="&#x16a;" horiz-adv-x="762" 
d="M238 849h281l18 -17v-44l-18 -18h-281l-17 18v44zM687 683v-393q0 -69 -21 -123.5t-60 -92.5t-95.5 -58.5t-127.5 -20.5t-127.5 20.5t-96 58.5t-60.5 92.5t-21 123.5v393l17 17h83l18 -17v-393q0 -89 50.5 -139t137.5 -50q86 0 135.5 49.5t49.5 139.5v393l17 17h83z" />
    <glyph glyph-name="Omacron" unicode="&#x14c;" horiz-adv-x="810" 
d="M257 849h281l18 -17v-44l-18 -18h-281l-17 18v44zM405 703q78 0 146 -27t118 -74.5t78.5 -112t28.5 -139.5t-28.5 -140t-78.5 -112.5t-118 -75t-146 -27.5t-146 27.5t-118 75t-78.5 112.5t-28.5 140t28.5 140t78.5 112t118 74t146 27zM406 597q-52 0 -97.5 -19t-80 -52.5
t-54.5 -78.5t-20 -97t20 -97.5t54.5 -79t80.5 -53t97 -19.5t96.5 19.5t79.5 53t53.5 79t19.5 97.5t-19.5 97t-53.5 78.5t-79.5 52.5t-96.5 19z" />
    <glyph glyph-name="omacron" unicode="&#x14d;" horiz-adv-x="637" 
d="M178 681h281l18 -17v-44l-18 -18h-281l-17 18v44zM322 536q61 0 112 -19.5t88 -55t57 -85.5t20 -110t-20 -109.5t-57 -85.5t-88 -55.5t-112 -19.5q-62 0 -113 19.5t-88 55.5t-57 85.5t-20 109.5t20 110t57 85.5t88 55t113 19.5zM322 437q-36 0 -66 -12.5t-51.5 -35
t-33.5 -54.5t-12 -70q0 -39 12 -70.5t33.5 -54.5t51.5 -35.5t66 -12.5t65.5 12.5t51 35.5t33.5 54.5t12 70.5q0 38 -12 70t-33.5 54.5t-51 35t-65.5 12.5z" />
    <glyph glyph-name="umacron" unicode="&#x16b;" horiz-adv-x="640" 
d="M180 681h281l18 -17v-44l-18 -18h-281l-17 18v44zM266 -4q-94 0 -146 54.5t-52 150.5v314l18 17h80l17 -17v-294q0 -60 33 -94.5t95 -34.5q41 0 83 15.5t68 38.5v369l18 17h80l17 -17v-497l-17 -18h-80l-18 18v55q-35 -37 -85 -57t-111 -20z" />
    <glyph glyph-name="emacron" unicode="&#x113;" horiz-adv-x="603" 
d="M173 681h281l18 -17v-44l-18 -18h-281l-17 18v44zM515 28q-40 -14 -89.5 -23t-101.5 -9q-135 0 -207 70t-72 199q0 59 19.5 108.5t56 85.5t88 56.5t115.5 20.5q70 0 118 -21t75.5 -59.5t35 -94t-4.5 -124.5l-18 -12h-370q0 -63 41 -98t125 -35q45 0 94.5 9t97.5 28
l16 -11l-6 -71zM326 443q-74 0 -116 -36t-50 -103h289q5 29 0 54.5t-20 44t-41 29.5t-62 11z" />
    <glyph glyph-name="Gcommaaccent" unicode="&#x122;" horiz-adv-x="735" 
d="M380 -41q25 0 44 -17.5t19 -48.5q0 -29 -19 -54l-68 -103h-49v25l37 79q-14 9 -20.5 23t-6.5 30q0 29 17.5 47.5t45.5 18.5zM689 372v-356l-20 -16h-79l-17 18v34h-5q-14 -15 -33 -25.5t-41.5 -17.5t-46 -10.5t-45.5 -3.5q-78 0 -145 25t-116.5 71.5t-78 112t-28.5 146.5
q0 79 29 144t79 111.5t118.5 72t148.5 25.5q57 0 112.5 -8.5t112.5 -28.5l13 -21l-10 -75l-21 -12q-24 9 -47.5 16.5t-48 12.5t-52 8t-59.5 3q-54 0 -100.5 -17.5t-81 -49.5t-54 -78t-19.5 -103q0 -53 20 -98t54.5 -79t81 -53t100.5 -19q48 0 88.5 11.5t72.5 31.5v145h-163
l-14 13v76l12 12h266z" />
    <glyph glyph-name="gcommaaccent" unicode="&#x123;" horiz-adv-x="667" 
d="M599 514v-457q-2 -125 -76.5 -189t-199.5 -64q-63 0 -118 12.5t-98 38.5l-14 19v74l17 13q44 -29 100.5 -45.5t107.5 -16.5q38 0 68.5 8.5t52.5 28t33.5 51t11.5 76.5v45q-29 -35 -75 -54.5t-103 -19.5q-62 0 -110.5 17.5t-83 50t-52.5 79.5t-18 107q0 57 18 103
t52.5 78.5t83 50t110.5 17.5q55 0 102 -19.5t76 -54.5v51l17 18h80zM484 349q-11 20 -28 36.5t-39 28.5t-46.5 18.5t-49.5 6.5q-38 0 -68.5 -11.5t-51.5 -31.5t-32.5 -47.5t-11.5 -60.5q0 -73 43.5 -114.5t120.5 -41.5q51 0 96 24t67 63v130zM346 598q-25 0 -44 17.5
t-19 48.5q0 29 19 54l68 103h49v-25l-37 -79q14 -9 20.5 -23t6.5 -30q0 -29 -17.5 -47.5t-45.5 -18.5z" />
    <glyph glyph-name="Utilde" unicode="&#x168;" horiz-adv-x="762" 
d="M687 683v-393q0 -69 -21 -123.5t-60 -92.5t-95.5 -58.5t-127.5 -20.5t-127.5 20.5t-96 58.5t-60.5 92.5t-21 123.5v393l17 17h83l18 -17v-393q0 -89 50.5 -139t137.5 -50q86 0 135.5 49.5t49.5 139.5v393l17 17h83zM553 859q-4 -115 -90 -115q-24 0 -44 8.5t-37 18.5
t-32 18.5t-29 8.5q-30 0 -36 -31l-16 -16h-43l-17 16q2 60 24.5 87.5t66.5 27.5q22 0 42 -8.5t37.5 -18t33 -18t30.5 -8.5t23.5 7t11.5 24l16 16h43z" />
    <glyph glyph-name="utilde" unicode="&#x169;" horiz-adv-x="649" 
d="M266 -4q-94 0 -146 54.5t-52 150.5v314l18 17h80l17 -17v-294q0 -60 33 -94.5t95 -34.5q41 0 83 15.5t68 38.5v369l18 17h80l17 -17v-497l-17 -18h-80l-18 18v55q-35 -37 -85 -57t-111 -20zM495 701q-4 -115 -90 -115q-24 0 -44 8.5t-37 18.5t-32 18.5t-29 8.5
q-30 0 -36 -31l-16 -16h-43l-17 16q2 60 24.5 87.5t66.5 27.5q22 0 42 -8.5t37.5 -18t33 -18t30.5 -8.5t23.5 7t11.5 24l16 16h43z" />
    <glyph glyph-name="Uogonek" unicode="&#x172;" horiz-adv-x="762" 
d="M687 682v-392q0 -113 -54.5 -186.5t-154.5 -97.5q-34 -48 -50 -81t-16 -56q0 -18 11 -28.5t28 -10.5q13 0 25.5 7.5t24.5 19.5h20l22 -26v-22q-21 -28 -49 -43t-59 -15q-18 0 -35.5 5.5t-31.5 17t-22.5 29.5t-8.5 44q0 34 16 70t45 78h-15q-71 0 -127.5 20.5t-96 58.5
t-60.5 92.5t-21 123.5v392l18 18h82l18 -18v-392q0 -89 50.5 -139t137.5 -50q86 0 135.5 49.5t49.5 139.5v392l18 18h82z" />
    <glyph glyph-name="uogonek" unicode="&#x173;" horiz-adv-x="650" 
d="M603 -136l22 -26v-22q-21 -28 -49 -43t-60 -15q-18 0 -35.5 5.5t-31 17t-22 29.5t-8.5 44q0 34 15.5 70t44.5 78l-16 16v56q-35 -38 -85 -58t-111 -20q-94 0 -146 54.5t-52 150.5v314l18 17h80l17 -17v-293q0 -60 33 -94.5t95 -34.5q41 0 83 15t68 38v369l18 17h80
l17 -17v-497l-17 -18h-10q-57 -82 -57 -124q0 -18 10.5 -28.5t27.5 -10.5q14 0 26.5 7.5t23.5 19.5h21z" />
    <glyph glyph-name="Kcommaaccent" unicode="&#x136;" horiz-adv-x="697" 
d="M357 -41q25 0 44 -17.5t19 -48.5q0 -29 -19 -54l-68 -103h-49v25l37 79q-14 9 -20.5 23t-6.5 30q0 29 17.5 47.5t45.5 18.5zM410 381l268 -363l-18 -18h-99l-23 14l-205 285l-123 -131v-151l-17 -17h-83l-18 17v665l18 18h83l17 -18v-374l343 382l24 10h88l18 -18z" />
    <glyph glyph-name="kcommaaccent" unicode="&#x137;" horiz-adv-x="583" 
d="M299 -41q25 0 44 -17.5t19 -48.5q0 -29 -19 -54l-68 -103h-49v25l37 79q-14 9 -20.5 23t-6.5 30q0 29 17.5 47.5t45.5 18.5zM363 300l191 -283l-18 -17h-110l-16 12l-126 205l-100 -103v-97l-18 -17h-79l-18 17v707l18 18h79l18 -18v-462l236 261l14 9h102l18 -18z" />
    <glyph glyph-name="lcommaaccent" unicode="&#x13c;" horiz-adv-x="349" 
d="M194 -41q25 0 44 -17.5t19 -48.5q0 -29 -19 -54l-68 -103h-49v25l37 79q-14 9 -20.5 23t-6.5 30q0 29 17.5 47.5t45.5 18.5zM205 724l-1 -566q0 -38 16 -55t41 -17q12 0 22 1.5t19 3.5l17 -17v-59l-15 -20q-23 -5 -62 -5q-74 0 -113 39t-39 129v566l17 17h80z" />
    <glyph glyph-name="Lcommaaccent" unicode="&#x13b;" horiz-adv-x="531" 
d="M284 -41q25 0 44 -17.5t19 -48.5q0 -29 -19 -54l-68 -103h-49v25l37 79q-14 9 -20.5 23t-6.5 30q0 29 17.5 47.5t45.5 18.5zM501 89v-72l-18 -17h-386l-17 17v665l17 18h83l18 -18v-575h285z" />
    <glyph glyph-name="Itilde" unicode="&#x128;" horiz-adv-x="300" 
d="M210 682v-665l-18 -17h-83l-17 17v665l17 18h83zM323 864q-4 -115 -90 -115q-24 0 -44 8.5t-37 18.5t-32 18.5t-29 8.5q-30 0 -36 -31l-16 -16h-43l-17 16q2 60 24.5 87.5t66.5 27.5q22 0 42 -8.5t37.5 -18t33 -18t30.5 -8.5t23.5 7t11.5 24l16 16h43z" />
    <glyph glyph-name="itilde" unicode="&#x129;" horiz-adv-x="290" 
d="M182 532l18 -17v-497l-18 -18h-80l-17 18v497l17 17h80zM317 720q-4 -115 -90 -115q-24 0 -44 8.5t-37 18.5t-32 18.5t-29 8.5q-30 0 -36 -31l-16 -16h-43l-17 16q2 60 24.5 87.5t66.5 27.5q22 0 42 -8.5t37.5 -18t33 -18t30.5 -8.5t23.5 7t11.5 24l16 16h43z" />
    <glyph glyph-name="Edotaccent" unicode="&#x116;" horiz-adv-x="616" 
d="M197 594v-189h234l17 -18v-68l-17 -17h-234v-196h364l18 -18v-71l-18 -17h-465l-17 17v665l17 18h465l18 -18v-71l-18 -17h-364zM330 902q29 0 48 -19.5t19 -50.5q0 -30 -19 -49.5t-48 -19.5t-48 19.5t-19 49.5q0 31 19 50.5t48 19.5z" />
    <glyph glyph-name="edotaccent" unicode="&#x117;" horiz-adv-x="597" 
d="M515 28q-40 -14 -89.5 -23t-101.5 -9q-135 0 -207 70t-72 199q0 59 19.5 108.5t56 85.5t88 56.5t115.5 20.5q70 0 118 -21t75.5 -59.5t35 -94t-4.5 -124.5l-18 -12h-370q0 -63 41 -98t125 -35q45 0 94.5 9t97.5 28l16 -11l-6 -71zM326 443q-74 0 -116 -36t-50 -103h289
q5 29 0 54.5t-20 44t-41 29.5t-62 11zM316 754q29 0 48 -19.5t19 -50.5q0 -30 -19 -49.5t-48 -19.5t-48 19.5t-19 49.5q0 31 19 50.5t48 19.5z" />
    <glyph glyph-name="Ncommaaccent" unicode="&#x145;" horiz-adv-x="790" 
d="M394 -41q25 0 44 -17.5t19 -48.5q0 -29 -19 -54l-68 -103h-49v25l37 79q-14 9 -20.5 23t-6.5 30q0 29 17.5 47.5t45.5 18.5zM702 682v-665l-18 -17h-146l-320 538h-7v-521l-18 -17h-82l-18 17v665l18 18h140l324 -534h9v516l18 18h82z" />
    <glyph glyph-name="ncommaaccent" unicode="&#x146;" horiz-adv-x="662" 
d="M331 -41q25 0 44 -17.5t19 -48.5q0 -29 -19 -54l-68 -103h-49v25l37 79q-14 9 -20.5 23t-6.5 30q0 29 17.5 47.5t45.5 18.5zM390 536q94 0 146 -54.5t52 -150.5v-313l-17 -18h-80l-18 18v293q0 60 -32.5 94.5t-95.5 34.5q-42 0 -83 -15t-68 -39v-368l-17 -18h-80l-18 18
v497l18 17h80l17 -17v-56q35 38 85.5 57.5t110.5 19.5z" />
    <glyph glyph-name="iogonek" unicode="&#x12f;" horiz-adv-x="273" 
d="M86 634q-20 18 -20 50q0 31 20 50.5t50 19.5q32 0 51.5 -19.5t19.5 -50.5t-21 -50l-16 -6h-67zM227 -129l22 -26v-22q-21 -28 -49.5 -43t-59.5 -15q-18 0 -35.5 5.5t-31 17t-22 29.5t-8.5 44q0 32 14 66.5t40 72.5h-1l-18 18v497l18 17h79l18 -17v-497l-18 -18h-5
q-27 -39 -39.5 -68t-12.5 -49q0 -18 10.5 -28.5t27.5 -10.5q13 0 26 7.5t24 19.5h21z" />
    <glyph glyph-name="Iogonek" unicode="&#x12e;" horiz-adv-x="300" 
d="M222 -140l22 -26v-22q-21 -28 -49.5 -43t-59.5 -15q-18 0 -35.5 5.5t-31 17t-22 29.5t-8.5 44q0 35 17 73.5t49 82.5l-12 12v665l18 17h83l17 -17v-665l-17 -18h-20q-60 -85 -60 -128q0 -18 10.5 -28.5t27.5 -10.5q13 0 26 7.5t24 19.5h21z" />
    <glyph glyph-name="Rcommaaccent" unicode="&#x156;" horiz-adv-x="685" 
d="M329 -41q25 0 44 -17.5t19 -48.5q0 -29 -19 -54l-68 -103h-49v25l37 79q-14 9 -20.5 23t-6.5 30q0 29 17.5 47.5t45.5 18.5zM640 461q0 -85 -37.5 -142.5t-107.5 -84.5l161 -216l-18 -18h-115l-150 212q-8 -1 -16 -1h-16h-149v-193l-18 -18h-82l-18 18v664l18 18h266
q135 0 208.5 -62t73.5 -177zM358 317q81 0 125.5 34.5t44.5 106.5q0 69 -44.5 102.5t-125.5 33.5h-166v-277h166z" />
    <glyph glyph-name="rcommaaccent" unicode="&#x157;" 
d="M144 -41q25 0 44 -17.5t19 -48.5q0 -29 -19 -54l-68 -103h-49v25l37 79q-14 9 -20.5 23t-6.5 30q0 29 17.5 47.5t45.5 18.5zM366 425q-45 0 -89.5 -11.5t-76.5 -34.5v-361l-18 -18h-79l-18 18v497l18 17h79l18 -17v-56q25 27 69 50.5t97 27.5l18 -18v-77z" />
    <glyph glyph-name="Scedilla" unicode="&#x15e;" horiz-adv-x="615" 
d="M188 521q0 -38 28 -59.5t70 -36.5t91 -28.5t91 -36.5t69.5 -61t27.5 -101q0 -85 -58.5 -137t-156.5 -63l-9 -45q37 -5 57 -29.5t20 -61.5q0 -48 -34 -76.5t-87 -28.5q-23 0 -45 4.5t-39 12.5l-10 16l5 46l13 8q15 -9 34.5 -13.5t36.5 -4.5q24 0 37.5 12.5t13.5 32.5
q0 19 -14 30.5t-39 11.5q-7 0 -14 -1t-15 -3l-8 8l15 80q-47 2 -83.5 8t-62.5 12q-30 7 -53 16l-13 21l9 75l22 12q48 -17 98.5 -28.5t115.5 -11.5q62 0 97.5 25t35.5 66q0 39 -28 60.5t-70 36t-91 27.5t-91 35.5t-70 59.5t-28 99q0 44 17 80t49.5 61.5t78.5 39.5t104 14
q53 0 95 -6t71 -13q34 -8 61 -18l13 -21l-9 -75l-22 -13q-26 11 -57 20q-27 8 -63 14.5t-78 6.5q-62 0 -95 -22t-33 -57z" />
    <glyph glyph-name="scedilla" unicode="&#x15f;" horiz-adv-x="478" 
d="M157 392q0 -25 21 -38.5t52 -24.5t68 -22.5t68 -30.5t52 -49.5t21 -79.5q0 -36 -12.5 -62.5t-35 -44.5t-54 -28.5t-68.5 -13.5l-8 -39q37 -5 57 -29.5t20 -61.5q0 -48 -34 -76.5t-87 -28.5q-23 0 -45 4.5t-39 12.5l-10 16l5 46l13 8q15 -9 34.5 -13.5t36.5 -4.5
q24 0 37.5 12.5t13.5 32.5q0 19 -14 30.5t-39 11.5q-7 0 -14 -1t-15 -3l-8 8l14 74q-29 2 -52 6t-40 8q-19 4 -34 10l-13 21l7 63l22 12q22 -9 47 -15q21 -5 47.5 -9.5t54.5 -4.5q48 0 74.5 14.5t26.5 40.5q0 27 -20.5 43t-52 27.5t-67.5 22.5t-67 29.5t-51.5 48t-20.5 77.5
q0 40 16.5 68t43.5 45.5t62.5 25t73.5 7.5q33 0 63 -4t53 -9q26 -6 49 -13l13 -21l-8 -63l-21 -12q-23 8 -48 15q-21 5 -46.5 10t-51.5 5q-48 0 -69 -12t-21 -41z" />
    <glyph glyph-name="Jcircumflex" unicode="&#x134;" horiz-adv-x="476" 
d="M413 683v-467q0 -106 -58 -163.5t-160 -57.5q-35 0 -66 4.5t-61 12.5l-16 20l1 91l22 12q32 -15 60.5 -20.5t58.5 -5.5q48 0 74 28.5t26 82.5v375h-207l-18 17v71l18 17h309zM400 766h-93l-59 85h-5l-60 -85h-92v23l101 118h106l102 -118v-23z" />
    <glyph glyph-name="jcircumflex" unicode="&#x135;" horiz-adv-x="287" 
d="M184 532l18 -17v-545q0 -90 -40 -129.5t-113 -39.5q-20 0 -35.5 2t-26.5 4l-15 20v63l17 17q10 -2 19.5 -3.5t21.5 -1.5q25 0 41 17t16 55v541l17 17h80zM298 614h-93l-59 85h-5l-60 -85h-92v23l101 118h106l102 -118v-23z" />
    </font>
</defs>
</svg>
