<?xml version="1.0" standalone="no"?>
<!DOCTYPE svg PUBLIC "-//W3C//DTD SVG 1.1//EN" "http://www.w3.org/Graphics/SVG/1.1/DTD/svg11.dtd" >
<svg xmlns="http://www.w3.org/2000/svg" xmlns:xlink="http://www.w3.org/1999/xlink" version="1.1">
<metadata>
Created by FontForge 20161116 at Wed Jul  5 17:46:24 2017
 By Jimmy Wärting
Copyright (c) 2015 by Jan-Christian Bruun. All rights reserved.
</metadata>
<defs>
<font id="Monty-Bold" horiz-adv-x="805" >
  <font-face 
    font-family="Monty Rg"
    font-weight="700"
    font-stretch="normal"
    units-per-em="1000"
    panose-1="2 0 5 4 0 0 0 2 0 4"
    ascent="750"
    descent="-250"
    x-height="539"
    cap-height="700"
    bbox="-262 -330 1445 980"
    underline-thickness="50"
    underline-position="-100"
    unicode-range="U+0020-FB02"
  />
<missing-glyph horiz-adv-x="249" 
 />
    <glyph glyph-name=".notdef" horiz-adv-x="249" 
 />
    <glyph glyph-name=".null" horiz-adv-x="0" 
 />
    <glyph glyph-name="CR" horiz-adv-x="249" 
 />
    <glyph glyph-name="space" unicode=" " horiz-adv-x="252" 
 />
    <glyph glyph-name="l" unicode="l" horiz-adv-x="387" 
d="M74 724l18 18h137l18 -18v-534c0 -41 21 -59 58 -59c14 0 32 2 46 5l13 -14v-107l-16 -15c-25 -4 -58 -6 -88 -6c-111 0 -186 64 -186 185v545z" />
    <glyph glyph-name="o" unicode="o" horiz-adv-x="637" 
d="M319 545c176 0 294 -109 294 -275s-118 -276 -294 -276c-177 0 -295 110 -295 276s118 275 295 275zM319 408c-72 0 -121 -57 -121 -140c0 -84 49 -140 121 -140c71 0 120 56 120 140c0 83 -49 140 -120 140z" />
    <glyph glyph-name="r" unicode="r" horiz-adv-x="445" 
d="M417 408l-18 -17c-64 0 -125 -23 -157 -42v-331l-18 -18h-138l-17 18v503l17 18h138l18 -18v-52c31 42 88 71 157 77l18 -17v-121z" />
    <glyph glyph-name="c" unicode="c" horiz-adv-x="593" 
d="M371 134c59 0 128 10 171 25l13 -12l-6 -113l-14 -17c-44 -14 -114 -23 -175 -23c-210 0 -326 86 -326 274c0 173 111 277 284 277c150 0 247 -85 247 -209l-18 -18h-135l-18 18c0 46 -27 72 -75 72c-68 0 -112 -39 -112 -125v-11c0 -89 55 -138 164 -138z" />
    <glyph glyph-name="n" unicode="n" horiz-adv-x="677" 
d="M417 546c119 0 197 -81 197 -207v-321l-18 -18h-138l-17 18l1 282c0 67 -37 102 -95 102c-43 0 -88 -19 -110 -43v-341l-18 -18h-138l-17 18v503l17 18h138l18 -18v-53c35 46 100 77 180 78z" />
    <glyph glyph-name="d" unicode="d" horiz-adv-x="675" 
d="M284 543c71 0 125 -19 165 -69v251l18 17h137l18 -17v-707l-18 -18h-137l-18 18v46c-40 -50 -97 -72 -168 -72c-149 0 -248 109 -248 274c0 173 101 277 251 277zM339 406c-83 0 -133 -54 -133 -136c0 -85 50 -138 133 -138c48 0 88 23 110 58v157c-23 37 -68 59 -110 59
z" />
    <glyph glyph-name="e" unicode="e" horiz-adv-x="590" 
d="M534 41l-14 -16c-48 -19 -126 -31 -182 -31c-215 0 -305 82 -305 274c0 173 110 277 283 277c210 0 278 -149 238 -311l-19 -11h-330c3 -61 46 -89 151 -89c56 0 125 13 173 32l14 -12zM316 408c-75 0 -110 -45 -111 -92h191c11 50 -11 92 -80 92z" />
    <glyph glyph-name="m" unicode="m" horiz-adv-x="1046" 
d="M790 547c119 0 197 -81 197 -207v-322l-18 -18h-137l-18 18l1 283c0 67 -37 102 -95 102c-38 0 -78 -16 -102 -36c1 -9 1 -18 1 -27v-322l-18 -18h-137l-18 18l1 283c0 67 -37 102 -95 102c-43 0 -87 -19 -110 -43v-342l-18 -18h-137l-18 18v503l18 18h137l18 -18v-52
c35 46 100 77 180 78c76 0 136 -33 168 -90c48 56 124 89 200 90z" />
    <glyph glyph-name="u" unicode="u" horiz-adv-x="655" 
d="M250 -11c-119 0 -197 81 -197 207v326l18 17h137l18 -17l-1 -278c0 -67 37 -102 95 -102c43 0 87 19 110 43v337l18 17h137l18 -17v-504l-18 -18h-137l-18 18v49c-35 -46 -100 -77 -180 -78z" />
    <glyph glyph-name="a" unicode="a" horiz-adv-x="694" 
d="M294 543c71 0 125 -19 165 -69v48l18 17h137l18 -17v-504l-18 -18h-137l-18 18v46c-40 -50 -97 -72 -168 -72c-149 0 -248 109 -248 274c0 173 101 277 251 277zM349 406c-83 0 -133 -54 -133 -136c0 -85 50 -138 133 -138c48 0 88 23 110 58v157c-23 37 -68 59 -110 59z
" />
    <glyph glyph-name="b" unicode="b" horiz-adv-x="676" 
d="M394 543c150 0 251 -104 251 -277c0 -165 -99 -274 -248 -274c-71 0 -128 22 -168 72v-46l-18 -18h-137l-18 18v707l18 17h137l18 -17v-251c40 50 94 69 165 69zM339 406c-42 0 -87 -22 -110 -59v-157c22 -35 62 -58 110 -58c83 0 133 53 133 138c0 82 -50 136 -133 136z
" />
    <glyph glyph-name="h" unicode="h" horiz-adv-x="677" 
d="M421 547c119 0 197 -81 197 -207v-322l-18 -18h-137l-18 18l1 283c0 67 -37 102 -95 102c-43 0 -87 -19 -110 -43v-342l-18 -18h-137l-18 18v707l18 17h137l18 -17v-256c35 46 100 77 180 78z" />
    <glyph glyph-name="ae" unicode="&#xe6;" horiz-adv-x="990" 
d="M949 240l-18 -11h-331c4 -61 49 -89 167 -89c52 0 117 9 158 24l13 -12l-6 -114l-14 -16c-46 -13 -122 -22 -164 -22c-129 0 -220 31 -272 95c-38 -60 -115 -95 -211 -95c-149 0 -248 109 -248 274c0 173 101 277 251 277c94 0 170 -32 211 -95c49 61 128 95 227 95
c209 0 277 -149 237 -311zM436 194c-5 24 -8 51 -8 80c0 30 3 57 9 83c-23 36 -67 57 -108 57c-83 0 -133 -54 -133 -136c0 -85 50 -138 133 -138c46 0 84 21 107 54zM791 322c12 50 -10 92 -79 92c-75 0 -111 -45 -112 -92h191z" />
    <glyph glyph-name="oslash" unicode="&#xf8;" horiz-adv-x="630" 
d="M436 526c108 -38 175 -131 175 -256c0 -166 -118 -276 -294 -276c-18 0 -36 1 -53 3l-45 -139h-46v78l25 77c-109 38 -176 132 -176 257c0 166 118 275 295 275c18 0 36 -1 53 -3l42 129h48v-72zM239 139l92 282l-14 1c-79 0 -132 -62 -132 -154c0 -57 20 -103 54 -129z
M317 114c78 0 131 61 131 154c0 57 -21 102 -54 129l-92 -282z" />
    <glyph glyph-name="aring" unicode="&#xe5;" horiz-adv-x="697" 
d="M362 593c-67 0 -121 54 -121 120s54 120 121 120s121 -54 121 -120s-54 -120 -121 -120zM362 765c-29 0 -53 -24 -53 -52c0 -29 24 -52 53 -52s53 23 53 52c0 28 -24 52 -53 52zM294 543c71 0 125 -19 165 -69v48l18 17h137l18 -17v-504l-18 -18h-137l-18 18v46
c-40 -50 -97 -72 -168 -72c-149 0 -248 109 -248 274c0 173 101 277 251 277zM349 406c-83 0 -133 -54 -133 -136c0 -85 50 -138 133 -138c48 0 88 23 110 58v157c-23 37 -68 59 -110 59z" />
    <glyph glyph-name="AE" unicode="&#xc6;" horiz-adv-x="926" 
d="M872 560h-289v-144h169l18 -18v-97l-18 -17h-169v-144h288l18 -18v-105l-17 -17h-450l-17 17v118l-177 1l-48 -120l-22 -16h-153l-17 17l298 674l17 9h568l18 -18v-105zM405 263v298h-17l-112 -298h129z" />
    <glyph glyph-name="i" unicode="i" horiz-adv-x="309" 
d="M86 539h137l18 -18v-504l-18 -17h-137l-18 17v504zM95 606l-19 9c-11 16 -18 37 -18 60c0 56 40 97 97 97c56 0 96 -41 96 -97c0 -23 -6 -43 -17 -59l-21 -10h-118z" />
    <glyph glyph-name="k" unicode="k" horiz-adv-x="658" 
d="M631 521l-178 -216l178 -287l-18 -18h-162l-16 12l-94 161l-99 -120v-35l-18 -18h-137l-18 18v707l18 17h137l18 -17v-448l194 253l15 9h162z" />
    <glyph glyph-name="q" unicode="q" horiz-adv-x="683" 
d="M296 -6c-150 0 -251 104 -251 277c0 165 99 274 248 274c71 0 128 -22 168 -72v48l18 18h137l18 -18v-698l-18 -17h-137l-18 17v240c-40 -50 -94 -69 -165 -69zM351 131c42 0 87 22 110 59v157c-22 35 -62 58 -110 58c-83 0 -133 -53 -133 -138c0 -82 50 -136 133 -136z
" />
    <glyph glyph-name="f" unicode="f" horiz-adv-x="425" 
d="M333 611c-44 0 -60 -17 -60 -59v-13h107l17 -18v-94l-17 -18h-107v-391l-18 -18h-136l-18 18v391h-57l-18 18v94l18 18h57v40c0 112 75 171 179 171c43 0 92 -8 127 -21l17 -19l-6 -93l-17 -18c-22 8 -47 12 -68 12z" />
    <glyph glyph-name="g" unicode="g" horiz-adv-x="654" 
d="M593 539l18 -18v-449c0 -183 -121 -273 -319 -273c-100 0 -170 18 -198 25l-14 17v115l14 11c30 -10 105 -34 187 -34c94 0 157 45 157 134v36c-40 -50 -98 -73 -158 -73c-152 0 -248 96 -248 256c0 162 89 259 238 259c71 0 128 -22 168 -72v48l18 18h137zM438 230v117
c-22 35 -68 58 -116 58c-71 0 -117 -39 -117 -121c0 -76 46 -113 117 -113c42 0 93 22 116 59z" />
    <glyph glyph-name="y" unicode="y" horiz-adv-x="677" 
d="M596 539l18 -17v-450c0 -183 -122 -273 -319 -273c-73 0 -147 13 -198 37l-14 17v115l13 11c47 -28 126 -46 187 -46c95 0 158 45 158 134v55c-35 -46 -100 -77 -180 -78c-119 0 -197 81 -197 207v271l18 17h137l18 -17l-1 -223c0 -67 37 -102 95 -102c43 0 87 19 110 43
v282l18 17h137z" />
    <glyph glyph-name="t" unicode="t" horiz-adv-x="461" 
d="M434 32l-16 -19c-35 -14 -84 -21 -127 -21c-104 0 -179 59 -179 171v246h-58l-17 17v95l17 18h58l61 125h93l18 -18v-107h123l18 -18v-95l-18 -17h-123v-219c0 -42 16 -59 60 -59c21 0 46 4 67 12l18 -18z" />
    <glyph glyph-name="p" unicode="p" horiz-adv-x="673" 
d="M388 -6c-71 0 -125 19 -165 69v-240l-18 -17h-137l-18 17v698l18 18h137l18 -18v-48c40 50 97 72 168 72c149 0 248 -109 248 -274c0 -173 -101 -277 -251 -277zM333 131c83 0 133 54 133 136c0 85 -50 138 -133 138c-48 0 -88 -23 -110 -58v-157c23 -37 68 -59 110 -59z
" />
    <glyph glyph-name="j" unicode="j" horiz-adv-x="322" 
d="M230 539l18 -18v-538c0 -121 -75 -185 -186 -185c-37 0 -65 4 -86 7l-16 15v105l14 14c14 -3 28 -4 43 -4c37 0 58 18 58 59v527l18 18h137zM102 606l-18 9c-12 16 -19 37 -19 60c0 56 41 97 97 97s97 -41 97 -97c0 -23 -7 -43 -18 -59l-21 -10h-118z" />
    <glyph glyph-name="period" unicode="." horiz-adv-x="244" 
d="M121 159c49 0 84 -34 84 -83c0 -50 -35 -84 -84 -84s-83 34 -83 84c0 49 34 83 83 83z" />
    <glyph glyph-name="v" unicode="v" horiz-adv-x="615" 
d="M232 0l-20 14l-185 507l18 18h138l18 -14l100 -357h19l102 357l19 14h130l17 -18l-184 -507l-19 -14h-153z" />
    <glyph glyph-name="w" unicode="w" horiz-adv-x="966" 
d="M609 0l-19 12l-99 307h-8l-98 -307l-20 -12h-150l-21 13l-163 509l18 17h136l20 -11l91 -336h10l96 330l18 17h140l18 -17l97 -330h11l91 337l19 10h128l18 -17l-164 -510l-21 -12h-148z" />
    <glyph glyph-name="z" unicode="z" horiz-adv-x="576" 
d="M260 130h255l18 -18v-94l-18 -18h-455l-17 18v86l265 305h-241l-18 18v94l18 18h439l18 -18v-86z" />
    <glyph glyph-name="A" unicode="A" horiz-adv-x="778" 
d="M504 688l272 -669l-19 -19h-150l-18 19l-46 117l-304 1l-48 -121l-16 -16h-149l-15 16l277 671l16 13h184zM287 264h207l-93 266h-21z" />
    <glyph glyph-name="B" unicode="B" horiz-adv-x="708" 
d="M515 356c102 -13 160 -73 160 -162c0 -119 -104 -194 -269 -194h-326l-17 18v664l17 18h314c157 0 257 -68 257 -175c0 -91 -38 -148 -136 -163v-6zM240 564v-144h144c52 0 85 28 85 73s-33 71 -85 71h-144zM384 137c66 0 107 29 107 79c0 47 -41 76 -107 76h-144v-155
h144z" />
    <glyph glyph-name="C" unicode="C" horiz-adv-x="695" 
d="M422 -7c-250 0 -387 135 -387 361c0 228 138 352 391 352c110 0 218 -23 218 -23l16 -19l-12 -124l-23 -11s-94 29 -194 29c-132 0 -214 -73 -214 -204c0 -128 86 -213 213 -213c120 0 197 29 197 29l22 -11l11 -124l-16 -19s-75 -23 -222 -23z" />
    <glyph glyph-name="D" unicode="D" horiz-adv-x="777" 
d="M365 700c220 0 372 -142 372 -350c0 -207 -154 -350 -379 -350h-277l-17 18v664l17 18h284zM369 142c109 0 187 84 187 207c0 124 -82 209 -195 209h-119v-416h127z" />
    <glyph glyph-name="E" unicode="E" horiz-adv-x="670" 
d="M600 560h-352v-143h206l18 -18v-97l-18 -17h-206v-145h352l18 -18v-104l-18 -18h-513l-17 18v664l17 18h513l18 -18v-104z" />
    <glyph glyph-name="F" unicode="F" horiz-adv-x="595" 
d="M571 700l17 -18v-104l-17 -18h-324v-165h202l17 -18v-97l-17 -18h-201v-244l-18 -18h-143l-18 18v664l18 18h484z" />
    <glyph glyph-name="G" unicode="G" horiz-adv-x="756" 
d="M695 401l18 -18v-365l-18 -18h-139l-17 17l-1 34h-9c-33 -39 -95 -59 -169 -59c-195 0 -335 140 -335 358c0 203 160 356 406 356c79 0 153 -11 220 -34l15 -20l-16 -129l-22 -9c-59 28 -133 43 -201 43c-132 0 -220 -90 -220 -207c0 -131 83 -209 205 -209
c47 0 92 15 124 34v102h-117l-14 13v99l12 12h278z" />
    <glyph glyph-name="H" unicode="H" horiz-adv-x="780" 
d="M699 700l17 -18v-664l-17 -18h-143l-18 18v257h-290v-257l-17 -18h-143l-18 18v664l18 18h143l17 -18v-268h290v268l18 18h143z" />
    <glyph glyph-name="I" unicode="I" horiz-adv-x="316" 
d="M230 700l18 -18v-664l-18 -18h-143l-17 18v664l17 18h143z" />
    <glyph glyph-name="J" unicode="J" horiz-adv-x="529" 
d="M461 701l17 -18v-456c0 -149 -97 -235 -254 -235c-52 0 -104 7 -149 21l-16 18v126l23 11c36 -14 79 -23 129 -23c55 0 88 29 88 86v326h-203l-18 18v108l18 18h365z" />
    <glyph glyph-name="K" unicode="K" horiz-adv-x="718" 
d="M706 682l-249 -294l249 -370l-17 -18h-176l-19 12l-159 236l-87 -97v-133l-18 -18h-142l-18 18v664l18 18h142l18 -18v-296l255 303l27 11h159z" />
    <glyph glyph-name="L" unicode="L" horiz-adv-x="570" 
d="M528 149l17 -18v-113l-17 -18h-440l-18 18v664l18 18h143l17 -18v-533h280z" />
    <glyph glyph-name="M" unicode="M" horiz-adv-x="915" 
d="M821 700l18 -18v-664l-18 -18h-143l-17 18v428h-9l-127 -229h-144l-125 229h-9l1 -428l-18 -18h-143l-17 18v664l17 18h190l173 -304h8l172 304h191z" />
    <glyph glyph-name="N" unicode="N" 
d="M721 701l17 -18v-665l-17 -18h-248l-217 488h-9l1 -471l-18 -17h-143l-17 17v665l17 18h246l217 -488h10v471l18 18h143z" />
    <glyph glyph-name="O" unicode="O" 
d="M402 706c217 0 379 -152 379 -355c0 -204 -162 -359 -379 -359c-216 0 -378 154 -378 359c0 204 162 355 378 355zM404 557c-108 0 -198 -89 -198 -207s91 -209 198 -209c108 0 194 91 194 209s-86 207 -194 207z" />
    <glyph glyph-name="P" unicode="P" horiz-adv-x="668" 
d="M367 700c179 0 282 -88 282 -244c0 -164 -103 -259 -282 -259h-127v-179l-18 -18h-142l-18 18v664l18 18h287zM358 337c78 0 123 39 123 113c0 73 -45 110 -123 110h-118v-223h118z" />
    <glyph glyph-name="Q" unicode="Q" horiz-adv-x="797" 
d="M779 351c0 -123 -59 -228 -153 -292l115 -196l-18 -17h-178l-78 151c-22 -4 -44 -5 -67 -5c-216 0 -378 154 -378 359c0 204 162 355 378 355c217 0 379 -152 379 -355zM402 141c108 0 194 91 194 209s-86 207 -194 207s-198 -89 -198 -207s91 -209 198 -209z" />
    <glyph glyph-name="R" unicode="R" horiz-adv-x="718" 
d="M665 456c0 -107 -45 -184 -127 -225l144 -213l-17 -18h-181l-121 197h-124v-180l-17 -17h-143l-18 17v665l18 18h295c185 0 291 -88 291 -244zM374 337c77 0 122 39 122 113c0 73 -45 110 -122 110h-135v-223h135z" />
    <glyph glyph-name="S" unicode="S" horiz-adv-x="624" 
d="M338 708c112 0 199 -34 199 -34l17 -19l-10 -124l-22 -10s-100 38 -198 38c-73 0 -101 -17 -101 -51c0 -115 370 -47 370 -300c0 -140 -130 -214 -301 -214c-135 0 -233 44 -233 44l-16 20l11 115l19 16s100 -46 219 -46c82 0 114 19 114 58c0 124 -370 48 -370 296
c0 129 92 211 302 211z" />
    <glyph glyph-name="T" unicode="T" horiz-adv-x="614" 
d="M586 700l18 -18v-109l-18 -18h-193v-538l-18 -17h-143l-17 17v538h-192l-17 18v109l17 18h563z" />
    <glyph glyph-name="U" unicode="U" horiz-adv-x="754" 
d="M682 700l18 -17v-389c0 -185 -123 -302 -319 -302c-197 0 -323 117 -323 302v389l17 17h143l18 -17v-389c0 -95 61 -153 146 -153c84 0 140 58 140 153v389l17 17h143z" />
    <glyph glyph-name="V" unicode="V" horiz-adv-x="720" 
d="M259 0l-14 10l-235 672l18 18h157l17 -13l151 -515h15l156 514l19 14h149l17 -18l-239 -670l-17 -12h-194z" />
    <glyph glyph-name="W" unicode="W" horiz-adv-x="1066" 
d="M1043 700l17 -18l-195 -666l-16 -16h-181l-17 15l-116 401h-10l-121 -400l-16 -16h-179l-20 17l-194 665l18 18h158l17 -15l112 -427h15l124 424l18 18h148l18 -18l126 -424h15l112 428l14 14h153z" />
    <glyph glyph-name="X" unicode="X" horiz-adv-x="652" 
d="M436 366l201 -349l-18 -17h-151l-22 12l-126 235l-131 -235l-23 -12h-139l-18 17l200 341l-184 324l17 18h149l17 -10l112 -214l114 212l20 12h145l18 -18z" />
    <glyph glyph-name="Y" unicode="Y" horiz-adv-x="664" 
d="M639 700l18 -18l-235 -456v-208l-18 -18h-141l-18 18v203l-241 461l18 18h154l18 -10l135 -308h12l135 307l19 11h144z" />
    <glyph glyph-name="Z" unicode="Z" horiz-adv-x="680" 
d="M267 141h362l18 -18v-106l-18 -17h-582l-18 17v97l375 445h-345l-18 17v106l18 18h564l18 -18v-96z" />
    <glyph glyph-name="zero" unicode="0" horiz-adv-x="697" 
d="M352 706c198 0 309 -127 309 -355c0 -229 -111 -356 -309 -356c-200 0 -311 127 -311 356c0 228 111 355 311 355zM352 576c-90 0 -128 -65 -128 -225s38 -226 128 -226c88 0 127 66 127 226s-39 225 -127 225z" />
    <glyph glyph-name="x" unicode="x" horiz-adv-x="546" 
d="M383 277l143 -260l-18 -17h-141l-15 8l-83 166l-94 -165l-18 -9h-131l-17 17l144 259l-132 245l17 18h140l15 -9l76 -152l79 151l19 10h129l18 -18z" />
    <glyph glyph-name="Oslash" unicode="&#xd8;" horiz-adv-x="807" 
d="M566 673c130 -55 215 -175 215 -322c0 -204 -162 -359 -379 -359c-25 0 -49 2 -73 6l-38 -110h-75v71l23 65c-130 56 -215 178 -215 327c0 204 162 355 378 355c25 0 50 -3 73 -6l39 110h75v-72zM292 177l133 378c-7 1 -14 2 -21 2c-108 0 -198 -89 -198 -207
c0 -73 34 -136 86 -173zM404 141c108 0 194 91 194 209c0 73 -34 135 -85 172l-133 -380c8 -1 16 -1 24 -1z" />
    <glyph glyph-name="Aring" unicode="&#xc5;" horiz-adv-x="774" 
d="M524 619l244 -600l-18 -19h-150l-19 19l-45 117h-305l-48 -120l-15 -16h-150l-15 16l246 597c-16 25 -24 57 -24 85c0 89 72 161 161 161c88 0 160 -72 160 -161c0 -26 -7 -55 -22 -79zM386 754c-31 0 -56 -25 -56 -56c0 -30 25 -55 56 -55c30 0 55 25 55 55
c0 31 -25 56 -55 56zM279 264h207l-93 266h-21z" />
    <glyph glyph-name="one" unicode="1" horiz-adv-x="362" 
d="M273 700l18 -18v-665l-17 -17h-143l-18 17v458h-62l-18 18v111l18 17h21c46 0 84 27 103 65l14 14h84z" />
    <glyph glyph-name="two" unicode="2" horiz-adv-x="574" 
d="M542 17l-18 -17h-472s-11 22 -11 64c0 122 74 205 224 317c59 46 86 73 86 116c0 39 -26 62 -94 62c-51 0 -133 -15 -186 -34l-23 11l-9 123l17 19c56 18 139 30 220 30c181 0 261 -58 261 -183c0 -76 -36 -142 -132 -218c-127 -100 -174 -137 -174 -167l292 12l18 -18z
" />
    <glyph glyph-name="three" unicode="3" horiz-adv-x="559" 
d="M239 140c58 0 93 28 93 72c0 47 -39 76 -102 76h-96l-18 17v85l18 17h92c68 0 106 26 106 72c0 47 -32 78 -98 78c-108 0 -181 -34 -181 -34l-23 10l-9 124l16 19c57 18 121 30 202 30c192 0 279 -67 279 -200c0 -79 -39 -131 -104 -154v-5c65 -20 104 -81 104 -145
c0 -125 -89 -210 -279 -210c-81 0 -145 12 -202 30l-16 18l9 124l23 11s83 -35 186 -35z" />
    <glyph glyph-name="four" unicode="4" horiz-adv-x="696" 
d="M662 246l18 -18v-98l-18 -17h-92v-96l-17 -17h-143l-18 17v94h-347l-18 18v101l315 458l25 13h186l17 -19v-436h92zM392 246v259l-176 -259h176z" />
    <glyph glyph-name="five" unicode="5" horiz-adv-x="595" 
d="M262 -7c-139 0 -205 30 -205 30l-16 18l9 124l23 11s80 -35 181 -35c71 0 109 31 109 86c0 50 -33 83 -112 83c-36 0 -73 -8 -103 -24h-25l-59 42v354l18 18h423l18 -18v-112l-18 -18h-279v-115c27 6 55 9 82 9c162 0 246 -73 246 -211c0 -161 -117 -242 -292 -242z" />
    <glyph glyph-name="six" unicode="6" horiz-adv-x="640" 
d="M539 525c0 0 -79 34 -165 34c-112 0 -179 -60 -179 -158c49 33 104 51 177 51c138 0 226 -82 226 -218c0 -148 -104 -242 -262 -242c-188 0 -302 116 -302 348c0 228 142 368 331 368c120 0 190 -30 190 -30l16 -19l-9 -123zM332 322c-81 0 -133 -45 -133 -45v-4
c0 -96 57 -139 130 -139c64 0 108 34 108 99c0 53 -35 89 -105 89z" />
    <glyph glyph-name="seven" unicode="7" horiz-adv-x="613" 
d="M562 700l18 -18v-107c0 -252 -233 -277 -233 -557l-18 -18h-130l-18 18v41c0 231 225 343 225 495h-215v-82l-18 -18h-120l-18 18v211l18 17h509z" />
    <glyph glyph-name="eight" unicode="8" horiz-adv-x="638" 
d="M490 367c68 -20 118 -77 118 -169c0 -126 -112 -206 -287 -206s-287 79 -287 203c0 93 50 150 127 172v5c-60 29 -91 72 -91 153c0 112 98 183 250 183c154 0 251 -73 251 -188c0 -73 -25 -118 -81 -148v-5zM322 566c-58 0 -90 -30 -90 -74c0 -42 32 -71 90 -71
c57 0 89 31 89 71c0 42 -32 74 -89 74zM321 140c77 0 124 33 124 87c0 45 -46 83 -124 83c-77 0 -123 -37 -123 -83c0 -53 42 -87 123 -87z" />
    <glyph glyph-name="nine" unicode="9" horiz-adv-x="630" 
d="M88 176c0 0 80 -35 166 -35c112 0 179 61 179 159c-50 -33 -105 -51 -177 -51c-138 0 -226 82 -226 218c0 148 104 242 262 242c181 0 302 -116 302 -348c0 -228 -142 -368 -332 -368c-120 0 -189 30 -189 30l-17 18l10 124zM296 379c81 0 133 45 133 45v4
c0 96 -57 139 -130 139c-64 0 -109 -34 -109 -99c0 -53 35 -89 106 -89z" />
    <glyph glyph-name="exclam" unicode="!" horiz-adv-x="268" 
d="M135 159c49 0 84 -34 84 -83c0 -50 -35 -84 -84 -84c-48 0 -83 34 -83 84c0 49 35 83 83 83zM199 696l17 -17v-173l-32 -248l-18 -18h-63l-18 18l-33 248v173l18 17h129z" />
    <glyph glyph-name="dollar" unicode="$" horiz-adv-x="636" 
d="M596 207c0 -114 -86 -185 -212 -206v-132l-18 -17h-97l-18 17v126c-111 8 -189 43 -189 43l-16 19l11 116l20 16s100 -47 218 -47c83 0 114 20 114 59c0 124 -370 47 -370 295c0 109 66 184 212 205v136l18 18h97l18 -18v-131c91 -7 156 -33 156 -33l17 -18l-9 -124
l-23 -11s-99 39 -198 39c-72 0 -101 -17 -101 -51c0 -116 370 -48 370 -301z" />
    <glyph glyph-name="percent" unicode="%" horiz-adv-x="1024" 
d="M227 703c120 0 195 -81 195 -211c0 -131 -75 -212 -195 -212s-196 81 -196 212c0 130 76 211 196 211zM227 611c-53 0 -85 -45 -85 -119s32 -119 85 -119s85 45 85 119s-32 119 -85 119zM797 420c120 0 195 -81 195 -211c0 -131 -75 -213 -195 -213s-196 82 -196 213
c0 130 76 211 196 211zM797 328c-53 0 -85 -45 -85 -119c0 -75 32 -120 85 -120s85 45 85 120c0 74 -32 119 -85 119zM809 701l18 -18l-475 -666l-29 -17h-116l-17 17l475 666l28 18h116z" />
    <glyph glyph-name="ampersand" unicode="&#x26;" horiz-adv-x="700" 
d="M640 421l18 -18v-72l-18 -18h-56c22 -29 35 -67 35 -115c0 -126 -112 -206 -287 -206s-287 79 -287 203c0 93 50 150 127 172v5c-60 29 -91 72 -91 153c0 112 98 183 250 183c62 0 113 -9 166 -30l10 -28l-31 -97l-27 -10c-37 15 -75 23 -116 23c-58 0 -90 -30 -90 -74
c0 -42 32 -71 90 -71h307zM456 227c0 48 -28 83 -28 83h-96c-77 0 -123 -37 -123 -83c0 -53 42 -87 123 -87c77 0 124 33 124 87z" />
    <glyph glyph-name="parenleft" unicode="(" horiz-adv-x="358" 
d="M189 -124l-23 18c-77 115 -116 258 -116 415s39 300 116 415l23 18h115l18 -18c-68 -114 -110 -259 -110 -415s42 -300 110 -415l-18 -18h-115z" />
    <glyph glyph-name="parenright" unicode=")" horiz-adv-x="371" 
d="M206 -106l-23 -18h-115l-18 18c68 115 110 259 110 415s-42 301 -110 415l18 18h115l23 -18c77 -115 116 -258 116 -415s-39 -300 -116 -415z" />
    <glyph glyph-name="plus" unicode="+" horiz-adv-x="508" 
d="M476 289l-18 -17h-149v-151l-18 -17h-73l-18 17v151h-150l-17 17v74l17 18h150v150l18 18h73l18 -18v-150h150l17 -18v-74z" />
    <glyph glyph-name="comma" unicode="," horiz-adv-x="249" 
d="M122 158c45 0 84 -29 84 -83c0 -25 -9 -47 -22 -67l-89 -126h-67v34l44 93c-24 15 -34 40 -34 66c0 49 36 83 84 83z" />
    <glyph glyph-name="colon" unicode=":" horiz-adv-x="242" 
d="M121 456c49 0 84 -34 84 -83c0 -50 -35 -84 -84 -84s-83 34 -83 84c0 49 34 83 83 83zM121 159c49 0 84 -34 84 -83c0 -50 -35 -84 -84 -84s-83 34 -83 84c0 49 34 83 83 83z" />
    <glyph glyph-name="semicolon" unicode=";" horiz-adv-x="247" 
d="M121 289c-49 0 -83 34 -83 84c0 49 34 83 83 83s84 -34 84 -83c0 -50 -35 -84 -84 -84zM122 158c45 0 84 -29 84 -83c0 -25 -9 -47 -22 -67l-89 -126h-67v34l44 93c-24 15 -34 40 -34 66c0 49 36 83 84 83z" />
    <glyph glyph-name="slash" unicode="/" horiz-adv-x="397" 
d="M409 811l17 -17l-310 -887l-29 -18h-98l-18 18l310 887l29 17h99z" />
    <glyph glyph-name="quotedblbase" unicode="&#x201e;" horiz-adv-x="438" 
d="M122 158c45 0 84 -29 84 -83c0 -25 -9 -47 -22 -67l-89 -126h-67v34l44 93c-24 15 -34 40 -34 66c0 49 36 83 84 83zM316 158c45 0 84 -29 84 -83c0 -25 -9 -47 -22 -67l-89 -126h-67v34l44 93c-24 15 -34 40 -34 66c0 49 36 83 84 83z" />
    <glyph glyph-name="equal" unicode="=" horiz-adv-x="504" 
d="M459 489l18 -18v-74l-18 -17h-408l-18 17v74l18 18h408zM51 274h408l18 -18v-74l-18 -17h-408l-18 17v74z" />
    <glyph glyph-name="question" unicode="?" horiz-adv-x="529" 
d="M226 159c49 0 84 -34 84 -83c0 -50 -35 -84 -84 -84s-83 34 -83 84c0 49 34 83 83 83zM247 703c170 0 249 -64 249 -183c0 -76 -50 -150 -131 -218l-76 -59h-12c-43 12 -83 5 -101 0h-10v84l63 49c49 39 81 74 81 116c0 40 -25 63 -93 63c-47 0 -99 -12 -146 -35l-22 11
l-10 124l17 18c56 18 126 30 191 30z" />
    <glyph glyph-name="at" unicode="@" horiz-adv-x="957" 
d="M488 700c245 0 428 -180 428 -426c0 -149 -80 -246 -192 -246c-57 0 -100 22 -115 72c-34 -44 -89 -70 -150 -70c-126 0 -231 88 -231 239c0 144 114 235 231 235c64 0 108 -24 142 -65v39l15 16h68l16 -16v-331c3 -29 17 -39 36 -39c42 0 83 67 83 163
c0 191 -123 339 -331 339c-190 0 -343 -152 -343 -342c0 -188 143 -326 330 -326c54 0 119 15 174 50l24 -4l29 -50l-5 -24c-60 -40 -149 -63 -222 -63c-243 0 -428 178 -428 417c0 243 195 432 441 432zM601 192v147c-25 44 -76 73 -134 73c-83 0 -141 -55 -141 -142
c0 -91 51 -148 140 -148c54 0 109 24 135 70z" />
    <glyph glyph-name="backslash" unicode="\" horiz-adv-x="461" 
d="M37 811h99l28 -18l311 -887l-18 -17h-98l-29 17l-311 887z" />
    <glyph glyph-name="hyphen" unicode="-" horiz-adv-x="363" 
d="M302 361l17 -18v-74l-17 -17h-229l-18 17v74l18 18h229z" />
    <glyph glyph-name="quotesinglbase" unicode="&#x201a;" horiz-adv-x="248" 
d="M122 158c45 0 84 -29 84 -83c0 -25 -9 -47 -22 -67l-89 -126h-67v34l44 93c-24 15 -34 40 -34 66c0 49 36 83 84 83z" />
    <glyph glyph-name="bracketleft" unicode="[" horiz-adv-x="375" 
d="M326 614h-102v-610h102l18 -18v-92l-18 -18h-239l-17 18v830l17 18h239l18 -18v-92z" />
    <glyph glyph-name="bracketright" unicode="]" horiz-adv-x="402" 
d="M190 614h-102l-18 18v92l18 18h239l17 -18v-830l-17 -18h-239l-18 18v92l18 18h102v610z" />
    <glyph glyph-name="quotedbl" unicode="&#x22;" horiz-adv-x="442" 
d="M173 700l17 -18v-237l-17 -18h-95l-18 18v237l18 18h95zM379 682v-237l-17 -18h-95l-18 18v237l18 18h95z" />
    <glyph glyph-name="Ccedilla" unicode="&#xc7;" horiz-adv-x="677" 
d="M622 170l22 -11l11 -124l-17 -19s-56 -18 -168 -23l-6 -32c55 -9 90 -46 90 -101c0 -77 -58 -125 -152 -125c-36 0 -74 6 -105 17l-6 18l10 75l17 6c18 -9 45 -15 67 -15c32 0 51 16 51 40c0 22 -16 38 -56 38c-8 0 -19 -1 -29 -2l-12 12l14 71
c-209 22 -323 153 -323 358c0 228 138 353 391 353c110 0 217 -24 217 -24l17 -18l-12 -125l-23 -10s-94 28 -194 28c-132 0 -214 -73 -214 -204c0 -127 86 -212 213 -212c120 0 197 29 197 29z" />
    <glyph glyph-name="Eth" unicode="&#xd0;" horiz-adv-x="803" 
d="M403 700c220 0 372 -142 372 -350c0 -207 -154 -350 -379 -350h-276l-18 18v285h-84l-18 18v59l18 17h84v286l18 17h283zM407 142c109 0 187 84 187 207c0 124 -82 209 -195 209h-119v-161h141l18 -17v-59l-18 -18h-141v-161h127z" />
    <glyph glyph-name="ccedilla" unicode="&#xe7;" horiz-adv-x="591" 
d="M369 134c59 0 128 10 171 25l13 -12l-6 -114l-14 -16c-35 -11 -87 -19 -138 -22l-5 -30c55 -8 89 -46 89 -101c0 -77 -58 -125 -151 -125c-36 0 -74 6 -106 17l-6 18l10 75l17 6c19 -9 46 -15 68 -15c31 0 51 16 51 40c0 22 -16 38 -56 38c-9 0 -19 -1 -30 -2l-12 12
l14 71c-159 20 -246 106 -246 269c0 173 111 277 284 277c150 0 247 -85 247 -210l-18 -17h-135l-18 17c0 47 -27 72 -75 72c-69 0 -112 -39 -112 -124v-11c0 -90 55 -138 164 -138z" />
    <glyph glyph-name="eth" unicode="&#xf0;" horiz-adv-x="606" 
d="M533 620l-82 -28c81 -88 128 -196 128 -308c0 -177 -117 -292 -297 -292c-158 0 -261 92 -261 234c0 133 89 219 227 219c66 0 129 -23 161 -60c-18 53 -56 108 -107 157l-149 -49l-18 7l-18 56l9 16l100 34c-33 23 -65 43 -104 62v24l85 51h24c51 -22 107 -54 148 -86
l130 43l17 -7l19 -55zM403 257v21s-48 52 -114 52c-63 0 -103 -37 -103 -96c0 -60 41 -99 103 -99c65 0 114 44 114 122z" />
    <glyph glyph-name="divide" unicode="&#xf7;" horiz-adv-x="512" 
d="M460 381l17 -18v-74l-17 -17h-409l-18 17v74l18 18h409zM255 583c47 0 78 -32 78 -78c0 -45 -32 -77 -78 -77c-45 0 -78 32 -78 77c0 46 33 78 78 78zM255 226c46 0 78 -33 78 -78s-32 -78 -78 -78c-45 0 -78 33 -78 78s33 78 78 78z" />
    <glyph glyph-name="Euro" unicode="&#x20ac;" horiz-adv-x="777" 
d="M704 169l23 -10l11 -124l-17 -19s-74 -24 -221 -24c-205 0 -334 91 -374 247h-81l-17 18v39l17 18h69c-1 13 -1 26 -1 39c0 12 0 23 1 34h-69l-17 18v39l17 18h80c39 159 170 244 379 244c110 0 217 -24 217 -24l17 -19l-13 -124l-22 -11s-95 29 -195 29
c-88 0 -155 -33 -188 -95h213l17 -18v-39l-17 -18h-236c-1 -11 -2 -22 -2 -34c0 -14 1 -27 3 -39h235l17 -18v-39l-17 -18h-210c35 -61 101 -98 185 -98c120 0 196 28 196 28z" />
    <glyph glyph-name="florin" unicode="&#x192;" horiz-adv-x="493" 
d="M391 373l-18 -18h-107l-46 -379c-14 -109 -93 -179 -211 -178c-35 1 -78 13 -108 29l-9 23l32 86l23 9c13 -7 30 -12 42 -12c36 -1 57 26 62 68l44 354h-53l-18 18l10 75l18 18h57l13 109c13 108 98 178 215 177c46 0 96 -11 132 -30l9 -23l-42 -86l-23 -9
c-16 8 -34 13 -49 14c-40 1 -69 -26 -74 -68l-10 -84h102l18 -18z" />
    <glyph glyph-name="thorn" unicode="&#xfe;" horiz-adv-x="710" 
d="M412 545h1c150 0 250 -104 250 -277c0 -165 -99 -274 -248 -274c-71 0 -128 22 -168 72v-242l-18 -18h-137l-18 18v901l18 17h137l18 -17v-249c40 50 94 69 165 69zM490 272c0 82 -50 136 -133 136c-42 0 -87 -22 -110 -59v-157c22 -35 62 -58 110 -58
c83 0 133 53 133 138z" />
    <glyph glyph-name="quotesingle" unicode="'" horiz-adv-x="255" 
d="M189 682v-237l-17 -18h-95l-18 18v237l18 18h95z" />
    <glyph glyph-name="numbersign" unicode="#" horiz-adv-x="751" 
d="M670 275l18 -18l-10 -83l-17 -18h-121l-17 -138l-17 -18h-89l-18 18l17 138h-139l-17 -138l-17 -18h-89l-18 18l17 138h-115l-17 18l9 83l18 18h120l17 143h-113l-17 18l8 84l18 17h119l18 145l18 18h88l18 -18l-18 -145h140l18 145l18 18h88l18 -18l-18 -145h115l18 -17
l-9 -84l-17 -18h-122l-18 -143h115zM431 275l18 143h-139l-18 -143h139z" />
    <glyph glyph-name="s" unicode="s" horiz-adv-x="505" 
d="M251 -6c-123 0 -196 29 -196 29l-15 20l17 110l20 14s86 -36 186 -36c46 0 59 13 59 30c0 56 -278 38 -278 213c0 110 75 171 237 171c83 0 161 -26 161 -26l15 -20l-14 -109l-20 -15s-83 33 -160 33c-47 0 -60 -11 -60 -26c0 -55 283 -26 283 -212
c0 -113 -85 -176 -235 -176z" />
    <glyph glyph-name="asterisk" unicode="*" horiz-adv-x="384" 
d="M351 508l1 -10l-35 -63l-10 -2l-77 47l2 -89l-7 -7h-70l-9 8l2 88l-75 -45l-10 2l-35 60l2 12l76 43l-77 42l-2 10l36 64l10 2l74 -46l-1 88l7 7h72l7 -7l-1 -88l76 44l9 -1l36 -63l-1 -10l-80 -42z" />
    <glyph glyph-name="fraction" unicode="&#x2044;" horiz-adv-x="141" 
d="M357 701l18 -17l-474 -665l-37 -19h-109l-17 18l473 664l41 19h105z" />
    <glyph glyph-name="asciicircum" unicode="^" horiz-adv-x="583" 
d="M357 525l178 -374l-15 -13h-86l-21 15l-124 269h-5l-123 -268l-20 -16h-87l-15 12l179 375h139z" />
    <glyph glyph-name="braceleft" unicode="{" horiz-adv-x="381" 
d="M320 10l17 -17l12 -96l-18 -18c-15 -2 -39 -5 -68 -5c-118 0 -163 36 -163 139v186c0 32 -11 43 -37 43h-21l-18 17v98l18 18h21c26 0 37 11 37 43v186c0 103 45 139 163 139c29 0 53 -3 68 -6l18 -18l-12 -95l-17 -18c-50 6 -66 -11 -66 -55v-122
c0 -72 -21 -106 -82 -120v-2c61 -14 82 -48 82 -119v-122c0 -44 16 -62 66 -56z" />
    <glyph glyph-name="braceright" unicode="}" horiz-adv-x="393" 
d="M36 -7l17 17c50 -6 66 12 66 56v122c0 71 21 105 82 119v2c-61 14 -82 48 -82 120v122c0 44 -16 61 -66 55l-17 18l-12 95l18 18c15 3 39 6 68 6c118 0 163 -36 163 -139v-186c0 -32 11 -43 37 -43h21l18 -18v-98l-18 -17h-21c-26 0 -37 -11 -37 -43v-186
c0 -103 -45 -139 -163 -139c-29 0 -53 3 -68 5l-18 18z" />
    <glyph glyph-name="breve" unicode="&#x2d8;" horiz-adv-x="349" 
d="M320 759l17 -18c-12 -85 -74 -140 -162 -140c-87 0 -149 57 -162 140l18 18h74l18 -18c7 -25 27 -40 52 -40c27 0 46 13 53 40l17 18h75z" />
    <glyph glyph-name="ring" unicode="&#x2da;" horiz-adv-x="340" 
d="M175 814c67 0 121 -54 121 -120s-54 -120 -121 -120s-121 54 -121 120s54 120 121 120zM175 746c-29 0 -53 -24 -53 -52c0 -29 24 -52 53 -52s53 23 53 52c0 28 -24 52 -53 52z" />
    <glyph glyph-name="dotaccent" unicode="&#x2d9;" horiz-adv-x="345" 
d="M175 785c53 0 91 -38 91 -91c0 -54 -38 -92 -91 -92s-91 38 -91 92c0 53 38 91 91 91z" />
    <glyph glyph-name="perthousand" unicode="&#x2030;" horiz-adv-x="1476" 
d="M227 703c120 0 195 -81 195 -211c0 -131 -75 -212 -195 -212s-196 81 -196 212c0 130 76 211 196 211zM227 611c-53 0 -85 -45 -85 -119s32 -119 85 -119s85 45 85 119s-32 119 -85 119zM797 420c120 0 195 -81 195 -211c0 -131 -75 -213 -195 -213s-196 82 -196 213
c0 130 76 211 196 211zM1250 420c120 0 195 -81 195 -211c0 -131 -75 -213 -195 -213s-196 82 -196 213c0 130 76 211 196 211zM797 328c-53 0 -85 -45 -85 -119c0 -75 32 -120 85 -120s85 45 85 120c0 74 -32 119 -85 119zM1250 328c-53 0 -85 -45 -85 -119
c0 -75 32 -120 85 -120s85 45 85 120c0 74 -32 119 -85 119zM809 701l18 -18l-475 -666l-29 -17h-116l-17 17l475 666l28 18h116z" />
    <glyph glyph-name="questiondown" unicode="&#xbf;" horiz-adv-x="520" 
d="M301 380c-49 0 -84 34 -84 83c0 50 35 84 84 84c48 0 83 -34 83 -84c0 -49 -35 -83 -83 -83zM281 -159c-170 0 -249 64 -249 183c0 76 50 150 131 218l76 59h12c43 -12 83 -5 101 0h10v-84l-63 -49c-49 -39 -81 -74 -81 -116c0 -40 25 -63 93 -63c47 0 99 12 146 35
l22 -11l10 -124l-17 -18c-56 -18 -126 -30 -191 -30z" />
    <glyph glyph-name="dotlessi" unicode="&#x131;" horiz-adv-x="344" 
d="M291 594l18 -18v-446l-18 -17h-101l-18 17v340l-134 -1l-18 18v89l18 18h253z" />
    <glyph glyph-name="less" unicode="&#x3c;" horiz-adv-x="516" 
d="M459 450l-308 -124v-5l307 -122l19 -21v-87l-15 -15l-429 179v139l428 179l16 -16v-86z" />
    <glyph glyph-name="greater" unicode="&#x3e;" horiz-adv-x="519" 
d="M359 326l-308 124l-18 21v86l16 16l428 -179v-139l-429 -179l-15 15v87l19 21l307 122v5z" />
    <glyph glyph-name="multiply" unicode="&#xd7;" horiz-adv-x="512" 
d="M386 144h-25l-106 106l-106 -107h-25l-53 53v25l107 106l-106 106v25l52 52h25l106 -106l106 106h25l52 -52v-25l-106 -106l106 -106v-25z" />
    <glyph glyph-name="currency" unicode="&#xa4;" horiz-adv-x="710" 
d="M573 631h25l71 -71v-25l-86 -87c22 -37 34 -81 34 -127c0 -48 -13 -93 -37 -131l90 -89v-25l-72 -72h-25l-91 91c-38 -20 -81 -32 -127 -32c-45 0 -88 12 -125 32l-92 -91h-25l-72 72v24l90 90c-23 38 -36 83 -36 131c0 46 12 90 34 127l-87 87v25l72 72h25l86 -87
c38 22 83 35 130 35c48 0 93 -13 132 -35zM482 321c0 69 -57 125 -127 125c-69 0 -125 -56 -125 -125c0 -68 56 -123 125 -123c70 0 127 55 127 123z" />
    <glyph glyph-name="underscore" unicode="_" horiz-adv-x="589" 
d="M565 -33l18 -18v-73l-18 -18h-547l-18 18v73l18 18h547z" />
    <glyph glyph-name="bar" unicode="|" horiz-adv-x="301" 
d="M214 -93l-17 -17h-94l-18 17v878l18 18h94l17 -18v-878z" />
    <glyph glyph-name="brokenbar" unicode="&#xa6;" horiz-adv-x="295" 
d="M196 803l18 -17v-307l-18 -17h-94l-17 17v307l17 17h94zM102 232h94l18 -17v-307l-18 -18l-94 1l-17 17v307z" />
    <glyph glyph-name="dagger" unicode="&#x2020;" horiz-adv-x="575" 
d="M538 494l18 -18v-104l-18 -18h-169l-1 -523l-17 -18h-135l-17 18v523h-91h-73l-17 18v104l17 18h164v187l17 18h135l17 -18l1 -187h169z" />
    <glyph glyph-name="daggerdbl" unicode="&#x2021;" horiz-adv-x="572" 
d="M369 171h167l17 -17v-105l-17 -18h-167v-201l-17 -17h-135l-18 17v201h-166l-18 18v105l18 17h166v183h-166l-18 17v105l18 18h166v187l18 18h135l17 -18v-187h167l17 -18v-105l-17 -17h-167v-183z" />
    <glyph glyph-name="circumflex" unicode="&#x2c6;" horiz-adv-x="347" 
d="M249 762l105 -136v-28h-119l-58 88h-6l-58 -88h-119v28l105 136h150z" />
    <glyph glyph-name="guilsinglleft" unicode="&#x2039;" horiz-adv-x="300" 
d="M266 100l-17 -18h-111l-120 190l120 178h111l17 -18l-111 -160z" />
    <glyph glyph-name="guilsinglright" unicode="&#x203a;" horiz-adv-x="317" 
d="M45 82l-17 18l111 172l-111 160l17 18h111l120 -178l-120 -190h-111z" />
    <glyph glyph-name="OE" unicode="&#x152;" horiz-adv-x="1115" 
d="M1058 560h-352v-143h184l18 -18v-97l-18 -18h-184v-144h352l18 -18v-104l-18 -18h-643c-225 0 -379 143 -379 350c0 208 152 350 372 350h650l18 -18v-104zM528 142v416h-116c-113 0 -195 -85 -195 -209c0 -123 78 -207 187 -207h124z" />
    <glyph glyph-name="cent" unicode="&#xa2;" horiz-adv-x="579" 
d="M361 134c59 0 128 10 171 25l13 -12l-6 -114l-14 -16c-44 -14 -114 -23 -175 -23v-120l-18 -18h-52l-18 18v126c-154 22 -238 108 -238 268c0 157 92 257 238 274v123l18 17h52l18 -17v-122c126 -15 205 -95 205 -208l-18 -17h-136l-17 17c0 31 -12 53 -34 64v-265h11z
M197 272c0 -56 21 -97 65 -119v247c-41 -15 -65 -53 -65 -117v-11z" />
    <glyph glyph-name="sterling" unicode="&#xa3;" horiz-adv-x="569" 
d="M364 559c-52 0 -81 -27 -81 -89v-71h150l17 -18v-82l-17 -18h-150v-147h241l17 -18v-98l-17 -18h-478l-18 18v98l18 18h58v147h-58l-18 18v82l18 18h58v75c0 148 99 233 249 234c96 0 173 -25 173 -25l15 -20l-16 -129l-22 -9s-63 34 -139 34z" />
    <glyph glyph-name="yen" unicode="&#xa5;" horiz-adv-x="680" 
d="M488 340h92l18 -17v-30l-18 -17h-124l-1 -1l-24 -49v-17h149l18 -17v-30l-18 -17h-149v-127l-18 -18h-141l-18 18v127h-160l-18 17v30l18 17h160v12l-28 55h-132l-18 17v30l18 17h100l-175 343l17 17h148l19 -10l133 -315h12l136 315l19 10h140l18 -17z" />
    <glyph glyph-name="section" unicode="&#xa7;" horiz-adv-x="556" 
d="M425 173c42 -26 63 -50 63 -101c0 -93 -87 -160 -225 -160v5v-5c-37 0 -102 2 -185 24l-17 19l6 91l23 10c50 -16 126 -30 172 -30c42 1 67 20 67 41c0 81 -295 54 -295 233c0 61 38 107 102 131v3c-54 29 -69 58 -69 101c0 93 84 159 217 159c36 0 102 -2 185 -24
l17 -19l-7 -91l-22 -10s-87 30 -175 30c-39 -1 -60 -15 -60 -38c0 -83 300 -54 300 -235c0 -58 -39 -108 -97 -132v-2zM289 256c50 0 74 17 74 42c0 33 -45 55 -102 55c-48 0 -73 -16 -73 -42c0 -33 44 -55 101 -55z" />
    <glyph glyph-name="copyright" unicode="&#xa9;" horiz-adv-x="738" 
d="M384 446c-61 0 -100 -34 -100 -96c0 -59 41 -99 100 -99c56 0 92 14 92 14l11 -5l5 -59l-8 -8s-35 -12 -104 -12c-117 0 -181 64 -181 169c0 107 65 166 183 166c52 0 102 -12 102 -12l8 -8l-6 -59l-11 -5s-44 14 -91 14zM368 689c190 0 338 -153 338 -339
c0 -185 -149 -341 -340 -341c-190 0 -337 154 -337 339s148 341 339 341zM366 89c147 0 261 119 261 261s-113 259 -259 259c-147 0 -259 -119 -259 -261s111 -259 257 -259z" />
    <glyph glyph-name="registered" unicode="&#xae;" horiz-adv-x="730" 
d="M365 689c190 0 338 -153 338 -339c0 -185 -149 -341 -340 -341c-190 0 -337 154 -337 339s148 341 339 341zM363 89c147 0 261 119 261 261s-113 259 -259 259c-147 0 -259 -119 -259 -261s111 -259 257 -259zM512 403c0 -49 -20 -84 -58 -103l57 -99l-6 -7h-83l-47 90
h-58v-82l-8 -8h-65l-8 8v304l8 8h135c85 0 133 -40 133 -111zM379 348c35 0 56 18 56 52c0 33 -21 50 -56 50h-62v-102h62z" />
    <glyph glyph-name="ordfeminine" unicode="&#xaa;" horiz-adv-x="418" 
d="M175 785c43 0 76 -11 100 -41v29l11 10h82l11 -10v-304l-11 -10h-82l-11 10v28c-24 -30 -59 -43 -101 -43c-90 0 -150 65 -150 165c0 104 60 166 151 166zM209 694c-50 0 -81 -28 -81 -73c0 -51 31 -79 81 -79c26 0 52 11 66 32v85c-14 22 -38 35 -66 35z" />
    <glyph glyph-name="guillemotleft" unicode="&#xab;" horiz-adv-x="509" 
d="M250 432l-111 -160l111 -172l-17 -18h-111l-120 190l120 178h111zM475 432l-111 -160l111 -172l-18 -18h-110l-120 190l120 178h110z" />
    <glyph glyph-name="guillemotright" unicode="&#xbb;" horiz-adv-x="556" 
d="M364 272l-111 160l17 18h111l120 -178l-120 -190h-111l-17 18zM139 272l-111 160l18 18h110l120 -178l-120 -190h-110l-18 18z" />
    <glyph glyph-name="dieresis" unicode="&#xa8;" horiz-adv-x="400" 
d="M105 762c45 0 78 -32 78 -78c0 -45 -33 -77 -78 -77s-78 32 -78 77c0 46 33 78 78 78zM298 762c45 0 78 -32 78 -78c0 -45 -33 -77 -78 -77s-78 32 -78 77c0 46 33 78 78 78z" />
    <glyph glyph-name="oe" unicode="&#x153;" horiz-adv-x="1010" 
d="M970 235l-19 -12h-330c3 -61 46 -89 164 -89c56 0 118 9 160 24l13 -12l-6 -114l-14 -16c-45 -14 -107 -22 -164 -22c-108 0 -189 22 -244 67c-51 -42 -120 -67 -203 -67c-177 0 -295 110 -295 276s118 275 295 275c83 0 154 -24 205 -67c49 43 117 67 200 67
c210 0 278 -148 238 -310zM327 128c71 0 120 56 120 140c0 83 -49 140 -120 140c-72 0 -121 -57 -121 -140c0 -84 49 -140 121 -140zM817 316c12 60 -7 109 -84 109c-75 0 -111 -51 -112 -109h196z" />
    <glyph glyph-name="endash" unicode="&#x2013;" horiz-adv-x="462" 
d="M416 326l18 -17v-74l-18 -18h-371l-18 18v74l18 17h371z" />
    <glyph glyph-name="emdash" unicode="&#x2014;" horiz-adv-x="720" 
d="M667 327l17 -17v-74l-17 -18h-613l-18 18v74l18 17h613z" />
    <glyph glyph-name="minus" unicode="&#x2212;" horiz-adv-x="505" 
d="M460 381l17 -17v-74l-17 -18h-409l-18 18v74l18 17h409z" />
    <glyph glyph-name="logicalnot" unicode="&#xac;" horiz-adv-x="546" 
d="M496 426l18 -18v-253l-18 -18h-89l-18 18l1 162h-340l-17 18v73l17 18h446z" />
    <glyph glyph-name="plusminus" unicode="&#xb1;" horiz-adv-x="510" 
d="M50 112h409l18 -18v-75l-18 -17h-409l-17 17v75zM200 346h-150l-17 18v74l17 17h150v151l18 17h74l17 -17v-151h150l18 -17v-74l-18 -18h-150v-150l-17 -18h-74l-18 18v150z" />
    <glyph glyph-name="twosuperior" unicode="&#xb2;" horiz-adv-x="375" 
d="M342 294l-10 -11h-282s-6 13 -6 39c0 72 39 122 128 188c31 24 40 39 40 61c0 24 -17 39 -55 39c-31 0 -63 -10 -95 -22l-13 7l-6 81l10 11c33 11 83 18 131 18c94 0 155 -43 155 -116c0 -46 -14 -80 -72 -126c-75 -59 -96 -72 -96 -89l160 6l11 -10v-76z" />
    <glyph glyph-name="threesuperior" unicode="&#xb3;" horiz-adv-x="362" 
d="M142 373c35 0 55 15 55 41c0 28 -21 40 -44 40h-11l-10 11v50l10 10h9c25 0 46 16 46 43c0 25 -21 40 -55 40c-51 0 -94 -22 -94 -22l-14 7l-6 81l10 11c34 11 77 18 126 18c97 0 161 -40 161 -119c0 -47 -24 -78 -63 -92v-3c39 -12 63 -48 63 -86
c0 -75 -46 -125 -160 -125c-48 0 -93 7 -127 18l-10 11l6 81l14 7s53 -22 94 -22z" />
    <glyph glyph-name="onesuperior" unicode="&#xb9;" horiz-adv-x="232" 
d="M178 700l11 -11v-396l-11 -10h-100l-11 10v275h-37l-11 11v67l11 10h12c28 0 51 13 62 36l8 8h66z" />
    <glyph glyph-name="ordmasculine" unicode="&#xba;" horiz-adv-x="417" 
d="M206 785c113 0 187 -66 187 -166c0 -99 -74 -165 -187 -165c-112 0 -186 66 -186 165c0 100 74 166 186 166zM206 694c-40 0 -67 -30 -67 -76s27 -76 67 -76s67 30 67 76s-27 76 -67 76z" />
    <glyph glyph-name="bullet" unicode="&#x2022;" horiz-adv-x="327" 
d="M163 401c74 0 126 -52 126 -125c0 -74 -52 -127 -126 -127c-73 0 -125 53 -125 127c0 73 52 125 125 125z" />
    <glyph glyph-name="degree" unicode="&#xb0;" horiz-adv-x="405" 
d="M202 817c66 0 119 -53 119 -118s-53 -118 -119 -118c-65 0 -119 53 -119 118s54 118 119 118zM202 750c-28 0 -52 -23 -52 -51s24 -51 52 -51c29 0 52 23 52 51s-23 51 -52 51z" />
    <glyph glyph-name="caron" unicode="&#x2c7;" horiz-adv-x="349" 
d="M100 598l-105 136v28h119l58 -88h6l58 88h119v-28l-105 -136h-150z" />
    <glyph glyph-name="Lslash" unicode="&#x141;" horiz-adv-x="590" 
d="M546 148l18 -17v-114l-18 -17h-439l-18 17v315l-55 -16l-21 13l-21 70l12 22l85 25v236l18 18h142l18 -18v-185l127 37l21 -13l21 -70l-12 -22l-157 -45v-236h279z" />
    <glyph glyph-name="Thorn" unicode="&#xde;" horiz-adv-x="707" 
d="M369 608c185 0 296 -91 296 -241c0 -158 -111 -255 -296 -255h-121v-95l-17 -17h-143l-18 17v665l18 18h143l17 -18v-74h121zM362 248c78 0 121 41 121 114c0 70 -43 110 -121 110h-114v-224h114z" />
    <glyph glyph-name="germandbls" unicode="&#xdf;" horiz-adv-x="665" 
d="M495 382c79 -23 134 -83 134 -168c0 -128 -109 -214 -278 -214h-31l-18 18v88l18 17h23c76 0 119 35 119 92c0 59 -40 90 -131 90l-18 18v88l17 17c58 0 90 41 90 97c0 61 -33 95 -90 95c-64 0 -100 -42 -100 -116v-486l-18 -18h-137l-17 18v474c0 157 104 258 271 258
c155 0 258 -79 258 -200c0 -68 -37 -132 -92 -164v-4z" />
    <glyph glyph-name="trademark" unicode="&#x2122;" horiz-adv-x="956" 
d="M348 701l18 -18v-66l-18 -18h-94v-302l-18 -17h-90l-17 17v302h-94l-17 18v66l17 18h313zM918 683v-386l-17 -17h-90l-18 17v220h-5l-81 -126h-84l-81 126h-5v-220l-17 -17h-90l-18 17v386l18 18h132l100 -168h7l99 168h133z" />
    <glyph glyph-name="cedilla" unicode="&#xb8;" horiz-adv-x="331" 
d="M212 -62c55 -9 90 -46 90 -101c0 -77 -59 -125 -152 -125c-36 0 -74 6 -106 17l-6 18l10 75l17 6c19 -9 46 -15 68 -15c31 0 51 16 51 40c0 22 -16 38 -56 38c-9 0 -19 -1 -29 -2l-13 12l22 113h118z" />
    <glyph glyph-name="periodcentered" unicode="&#xb7;" horiz-adv-x="246" 
d="M119 371c48 0 82 -34 82 -82s-34 -82 -82 -82c-47 0 -81 34 -81 82s34 82 81 82z" />
    <glyph glyph-name="onequarter" unicode="&#xbc;" horiz-adv-x="900" 
d="M699 701l18 -18l-474 -665l-37 -18h-108l-18 17l473 664l41 20h105zM198 700l11 -11v-396l-11 -10h-100l-11 10v275h-37l-11 11v67l11 10h12c28 0 51 13 62 36l8 8h66zM853 147l11 -11v-61l-11 -10h-52v-55l-11 -10h-92l-11 10v56h-212l-11 11v60l197 273l13 7h116
l11 -11v-259h52zM687 147v154l-108 -154h108z" />
    <glyph glyph-name="onehalf" unicode="&#xbd;" horiz-adv-x="910" 
d="M871 10l-11 -10h-281s-7 13 -7 38c0 73 40 122 129 189c30 24 39 38 39 60c0 24 -16 40 -55 40c-30 0 -62 -11 -94 -22l-13 6l-7 82l10 11c34 11 83 18 131 18c95 0 156 -44 156 -117c0 -45 -15 -80 -72 -125c-76 -60 -96 -72 -96 -90l160 7l10 -11zM682 701l18 -18
l-474 -665l-37 -18h-109l-17 17l473 664l41 20h105zM178 700l11 -11v-396l-11 -10h-100l-11 10v275h-37l-11 11v67l11 10h12c28 0 51 13 62 36l8 8h66z" />
    <glyph glyph-name="threequarters" unicode="&#xbe;" horiz-adv-x="971" 
d="M764 701l18 -18l-474 -665l-37 -18h-108l-18 17l474 664l40 20h105zM142 373c35 0 55 15 55 41c0 28 -21 40 -44 40h-57l-10 11v50l10 10h55c25 0 46 16 46 43c0 25 -21 40 -55 40c-51 0 -94 -22 -94 -22l-14 7l-6 81l10 11c34 11 77 18 126 18c97 0 161 -40 161 -119
c0 -47 -24 -78 -63 -92v-3c39 -12 63 -48 63 -86c0 -75 -46 -125 -160 -125c-48 0 -93 7 -127 18l-10 11l6 81l14 7s53 -22 94 -22zM930 147l11 -11v-61l-11 -10h-52v-55l-11 -10h-92l-11 10v56h-212l-11 11v60l197 273l13 7h116l11 -11v-259h52zM764 147v154l-108 -154h108
z" />
    <glyph glyph-name="tilde" unicode="&#x2dc;" horiz-adv-x="361" 
d="M336 772l17 -18c-2 -97 -36 -137 -104 -137c-61 0 -87 47 -116 47c-16 0 -25 -8 -28 -26l-18 -17h-71l-18 17c3 96 37 139 104 139c59 0 87 -47 115 -47c18 0 27 6 30 24l17 18h72z" />
    <glyph glyph-name="asciitilde" unicode="~" horiz-adv-x="507" 
d="M429 406l20 -19c-3 -105 -40 -149 -113 -149c-67 0 -95 51 -126 51c-18 0 -28 -8 -31 -28l-19 -19h-79l-19 19c3 105 41 151 114 151c64 0 94 -51 125 -51c19 0 29 7 32 26l19 19h77z" />
    <glyph glyph-name="ogonek" unicode="&#x2db;" horiz-adv-x="276" 
d="M301 -190v-24c-35 -53 -87 -81 -144 -81s-125 29 -125 117c0 64 37 131 85 196h119c-51 -69 -81 -123 -81 -156c0 -23 14 -34 31 -34c18 0 35 11 51 30h22z" />
    <glyph glyph-name="lslash" unicode="&#x142;" horiz-adv-x="432" 
d="M339 131c14 0 32 2 46 5l13 -14v-107l-16 -15c-25 -4 -58 -6 -88 -6c-111 0 -186 64 -186 185v172l-72 -20l-22 12l-20 71l12 22l102 29v259l18 18h137l18 -18v-210l82 24l22 -12l20 -71l-12 -22l-112 -32v-211c0 -41 21 -59 58 -59z" />
    <glyph glyph-name="mu" unicode="&#xb5;" horiz-adv-x="681" 
d="M597 539l18 -17v-504l-18 -18h-137l-18 18v49c-35 -46 -100 -77 -180 -78c-8 0 -16 1 -24 1v-166l-17 -18h-138l-18 18v698l18 17h137l18 -17l-1 -278c0 -67 37 -102 95 -102c43 0 87 19 110 43v337l18 17h137z" />
    <glyph glyph-name="quotedblright" unicode="&#x201d;" horiz-adv-x="427" 
d="M121 701c45 0 84 -29 84 -83c0 -25 -9 -47 -22 -67l-89 -126h-67v34l44 93c-24 15 -34 40 -34 66c0 49 36 83 84 83zM315 701c45 0 84 -29 84 -83c0 -25 -9 -47 -22 -67l-89 -126h-67v34l44 93c-24 15 -34 40 -34 66c0 49 36 83 84 83z" />
    <glyph glyph-name="quotedblleft" unicode="&#x201c;" horiz-adv-x="435" 
d="M309 450c-45 0 -84 29 -84 83c0 25 9 47 22 67l89 126h67v-34l-44 -93c24 -15 34 -40 34 -66c0 -49 -36 -83 -84 -83zM115 450c-45 0 -84 29 -84 83c0 25 9 47 22 67l89 126h67v-34l-44 -93c24 -15 34 -40 34 -66c0 -49 -36 -83 -84 -83z" />
    <glyph glyph-name="quoteright" unicode="&#x2019;" horiz-adv-x="223" 
d="M121 701c45 0 84 -29 84 -83c0 -25 -9 -47 -22 -67l-89 -126h-67v34l44 93c-24 15 -34 40 -34 66c0 49 36 83 84 83z" />
    <glyph glyph-name="quoteleft" unicode="&#x2018;" horiz-adv-x="233" 
d="M115 450c-45 0 -84 29 -84 83c0 25 9 47 22 67l89 126h67v-34l-44 -93c24 -15 34 -40 34 -66c0 -49 -36 -83 -84 -83z" />
    <glyph glyph-name="hungarumlaut" unicode="&#x2dd;" horiz-adv-x="482" 
d="M221 754v-28l-134 -126h-116v27l73 143zM280 770l177 -16v-28l-134 -126h-116v27z" />
    <glyph glyph-name="grave" unicode="`" horiz-adv-x="331" 
d="M290 627v-27h-116l-134 126v28l177 16z" />
    <glyph glyph-name="acute" unicode="&#xb4;" horiz-adv-x="333" 
d="M52 600v27l73 143l177 -16v-28l-134 -126h-116z" />
    <glyph glyph-name="fi" unicode="&#xfb01;" horiz-adv-x="696" 
d="M407 715c0 0 -15 -48 0 -94l-17 -18c-19 5 -37 8 -57 8c-44 0 -60 -17 -60 -59v-13h107l17 -18v-94l-17 -18h-107v-391l-18 -18h-136l-18 18v391h-57l-18 18v94l18 18h57v40c0 112 75 171 179 171c43 0 81 -5 110 -16zM473 539h137l18 -17v-504l-18 -18h-137l-18 18v504z
M481 597l-18 9c-11 16 -18 36 -18 60c0 56 40 96 97 96c56 0 96 -40 96 -96c0 -23 -6 -43 -18 -59l-20 -10h-119z" />
    <glyph glyph-name="fl" unicode="&#xfb02;" horiz-adv-x="775" 
d="M742 139l13 -14v-107l-16 -15c-25 -4 -58 -6 -88 -6c-111 0 -186 64 -186 185v347c0 49 -36 82 -95 82c-65 0 -97 -23 -97 -59v-13h107l17 -18v-94l-17 -18h-107v-391l-18 -18h-136l-18 18v391h-57l-18 18v94l18 18h57v18c0 122 91 193 271 193c172 0 266 -76 266 -225
v-332c0 -41 21 -59 58 -59c14 0 32 2 46 5z" />
    <glyph glyph-name="AV2" horiz-adv-x="756" 
d="M378 708c197 0 323 -117 323 -302v-389l-17 -17h-143l-18 17v179h-286v-179l-17 -17h-143l-18 17v389c0 185 123 302 319 302zM237 324h286v82c0 95 -61 153 -146 153c-84 0 -140 -58 -140 -153v-82z" />
    <glyph glyph-name="OO" horiz-adv-x="834" 
d="M482 377c38 0 58 -11 58 -49c0 -36 -20 -50 -58 -50l-26 1v98h26zM72 451h690v-244h-690v244zM220 318v96h-91v-37h48v-59c0 -32 -11 -44 -32 -44c-14 0 -23 4 -30 11l-28 -28c13 -13 32 -20 58 -20c49 0 75 30 75 81zM329 275c-33 0 -52 22 -52 52c0 29 19 52 51 52
c18 0 31 -7 41 -19l35 25c-18 21 -46 33 -75 33c-54 0 -96 -37 -96 -92c0 -53 41 -90 96 -90c27 0 55 10 75 32l-35 25c-10 -13 -25 -18 -40 -18zM482 241c65 0 102 26 102 87s-36 86 -102 86h-70v-173h70zM658 237c51 0 80 22 80 56c0 32 -21 50 -71 56l-7 1
c-23 3 -26 8 -26 16c0 9 11 15 30 15c13 0 30 -6 40 -13l28 28c-17 14 -39 22 -68 22c-46 0 -74 -20 -74 -52c0 -37 20 -50 65 -55l7 -1c22 -2 32 -7 32 -18c0 -9 -11 -17 -36 -17c-16 0 -35 5 -47 15l-27 -27c16 -19 46 -26 74 -26z" />
    <glyph glyph-name="Scaron" unicode="&#x160;" horiz-adv-x="620" 
d="M338 708c112 0 199 -34 199 -34l17 -19l-10 -124l-22 -10s-100 38 -198 38c-73 0 -101 -17 -101 -51c0 -115 370 -47 370 -300c0 -140 -130 -214 -301 -214c-135 0 -233 44 -233 44l-16 20l11 115l19 16s100 -46 219 -46c82 0 114 19 114 58c0 124 -370 48 -370 296
c0 129 92 211 302 211zM254 770l-105 136v28h119l58 -88h6l58 88h119v-28l-105 -136h-150z" />
    <glyph glyph-name="scaron" unicode="&#x161;" horiz-adv-x="509" 
d="M251 -6c-123 0 -196 29 -196 29l-15 20l17 110l20 14s86 -36 186 -36c46 0 59 13 59 30c0 56 -278 38 -278 213c0 110 75 171 237 171c83 0 161 -26 161 -26l15 -20l-14 -109l-20 -15s-83 33 -160 33c-47 0 -60 -11 -60 -26c0 -55 283 -26 283 -212
c0 -113 -85 -176 -235 -176zM186 608l-105 136v28h119l58 -88h6l58 88h119v-28l-105 -136h-150z" />
    <glyph glyph-name="Ydieresis" unicode="&#x178;" horiz-adv-x="661" 
d="M639 700l18 -18l-235 -456v-208l-18 -18h-141l-18 18v203l-241 461l18 18h154l18 -10l135 -308h12l135 307l19 11h144zM240 910c45 0 78 -32 78 -78c0 -45 -33 -77 -78 -77s-78 32 -78 77c0 46 33 78 78 78zM433 910c45 0 78 -32 78 -78c0 -45 -33 -77 -78 -77
s-78 32 -78 77c0 46 33 78 78 78z" />
    <glyph glyph-name="ydieresis" unicode="&#xff;" horiz-adv-x="673" 
d="M596 539l18 -17v-450c0 -183 -122 -273 -319 -273c-73 0 -147 13 -198 37l-14 17v115l13 11c47 -28 126 -46 187 -46c95 0 158 45 158 134v55c-35 -46 -100 -77 -180 -78c-119 0 -197 81 -197 207v271l18 17h137l18 -17l-1 -223c0 -67 37 -102 95 -102c43 0 87 19 110 43
v282l18 17h137zM239 735c45 0 78 -32 78 -78c0 -45 -33 -77 -78 -77s-78 32 -78 77c0 46 33 78 78 78zM432 735c45 0 78 -32 78 -78c0 -45 -33 -77 -78 -77s-78 32 -78 77c0 46 33 78 78 78z" />
    <glyph glyph-name="agrave" unicode="&#xe0;" horiz-adv-x="708" 
d="M304 543c71 0 125 -19 165 -69v48l18 17h137l18 -17v-504l-18 -18h-137l-18 18v46c-40 -50 -97 -72 -168 -72c-149 0 -248 109 -248 274c0 173 101 277 251 277zM359 406c-83 0 -133 -54 -133 -136c0 -85 50 -138 133 -138c48 0 88 23 110 58v157c-23 37 -68 59 -110 59z
M409 627v-27h-116l-134 126v28l177 16z" />
    <glyph glyph-name="Agrave" unicode="&#xc0;" horiz-adv-x="785" 
d="M504 688l272 -669l-19 -19h-150l-18 19l-46 117l-304 1l-48 -121l-16 -16h-149l-15 16l277 671l16 13h184zM287 264h207l-93 266h-21zM449 800v-27h-116l-134 126v28l177 16z" />
    <glyph glyph-name="Aacute" unicode="&#xc1;" horiz-adv-x="787" 
d="M504 688l272 -669l-19 -19h-150l-18 19l-46 117l-304 1l-48 -121l-16 -16h-149l-15 16l277 671l16 13h184zM287 264h207l-93 266h-21zM344 770v27l73 143l177 -16v-28l-134 -126h-116z" />
    <glyph glyph-name="aacute" unicode="&#xe1;" horiz-adv-x="698" 
d="M294 543c71 0 125 -19 165 -69v48l18 17h137l18 -17v-504l-18 -18h-137l-18 18v46c-40 -50 -97 -72 -168 -72c-149 0 -248 109 -248 274c0 173 101 277 251 277zM349 406c-83 0 -133 -54 -133 -136c0 -85 50 -138 133 -138c48 0 88 23 110 58v157c-23 37 -68 59 -110 59z
M312 600v27l73 143l177 -16v-28l-134 -126h-116z" />
    <glyph glyph-name="Acircumflex" unicode="&#xc2;" horiz-adv-x="786" 
d="M504 688l272 -669l-19 -19h-150l-18 19l-46 117l-304 1l-48 -121l-16 -16h-149l-15 16l277 671l16 13h184zM287 264h207l-93 266h-21zM469 937l105 -136v-28h-119l-58 88h-6l-58 -88h-119v28l105 136h150z" />
    <glyph glyph-name="acircumflex" unicode="&#xe2;" horiz-adv-x="698" 
d="M298 543c71 0 125 -19 165 -69v48l18 17h137l18 -17v-504l-18 -18h-137l-18 18v46c-40 -50 -97 -72 -168 -72c-149 0 -248 109 -248 274c0 173 101 277 251 277zM353 406c-83 0 -133 -54 -133 -136c0 -85 50 -138 133 -138c48 0 88 23 110 58v157c-23 37 -68 59 -110 59z
M443 762l105 -136v-28h-119l-58 88h-6l-58 -88h-119v28l105 136h150z" />
    <glyph glyph-name="atilde" unicode="&#xe3;" horiz-adv-x="698" 
d="M294 543c71 0 125 -19 165 -69v48l18 17h137l18 -17v-504l-18 -18h-137l-18 18v46c-40 -50 -97 -72 -168 -72c-149 0 -248 109 -248 274c0 173 101 277 251 277zM349 406c-83 0 -133 -54 -133 -136c0 -85 50 -138 133 -138c48 0 88 23 110 58v157c-23 37 -68 59 -110 59z
M516 772l17 -18c-2 -97 -36 -137 -104 -137c-61 0 -87 47 -116 47c-16 0 -25 -8 -28 -26l-18 -17h-71l-18 17c3 96 37 139 104 139c59 0 87 -47 115 -47c18 0 27 6 30 24l17 18h72z" />
    <glyph glyph-name="Adieresis" unicode="&#xc4;" horiz-adv-x="787" 
d="M504 688l272 -669l-19 -19h-150l-18 19l-46 117l-304 1l-48 -121l-16 -16h-149l-15 16l277 671l16 13h184zM287 264h207l-93 266h-21zM295 928c45 0 78 -32 78 -78c0 -45 -33 -77 -78 -77s-78 32 -78 77c0 46 33 78 78 78zM488 928c45 0 78 -32 78 -78
c0 -45 -33 -77 -78 -77s-78 32 -78 77c0 46 33 78 78 78z" />
    <glyph glyph-name="adieresis" unicode="&#xe4;" horiz-adv-x="693" 
d="M294 543c71 0 125 -19 165 -69v48l18 17h137l18 -17v-504l-18 -18h-137l-18 18v46c-40 -50 -97 -72 -168 -72c-149 0 -248 109 -248 274c0 173 101 277 251 277zM349 406c-83 0 -133 -54 -133 -136c0 -85 50 -138 133 -138c48 0 88 23 110 58v157c-23 37 -68 59 -110 59z
M257 762c45 0 78 -32 78 -78c0 -45 -33 -77 -78 -77s-78 32 -78 77c0 46 33 78 78 78zM450 762c45 0 78 -32 78 -78c0 -45 -33 -77 -78 -77s-78 32 -78 77c0 46 33 78 78 78z" />
    <glyph glyph-name="Egrave" unicode="&#xc8;" horiz-adv-x="668" 
d="M608 560h-352v-143h206l18 -18v-97l-18 -17h-206v-145h352l18 -18v-104l-18 -18h-513l-17 18v664l17 18h513l18 -18v-104zM416 802v-27h-116l-134 126v28l177 16z" />
    <glyph glyph-name="egrave" unicode="&#xe8;" horiz-adv-x="599" 
d="M534 41l-14 -16c-48 -19 -126 -31 -182 -31c-215 0 -305 82 -305 274c0 173 110 277 283 277c210 0 278 -149 238 -311l-19 -11h-330c3 -61 46 -89 151 -89c56 0 125 13 173 32l14 -12zM316 408c-75 0 -110 -45 -111 -92h191c11 50 -11 92 -80 92zM370 627v-27h-116
l-134 126v28l177 16z" />
    <glyph glyph-name="Eacute" unicode="&#xc9;" horiz-adv-x="671" 
d="M606 560h-352v-143h206l18 -18v-97l-18 -17h-206v-145h352l18 -18v-104l-18 -18h-513l-17 18v664l17 18h513l18 -18v-104zM287 773v27l73 143l177 -16v-28l-134 -126h-116z" />
    <glyph glyph-name="eacute" unicode="&#xe9;" horiz-adv-x="598" 
d="M544 41l-14 -16c-48 -19 -126 -31 -182 -31c-215 0 -305 82 -305 274c0 173 110 277 283 277c210 0 278 -149 238 -311l-19 -11h-330c3 -61 46 -89 151 -89c56 0 125 13 173 32l14 -12zM326 408c-75 0 -110 -45 -111 -92h191c11 50 -11 92 -80 92zM268 600v27l73 143
l177 -16v-28l-134 -126h-116z" />
    <glyph glyph-name="Ecircumflex" unicode="&#xca;" horiz-adv-x="663" 
d="M609 560h-352v-143h206l18 -18v-97l-18 -17h-206v-145h352l18 -18v-104l-18 -18h-513l-17 18v664l17 18h513l18 -18v-104zM421 933l105 -136v-28h-119l-58 88h-6l-58 -88h-119v28l105 136h150z" />
    <glyph glyph-name="ecircumflex" unicode="&#xea;" horiz-adv-x="586" 
d="M535 41l-14 -16c-48 -19 -126 -31 -182 -31c-215 0 -305 82 -305 274c0 173 110 277 283 277c210 0 278 -149 238 -311l-19 -11h-330c3 -61 46 -89 151 -89c56 0 125 13 173 32l14 -12zM317 408c-75 0 -110 -45 -111 -92h191c11 50 -11 92 -80 92zM387 762l105 -136v-28
h-119l-58 88h-6l-58 -88h-119v28l105 136h150z" />
    <glyph glyph-name="Edieresis" unicode="&#xcb;" horiz-adv-x="661" 
d="M606 560h-352v-143h206l18 -18v-97l-18 -17h-206v-145h352l18 -18v-104l-18 -18h-513l-17 18v664l17 18h513l18 -18v-104zM249 921c45 0 78 -32 78 -78c0 -45 -33 -77 -78 -77s-78 32 -78 77c0 46 33 78 78 78zM442 921c45 0 78 -32 78 -78c0 -45 -33 -77 -78 -77
s-78 32 -78 77c0 46 33 78 78 78z" />
    <glyph glyph-name="edieresis" unicode="&#xeb;" horiz-adv-x="596" 
d="M537 41l-14 -16c-48 -19 -126 -31 -182 -31c-215 0 -305 82 -305 274c0 173 110 277 283 277c210 0 278 -149 238 -311l-19 -11h-330c3 -61 46 -89 151 -89c56 0 125 13 173 32l14 -12zM319 408c-75 0 -110 -45 -111 -92h191c11 50 -11 92 -80 92zM214 762
c45 0 78 -32 78 -78c0 -45 -33 -77 -78 -77s-78 32 -78 77c0 46 33 78 78 78zM407 762c45 0 78 -32 78 -78c0 -45 -33 -77 -78 -77s-78 32 -78 77c0 46 33 78 78 78z" />
    <glyph glyph-name="Igrave" unicode="&#xcc;" horiz-adv-x="318" 
d="M232 700l18 -18v-664l-18 -18h-143l-17 18v664l17 18h143zM214 831v-27h-116l-134 126v28l177 16z" />
    <glyph glyph-name="Iacute" unicode="&#xcd;" horiz-adv-x="310" 
d="M226 700l18 -18v-664l-18 -18h-143l-17 18v664l17 18h143zM100 757v27l73 143l177 -16v-28l-134 -126h-116z" />
    <glyph glyph-name="Icircumflex" unicode="&#xce;" horiz-adv-x="316" 
d="M230 700l18 -18v-664l-18 -18h-143l-17 18v664l17 18h143zM233 950l105 -136v-28h-119l-58 88h-6l-58 -88h-119v28l105 136h150z" />
    <glyph glyph-name="Idieresis" unicode="&#xcf;" horiz-adv-x="322" 
d="M231 700l18 -18v-664l-18 -18h-143l-17 18v664l17 18h143zM61 966c45 0 78 -32 78 -78c0 -45 -33 -77 -78 -77s-78 32 -78 77c0 46 33 78 78 78zM254 966c45 0 78 -32 78 -78c0 -45 -33 -77 -78 -77s-78 32 -78 77c0 46 33 78 78 78z" />
    <glyph glyph-name="ntilde" unicode="&#xf1;" horiz-adv-x="676" 
d="M417 546c119 0 197 -81 197 -207v-321l-18 -18h-138l-17 18l1 282c0 67 -37 102 -95 102c-43 0 -88 -19 -110 -43v-341l-18 -18h-138l-17 18v503l17 18h138l18 -18v-53c35 46 100 77 180 78zM490 772l17 -18c-2 -97 -36 -137 -104 -137c-61 0 -87 47 -116 47
c-16 0 -25 -8 -28 -26l-18 -17h-71l-18 17c3 96 37 139 104 139c59 0 87 -47 115 -47c18 0 27 6 30 24l17 18h72z" />
    <glyph glyph-name="Atilde" unicode="&#xc3;" horiz-adv-x="792" 
d="M504 688l272 -669l-19 -19h-150l-18 19l-46 117l-304 1l-48 -121l-16 -16h-149l-15 16l277 671l16 13h184zM287 264h207l-93 266h-21zM556 924l17 -18c-2 -97 -36 -137 -104 -137c-61 0 -87 47 -116 47c-16 0 -25 -8 -28 -26l-18 -17h-71l-18 17c3 96 37 139 104 139
c59 0 87 -47 115 -47c18 0 27 6 30 24l17 18h72z" />
    <glyph glyph-name="Ntilde" unicode="&#xd1;" horiz-adv-x="800" 
d="M721 701l17 -18v-665l-17 -18h-248l-217 488h-9l1 -471l-18 -17h-143l-17 17v665l17 18h246l217 -488h10v471l18 18h143zM557 921l17 -18c-2 -97 -36 -137 -104 -137c-61 0 -87 47 -116 47c-16 0 -25 -8 -28 -26l-18 -17h-71l-18 17c3 96 37 139 104 139
c59 0 87 -47 115 -47c18 0 27 6 30 24l17 18h72z" />
    <glyph glyph-name="Ograve" unicode="&#xd2;" horiz-adv-x="812" 
d="M402 706c217 0 379 -152 379 -355c0 -204 -162 -359 -379 -359c-216 0 -378 154 -378 359c0 204 162 355 378 355zM404 557c-108 0 -198 -89 -198 -207s91 -209 198 -209c108 0 194 91 194 209s-86 207 -194 207zM473 798v-27h-116l-134 126v28l177 16z" />
    <glyph glyph-name="Oacute" unicode="&#xd3;" horiz-adv-x="807" 
d="M402 706c217 0 379 -152 379 -355c0 -204 -162 -359 -379 -359c-216 0 -378 154 -378 359c0 204 162 355 378 355zM404 557c-108 0 -198 -89 -198 -207s91 -209 198 -209c108 0 194 91 194 209s-86 207 -194 207zM347 774v27l73 143l177 -16v-28l-134 -126h-116z" />
    <glyph glyph-name="Ocircumflex" unicode="&#xd4;" horiz-adv-x="804" 
d="M402 706c217 0 379 -152 379 -355c0 -204 -162 -359 -379 -359c-216 0 -378 154 -378 359c0 204 162 355 378 355zM404 557c-108 0 -198 -89 -198 -207s91 -209 198 -209c108 0 194 91 194 209s-86 207 -194 207zM478 931l105 -136v-28h-119l-58 88h-6l-58 -88h-119v28
l105 136h150z" />
    <glyph glyph-name="Otilde" unicode="&#xd5;" horiz-adv-x="810" 
d="M402 706c217 0 379 -152 379 -355c0 -204 -162 -359 -379 -359c-216 0 -378 154 -378 359c0 204 162 355 378 355zM404 557c-108 0 -198 -89 -198 -207s91 -209 198 -209c108 0 194 91 194 209s-86 207 -194 207zM563 921l17 -18c-2 -97 -36 -137 -104 -137
c-61 0 -87 47 -116 47c-16 0 -25 -8 -28 -26l-18 -17h-71l-18 17c3 96 37 139 104 139c59 0 87 -47 115 -47c18 0 27 6 30 24l17 18h72z" />
    <glyph glyph-name="Odieresis" unicode="&#xd6;" 
d="M402 706c217 0 379 -152 379 -355c0 -204 -162 -359 -379 -359c-216 0 -378 154 -378 359c0 204 162 355 378 355zM404 557c-108 0 -198 -89 -198 -207s91 -209 198 -209c108 0 194 91 194 209s-86 207 -194 207zM306 927c45 0 78 -32 78 -78c0 -45 -33 -77 -78 -77
s-78 32 -78 77c0 46 33 78 78 78zM499 927c45 0 78 -32 78 -78c0 -45 -33 -77 -78 -77s-78 32 -78 77c0 46 33 78 78 78z" />
    <glyph glyph-name="ograve" unicode="&#xf2;" horiz-adv-x="637" 
d="M318 545c176 0 294 -109 294 -275s-118 -276 -294 -276c-177 0 -295 110 -295 276s118 275 295 275zM318 408c-72 0 -121 -57 -121 -140c0 -84 49 -140 121 -140c71 0 120 56 120 140c0 83 -49 140 -120 140zM381 630v-27h-116l-134 126v28l177 16z" />
    <glyph glyph-name="oacute" unicode="&#xf3;" horiz-adv-x="635" 
d="M319 545c176 0 294 -109 294 -275s-118 -276 -294 -276c-177 0 -295 110 -295 276s118 275 295 275zM319 408c-72 0 -121 -57 -121 -140c0 -84 49 -140 121 -140c71 0 120 56 120 140c0 83 -49 140 -120 140zM257 600v27l73 143l177 -16v-28l-134 -126h-116z" />
    <glyph glyph-name="ocircumflex" unicode="&#xf4;" horiz-adv-x="634" 
d="M319 545c176 0 294 -109 294 -275s-118 -276 -294 -276c-177 0 -295 110 -295 276s118 275 295 275zM319 408c-72 0 -121 -57 -121 -140c0 -84 49 -140 121 -140c71 0 120 56 120 140c0 83 -49 140 -120 140zM397 762l105 -136v-28h-119l-58 88h-6l-58 -88h-119v28
l105 136h150z" />
    <glyph glyph-name="otilde" unicode="&#xf5;" horiz-adv-x="630" 
d="M319 545c176 0 294 -109 294 -275s-118 -276 -294 -276c-177 0 -295 110 -295 276s118 275 295 275zM319 408c-72 0 -121 -57 -121 -140c0 -84 49 -140 121 -140c71 0 120 56 120 140c0 83 -49 140 -120 140zM475 756l17 -18c-2 -97 -36 -137 -104 -137
c-61 0 -87 47 -116 47c-16 0 -25 -8 -28 -26l-18 -17h-71l-18 17c3 96 37 139 104 139c59 0 87 -47 115 -47c18 0 27 6 30 24l17 18h72z" />
    <glyph glyph-name="odieresis" unicode="&#xf6;" horiz-adv-x="639" 
d="M319 545c176 0 294 -109 294 -275s-118 -276 -294 -276c-177 0 -295 110 -295 276s118 275 295 275zM319 408c-72 0 -121 -57 -121 -140c0 -84 49 -140 121 -140c71 0 120 56 120 140c0 83 -49 140 -120 140zM226 762c45 0 78 -32 78 -78c0 -45 -33 -77 -78 -77
s-78 32 -78 77c0 46 33 78 78 78zM419 762c45 0 78 -32 78 -78c0 -45 -33 -77 -78 -77s-78 32 -78 77c0 46 33 78 78 78z" />
    <glyph glyph-name="Ugrave" unicode="&#xd9;" horiz-adv-x="757" 
d="M682 700l18 -17v-389c0 -185 -123 -302 -319 -302c-197 0 -323 117 -323 302v389l17 17h143l18 -17v-389c0 -95 61 -153 146 -153c84 0 140 58 140 153v389l17 17h143zM442 796v-27h-116l-134 126v28l177 16z" />
    <glyph glyph-name="Uacute" unicode="&#xda;" horiz-adv-x="751" 
d="M682 700l18 -17v-389c0 -185 -123 -302 -319 -302c-197 0 -323 117 -323 302v389l17 17h143l18 -17v-389c0 -95 61 -153 146 -153c84 0 140 58 140 153v389l17 17h143zM314 775v27l73 143l177 -16v-28l-134 -126h-116z" />
    <glyph glyph-name="Ucircumflex" unicode="&#xdb;" horiz-adv-x="759" 
d="M682 700l18 -17v-389c0 -185 -123 -302 -319 -302c-197 0 -323 117 -323 302v389l17 17h143l18 -17v-389c0 -95 61 -153 146 -153c84 0 140 58 140 153v389l17 17h143zM451 931l105 -136v-28h-119l-58 88h-6l-58 -88h-119v28l105 136h150z" />
    <glyph glyph-name="Udieresis" unicode="&#xdc;" horiz-adv-x="754" 
d="M682 700l18 -17v-389c0 -185 -123 -302 -319 -302c-197 0 -323 117 -323 302v389l17 17h143l18 -17v-389c0 -95 61 -153 146 -153c84 0 140 58 140 153v389l17 17h143zM282 927c45 0 78 -32 78 -78c0 -45 -33 -77 -78 -77s-78 32 -78 77c0 46 33 78 78 78zM475 927
c45 0 78 -32 78 -78c0 -45 -33 -77 -78 -77s-78 32 -78 77c0 46 33 78 78 78z" />
    <glyph glyph-name="Yacute" unicode="&#xdd;" horiz-adv-x="661" 
d="M639 700l18 -18l-235 -456v-208l-18 -18h-141l-18 18v203l-241 461l18 18h154l18 -10l135 -308h12l135 307l19 11h144zM280 773v27l73 143l177 -16v-28l-134 -126h-116z" />
    <glyph glyph-name="ugrave" unicode="&#xf9;" horiz-adv-x="663" 
d="M255 -11c-119 0 -197 81 -197 207v326l18 17h137l18 -17l-1 -278c0 -67 37 -102 95 -102c43 0 87 19 110 43v337l18 17h137l18 -17v-504l-18 -18h-137l-18 18v49c-35 -46 -100 -77 -180 -78zM392 627v-27h-116l-134 126v28l177 16z" />
    <glyph glyph-name="uacute" unicode="&#xfa;" horiz-adv-x="656" 
d="M250 -11c-119 0 -197 81 -197 207v326l18 17h137l18 -17l-1 -278c0 -67 37 -102 95 -102c43 0 87 19 110 43v337l18 17h137l18 -17v-504l-18 -18h-137l-18 18v49c-35 -46 -100 -77 -180 -78zM271 600v27l73 143l177 -16v-28l-134 -126h-116z" />
    <glyph glyph-name="ucircumflex" unicode="&#xfb;" horiz-adv-x="660" 
d="M252 -11c-119 0 -197 81 -197 207v326l18 17h137l18 -17l-1 -278c0 -67 37 -102 95 -102c43 0 87 19 110 43v337l18 17h137l18 -17v-504l-18 -18h-137l-18 18v49c-35 -46 -100 -77 -180 -78zM406 762l105 -136v-28h-119l-58 88h-6l-58 -88h-119v28l105 136h150z" />
    <glyph glyph-name="udieresis" unicode="&#xfc;" horiz-adv-x="659" 
d="M250 -11c-119 0 -197 81 -197 207v326l18 17h137l18 -17l-1 -278c0 -67 37 -102 95 -102c43 0 87 19 110 43v337l18 17h137l18 -17v-504l-18 -18h-137l-18 18v49c-35 -46 -100 -77 -180 -78zM234 750c45 0 78 -32 78 -78c0 -45 -33 -77 -78 -77s-78 32 -78 77
c0 46 33 78 78 78zM427 750c45 0 78 -32 78 -78c0 -45 -33 -77 -78 -77s-78 32 -78 77c0 46 33 78 78 78z" />
    <glyph glyph-name="yacute" unicode="&#xfd;" horiz-adv-x="680" 
d="M596 539l18 -17v-450c0 -183 -122 -273 -319 -273c-73 0 -147 13 -198 37l-14 17v115l13 11c47 -28 126 -46 187 -46c95 0 158 45 158 134v55c-35 -46 -100 -77 -180 -78c-119 0 -197 81 -197 207v271l18 17h137l18 -17l-1 -223c0 -67 37 -102 95 -102c43 0 87 19 110 43
v282l18 17h137zM281 600v27l73 143l177 -16v-28l-134 -126h-116z" />
    <glyph glyph-name="Zcaron" unicode="&#x17d;" horiz-adv-x="649" 
d="M253 141h362l18 -18v-106l-18 -17h-582l-18 17v97l375 445h-345l-18 17v106l18 18h564l18 -18v-96zM253 758l-105 136v28h119l58 -88h6l58 88h119v-28l-105 -136h-150z" />
    <glyph glyph-name="zcaron" unicode="&#x17e;" horiz-adv-x="553" 
d="M250 130h255l18 -18v-94l-18 -18h-455l-17 18v86l265 305h-241l-18 18v94l18 18h439l18 -18v-86zM200 598l-105 136v28h119l58 -88h6l58 88h119v-28l-105 -136h-150z" />
    <glyph glyph-name="paragraph" unicode="&#xb6;" horiz-adv-x="646" 
d="M562 742l18 -17v-814l-18 -17h-92l-18 17v735h-101v-735l-18 -17h-92l-18 17v415h-27c-161 0 -202 124 -202 204c0 108 67 213 243 213z" />
    <glyph glyph-name="exclamdown" unicode="&#xa1;" horiz-adv-x="266" 
d="M136 379c-50 0 -84 34 -84 83c0 50 34 85 84 85c48 0 83 -35 83 -85c0 -49 -35 -83 -83 -83zM68 -157l-18 18v172l33 249l17 17h64l17 -17l33 -249v-172l-18 -18h-128z" />
    <glyph glyph-name="ellipsis" unicode="&#x2026;" horiz-adv-x="679" 
d="M119 156c48 0 82 -34 82 -82s-34 -82 -82 -82c-47 0 -81 34 -81 82s34 82 81 82zM339 156c48 0 82 -34 82 -82s-34 -82 -82 -82c-47 0 -81 34 -81 82s34 82 81 82zM559 156c48 0 82 -34 82 -82s-34 -82 -82 -82c-47 0 -81 34 -81 82s34 82 81 82z" />
    <glyph glyph-name="igrave" unicode="&#xec;" horiz-adv-x="307" 
d="M86 539h137l18 -18v-504l-18 -17h-137l-18 17v504zM211 627v-27h-116l-134 126v28l177 16z" />
    <glyph glyph-name="iacute" unicode="&#xed;" horiz-adv-x="302" 
d="M86 539h137l18 -18v-504l-18 -17h-137l-18 17v504zM91 600v27l73 143l177 -16v-28l-134 -126h-116z" />
    <glyph glyph-name="icircumflex" unicode="&#xee;" horiz-adv-x="300" 
d="M86 539h137l18 -18v-504l-18 -17h-137l-18 17v504zM228 762l105 -136v-28h-119l-58 88h-6l-58 -88h-119v28l105 136h150z" />
    <glyph glyph-name="idieresis" unicode="&#xef;" horiz-adv-x="310" 
d="M86 539h137l18 -18v-504l-18 -17h-137l-18 17v504zM59 762c45 0 78 -32 78 -78c0 -45 -33 -77 -78 -77s-78 32 -78 77c0 46 33 78 78 78zM252 762c45 0 78 -32 78 -78c0 -45 -33 -77 -78 -77s-78 32 -78 77c0 46 33 78 78 78z" />
    <glyph glyph-name="Sacute" unicode="&#x15a;" horiz-adv-x="626" 
d="M338 708c112 0 199 -34 199 -34l17 -19l-10 -124l-22 -10s-100 38 -198 38c-73 0 -101 -17 -101 -51c0 -115 370 -47 370 -300c0 -140 -130 -214 -301 -214c-135 0 -233 44 -233 44l-16 20l11 115l19 16s100 -46 219 -46c82 0 114 19 114 58c0 124 -370 48 -370 296
c0 129 92 211 302 211zM264 767v27l73 143l177 -16v-28l-134 -126h-116z" />
    <glyph glyph-name="Tcaron" unicode="&#x164;" horiz-adv-x="617" 
d="M588 700l18 -18v-109l-18 -18h-193v-538l-18 -17h-143l-17 17v538h-192l-17 18v109l17 18h563zM236 758l-105 136v28h119l58 -88h6l58 88h119v-28l-105 -136h-150z" />
    <glyph glyph-name="Zacute" unicode="&#x179;" horiz-adv-x="654" 
d="M254 141h362l18 -18v-106l-18 -17h-582l-18 17v97l375 445h-345l-18 17v106l18 18h564l18 -18v-96zM262 757v27l73 143l177 -16v-28l-134 -126h-116z" />
    <glyph glyph-name="sacute" unicode="&#x15b;" horiz-adv-x="509" 
d="M248 -6c-123 0 -196 29 -196 29l-15 20l17 110l20 14s86 -36 186 -36c46 0 59 13 59 30c0 56 -278 38 -278 213c0 110 75 171 237 171c83 0 161 -26 161 -26l15 -20l-14 -109l-20 -15s-83 33 -160 33c-47 0 -60 -11 -60 -26c0 -55 283 -26 283 -212
c0 -113 -85 -176 -235 -176zM199 600v27l73 143l177 -16v-28l-134 -126h-116z" />
    <glyph glyph-name="zacute" unicode="&#x17a;" horiz-adv-x="548" 
d="M251 130h255l18 -18v-94l-18 -18h-455l-17 18v86l265 305h-241l-18 18v94l18 18h439l18 -18v-86zM220 600v27l73 143l177 -16v-28l-134 -126h-116z" />
    <glyph glyph-name="Zdotaccent" unicode="&#x17b;" horiz-adv-x="678" 
d="M267 141h362l18 -18v-106l-18 -17h-582l-18 17v97l375 445h-345l-18 17v106l18 18h564l18 -18v-96zM350 959c53 0 91 -38 91 -91c0 -54 -38 -92 -91 -92s-91 38 -91 92c0 53 38 91 91 91z" />
    <glyph glyph-name="zdotaccent" unicode="&#x17c;" horiz-adv-x="561" 
d="M260 130h255l18 -18v-94l-18 -18h-455l-17 18v86l265 305h-241l-18 18v94l18 18h439l18 -18v-86zM292 785c53 0 91 -38 91 -91c0 -54 -38 -92 -91 -92s-91 38 -91 92c0 53 38 91 91 91z" />
    <glyph glyph-name="Racute" unicode="&#x154;" horiz-adv-x="714" 
d="M665 456c0 -107 -45 -184 -127 -225l144 -213l-17 -18h-181l-121 197h-124v-180l-17 -17h-143l-18 17v665l18 18h295c185 0 291 -88 291 -244zM374 337c77 0 122 39 122 113c0 73 -45 110 -122 110h-135v-223h135zM257 763v27l73 143l177 -16v-28l-134 -126h-116z" />
    <glyph glyph-name="racute" unicode="&#x155;" horiz-adv-x="449" 
d="M417 408l-18 -17c-64 0 -125 -23 -157 -42v-331l-18 -18h-138l-17 18v503l17 18h138l18 -18v-52c31 42 88 71 157 77l18 -17v-121zM167 600v27l73 143l177 -16v-28l-134 -126h-116z" />
    <glyph glyph-name="Abreve" unicode="&#x102;" horiz-adv-x="780" 
d="M504 688l272 -669l-19 -19h-150l-18 19l-46 117l-304 1l-48 -121l-16 -16h-149l-15 16l277 671l16 13h184zM287 264h207l-93 266h-21zM537 936l17 -18c-12 -85 -74 -140 -162 -140c-87 0 -149 57 -162 140l18 18h74l18 -18c7 -25 27 -40 52 -40c27 0 46 13 53 40l17 18
h75z" />
    <glyph glyph-name="abreve" unicode="&#x103;" horiz-adv-x="694" 
d="M294 543c71 0 125 -19 165 -69v48l18 17h137l18 -17v-504l-18 -18h-137l-18 18v46c-40 -50 -97 -72 -168 -72c-149 0 -248 109 -248 274c0 173 101 277 251 277zM349 406c-83 0 -133 -54 -133 -136c0 -85 50 -138 133 -138c48 0 88 23 110 58v157c-23 37 -68 59 -110 59z
M506 759l17 -18c-12 -85 -74 -140 -162 -140c-87 0 -149 57 -162 140l18 18h74l18 -18c7 -25 27 -40 52 -40c27 0 46 13 53 40l17 18h75z" />
    <glyph glyph-name="Lacute" unicode="&#x139;" horiz-adv-x="584" 
d="M537 149l17 -18v-113l-17 -18h-440l-18 18v664l18 18h143l17 -18v-533h280zM104 780v27l73 143l177 -16v-28l-134 -126h-116z" />
    <glyph glyph-name="lacute" unicode="&#x13a;" horiz-adv-x="393" 
d="M77 724l18 18h137l18 -18v-534c0 -41 21 -59 58 -59c14 0 32 2 46 5l13 -14v-107l-16 -15c-25 -4 -58 -6 -88 -6c-111 0 -186 64 -186 185v545zM110 801v27l73 143l177 -16v-28l-134 -126h-116z" />
    <glyph glyph-name="Cacute" unicode="&#x106;" horiz-adv-x="695" 
d="M422 -7c-250 0 -387 135 -387 361c0 228 138 352 391 352c110 0 218 -23 218 -23l16 -19l-12 -124l-23 -11s-94 29 -194 29c-132 0 -214 -73 -214 -204c0 -128 86 -213 213 -213c120 0 197 29 197 29l22 -11l11 -124l-16 -19s-75 -23 -222 -23zM345 772v27l73 143
l177 -16v-28l-134 -126h-116z" />
    <glyph glyph-name="cacute" unicode="&#x107;" horiz-adv-x="601" 
d="M371 134c59 0 128 10 171 25l13 -12l-6 -113l-14 -17c-44 -14 -114 -23 -175 -23c-210 0 -326 86 -326 274c0 173 111 277 284 277c150 0 247 -85 247 -209l-18 -18h-135l-18 18c0 46 -27 72 -75 72c-68 0 -112 -39 -112 -125v-11c0 -89 55 -138 164 -138zM265 600v27
l73 143l177 -16v-28l-134 -126h-116z" />
    <glyph glyph-name="Ccaron" unicode="&#x10c;" horiz-adv-x="690" 
d="M422 -7c-250 0 -387 135 -387 361c0 228 138 352 391 352c110 0 218 -23 218 -23l16 -19l-12 -124l-23 -11s-94 29 -194 29c-132 0 -214 -73 -214 -204c0 -128 86 -213 213 -213c120 0 197 29 197 29l22 -11l11 -124l-16 -19s-75 -23 -222 -23zM331 768l-105 136v28h119
l58 -88h6l58 88h119v-28l-105 -136h-150z" />
    <glyph glyph-name="ccaron" unicode="&#x10d;" horiz-adv-x="589" 
d="M371 134c59 0 128 10 171 25l13 -12l-6 -113l-14 -17c-44 -14 -114 -23 -175 -23c-210 0 -326 86 -326 274c0 173 111 277 284 277c150 0 247 -85 247 -209l-18 -18h-135l-18 18c0 46 -27 72 -75 72c-68 0 -112 -39 -112 -125v-11c0 -89 55 -138 164 -138zM237 598
l-105 136v28h119l58 -88h6l58 88h119v-28l-105 -136h-150z" />
    <glyph glyph-name="Ecaron" unicode="&#x11a;" horiz-adv-x="658" 
d="M605 560h-352v-143h206l18 -18v-97l-18 -17h-206v-145h352l18 -18v-104l-18 -18h-513l-17 18v664l17 18h513l18 -18v-104zM279 769l-105 136v28h119l58 -88h6l58 88h119v-28l-105 -136h-150z" />
    <glyph glyph-name="ecaron" unicode="&#x11b;" horiz-adv-x="603" 
d="M544 41l-14 -16c-48 -19 -126 -31 -182 -31c-215 0 -305 82 -305 274c0 173 110 277 283 277c210 0 278 -149 238 -311l-19 -11h-330c3 -61 46 -89 151 -89c56 0 125 13 173 32l14 -12zM326 408c-75 0 -110 -45 -111 -92h191c11 50 -11 92 -80 92zM249 598l-105 136v28
h119l58 -88h6l58 88h119v-28l-105 -136h-150z" />
    <glyph glyph-name="Dcaron" unicode="&#x10e;" horiz-adv-x="769" 
d="M365 700c220 0 372 -142 372 -350c0 -207 -154 -350 -379 -350h-277l-17 18v664l17 18h284zM369 142c109 0 187 84 187 207c0 124 -82 209 -195 209h-119v-416h127zM249 767l-105 136v28h119l58 -88h6l58 88h119v-28l-105 -136h-150z" />
    <glyph glyph-name="Nacute" unicode="&#x143;" horiz-adv-x="814" 
d="M721 701l17 -18v-665l-17 -18h-248l-217 488h-9l1 -471l-18 -17h-143l-17 17v665l17 18h246l217 -488h10v471l18 18h143zM344 777v27l73 143l177 -16v-28l-134 -126h-116z" />
    <glyph glyph-name="nacute" unicode="&#x144;" horiz-adv-x="673" 
d="M417 546c119 0 197 -81 197 -207v-321l-18 -18h-138l-17 18l1 282c0 67 -37 102 -95 102c-43 0 -88 -19 -110 -43v-341l-18 -18h-138l-17 18v503l17 18h138l18 -18v-53c35 46 100 77 180 78zM275 600v27l73 143l177 -16v-28l-134 -126h-116z" />
    <glyph glyph-name="Ncaron" unicode="&#x147;" 
d="M721 701l17 -18v-665l-17 -18h-248l-217 488h-9l1 -471l-18 -17h-143l-17 17v665l17 18h246l217 -488h10v471l18 18h143zM324 773l-105 136v28h119l58 -88h6l58 88h119v-28l-105 -136h-150z" />
    <glyph glyph-name="ncaron" unicode="&#x148;" horiz-adv-x="679" 
d="M417 546c119 0 197 -81 197 -207v-321l-18 -18h-138l-17 18l1 282c0 67 -37 102 -95 102c-43 0 -88 -19 -110 -43v-341l-18 -18h-138l-17 18v503l17 18h138l18 -18v-53c35 46 100 77 180 78zM247 598l-105 136v28h119l58 -88h6l58 88h119v-28l-105 -136h-150z" />
    <glyph glyph-name="Ohungarumlaut" unicode="&#x150;" horiz-adv-x="807" 
d="M402 706c217 0 379 -152 379 -355c0 -204 -162 -359 -379 -359c-216 0 -378 154 -378 359c0 204 162 355 378 355zM404 557c-108 0 -198 -89 -198 -207s91 -209 198 -209c108 0 194 91 194 209s-86 207 -194 207zM479 927v-28l-134 -126h-116v27l73 143zM538 943l177 -16
v-28l-134 -126h-116v27z" />
    <glyph glyph-name="ohungarumlaut" unicode="&#x151;" horiz-adv-x="637" 
d="M319 545c176 0 294 -109 294 -275s-118 -276 -294 -276c-177 0 -295 110 -295 276s118 275 295 275zM319 408c-72 0 -121 -57 -121 -140c0 -84 49 -140 121 -140c71 0 120 56 120 140c0 83 -49 140 -120 140zM385 754v-28l-134 -126h-116v27l73 143zM444 770l177 -16v-28
l-134 -126h-116v27z" />
    <glyph glyph-name="Rcaron" unicode="&#x158;" horiz-adv-x="704" 
d="M665 456c0 -107 -45 -184 -127 -225l144 -213l-17 -18h-181l-121 197h-124v-180l-17 -17h-143l-18 17v665l18 18h295c185 0 291 -88 291 -244zM374 337c77 0 122 39 122 113c0 73 -45 110 -122 110h-135v-223h135zM243 768l-105 136v28h119l58 -88h6l58 88h119v-28
l-105 -136h-150z" />
    <glyph glyph-name="rcaron" unicode="&#x159;" horiz-adv-x="447" 
d="M421 408l-18 -17c-64 0 -125 -23 -157 -42v-331l-18 -18h-138l-17 18v503l17 18h138l18 -18v-52c31 42 88 71 157 77l18 -17v-121zM151 598l-105 136v28h119l58 -88h6l58 88h119v-28l-105 -136h-150z" />
    <glyph glyph-name="Uring" unicode="&#x16e;" horiz-adv-x="759" 
d="M682 700l18 -17v-389c0 -185 -123 -302 -319 -302c-197 0 -323 117 -323 302v389l17 17h143l18 -17v-389c0 -95 61 -153 146 -153c84 0 140 58 140 153v389l17 17h143zM378 980c67 0 121 -54 121 -120s-54 -120 -121 -120s-121 54 -121 120s54 120 121 120zM378 912
c-29 0 -53 -24 -53 -52c0 -29 24 -52 53 -52s53 23 53 52c0 28 -24 52 -53 52z" />
    <glyph glyph-name="uring" unicode="&#x16f;" horiz-adv-x="652" 
d="M250 -11c-119 0 -197 81 -197 207v326l18 17h137l18 -17l-1 -278c0 -67 37 -102 95 -102c43 0 87 19 110 43v337l18 17h137l18 -17v-504l-18 -18h-137l-18 18v49c-35 -46 -100 -77 -180 -78zM333 814c67 0 121 -54 121 -120s-54 -120 -121 -120s-121 54 -121 120
s54 120 121 120zM333 746c-29 0 -53 -24 -53 -52c0 -29 24 -52 53 -52s53 23 53 52c0 28 -24 52 -53 52z" />
    <glyph glyph-name="Uhungarumlaut" unicode="&#x170;" horiz-adv-x="760" 
d="M682 700l18 -17v-389c0 -185 -123 -302 -319 -302c-197 0 -323 117 -323 302v389l17 17h143l18 -17v-389c0 -95 61 -153 146 -153c84 0 140 58 140 153v389l17 17h143zM454 929v-28l-134 -126h-116v27l73 143zM513 945l177 -16v-28l-134 -126h-116v27z" />
    <glyph glyph-name="uhungarumlaut" unicode="&#x171;" horiz-adv-x="653" 
d="M250 -11c-119 0 -197 81 -197 207v326l18 17h137l18 -17l-1 -278c0 -67 37 -102 95 -102c43 0 87 19 110 43v337l18 17h137l18 -17v-504l-18 -18h-137l-18 18v49c-35 -46 -100 -77 -180 -78zM396 757v-28l-134 -126h-116v27l73 143zM455 773l177 -16v-28l-134 -126h-116
v27z" />
    <glyph glyph-name="Aogonek" unicode="&#x104;" horiz-adv-x="761" 
d="M752 -93l42 -49v-24c-36 -52 -87 -81 -145 -81c-57 0 -125 30 -125 118c0 49 22 99 53 148l-45 116l-304 1l-48 -120l-16 -16h-149l-16 15l277 672l17 13h183l17 -13l271 -669l-18 -18h-63c-22 -38 -35 -68 -35 -89c0 -23 14 -34 31 -34s35 11 51 30h22zM276 263h207
l-94 266h-21z" />
    <glyph glyph-name="aogonek" unicode="&#x105;" horiz-adv-x="692" 
d="M624 -120l42 -49v-24c-35 -52 -87 -81 -144 -81s-125 30 -125 118c0 53 26 108 62 163l-10 11v46c-40 -50 -97 -72 -168 -72c-149 0 -248 109 -248 274c0 173 99 277 249 277h2c71 0 125 -19 165 -69v48l18 17h137l18 -17v-504l-18 -18h-31c-34 -51 -53 -90 -53 -117
c0 -22 15 -34 32 -34s34 12 50 31h22zM449 190v157c-23 37 -68 59 -110 59c-83 0 -133 -54 -133 -136c0 -85 50 -138 133 -138c48 0 88 23 110 58z" />
    <glyph glyph-name="Eogonek" unicode="&#x118;" horiz-adv-x="665" 
d="M600 560h-352v-143h206l18 -17v-97l-18 -18h-206v-145h352l18 -17v-105l-18 -18h-82c-30 -45 -46 -83 -46 -107c0 -23 14 -34 31 -34s35 11 51 30h22l42 -49v-24c-36 -52 -87 -81 -145 -81c-57 0 -125 30 -125 118c0 49 21 98 52 147h-313l-17 18v665l17 17h513l18 -17
v-105z" />
    <glyph glyph-name="eogonek" unicode="&#x119;" horiz-adv-x="600" 
d="M556 234l-19 -11h-330c3 -61 46 -89 151 -89c56 0 125 13 173 32l14 -12l-9 -113l-14 -16c-25 -10 -58 -18 -91 -23c-34 -51 -53 -90 -53 -117c0 -22 14 -34 31 -34s35 12 51 31h22l42 -49v-24c-36 -52 -87 -81 -145 -81c-57 0 -125 30 -125 118c0 48 22 99 53 149
c-191 8 -272 91 -272 273c0 173 110 277 283 277c210 0 278 -149 238 -311zM398 316c11 50 -11 92 -80 92c-75 0 -110 -45 -111 -92h191z" />
    <glyph glyph-name="dcroat" unicode="&#x111;" horiz-adv-x="680" 
d="M659 684l18 -18v-53l-18 -18h-47v-577l-18 -18h-137l-18 18v46c-40 -50 -97 -72 -168 -72c-149 0 -248 109 -248 274c0 173 101 277 251 277c71 0 125 -19 165 -69v121h-67l-18 18v53l18 18h67v41l18 17h137l18 -17v-41h47zM439 190v157c-23 37 -68 59 -110 59
c-83 0 -133 -54 -133 -136c0 -85 50 -138 133 -138c48 0 88 23 110 58z" />
    <glyph glyph-name="Gbreve" unicode="&#x11e;" horiz-adv-x="756" 
d="M695 401l18 -18v-365l-18 -18h-139l-17 17l-1 34h-9c-33 -39 -95 -59 -169 -59c-195 0 -335 140 -335 358c0 203 160 356 406 356c79 0 153 -11 220 -34l15 -20l-16 -129l-22 -9c-59 28 -133 43 -201 43c-132 0 -220 -90 -220 -207c0 -131 83 -209 205 -209
c47 0 92 15 124 34v102h-117l-14 13v99l12 12h278zM548 915l17 -18c-12 -85 -74 -140 -162 -140c-87 0 -149 57 -162 140l18 18h74l18 -18c7 -25 27 -40 52 -40c27 0 46 13 53 40l17 18h75z" />
    <glyph glyph-name="gbreve" unicode="&#x11f;" horiz-adv-x="660" 
d="M593 539l18 -18v-449c0 -183 -121 -273 -319 -273c-100 0 -170 18 -198 25l-14 17v115l14 11c30 -10 105 -34 187 -34c94 0 157 45 157 134v36c-40 -50 -98 -73 -158 -73c-152 0 -248 96 -248 256c0 162 89 259 238 259c71 0 128 -22 168 -72v48l18 18h137zM438 230v117
c-22 35 -68 58 -116 58c-71 0 -117 -39 -117 -121c0 -76 46 -113 117 -113c42 0 93 22 116 59zM483 759l17 -18c-12 -85 -74 -140 -162 -140c-87 0 -149 57 -162 140l18 18h74l18 -18c7 -25 27 -40 52 -40c27 0 46 13 53 40l17 18h75z" />
    <glyph glyph-name="Idotaccent" unicode="&#x130;" horiz-adv-x="319" 
d="M233 700l18 -18v-664l-18 -18h-143l-17 18v664l17 18h143zM162 951c53 0 91 -38 91 -91c0 -54 -38 -92 -91 -92s-91 38 -91 92c0 53 38 91 91 91z" />
    <glyph glyph-name="Scommaaccent" unicode="&#x218;" horiz-adv-x="624" 
d="M298 -54c45 0 84 -29 84 -83c0 -25 -9 -47 -22 -67l-89 -126h-67v34l44 93c-24 15 -34 40 -34 66c0 49 36 83 84 83zM338 708c112 0 199 -34 199 -34l17 -19l-10 -124l-22 -10s-100 38 -198 38c-73 0 -101 -17 -101 -51c0 -115 370 -47 370 -300
c0 -140 -130 -214 -301 -214c-135 0 -233 44 -233 44l-16 20l11 115l19 16s100 -46 219 -46c82 0 114 19 114 58c0 124 -370 48 -370 296c0 129 92 211 302 211z" />
    <glyph glyph-name="scommaaccent" unicode="&#x219;" horiz-adv-x="505" 
d="M266 -42c45 0 84 -29 84 -83c0 -25 -9 -47 -22 -67l-89 -126h-67v34l44 93c-24 15 -34 40 -34 66c0 49 36 83 84 83zM251 -6c-123 0 -196 29 -196 29l-15 20l17 110l20 14s86 -36 186 -36c46 0 59 13 59 30c0 56 -278 38 -278 213c0 110 75 171 237 171
c83 0 161 -26 161 -26l15 -20l-14 -109l-20 -15s-83 33 -160 33c-47 0 -60 -11 -60 -26c0 -55 283 -26 283 -212c0 -113 -85 -176 -235 -176z" />
    <glyph glyph-name="Dcroat" unicode="&#x110;" horiz-adv-x="777" 
d="M500 877l18 -17v-74l-18 -18h-332l-18 18v74l18 17h332zM365 700c220 0 372 -142 372 -350c0 -207 -154 -350 -379 -350h-277l-17 18v664l17 18h284zM369 142c109 0 187 84 187 207c0 124 -82 209 -195 209h-119v-416h127z" />
    <glyph glyph-name="dcaron" unicode="&#x10f;" horiz-adv-x="790" 
d="M284 543c71 0 125 -19 165 -69v251l18 17h137l18 -17v-707l-18 -18h-137l-18 18v46c-40 -50 -97 -72 -168 -72c-149 0 -248 109 -248 274c0 173 101 277 251 277zM339 406c-83 0 -133 -54 -133 -136c0 -85 50 -138 133 -138c48 0 88 23 110 58v157c-23 37 -68 59 -110 59
zM747 732c45 0 84 -29 84 -83c0 -25 -9 -47 -22 -67l-89 -126h-67v34l44 93c-24 15 -34 40 -34 66c0 49 36 83 84 83z" />
    <glyph glyph-name="tcaron" unicode="&#x165;" horiz-adv-x="461" 
d="M434 32l-16 -19c-35 -14 -84 -21 -127 -21c-104 0 -179 59 -179 171v246h-58l-17 17v95l17 18h58l61 125h93l18 -18v-107h123l18 -18v-95l-18 -17h-123v-219c0 -42 16 -59 60 -59c21 0 46 4 67 12l18 -18zM405 852c45 0 84 -29 84 -83c0 -25 -9 -47 -22 -67l-89 -126h-67
v34l44 93c-24 15 -34 40 -34 66c0 49 36 83 84 83z" />
    <glyph glyph-name="Lcaron" unicode="&#x13d;" horiz-adv-x="575" 
d="M528 149l17 -18v-113l-17 -18h-440l-18 18v664l18 18h143l17 -18v-533h280zM400 697c45 0 84 -29 84 -83c0 -25 -9 -47 -22 -67l-89 -126h-67v34l44 93c-24 15 -34 40 -34 66c0 49 36 83 84 83z" />
    <glyph glyph-name="lcaron" unicode="&#x13e;" horiz-adv-x="415" 
d="M74 724l18 18h137l18 -18v-534c0 -41 21 -59 58 -59c14 0 32 2 46 5l13 -14v-107l-16 -15c-25 -4 -58 -6 -88 -6c-111 0 -186 64 -186 185v545zM380 738c45 0 84 -29 84 -83c0 -25 -9 -47 -22 -67l-89 -126h-67v34l44 93c-24 15 -34 40 -34 66c0 49 36 83 84 83z" />
    <glyph glyph-name="Omega" unicode="&#x2126;" horiz-adv-x="864" 
d="M831 140l18 -18v-104l-18 -18h-313l-18 18v111c76 50 131 151 131 237c0 115 -86 198 -203 198s-202 -83 -202 -198c0 -86 55 -187 131 -238v-110l-18 -18h-315l-17 18v104l17 18l159 -1c-67 56 -115 156 -115 242c0 189 152 328 360 328s360 -139 360 -328
c0 -85 -47 -186 -114 -242z" />
    <glyph glyph-name="partialdiff" unicode="&#x2202;" horiz-adv-x="616" 
d="M251 560c-85 0 -165 -34 -165 -34l-22 10l-10 124l17 19s69 29 189 29c190 0 332 -139 332 -368c0 -231 -114 -348 -302 -348c-158 0 -262 94 -262 242c0 136 88 219 225 219c73 0 128 -19 177 -52c0 98 -66 159 -179 159zM427 278c0 0 -52 45 -133 45
c-71 0 -106 -36 -106 -90c0 -65 45 -99 109 -99c73 0 130 43 130 140v4z" />
    <glyph glyph-name="product" unicode="&#x220f;" horiz-adv-x="734" 
d="M654 742l18 -17v-901l-18 -18h-137l-18 18v782h-256v-782l-18 -18h-137l-18 18v901l18 17h566z" />
    <glyph glyph-name="summation" unicode="&#x2211;" horiz-adv-x="644" 
d="M591 10l18 -17v-113l-18 -18h-547l-18 18v106l264 317l-253 315v109l18 17h527l18 -17v-113l-18 -18h-340l218 -269v-47l-219 -270h350z" />
    <glyph glyph-name="radical" unicode="&#x221a;" horiz-adv-x="727" 
d="M697 746l18 -18l-266 -885h-184l-137 430h-109l-17 18v99l17 18h211l21 -18l103 -361h8l188 699l18 18h129z" />
    <glyph glyph-name="integral" unicode="&#x222b;" horiz-adv-x="403" 
d="M330 730c-58 0 -80 -29 -80 -108c0 -94 25 -410 25 -515c0 -177 -52 -245 -188 -245c-38 0 -64 5 -90 17l-14 23l15 79l16 12c19 -8 35 -13 52 -13c59 0 83 32 83 115c0 105 -27 415 -27 512c0 176 52 244 187 244c26 0 48 -4 75 -14l17 -22l-13 -76l-19 -14
c-14 4 -26 5 -39 5z" />
    <glyph glyph-name="approxequal" unicode="&#x2248;" horiz-adv-x="507" 
d="M427 518l20 -19c-3 -105 -40 -149 -113 -149c-67 0 -95 51 -126 51c-18 0 -28 -8 -31 -28l-19 -19h-79l-19 19c3 105 41 151 114 151c64 0 94 -51 125 -51c19 0 29 7 32 26l19 19h77zM427 295l20 -19c-3 -105 -40 -149 -113 -149c-67 0 -95 51 -126 51
c-18 0 -28 -8 -31 -28l-19 -19h-79l-19 19c3 105 41 151 114 151c64 0 94 -51 125 -51c19 0 29 7 32 26l19 19h77z" />
    <glyph glyph-name="notequal" unicode="&#x2260;" horiz-adv-x="512" 
d="M367 489h93l17 -17v-74l-17 -18h-128l-33 -106h161l17 -17v-74l-17 -18h-196l-39 -125l-18 -18h-94l-18 18l39 125h-83l-18 18v74l18 17h118l33 106h-151l-18 18v74l18 17h186l38 120l18 17h94l18 -17z" />
    <glyph glyph-name="lessequal" unicode="&#x2264;" horiz-adv-x="503" 
d="M51 111h409l17 -17v-74l-17 -18h-409l-18 18v74zM477 553l-18 -22l-314 -125l313 -126l19 -21v-87l-14 -14l-430 179v139l429 178l15 -15v-86z" />
    <glyph glyph-name="greaterequal" unicode="&#x2265;" horiz-adv-x="515" 
d="M50 111h409l18 -17v-74l-18 -18h-409l-17 18v74zM51 531l-18 22v86l15 15l429 -178v-139l-430 -179l-14 14v87l19 21l313 126z" />
    <glyph glyph-name="lozenge" unicode="&#x25ca;" horiz-adv-x="509" 
d="M269 650l214 -319l-215 -323h-29l-214 323l215 319h29zM251 480l-101 -149l101 -151h5l102 151l-100 149h-7z" />
    <glyph glyph-name="pi" unicode="&#x3c0;" horiz-adv-x="756" 
d="M700 539l17 -18v-85l-17 -18h-109v-400l-17 -18h-108l-18 18v400h-89l-42 -400l-17 -18h-108l-18 18l42 400h-31c-40 0 -69 -26 -68 -63c0 -14 5 -31 12 -48l-10 -28l-79 -27l-28 10c-17 38 -29 84 -29 122c-1 89 75 155 180 155h537z" />
    <glyph glyph-name="oneeighth" unicode="&#x215b;" horiz-adv-x="904" 
d="M782 219c47 -15 77 -46 77 -101c0 -75 -78 -123 -182 -123s-182 47 -182 121c0 55 34 91 81 103v3c-38 14 -60 42 -60 91c0 66 70 109 160 109c92 0 161 -44 161 -112c0 -44 -19 -73 -55 -89v-2zM677 332c-35 0 -54 -15 -54 -41c0 -25 19 -41 54 -41c34 0 54 17 54 41
c0 25 -20 41 -54 41zM677 88c45 0 74 17 74 49c0 27 -28 48 -74 48s-74 -20 -74 -48c0 -31 25 -49 74 -49zM689 701l17 -18l-474 -665l-36 -18h-109l-18 17l474 664l40 20h106zM178 700l11 -11v-396l-11 -10h-100l-11 10v275h-37l-11 11v67l11 10h12c28 0 51 13 62 36l8 8
h66z" />
    <glyph glyph-name="threeeighths" unicode="&#x215c;" horiz-adv-x="966" 
d="M856 219c46 -15 76 -46 76 -101c0 -75 -77 -123 -182 -123c-104 0 -182 47 -182 121c0 55 34 91 81 103v3c-37 14 -59 42 -59 91c0 66 69 109 160 109c92 0 160 -44 160 -112c0 -44 -19 -73 -54 -89v-2zM750 332c-34 0 -53 -15 -53 -41c0 -25 19 -41 53 -41
c35 0 54 17 54 41c0 25 -19 41 -54 41zM750 88c46 0 74 17 74 49c0 27 -27 48 -74 48c-46 0 -73 -20 -73 -48c0 -31 25 -49 73 -49zM763 701l18 -18l-474 -665l-37 -18h-109l-17 17l473 664l41 20h105zM142 373c35 0 55 15 55 41c0 28 -21 40 -44 40h-57l-10 11v50l10 10h55
c25 0 46 16 46 43c0 25 -21 40 -55 40c-51 0 -94 -22 -94 -22l-14 7l-6 81l10 11c34 11 77 18 126 18c97 0 161 -40 161 -119c0 -47 -24 -78 -63 -92v-3c39 -12 63 -48 63 -86c0 -75 -46 -125 -160 -125c-48 0 -93 7 -127 18l-10 11l6 81l14 7s53 -22 94 -22z" />
    <glyph glyph-name="fiveeighths" unicode="&#x215d;" horiz-adv-x="987" 
d="M162 278c-82 0 -126 18 -126 18l-10 11l5 74l14 6s54 -22 105 -22c41 0 61 20 61 48c0 30 -24 48 -62 48c-22 0 -40 -5 -58 -14h-15l-35 31v211l11 10h270l10 -10v-69l-10 -10h-170v-67c15 4 26 5 42 5c97 0 148 -44 148 -126c0 -96 -65 -144 -180 -144zM857 219
c46 -15 76 -46 76 -101c0 -75 -77 -123 -182 -123c-104 0 -182 47 -182 121c0 55 35 91 82 103v3c-38 14 -60 42 -60 91c0 66 69 109 160 109c92 0 160 -44 160 -112c0 -44 -19 -73 -54 -89v-2zM752 332c-35 0 -54 -15 -54 -41c0 -25 19 -41 54 -41c34 0 53 17 53 41
c0 25 -19 41 -53 41zM751 88c46 0 74 17 74 49c0 27 -27 48 -74 48c-46 0 -73 -20 -73 -48c0 -31 25 -49 73 -49zM764 701l18 -18l-474 -665l-37 -18h-108l-18 17l473 664l41 20h105z" />
    <glyph glyph-name="seveneighths" unicode="&#x215e;" horiz-adv-x="944" 
d="M827 219c46 -15 77 -46 77 -101c0 -75 -78 -123 -182 -123c-105 0 -182 47 -182 121c0 55 34 91 81 103v3c-38 14 -60 42 -60 91c0 66 69 109 160 109c92 0 161 -44 161 -112c0 -44 -20 -73 -55 -89v-2zM722 332c-35 0 -54 -15 -54 -41c0 -25 19 -41 54 -41
c34 0 53 17 53 41c0 25 -19 41 -53 41zM722 88c45 0 73 17 73 49c0 27 -27 48 -73 48c-47 0 -74 -20 -74 -48c0 -31 25 -49 74 -49zM733 701l18 -18l-474 -665l-37 -18h-108l-18 17l474 664l40 20h105zM351 700l11 -11v-63c0 -113 -119 -196 -119 -333l-10 -10h-96l-10 10
v43c0 97 115 194 115 274h-101v-50l-10 -10h-93l-10 10v130l11 10h312z" />
    <glyph glyph-name="zerosuperior" unicode="&#x2070;" horiz-adv-x="467" 
d="M227 703c120 0 195 -81 195 -211c0 -131 -75 -212 -195 -212s-196 81 -196 212c0 130 76 211 196 211zM227 611c-53 0 -85 -45 -85 -119s32 -119 85 -119s85 45 85 119s-32 119 -85 119z" />
    <glyph glyph-name="foursuperior" unicode="&#x2074;" horiz-adv-x="462" 
d="M418 430l11 -11v-61l-11 -10h-52v-55l-11 -10h-92l-11 10v56h-212l-11 11v60l197 273l13 7h116l11 -11v-259h52zM252 430v154l-108 -154h108z" />
    <glyph glyph-name="fivesuperior" unicode="&#x2075;" horiz-adv-x="389" 
d="M175 278c-83 0 -127 18 -127 18l-10 11l6 73l13 7s54 -22 105 -22c42 0 62 20 62 48c0 30 -25 47 -63 47c-22 0 -40 -4 -57 -14h-15l-36 32v211l11 10h270l10 -10v-69l-10 -11h-170v-66c15 4 26 5 42 5c97 0 149 -44 149 -126c0 -96 -66 -144 -180 -144z" />
    <glyph glyph-name="sixsuperior" unicode="&#x2076;" horiz-adv-x="413" 
d="M337 590c0 0 -37 22 -88 22c-53 0 -96 -32 -96 -90c24 22 56 33 101 33c73 0 128 -46 128 -126c0 -98 -72 -151 -166 -151c-112 0 -180 65 -180 208c0 136 84 219 197 219c72 0 113 -18 113 -18l10 -11l-6 -80zM213 473c-36 0 -58 -25 -58 -25v-2c0 -49 23 -74 56 -74
c37 0 58 19 58 50c0 32 -23 51 -56 51z" />
    <glyph glyph-name="sevensuperior" unicode="&#x2077;" horiz-adv-x="402" 
d="M351 700l11 -11v-63c0 -113 -119 -196 -119 -333l-10 -10h-96l-10 10v43c0 97 115 194 115 274h-101v-50l-10 -10h-93l-10 10v130l11 10h312z" />
    <glyph glyph-name="eightsuperior" unicode="&#x2078;" horiz-adv-x="416" 
d="M313 502c47 -15 77 -46 77 -101c0 -75 -78 -123 -182 -123s-182 47 -182 121c0 55 34 91 81 103v3c-38 14 -60 42 -60 91c0 66 70 109 160 109c92 0 161 -44 161 -112c0 -44 -19 -73 -55 -88v-3zM208 615c-34 0 -53 -15 -53 -41c0 -25 19 -41 53 -41c35 0 54 17 54 41
c0 25 -19 41 -54 41zM208 371c46 0 74 17 74 49c0 27 -28 48 -74 48s-74 -20 -74 -48c0 -31 25 -49 74 -49z" />
    <glyph glyph-name="ninesuperior" unicode="&#x2079;" horiz-adv-x="402" 
d="M74 393c0 0 37 -22 88 -22c52 0 95 32 95 90c-24 -22 -55 -33 -100 -33c-73 0 -129 46 -129 126c0 98 73 151 167 151c112 0 180 -65 180 -208c0 -142 -85 -219 -198 -219c-71 0 -113 18 -113 18l-10 11l7 80zM197 510c37 0 58 25 58 25v2c0 43 -22 74 -61 74
c-32 0 -53 -19 -53 -50c0 -32 23 -51 56 -51z" />
    <glyph glyph-name="zeroinferior" unicode="&#x2080;" horiz-adv-x="462" 
d="M227 420c120 0 195 -81 195 -211c0 -131 -75 -213 -195 -213s-196 82 -196 213c0 130 76 211 196 211zM227 328c-53 0 -85 -45 -85 -119c0 -75 32 -120 85 -120s85 45 85 120c0 74 -32 119 -85 119z" />
    <glyph glyph-name="oneinferior" unicode="&#x2081;" horiz-adv-x="255" 
d="M178 417l11 -11v-396l-11 -10h-100l-11 10v275h-37l-11 11v67l11 10h12c28 0 51 13 62 36l8 8h66z" />
    <glyph glyph-name="twoinferior" unicode="&#x2082;" horiz-adv-x="386" 
d="M342 11l-10 -11h-282s-6 13 -6 39c0 72 39 122 128 188c31 24 40 39 40 61c0 24 -17 39 -55 39c-31 0 -63 -10 -95 -22l-13 7l-6 81l10 11c33 11 83 18 131 18c94 0 155 -43 155 -116c0 -46 -14 -80 -72 -126c-75 -59 -96 -72 -96 -89l160 6l11 -10v-76z" />
    <glyph glyph-name="threeinferior" unicode="&#x2083;" horiz-adv-x="368" 
d="M142 90c35 0 55 15 55 41c0 28 -21 40 -44 40h-57l-10 11v50l10 10h55c25 0 46 16 46 43c0 25 -21 40 -55 40c-51 0 -94 -22 -94 -22l-14 7l-6 81l10 11c34 11 77 18 126 18c97 0 161 -40 161 -119c0 -47 -24 -78 -63 -92v-3c39 -12 63 -48 63 -86
c0 -75 -46 -125 -160 -125c-48 0 -93 7 -127 18l-10 11l6 81l14 7s53 -22 94 -22z" />
    <glyph glyph-name="fourinferior" unicode="&#x2084;" horiz-adv-x="456" 
d="M418 147l11 -11v-61l-11 -10h-52v-55l-11 -10h-92l-11 10v56h-212l-11 11v60l197 273l13 7h116l11 -11v-259h52zM252 147v154l-108 -154h108z" />
    <glyph glyph-name="fiveinferior" unicode="&#x2085;" horiz-adv-x="381" 
d="M175 -5c-83 0 -127 18 -127 18l-10 11l6 73l13 7s54 -22 105 -22c42 0 62 20 62 48c0 30 -25 47 -63 47c-22 0 -40 -4 -57 -14h-15l-36 32v211l11 10h270l10 -10v-69l-10 -11h-170v-66c15 4 26 5 42 5c97 0 149 -44 149 -126c0 -96 -66 -144 -180 -144z" />
    <glyph glyph-name="sixinferior" unicode="&#x2086;" horiz-adv-x="415" 
d="M337 307c0 0 -37 22 -88 22c-53 0 -96 -32 -96 -90c24 22 56 33 101 33c73 0 128 -46 128 -126c0 -98 -72 -151 -166 -151c-112 0 -180 65 -180 208c0 136 84 219 197 219c72 0 113 -18 113 -18l10 -11l-6 -80zM213 190c-36 0 -58 -25 -58 -25v-2c0 -49 23 -74 56 -74
c37 0 58 19 58 50c0 32 -23 51 -56 51z" />
    <glyph glyph-name="seveninferior" unicode="&#x2087;" horiz-adv-x="385" 
d="M352 417l11 -11v-63c0 -113 -119 -196 -119 -333l-10 -10h-96l-10 10v43c0 97 115 194 115 274h-101v-50l-10 -10h-93l-10 10v130l11 10h312z" />
    <glyph glyph-name="eightinferior" unicode="&#x2088;" horiz-adv-x="418" 
d="M313 219c47 -15 77 -46 77 -101c0 -75 -78 -123 -182 -123s-182 47 -182 121c0 55 34 91 81 103v3c-38 14 -60 42 -60 91c0 66 70 109 160 109c92 0 161 -44 161 -112c0 -44 -19 -73 -55 -88v-3zM208 332c-34 0 -53 -15 -53 -41c0 -25 19 -41 53 -41c35 0 54 17 54 41
c0 25 -19 41 -54 41zM208 88c46 0 74 17 74 49c0 27 -28 48 -74 48s-74 -20 -74 -48c0 -31 25 -49 74 -49z" />
    <glyph glyph-name="nineinferior" unicode="&#x2089;" horiz-adv-x="409" 
d="M74 110c0 0 37 -22 88 -22c52 0 95 32 95 90c-24 -22 -55 -33 -100 -33c-73 0 -129 46 -129 126c0 98 73 151 167 151c112 0 180 -65 180 -208c0 -142 -85 -219 -198 -219c-71 0 -113 18 -113 18l-10 11l7 80zM197 227c37 0 58 25 58 25v2c0 43 -22 74 -61 74
c-32 0 -53 -19 -53 -50c0 -32 23 -51 56 -51z" />
    <glyph glyph-name="kgreenlandic" unicode="&#x138;" horiz-adv-x="638" 
d="M603 529l-172 -229l172 -285l-14 -15h-157l-15 10l-94 157l-81 -94v-55l-18 -18h-138l-17 18v503l17 18h138l18 -18v-235l182 248l12 5h157z" />
    <glyph glyph-name="Emacron" unicode="&#x112;" horiz-adv-x="670" 
d="M510 877l18 -17v-74l-18 -18h-332l-18 18v74l18 17h332zM600 560h-352v-143h206l18 -18v-97l-18 -17h-206v-145h352l18 -18v-104l-18 -18h-513l-17 18v664l17 18h513l18 -18v-104z" />
    <glyph glyph-name="Omacron" unicode="&#x14c;" 
d="M564 877l18 -17v-74l-18 -18h-332l-18 18v74l18 17h332zM402 706c217 0 379 -152 379 -355c0 -204 -162 -359 -379 -359c-216 0 -378 154 -378 359c0 204 162 355 378 355zM404 557c-108 0 -198 -89 -198 -207s91 -209 198 -209c108 0 194 91 194 209s-86 207 -194 207z
" />
    <glyph glyph-name="Umacron" unicode="&#x16a;" horiz-adv-x="754" 
d="M542 877l18 -17v-74l-18 -18h-332l-18 18v74l18 17h332zM682 700l18 -17v-389c0 -185 -123 -302 -319 -302c-197 0 -323 117 -323 302v389l17 17h143l18 -17v-389c0 -95 61 -153 146 -153c84 0 140 58 140 153v389l17 17h143z" />
    <glyph glyph-name="omacron" unicode="&#x14d;" horiz-adv-x="637" 
d="M485 712l18 -17v-74l-18 -18h-332l-18 18v74l18 17h332zM319 545c176 0 294 -109 294 -275s-118 -276 -294 -276c-177 0 -295 110 -295 276s118 275 295 275zM319 408c-72 0 -121 -57 -121 -140c0 -84 49 -140 121 -140c71 0 120 56 120 140c0 83 -49 140 -120 140z" />
    <glyph glyph-name="umacron" unicode="&#x16b;" horiz-adv-x="655" 
d="M497 712l18 -17v-74l-18 -18h-332l-18 18v74l18 17h332zM250 -11c-119 0 -197 81 -197 207v326l18 17h137l18 -17l-1 -278c0 -67 37 -102 95 -102c43 0 87 19 110 43v337l18 17h137l18 -17v-504l-18 -18h-137l-18 18v49c-35 -46 -100 -77 -180 -78z" />
    <glyph glyph-name="Utilde" unicode="&#x168;" horiz-adv-x="754" 
d="M682 700l18 -17v-389c0 -185 -123 -302 -319 -302c-197 0 -323 117 -323 302v389l17 17h143l18 -17v-389c0 -95 61 -153 146 -153c84 0 140 58 140 153v389l17 17h143zM537 908l17 -18c-2 -97 -36 -137 -104 -137c-61 0 -87 47 -116 47c-16 0 -25 -8 -28 -26l-18 -17h-71
l-18 17c3 96 37 139 104 139c59 0 87 -47 115 -47c18 0 27 6 30 24l17 18h72z" />
    <glyph glyph-name="utilde" unicode="&#x169;" horiz-adv-x="655" 
d="M250 -11c-119 0 -197 81 -197 207v326l18 17h137l18 -17l-1 -278c0 -67 37 -102 95 -102c43 0 87 19 110 43v337l18 17h137l18 -17v-504l-18 -18h-137l-18 18v49c-35 -46 -100 -77 -180 -78zM494 754l17 -18c-2 -97 -36 -137 -104 -137c-61 0 -87 47 -116 47
c-16 0 -25 -8 -28 -26l-18 -17h-71l-18 17c3 96 37 139 104 139c59 0 87 -47 115 -47c18 0 27 6 30 24l17 18h72z" />
    <glyph glyph-name="Ncommaaccent" unicode="&#x145;" 
d="M402 -54c45 0 84 -29 84 -83c0 -25 -9 -47 -22 -67l-89 -126h-67v34l44 93c-24 15 -34 40 -34 66c0 49 36 83 84 83zM721 701l17 -18v-665l-17 -18h-248l-217 488h-9l1 -471l-18 -17h-143l-17 17v665l17 18h246l217 -488h10v471l18 18h143z" />
    <glyph glyph-name="ncommaaccent" unicode="&#x146;" horiz-adv-x="677" 
d="M339 -54c45 0 84 -29 84 -83c0 -25 -9 -47 -22 -67l-89 -126h-67v34l44 93c-24 15 -34 40 -34 66c0 49 36 83 84 83zM417 546c119 0 197 -81 197 -207v-321l-18 -18h-138l-17 18l1 282c0 67 -37 102 -95 102c-43 0 -88 -19 -110 -43v-341l-18 -18h-138l-17 18v503l17 18
h138l18 -18v-53c35 46 100 77 180 78z" />
    <glyph glyph-name="kcommaaccent" unicode="&#x137;" horiz-adv-x="658" 
d="M327 -54c45 0 84 -29 84 -83c0 -25 -9 -47 -22 -67l-89 -126h-67v34l44 93c-24 15 -34 40 -34 66c0 49 36 83 84 83zM631 521l-178 -216l178 -287l-18 -18h-162l-16 12l-94 161l-99 -120v-35l-18 -18h-137l-18 18v707l18 17h137l18 -17v-448l194 253l15 9h162z" />
    <glyph glyph-name="Kcommaaccent" unicode="&#x136;" horiz-adv-x="718" 
d="M361 -54c45 0 84 -29 84 -83c0 -25 -9 -47 -22 -67l-89 -126h-67v34l44 93c-24 15 -34 40 -34 66c0 49 36 83 84 83zM706 682l-249 -294l249 -370l-17 -18h-176l-19 12l-159 236l-87 -97v-133l-18 -18h-142l-18 18v664l18 18h142l18 -18v-296l255 303l27 11h159z" />
    <glyph glyph-name="Lcommaaccent" unicode="&#x13b;" horiz-adv-x="570" 
d="M298 -54c45 0 84 -29 84 -83c0 -25 -9 -47 -22 -67l-89 -126h-67v34l44 93c-24 15 -34 40 -34 66c0 49 36 83 84 83zM528 149l17 -18v-113l-17 -18h-440l-18 18v664l18 18h143l17 -18v-533h280z" />
    <glyph glyph-name="lcommaaccent" unicode="&#x13c;" horiz-adv-x="387" 
d="M205 -54c45 0 84 -29 84 -83c0 -25 -9 -47 -22 -67l-89 -126h-67v34l44 93c-24 15 -34 40 -34 66c0 49 36 83 84 83zM74 724l18 18h137l18 -18v-534c0 -41 21 -59 58 -59c14 0 32 2 46 5l13 -14v-107l-16 -15c-25 -4 -58 -6 -88 -6c-111 0 -186 64 -186 185v545z" />
    <glyph glyph-name="Edotaccent" unicode="&#x116;" horiz-adv-x="670" 
d="M600 560h-352v-143h206l18 -18v-97l-18 -17h-206v-145h352l18 -18v-104l-18 -18h-513l-17 18v664l17 18h513l18 -18v-104zM335 942c53 0 91 -38 91 -91c0 -54 -38 -92 -91 -92s-91 38 -91 92c0 53 38 91 91 91z" />
    <glyph glyph-name="edotaccent" unicode="&#x117;" horiz-adv-x="590" 
d="M534 41l-14 -16c-48 -19 -126 -31 -182 -31c-215 0 -305 82 -305 274c0 173 110 277 283 277c210 0 278 -149 238 -311l-19 -11h-330c3 -61 46 -89 151 -89c56 0 125 13 173 32l14 -12zM316 408c-75 0 -110 -45 -111 -92h191c11 50 -11 92 -80 92zM314 785
c53 0 91 -38 91 -91c0 -54 -38 -92 -91 -92s-91 38 -91 92c0 53 38 91 91 91z" />
    <glyph glyph-name="Gcommaaccent" unicode="&#x122;" horiz-adv-x="756" 
d="M377 -54c45 0 84 -29 84 -83c0 -25 -9 -47 -22 -67l-89 -126h-67v34l44 93c-24 15 -34 40 -34 66c0 49 36 83 84 83zM695 401l18 -18v-365l-18 -18h-139l-17 17l-1 34h-9c-33 -39 -95 -59 -169 -59c-195 0 -335 140 -335 358c0 203 160 356 406 356c79 0 153 -11 220 -34
l15 -20l-16 -129l-22 -9c-59 28 -133 43 -201 43c-132 0 -220 -90 -220 -207c0 -131 83 -209 205 -209c47 0 92 15 124 34v102h-117l-14 13v99l12 12h278z" />
    <glyph glyph-name="gcommaaccent" unicode="&#x123;" horiz-adv-x="654" 
d="M593 539l18 -18v-449c0 -183 -121 -273 -319 -273c-100 0 -170 18 -198 25l-14 17v115l14 11c30 -10 105 -34 187 -34c94 0 157 45 157 134v36c-40 -50 -98 -73 -158 -73c-152 0 -248 96 -248 256c0 162 89 259 238 259c71 0 128 -22 168 -72v48l18 18h137zM438 230v117
c-22 35 -68 58 -116 58c-71 0 -117 -39 -117 -121c0 -76 46 -113 117 -113c42 0 93 22 116 59zM358 594c-45 0 -84 29 -84 83c0 25 9 47 22 67l89 126h67v-34l-44 -93c24 -15 34 -40 34 -66c0 -49 -36 -83 -84 -83z" />
    <glyph glyph-name="emacron" unicode="&#x113;" horiz-adv-x="590" 
d="M476 712l18 -17v-74l-18 -18h-332l-18 18v74l18 17h332zM534 41l-14 -16c-48 -19 -126 -31 -182 -31c-215 0 -305 82 -305 274c0 173 110 277 283 277c210 0 278 -149 238 -311l-19 -11h-330c3 -61 46 -89 151 -89c56 0 125 13 173 32l14 -12zM316 408
c-75 0 -110 -45 -111 -92h191c11 50 -11 92 -80 92z" />
    <glyph glyph-name="Uogonek" unicode="&#x172;" horiz-adv-x="754" 
d="M683 701l18 -18v-388c0 -143 -73 -245 -195 -284c-36 -52 -56 -94 -56 -120c0 -23 14 -34 31 -34c18 0 35 11 51 30h22l42 -49v-24c-35 -52 -87 -81 -144 -81s-125 30 -125 118c0 46 19 94 48 142c-193 2 -316 119 -316 302v388l18 18h142l18 -18v-388
c0 -95 61 -153 146 -153c84 0 140 58 140 153v388l18 18h142z" />
    <glyph glyph-name="uogonek" unicode="&#x173;" horiz-adv-x="661" 
d="M618 -123l42 -49v-24c-36 -52 -87 -81 -145 -81c-56 0 -124 30 -124 118c0 52 24 106 59 159h-1l-18 18v49c-35 -46 -100 -77 -180 -78c-119 0 -197 81 -197 207v326l18 17h136l18 -17v-278c0 -67 37 -102 95 -102c43 0 87 19 110 43v337l18 17h137l18 -17v-504l-18 -18
h-17c-35 -52 -55 -93 -55 -120c0 -22 14 -34 31 -34c18 0 35 12 51 31h22z" />
    <glyph glyph-name="Iogonek" unicode="&#x12e;" horiz-adv-x="316" 
d="M263 -111l42 -48v-24c-36 -52 -87 -81 -145 -81c-56 0 -125 29 -125 117c0 48 21 98 52 147l-17 18v666l17 17h143l18 -17v-666l-18 -18h-24c-30 -46 -47 -82 -47 -107c0 -23 14 -34 31 -34s35 11 51 30h22z" />
    <glyph glyph-name="iogonek" unicode="&#x12f;" horiz-adv-x="297" 
d="M86 619l-19 9c-11 16 -18 37 -18 60c0 56 40 97 97 97c56 0 96 -41 96 -97c0 -23 -6 -43 -17 -59l-21 -10h-118zM249 -112l41 -49v-24c-35 -52 -87 -81 -144 -81s-125 30 -125 118c0 49 22 100 54 151l-15 15v504l18 17h138l17 -17v-504l-17 -18h-23
c-31 -47 -48 -84 -48 -109c0 -22 14 -34 31 -34s35 12 50 31h23z" />
    <glyph glyph-name="Itilde" unicode="&#x128;" horiz-adv-x="316" 
d="M230 700l18 -18v-664l-18 -18h-143l-17 18v664l17 18h143zM319 917l17 -18c-2 -97 -36 -137 -104 -137c-61 0 -87 47 -116 47c-16 0 -25 -8 -28 -26l-18 -17h-71l-18 17c3 96 37 139 104 139c59 0 87 -47 115 -47c18 0 27 6 30 24l17 18h72z" />
    <glyph glyph-name="itilde" unicode="&#x129;" horiz-adv-x="309" 
d="M86 539h137l18 -18v-504l-18 -17h-137l-18 17v504zM315 772l17 -18c-2 -97 -36 -137 -104 -137c-61 0 -87 47 -116 47c-16 0 -25 -8 -28 -26l-18 -17h-71l-18 17c3 96 37 139 104 139c59 0 87 -47 115 -47c18 0 27 6 30 24l17 18h72z" />
    <glyph glyph-name="Rcommaaccent" unicode="&#x156;" horiz-adv-x="718" 
d="M365 -54c45 0 84 -29 84 -83c0 -25 -9 -47 -22 -67l-89 -126h-67v34l44 93c-24 15 -34 40 -34 66c0 49 36 83 84 83zM665 456c0 -107 -45 -184 -127 -225l144 -213l-17 -18h-181l-121 197h-124v-180l-17 -17h-143l-18 17v665l18 18h295c185 0 291 -88 291 -244zM374 337
c77 0 122 39 122 113c0 73 -45 110 -122 110h-135v-223h135z" />
    <glyph glyph-name="rcommaaccent" unicode="&#x157;" horiz-adv-x="445" 
d="M170 -54c45 0 84 -29 84 -83c0 -25 -9 -47 -22 -67l-89 -126h-67v34l44 93c-24 15 -34 40 -34 66c0 49 36 83 84 83zM417 408l-18 -17c-64 0 -125 -23 -157 -42v-331l-18 -18h-138l-17 18v503l17 18h138l18 -18v-52c31 42 88 71 157 77l18 -17v-121z" />
    <glyph glyph-name="Scedilla" unicode="&#x15e;" horiz-adv-x="633" 
d="M598 208c0 -116 -90 -187 -218 -208l-7 -36c55 -8 90 -46 90 -101c0 -76 -58 -125 -152 -125c-36 0 -74 7 -106 17l-6 18l10 75l17 6c19 -9 46 -15 68 -15c31 0 51 16 51 40c0 22 -16 38 -56 38c-8 0 -19 0 -29 -2l-12 13l13 67c-116 7 -197 44 -197 44l-16 19l11 115
l20 16s100 -46 218 -46c83 0 114 19 114 59c0 124 -370 47 -370 295c0 129 93 211 302 211c112 0 199 -34 199 -34l17 -19l-10 -123l-22 -11s-100 38 -198 38c-73 0 -101 -16 -101 -50c0 -116 370 -48 370 -301z" />
    <glyph glyph-name="scedilla" unicode="&#x15f;" horiz-adv-x="510" 
d="M485 172c0 -92 -55 -151 -156 -170l-7 -35c55 -8 90 -46 90 -101c0 -77 -58 -125 -152 -125c-36 0 -74 6 -106 17l-6 18l10 75l17 6c19 -9 46 -15 68 -15c31 0 51 16 51 40c0 22 -16 38 -56 38c-8 0 -19 -1 -29 -2l-12 12l12 67c-98 5 -155 28 -155 28l-14 20l17 110
l20 14s85 -36 185 -36c47 0 59 13 59 30c0 56 -278 38 -278 213c0 110 75 171 238 171c82 0 161 -26 161 -26l14 -20l-14 -109l-20 -15s-83 33 -160 33c-47 0 -60 -11 -60 -26c0 -55 283 -26 283 -212z" />
    <glyph glyph-name="Jcircumflex" unicode="&#x134;" horiz-adv-x="529" 
d="M461 701l17 -18v-456c0 -149 -97 -235 -254 -235c-52 0 -104 7 -149 21l-16 18v126l23 11c36 -14 79 -23 129 -23c55 0 88 29 88 86v326h-203l-18 18v108l18 18h365zM354 932l105 -136v-28h-119l-58 88h-6l-58 -88h-119v28l105 136h150z" />
    <glyph glyph-name="jcircumflex" unicode="&#x135;" horiz-adv-x="322" 
d="M230 539l18 -18v-538c0 -121 -75 -185 -186 -185c-37 0 -65 4 -86 7l-16 15v105l14 14c14 -3 28 -4 43 -4c37 0 58 18 58 59v527l18 18h137zM236 762l105 -136v-28h-119l-58 88h-6l-58 -88h-119v28l105 136h150z" />
    </font>
</defs>
</svg>
