<?xml version="1.0" standalone="no"?>
<!DOCTYPE svg PUBLIC "-//W3C//DTD SVG 1.1//EN" "http://www.w3.org/Graphics/SVG/1.1/DTD/svg11.dtd" >
<svg>
<metadata>
Created by FontForge 20120731 at Thu Jul 25 14:32:31 2019
 By www-data
</metadata>
<defs>
<font id="CiceroSansNegrita" horiz-adv-x="531" >
  <font-face 
    font-family="Cicero Sans Negrita"
    font-weight="700"
    font-stretch="normal"
    units-per-em="1000"
    panose-1="0 0 0 0 0 0 0 0 0 0"
    ascent="750"
    descent="-250"
    x-height="498"
    cap-height="667"
    bbox="-97 -251 1018 1018"
    underline-thickness="50"
    underline-position="-50"
    unicode-range="U+0020-FB02"
  />
<missing-glyph horiz-adv-x="541" 
 />
    <glyph glyph-name=".notdef" horiz-adv-x="541" 
 />
    <glyph glyph-name=".null" horiz-adv-x="0" 
 />
    <glyph glyph-name="nonmarkingreturn" horiz-adv-x="202" 
 />
    <glyph glyph-name="space" unicode=" " horiz-adv-x="202" 
 />
    <glyph glyph-name="E" unicode="E" horiz-adv-x="463" 
d="M67 0v668h358v-87h-256v-168h241v-89h-241v-237h256v-87h-358z" />
    <glyph glyph-name="F" unicode="F" horiz-adv-x="476" 
d="M67 0v668h360v-87h-258v-167h241v-89h-241v-325h-102z" />
    <glyph glyph-name="G" unicode="G" horiz-adv-x="618" 
d="M563 37q-27 -13 -52.5 -21t-51 -13t-52 -7t-55.5 -2q-70 0 -128.5 24t-100.5 68t-65 106t-23 138q0 82 25 146t67 108t98.5 67t119.5 23h3q68 0 121.5 -13.5t95.5 -35.5l-24 -78q-47 26 -95 33.5t-94 7.5q-31 0 -67.5 -12.5t-67.5 -42t-52 -79t-21 -123.5
q0 -59 17 -105.5t46.5 -79t69.5 -49t86 -16.5q20 0 48 3t51 12v172h-128v87h229v-318z" />
    <glyph glyph-name="H" unicode="H" horiz-adv-x="600" 
d="M533 0h-102v300h-262v-300h-102v666h102v-261h262v261h102v-666z" />
    <glyph glyph-name="I" unicode="I" horiz-adv-x="234" 
d="M168 0h-101v667h101v-667z" />
    <glyph glyph-name="J" unicode="J" horiz-adv-x="284" 
d="M122 667h101v-438q0 -31 -2.5 -71.5t-16.5 -77t-44.5 -61.5t-87.5 -25q-16 0 -36 2.5t-37 8.5l9 83q9 -3 17.5 -5t21.5 -2q29 0 44.5 11.5t22 30.5t7.5 43.5t1 50.5v37v413z" />
    <glyph glyph-name="K" unicode="K" horiz-adv-x="547" 
d="M550 0h-111l-209 301l-63 -74v-227h-101v667h101v-297l258 297h121l-252 -291z" />
    <glyph glyph-name="L" unicode="L" horiz-adv-x="459" 
d="M67 0v668h102v-580h266v-88h-368z" />
    <glyph glyph-name="M" unicode="M" horiz-adv-x="728" 
d="M577 497h-4l-158 -497h-100l-161 494h-2v-494h-101v667h146l163 -493l4 -33h3l4 33l160 493h146v-667h-100v497z" />
    <glyph glyph-name="N" unicode="N" horiz-adv-x="602" 
d="M434 667h102v-667h-100l-267 485h-1v-485h-102v667h105l260 -473h4z" />
    <glyph glyph-name="O" unicode="O" horiz-adv-x="664" 
d="M630 334q0 -62 -15.5 -123t-50 -109t-91.5 -78t-139 -30q-83 0 -140.5 31t-92.5 79.5t-50.5 109t-15.5 120.5q0 63 15.5 124t50.5 109t92.5 77.5t140.5 29.5q82 0 139 -29t91.5 -77t50 -109t15.5 -125zM521 334q0 52 -10 98.5t-32.5 81t-58 54.5t-86.5 20q-53 0 -89 -21
t-58.5 -56t-32.5 -81t-10 -96t10 -96t32.5 -81t58.5 -55.5t89 -20.5q51 0 86.5 20t58 54t32.5 80t10 99z" />
    <glyph glyph-name="P" unicode="P" horiz-adv-x="516" 
d="M66 0v668h165q43 0 88.5 -8.5t82 -30.5t60 -60t23.5 -98q0 -57 -20 -97.5t-55 -66t-81.5 -37t-100.5 -11.5h-60v-259h-102zM168 581v-236h59q31 0 58 6.5t47 21t31.5 37.5t11.5 56q0 35 -13.5 57.5t-35 35t-47.5 17.5t-51 5h-60z" />
    <glyph glyph-name="Q" unicode="Q" horiz-adv-x="661" 
d="M408 1q-34 -7 -77 -7q-83 0 -139.5 30t-91 78t-50 109t-15.5 123q0 64 15.5 125t50 109t91 77t139.5 29t140 -29.5t92.5 -77.5t51 -109t15.5 -124q0 -42 -7.5 -85t-24 -82t-42.5 -73t-63 -58l64 -104l-80 -46zM144 334q0 -50 9.5 -96t31 -81t57.5 -55.5t89 -20.5h15t14 1
l-61 100l78 45l68 -109q42 35 59 92.5t17 123.5q0 50 -9.5 96t-32 81t-59 56t-89.5 21q-52 0 -88 -20.5t-58 -55t-31.5 -80.5t-9.5 -98z" />
    <glyph glyph-name="R" unicode="R" horiz-adv-x="505" 
d="M234 267h-66v-267h-102v668h173q43 0 87 -9t78.5 -31.5t56.5 -60t22 -94.5q0 -78 -39.5 -126t-106.5 -68l150 -279h-112zM168 351h40q30 0 59.5 3t53 15.5t38.5 37t15 66.5t-17 64t-42.5 31.5t-55.5 11t-56 1.5h-35v-230z" />
    <glyph glyph-name="S" unicode="S" horiz-adv-x="524" 
d="M427 554q-34 13 -71 23.5t-73 10.5q-66 0 -95.5 -25.5t-29.5 -70.5q0 -23 11.5 -39.5t30 -29.5t43 -23t51.5 -20q34 -13 68.5 -28t62 -36.5t44.5 -52.5t17 -76q0 -57 -18.5 -94t-49.5 -59t-71.5 -31t-85.5 -9q-54 0 -107.5 12t-98.5 31l31 83q35 -16 80 -27.5t89 -11.5
q24 0 46 7t39 20t27 31t10 40q0 24 -12 42t-32 32t-46 25t-53 22q-33 12 -66 27t-59.5 36t-43.5 49.5t-17 68.5q0 52 19.5 88.5t52 60t74 34t85.5 10.5q43 0 89.5 -12t88.5 -28z" />
    <glyph glyph-name="T" unicode="T" horiz-adv-x="547" 
d="M11 668h524v-93h-210v-575h-106v575h-208v93z" />
    <glyph glyph-name="U" unicode="U" horiz-adv-x="635" 
d="M66 668h105v-334q0 -48 5 -91.5t20.5 -76.5t44.5 -53t77 -20t77 19.5t44.5 52.5t20.5 77t5 92v334h106v-334q0 -62 -8 -122.5t-34 -109t-76 -78.5t-135 -30q-84 0 -134 30t-77 78.5t-35 109t-8 122.5z" />
    <glyph glyph-name="V" unicode="V" horiz-adv-x="553" 
d="M281 135l4 19l161 513h103l-221 -667h-97l-222 668h105l164 -514z" />
    <glyph glyph-name="W" unicode="W" horiz-adv-x="838" 
d="M302 -1h-109l-181 669h107l125 -499l4 -19l2 21l116 497h110l112 -496l4 -21l3 20l125 497h106l-181 -669h-107l-119 516z" />
    <glyph glyph-name="X" unicode="X" horiz-adv-x="628" 
d="M135 0h-119l236 342q-55 78 -113.5 162.5t-113.5 162.5h118l177 -248q40 62 80.5 124.5t79.5 123.5h121l-213 -325q55 -84 112 -171t112 -171h-120l-174 270z" />
    <glyph glyph-name="Y" unicode="Y" 
d="M409 667h115l-209 -393v-274h-101v274q-50 96 -103 197t-102 196h115l144 -286z" />
    <glyph glyph-name="Z" unicode="Z" horiz-adv-x="533" 
d="M24 0v71l344 510h-325v86h440v-85l-328 -495h348v-87h-479z" />
    <glyph glyph-name="degree" unicode="&#xb0;" horiz-adv-x="250" 
d="M126 743q23 0 41.5 -8t31 -21.5t19.5 -31.5t7 -37q0 -23 -8.5 -41t-22.5 -31.5t-32.5 -20.5t-37.5 -7q-44 0 -71 28.5t-27 68.5q0 21 7.5 39.5t21 32t32 21.5t39.5 8zM124 699q-23 0 -35.5 -17.5t-12.5 -39.5t13.5 -37.5t35.5 -15.5q23 0 36.5 16t13.5 40
q0 19 -11.5 36.5t-39.5 17.5z" />
    <glyph glyph-name="plusminus" unicode="&#xb1;" horiz-adv-x="536" 
d="M308 603v-196h188v-75h-188v-197h-79v197h-188v75h188v196h79zM40 20v74h456v-74h-456z" />
    <glyph glyph-name="twosuperior" unicode="&#xb2;" horiz-adv-x="303" 
d="M154 542l1 -1h119v-74l-252 -1v53l43 41q29 28 51 50t37 41t22.5 35.5t7.5 33.5q0 18 -11 33.5t-42 14.5q-17 -1 -34.5 -8t-39.5 -24l-41 60q30 25 62.5 37t64.5 12q21 0 43 -7t40 -21.5t29.5 -37t11.5 -53.5q0 -26 -8 -49t-22.5 -45t-35.5 -44t-46 -46z" />
    <glyph glyph-name="threesuperior" unicode="&#xb3;" horiz-adv-x="280" 
d="M201 674l1 -2q23 -11 39 -34.5t16 -61.5q0 -28 -11 -48.5t-28 -34.5t-39 -21t-44 -7q-32 0 -63.5 11.5t-62.5 37.5l37 59q45 -34 75 -34q31 -1 43 15t12 37q0 14 -11.5 27t-31.5 15h1h-34v61q24 1 43 15.5t19 32.5q-1 14 -11 22.5t-28 7.5h1q-12 -1 -28 -7t-37 -22
l-34 61q24 20 52.5 31t55.5 11q32 1 59 -14.5t39 -47.5q3 -7 4 -16.5t1 -17.5q0 -46 -35 -76z" />
    <glyph glyph-name="acute" unicode="&#xb4;" horiz-adv-x="289" 
d="M291 702l-134 -141h-81l85 141h130z" />
    <glyph glyph-name="mu" unicode="&#xb5;" horiz-adv-x="551" 
d="M62 497h90v-316q0 -33 7 -54.5t19 -33.5t27 -16.5t30 -4.5q16 0 29.5 3t24.5 6h-1q23 8 43.5 28t31.5 49q6 17 8 41t2 55v243h90v-316q0 -31 5.5 -52t15 -34t22.5 -19t27 -8l-22 -74q-41 5 -69 23t-43 55q-29 -46 -69 -66t-82 -20q-26 0 -50.5 7t-46.5 20v-71v-11
q0 -21 0.5 -37.5t2 -30.5t5.5 -28t12 -32h-91q-7 16 -10.5 29.5t-5 28t-2 31t-0.5 39.5v11v555z" />
    <glyph glyph-name="mu" unicode="&#x3bc;" horiz-adv-x="551" 
d="M62 497h90v-316q0 -33 7 -54.5t19 -33.5t27 -16.5t30 -4.5q16 0 29.5 3t24.5 6h-1q23 8 43.5 28t31.5 49q6 17 8 41t2 55v243h90v-316q0 -31 5.5 -52t15 -34t22.5 -19t27 -8l-22 -74q-41 5 -69 23t-43 55q-29 -46 -69 -66t-82 -20q-26 0 -50.5 7t-46.5 20v-71v-11
q0 -21 0.5 -37.5t2 -30.5t5.5 -28t12 -32h-91q-7 16 -10.5 29.5t-5 28t-2 31t-0.5 39.5v11v555z" />
    <glyph glyph-name="paragraph" unicode="&#xb6;" horiz-adv-x="495" 
d="M246 261q-41 6 -80 20t-69 38.5t-48 61t-18 89.5q0 55 20 92.5t53 61t75.5 34t86.5 10.5h157v-712h-67v643h-43v-643h-67v305z" />
    <glyph glyph-name="periodcentered" unicode="&#xb7;" horiz-adv-x="203" 
d="M102 201q-31 0 -46 19t-15 44q0 23 15 43t46 20t46 -20t15 -43q0 -25 -15 -44t-46 -19z" />
    <glyph glyph-name="cedilla" unicode="&#xb8;" horiz-adv-x="329" 
d="M46 -43q-1 11 6 25.5t24 28.5h85l1 -19q-8 -1 -17 -2.5t-17.5 -4t-14 -7t-5.5 -10.5q0 -5 13 -5h40q54 0 85.5 -23.5t31.5 -73.5q0 -48 -30.5 -74t-72.5 -26q-29 0 -60 14t-57 43l19 56q17 -17 39.5 -34t50.5 -19q21 0 33.5 7.5t13.5 32.5q1 24 -17.5 33t-46.5 9h-37
q-66 0 -67 50v-1z" />
    <glyph glyph-name="onesuperior" unicode="&#xb9;" horiz-adv-x="299" 
d="M60 525h46v243l-52 -30l-32 55l102 55h62v-323h48v-64h-174v64z" />
    <glyph glyph-name="ordmasculine" unicode="&#xba;" horiz-adv-x="250" 
d="M24 558q0 21 5 41.5t17 37t31.5 26.5t47.5 10t47.5 -10.5t31.5 -27t17 -37t5 -40.5q0 -22 -5 -43t-17 -37.5t-31.5 -27t-47.5 -10.5t-47.5 10t-31.5 26.5t-17 38t-5 43.5zM73 558q0 -28 11.5 -50t40.5 -22q14 0 24 6.5t16 16.5t8.5 23t2.5 26q0 25 -11.5 47t-39.5 22
q-29 0 -40.5 -21.5t-11.5 -47.5z" />
    <glyph glyph-name="guillemotright" unicode="&#xbb;" horiz-adv-x="411" 
d="M171 436h79l132 -185l-132 -184h-79l134 184zM23 436h79l132 -185l-132 -184h-78l133 184z" />
    <glyph glyph-name="onequarter" unicode="&#xbc;" horiz-adv-x="674" 
d="M337 146l164 240h80v-229h56v-71h-56v-88h-80v88h-164v60zM544 721h95l-492 -721h-89zM74 398h46v243l-52 -30l-32 55l102 55h62v-323h48v-64h-174v64zM438 157h63v89l-1 2z" />
    <glyph glyph-name="onehalf" unicode="&#xbd;" horiz-adv-x="702" 
d="M533 722h93l-491 -722h-89zM62 398h46v244l-52 -31l-32 56l102 55h62v-324h47v-64h-173v64zM545 81l2 -4h117v-77h-260v53l45 43q57 54 89.5 93.5t32.5 68.5q0 21 -12 37.5t-42 15.5q-19 0 -42.5 -12t-57.5 -38l-24 75q35 27 68 39.5t67 12.5q22 0 45 -6.5t41 -21.5
t30 -38.5t12 -57.5q0 -46 -30 -90.5t-81 -92.5z" />
    <glyph glyph-name="threequarters" unicode="&#xbe;" horiz-adv-x="681" 
d="M535 723h94l-492 -722h-88zM64 399h47v244l-52 -30l-32 54l102 56h62v-324h48v-64h-175v64zM597 207l1 -1q24 -10 40.5 -31t16.5 -61q0 -30 -11.5 -52.5t-29.5 -37.5t-41 -22.5t-46 -7.5q-32 0 -65.5 12.5t-65.5 39.5l23 76q64 -52 98 -52q30 -1 42 15t12 38
q0 16 -12 23.5t-29 7.5q-9 0 -22.5 -4.5t-28.5 -13.5l-19 70q47 18 72.5 35t23.5 38q0 14 -11 21.5t-25 7.5t-35 -9.5t-50 -31.5l-24 70q28 22 57 34t57 13h-1q22 1 42 -6t36 -21t25.5 -33.5t9.5 -42.5q0 -26 -11 -43.5t-29 -30.5z" />
    <glyph glyph-name="questiondown" unicode="&#xbf;" horiz-adv-x="472" 
d="M313 121q-37 -16 -69.5 -32.5t-57 -35.5t-39 -41.5t-14.5 -49.5q0 -15 6 -36h-1q9 -27 35 -41.5t61 -14.5q29 0 64 11q20 7 44 20.5t44 30.5l40 -69q-46 -38 -99 -57.5t-103 -19.5q-30 0 -60 7t-53 21q-20 13 -36.5 33t-26.5 47q-6 15 -8.5 30t-2.5 29q0 37 16 69.5
t42.5 59t59.5 46.5t67 34v146h75zM265 485q30 0 44.5 -18.5t14.5 -42.5q0 -22 -14.5 -41t-44.5 -19q-29 0 -43.5 19t-14.5 41q0 24 14.5 42.5t43.5 18.5z" />
    <glyph glyph-name="exclamdown" unicode="&#xa1;" horiz-adv-x="207" 
d="M62 -76l15 505h63l15 -505h-93zM104 475q-30 0 -44.5 19t-14.5 42t14.5 42t44.5 19t44.5 -19t14.5 -42t-14.5 -42t-44.5 -19z" />
    <glyph glyph-name="cent" unicode="&#xa2;" horiz-adv-x="551" 
d="M356 666v-163q26 -3 55 -11.5t62 -22.5l-22 -74q-32 13 -62.5 20.5t-56.5 7.5q-33 0 -62 -10.5t-51 -32t-34.5 -55.5t-12.5 -81t13.5 -80t36 -54t52.5 -30.5t64 -9.5q27 0 56.5 6t61.5 20l17 -80q-32 -13 -61 -19.5t-56 -8.5v-167h-87v174q-42 8 -77.5 27.5t-61.5 50.5
t-40.5 74t-14.5 97q0 56 14.5 100t40 76t61.5 52t78 28v166h87z" />
    <glyph glyph-name="sterling" unicode="&#xa3;" horiz-adv-x="514" 
d="M61 277v79h94v6v-1q-2 26 -5 53.5t-4 55.5q0 50 17 86t44.5 59t63 34t72.5 11q26 0 52.5 -5.5t52.5 -16.5l-23 -74q-18 7 -42 13t-45 6q-20 0 -39 -5t-34 -17t-24 -32t-8 -50q1 -29 3 -57.5t5 -55.5l1 -10h138v-79h-131v-34q0 -46 -9.5 -86.5t-44.5 -76.5h271v-80h-415
v64q35 16 57.5 35t35.5 41t18 46.5t5 51.5v19t-2 20h-104z" />
    <glyph glyph-name="currency" unicode="&#xa4;" horiz-adv-x="488" 
d="M244 161q-38 0 -67 11t-49 29l-63 -79l-47 47l78 74q-14 26 -20.5 57t-6.5 62t6.5 62t20.5 57l-78 74l47 47l63 -79q20 18 49 29t67 11t67 -11t49 -29l63 79l47 -47l-78 -74q14 -26 20.5 -57t6.5 -62t-6.5 -62t-20.5 -57l78 -74l-47 -47l-63 79q-20 -18 -49 -29t-67 -11z
M244 497q-26 0 -46 -11t-34 -29.5t-21.5 -43t-7.5 -51.5t7.5 -51.5t21.5 -43t34 -29.5t46 -11q25 0 45.5 11t34.5 29.5t21.5 43t7.5 51.5t-7.5 51.5t-21.5 43t-34.5 29.5t-45.5 11z" />
    <glyph glyph-name="yen" unicode="&#xa5;" horiz-adv-x="505" 
d="M300 147v-147h-95v147h-169v79h169v46q-2 2 -2 5h-167v79h127q-40 77 -81.5 156.5t-79.5 155.5h107l145 -293l144 293h105l-162 -312h119v-79h-158q0 -1 -0.5 -1t-0.5 -1q-1 -1 -1 -2v-47h160v-79h-160z" />
    <glyph glyph-name="brokenbar" unicode="&#xa6;" horiz-adv-x="257" 
d="M168 187v-363h-80v363h80zM168 678v-364h-80v364h80z" />
    <glyph glyph-name="section" unicode="&#xa7;" horiz-adv-x="444" 
d="M93 86q22 -9 53.5 -17t60.5 -8q16 0 31 3t27 9.5t19 17.5t7 27t-8.5 28t-22.5 21t-32 16t-37 15h1q-18 7 -37.5 15t-36.5 18t-32 22.5t-24 29.5q-7 12 -12 31t-5 35q0 27 13 55t37 48q-15 16 -24.5 36t-9.5 47q0 40 15 68.5t40 45.5t57 25t65 8q35 0 70 -8.5t66 -22.5
l-23 -76q-22 9 -53.5 17t-60.5 8q-16 0 -31 -3t-27 -10t-19 -17.5t-7 -26.5t8.5 -27.5t22.5 -20.5t32 -17t37 -15h-1q18 -7 37.5 -15t36.5 -18t32 -22.5t24 -29.5q7 -12 12 -31t5 -35q0 -27 -13 -55t-37 -48q15 -16 24.5 -36t9.5 -47q0 -41 -15 -69t-40 -45t-57 -25t-65 -8
q-35 0 -70 8.5t-66 23.5zM276 366q-17 9 -34 16t-32 13q-14 5 -26.5 9t-26.5 11q-10 -14 -16 -29.5t-6 -29.5q0 -19 8 -35t25 -26q18 -11 36.5 -18t35.5 -14q13 -5 23.5 -8.5t22.5 -8.5q9 14 16 30t7 30q0 17 -8 33.5t-25 26.5z" />
    <glyph glyph-name="dieresis" unicode="&#xa8;" horiz-adv-x="219" 
d="M33 561q-30 0 -44.5 19t-14.5 42t14.5 42t44.5 19t44.5 -19t14.5 -42t-14.5 -42t-44.5 -19zM185 561q-30 0 -44.5 19t-14.5 42t14.5 42t44.5 19t44.5 -19t14.5 -42t-14.5 -42t-44.5 -19z" />
    <glyph glyph-name="copyright" unicode="&#xa9;" horiz-adv-x="626" 
d="M394 428q-41 19 -75 19q-38 0 -65.5 -25.5t-27.5 -81.5q0 -57 28 -82t68 -24q16 0 34.5 4.5t40.5 15.5l11 -59q-47 -19 -87 -19q-33 0 -62 10t-51.5 30.5t-35.5 51.5t-13 72q0 40 12 70.5t33 51.5t49 32t60 11q21 0 45 -5.5t51 -18.5zM101 342q0 -44 16.5 -82t45 -66.5
t66.5 -45t82 -16.5q43 0 81.5 16.5t67 45t45 66.5t16.5 82q0 43 -16.5 81.5t-45 67t-67 45t-81.5 16.5q-44 0 -82 -16.5t-66.5 -45t-45 -67t-16.5 -81.5zM32 344q0 58 22 109t60.5 89.5t89.5 60.5t109 22t109 -22t89.5 -60.5t60.5 -89.5t22 -109t-22 -109t-60.5 -89.5
t-89.5 -60.5t-109 -22t-109 22t-89.5 60.5t-60.5 89.5t-22 109z" />
    <glyph glyph-name="ordfeminine" unicode="&#xaa;" horiz-adv-x="319" 
d="M224 401q-14 10 -29.5 14t-32.5 4q-29 0 -48 -13.5t-19 -39.5q0 -17 11.5 -29.5t36.5 -12.5q31 0 53.5 21.5t23.5 60.5zM222 300q-20 -18 -43.5 -25t-43.5 -7q-21 0 -39.5 5.5t-32.5 17.5t-22.5 30t-8.5 43q0 28 10.5 48.5t28 33.5t40 19.5t46.5 6.5q33 0 63 -12v3
q0 42 -20 58t-49 16q-23 0 -46 -6.5t-38 -12.5l-18 53q55 22 105 22q26 0 49 -6t40.5 -21t28 -40t10.5 -62v-191h-59v26z" />
    <glyph glyph-name="guillemotleft" unicode="&#xab;" horiz-adv-x="408" 
d="M104 252l133 -184h-79l-131 184l131 184h79zM252 252l133 -184h-79l-131 184l131 184h79z" />
    <glyph glyph-name="logicalnot" unicode="&#xac;" horiz-adv-x="534" 
d="M494 409v-201h-74v122h-380v79h454z" />
    <glyph glyph-name="minus" unicode="&#x2212;" horiz-adv-x="534" 
d="M40 330v79h454v-79h-454z" />
    <glyph glyph-name="registered" unicode="&#xae;" horiz-adv-x="666" 
d="M52 344q0 58 22 109t60.5 89.5t89.5 60.5t109 22t109 -22t89.5 -60.5t60.5 -89.5t22 -109t-22 -109t-60.5 -89.5t-89.5 -60.5t-109 -22t-109 22t-89.5 60.5t-60.5 89.5t-22 109zM122 344q0 -44 16.5 -82t45.5 -67t67 -45.5t82 -16.5q43 0 81 16.5t66 45.5t44.5 67
t16.5 82q0 43 -16.5 81t-44.5 66t-66 44.5t-81 16.5q-44 0 -82 -16.5t-67 -44.5t-45.5 -66t-16.5 -81zM327 315l-8 -2t-10 -2t-14 0v-129h-54v316h93q21 0 41.5 -5t36 -15.5t25.5 -27.5t10 -42q0 -23 -6.5 -38t-16 -24.5t-21.5 -15t-23 -9.5q17 -32 37.5 -69.5t37.5 -69.5
h-61zM295 359q17 0 34 1.5t30.5 6.5t22 14.5t8.5 26.5q0 26 -18 34.5t-43 8.5h-34v-92z" />
    <glyph glyph-name="a" unicode="a" horiz-adv-x="487" 
d="M345 205q-26 14 -50.5 20.5t-54.5 6.5q-52 0 -83.5 -22t-31.5 -67q0 -30 22 -50.5t64 -19.5q25 0 49 8.5t42.5 25t30 41t12.5 57.5zM342 49q-34 -30 -71.5 -42.5t-76.5 -12.5q-33 0 -63 8t-52.5 25.5t-36 44.5t-13.5 65q0 45 17 77t45.5 52.5t65 30.5t75.5 10
q56 0 113 -23v14q0 35 -10 58.5t-26.5 38t-39 21t-47.5 6.5q-37 0 -74.5 -10t-63.5 -18l-26 74q43 16 86 25t83 9q42 0 79.5 -10t66 -33.5t45.5 -62t17 -96.5v-300h-90v48z" />
    <glyph glyph-name="b" unicode="b" horiz-adv-x="523" 
d="M145 256q1 -28 3 -48t6 -36t11.5 -30t20.5 -31q36 -38 90 -38q33 0 55 14t36 38t20 55.5t6 67.5q0 39 -7 71.5t-22.5 56t-41.5 37t-63 13.5q-65 0 -114 -42v-128zM145 -2h-88v723h88v-247q28 17 58 24.5t70 7.5q52 0 92.5 -20t68 -54.5t42 -81.5t14.5 -102
q0 -62 -18 -114q-13 -40 -31.5 -66.5t-42.5 -42.5t-53.5 -23t-62.5 -8q-38 -1 -73 13.5t-61 40.5l-3 -1v-49z" />
    <glyph glyph-name="c" unicode="c" horiz-adv-x="453" 
d="M409 392q-32 18 -62.5 26t-56.5 8q-33 0 -62 -11t-50.5 -33t-34 -56t-12.5 -79q0 -37 10.5 -69t31.5 -55t51.5 -36.5t71.5 -13.5q27 0 56.5 7t61.5 22l17 -80q-35 -12 -70 -20t-70 -8q-52 0 -98.5 16t-82 47.5t-56.5 79t-21 110.5q0 61 20 109.5t53.5 81.5t78.5 50.5
t96 17.5q35 0 72.5 -8.5t77.5 -31.5z" />
    <glyph glyph-name="d" unicode="d" horiz-adv-x="524" 
d="M377 384q-49 42 -114 42q-38 0 -63 -13.5t-41 -37t-22.5 -56t-6.5 -71.5q0 -36 6 -67.5t19.5 -55.5t35.5 -38t55 -14q54 0 90 38q13 17 20.5 31t11.5 30t5.5 36t3.5 48v128zM377 47l-3 1q-26 -26 -61 -40.5t-73 -13.5q-33 1 -62.5 8t-53.5 23t-42.5 42.5t-31.5 66.5
q-18 52 -18 114q0 55 14.5 102t42 81.5t68 54.5t92.5 20q40 0 70 -7.5t58 -24.5v247h90v-721h-90v47z" />
    <glyph glyph-name="e" unicode="e" horiz-adv-x="483" 
d="M427 19q-32 -11 -71.5 -18.5t-81.5 -6.5q-69 1 -114.5 23t-73 57t-39.5 80.5t-13 93.5q-1 55 13 102t42 81.5t69 54.5t94 20q60 0 99 -23.5t62 -60.5t31.5 -82.5t5.5 -89.5h-319q0 -37 10 -69.5t28.5 -56.5t45.5 -37.5t62 -13.5q20 0 35 1.5t28.5 3.5t27.5 6t32 10z
M356 321q-2 20 -9.5 39t-20.5 33.5t-32.5 23.5t-45.5 9q-23 0 -42.5 -9t-34 -23.5t-24 -33.5t-13.5 -39h222z" />
    <glyph glyph-name="f" unicode="f" horiz-adv-x="332" 
d="M323 634q-11 4 -30.5 7.5t-33.5 3.5q-36 0 -55 -21t-19 -68v-50h119v-80h-119v-426h-89v426h-82v80h82v41q0 85 36.5 131.5t114.5 46.5q22 0 46.5 -4t53.5 -13z" />
    <glyph glyph-name="g" unicode="g" horiz-adv-x="583" 
d="M256 424q-52 0 -82 -26.5t-30 -72.5t29.5 -74.5t75.5 -28.5q54 0 84 30t30 76q0 14 -5.5 31t-18 31.5t-33 24t-50.5 9.5zM243 -2q-19 0 -38.5 -3t-36 -11.5t-27 -23t-10.5 -36.5q0 -32 34 -53t99 -21q57 0 92.5 19t35.5 61q0 21 -11 34.5t-28 21t-36.5 10t-36.5 2.5h-37z
M427 413v-1q16 -23 20.5 -46t4.5 -46q0 -41 -16 -73.5t-43.5 -55t-64.5 -34.5t-79 -12q-11 0 -27 -1.5t-31 -5t-26 -10.5t-12 -17q0 -5 2 -11t8.5 -11t20.5 -8t38 -3h72q42 0 76 -8.5t58.5 -26t38 -44.5t13.5 -64q0 -88 -55 -125.5t-155 -37.5q-115 0 -171.5 40.5
t-56.5 104.5q0 49 17 76.5t40 40.5v1q-14 8 -25 23t-11 39q0 9 2 20t8.5 23t19 23.5t32.5 19.5q-11 6 -23.5 16t-23.5 27t-18.5 41t-7.5 59q0 37 14.5 69.5t41 57t63.5 38.5t81 14q20 0 41.5 -2t39.5 -5q18 -2 36 -4.5t35 -2.5q19 0 40.5 5t47.5 19l24 -79q-20 -9 -43.5 -15
t-45.5 -8z" />
    <glyph glyph-name="h" unicode="h" horiz-adv-x="529" 
d="M151 454q0 -1 2 -1q1 0 1 -1q32 32 70 43t68 11q51 0 84.5 -12.5t54 -36.5t29 -58.5t8.5 -78.5v-320h-90v330q-1 54 -24.5 75t-58.5 21q-44 0 -77.5 -18t-53.5 -60q-13 -31 -13 -93v-255h-90v720h90v-266z" />
    <glyph glyph-name="i" unicode="i" horiz-adv-x="236" 
d="M75 0v496h90v-496h-90zM57 642q0 26 17.5 44t43.5 18t44 -18t18 -44t-18 -43.5t-44 -17.5t-43.5 17.5t-17.5 43.5z" />
    <glyph glyph-name="j" unicode="j" horiz-adv-x="264" 
d="M-15 -108q26 -8 37 -8q16 0 31 3.5t27 15t19 34t7 60.5v503h90v-500q0 -94 -40 -144t-109 -51q-17 0 -38.5 4t-47.5 13zM87 648q0 26 17.5 44t43.5 18t44 -18t18 -44t-18 -43.5t-44 -17.5t-43.5 17.5t-17.5 43.5z" />
    <glyph glyph-name="k" unicode="k" horiz-adv-x="446" 
d="M195 234q-11 -13 -21.5 -26.5t-21.5 -26.5v-181h-90l-1 721h90l1 -408l162 183h115l-172 -197l204 -299h-110z" />
    <glyph glyph-name="l" unicode="l" horiz-adv-x="213" 
d="M151 0h-90v719h90v-719z" />
    <glyph glyph-name="m" unicode="m" horiz-adv-x="802" 
d="M147 447l2 -1q59 60 136 60q48 0 85.5 -18.5t57.5 -60.5h2q25 39 66 59t76 20h8q48 0 89.5 -21.5t59.5 -67.5v1q8 -16 11 -41t3 -58v-319h-88v328q0 51 -23 73.5t-53 24.5h-7q-38 0 -67 -23t-44 -61q-10 -26 -10 -91v-251h-89v330q0 54 -24 75t-64 21q-36 0 -64 -19
t-43 -48q-11 -22 -15.5 -49t-4.5 -58v-252h-90v497h90v-50z" />
    <glyph glyph-name="n" unicode="n" horiz-adv-x="527" 
d="M147 446l2 -2q32 32 67.5 46.5t73.5 15.5h4q24 0 48 -5.5t45 -16t38 -27.5t27 -39q14 -29 14 -107v-311h-90v329q0 30 -7.5 48.5t-19.5 29.5t-28 15t-32 4q-35 0 -62 -14.5t-45 -39t-26.5 -57t-8.5 -68.5v-247h-90v500h90v-54z" />
    <glyph glyph-name="o" unicode="o" horiz-adv-x="529" 
d="M496 249q0 -47 -12 -93t-39.5 -82t-71.5 -58t-108 -22q-65 0 -109.5 22.5t-71.5 59t-39 82t-12 91.5q0 45 12 91t39 83t71.5 60t109.5 23q63 0 107 -22.5t71.5 -59t40 -82.5t12.5 -93zM399 249q0 34 -7 65.5t-23 56.5t-41.5 40t-62.5 15q-38 0 -64 -15.5t-41.5 -40.5
t-22.5 -57t-7 -64t7 -63.5t22.5 -56.5t41.5 -40t64 -15q37 0 62.5 15t41.5 39.5t23 56t7 64.5z" />
    <glyph glyph-name="p" unicode="p" horiz-adv-x="524" 
d="M145 117q50 -43 114 -43q37 0 63 13.5t41.5 37.5t22.5 56.5t7 71.5q0 36 -6 67.5t-20 55t-36 37t-55 13.5q-55 0 -90 -36q-13 -17 -20.5 -31t-11.5 -30t-6 -36t-3 -48v-128zM145 454l3 -1q26 26 61 40t73 13q33 -1 62.5 -8t53.5 -22.5t42.5 -42t31.5 -66.5
q18 -53 18 -114q0 -55 -14.5 -102t-42 -82t-68 -55t-92.5 -20q-40 0 -70 8t-58 25v-247h-88v720h88v-46z" />
    <glyph glyph-name="q" unicode="q" horiz-adv-x="523" 
d="M378 245q-2 28 -3.5 48t-5.5 36t-11.5 30t-20.5 31q-35 36 -90 36q-33 0 -55 -13.5t-36 -37t-20 -55t-6 -67.5q0 -39 7 -71.5t22.5 -56.5t41 -37.5t63.5 -13.5q64 0 114 43v128zM378 500h88v-720h-88v247q-28 -17 -58 -25t-70 -8q-52 0 -92.5 20t-68 55t-42 82t-14.5 102
q0 61 18 114q13 40 31.5 66.5t42.5 42t53.5 22.5t62.5 8q38 1 73 -13t61 -40l3 1v46z" />
    <glyph glyph-name="r" unicode="r" horiz-adv-x="352" 
d="M147 450l2 -2q21 24 47 41t58 17q31 0 79 -21l-29 -80q-14 8 -26.5 11.5t-23.5 3.5q-19 0 -38 -9.5t-34.5 -29.5t-25 -50t-9.5 -71v-260h-90v495h90v-45z" />
    <glyph glyph-name="s" unicode="s" horiz-adv-x="409" 
d="M331 397q-27 11 -56.5 20t-56.5 9q-38 0 -64 -14.5t-26 -46.5q0 -16 8.5 -27.5t22.5 -20.5t32.5 -16t38.5 -14q26 -10 52.5 -21t47.5 -27.5t34 -40t13 -58.5q0 -43 -14.5 -71.5t-39 -45t-56.5 -23t-68 -6.5q-40 0 -82.5 10t-79.5 24l26 76q29 -14 64.5 -22t67.5 -8
q36 0 61 15.5t25 45.5q0 17 -9 29.5t-23.5 22.5t-34 17.5t-40.5 15.5q-26 10 -51 20.5t-45 26t-32.5 37.5t-12.5 54q0 39 15.5 67t41 46t58 26.5t67.5 8.5q33 0 70.5 -10.5t70.5 -21.5z" />
    <glyph glyph-name="t" unicode="t" horiz-adv-x="345" 
d="M175 211q0 -75 18 -106.5t62 -31.5q7 0 18 1.5t20 3.5l24 -68q-44 -16 -78 -16q-27 0 -54.5 8.5t-49.5 33.5t-36 70.5t-14 119.5v194h-68v80h68v96l90 25v-121h100v-80h-100v-209z" />
    <glyph glyph-name="u" unicode="u" horiz-adv-x="528" 
d="M371 163q10 30 10 94v242h90v-499h-90v50l-3 1q-33 -32 -72.5 -44.5t-74.5 -12.5q-25 0 -49 5t-45 15.5t-38 27.5t-27 40q-13 30 -13 105v312h90v-314q0 -33 7.5 -54t19.5 -33t27.5 -16.5t31.5 -4.5q17 0 31.5 2.5t25.5 6.5q23 9 45.5 28.5t33.5 48.5z" />
    <glyph glyph-name="v" unicode="v" horiz-adv-x="475" 
d="M187 0l-178 500h92l138 -392l135 392h92l-178 -500h-101z" />
    <glyph glyph-name="w" unicode="w" horiz-adv-x="745" 
d="M361 321l-101 -321h-95l-154 500h98l90 -320l14 -53h2l12 54l94 319h105l92 -318l15 -55h2l15 53l89 320h96l-153 -500h-94l-102 321l-12 51h-2z" />
    <glyph glyph-name="x" unicode="x" horiz-adv-x="470" 
d="M103 0h-104l184 254q-11 14 -22.5 30.5t-31 43t-49 68t-74.5 104.5h104l129 -180q30 45 60.5 90t59.5 90h104l-168 -245l175 -255h-103l-129 191z" />
    <glyph glyph-name="y" unicode="y" horiz-adv-x="453" 
d="M171 -83q1 1 3.5 10t6 20.5t7 24t6.5 22.5h-15l-169 504h96l124 -392l72 229l50 163h95l-197 -589q-23 -65 -50 -96.5t-73 -31.5h-8t-13 2l-23 71h22q26 0 40.5 18.5t25.5 44.5z" />
    <glyph glyph-name="z" unicode="z" horiz-adv-x="434" 
d="M22 0v69l261 351h-254v80h362v-80l-249 -340h270v-80h-390z" />
    <glyph glyph-name="braceleft" unicode="{" horiz-adv-x="298" 
d="M23 323q35 0 46 21t11 50q0 23 -1 46t-1 46q0 35 6 69.5t25.5 62t56 46t98.5 21.5l8 -75q-33 -1 -53.5 -11t-32 -25.5t-15.5 -36.5t-4 -43v-95q0 -33 -6.5 -63t-25.5 -48q20 -19 26 -48t6 -64v-6.5t-0.5 -12t-1 -24t-0.5 -41.5q0 -24 3.5 -46.5t15 -40t32.5 -28.5t57 -12
l-9 -74q-62 3 -98.5 21.5t-56 46t-25.5 62t-6 69.5q0 23 1 46t1 46q0 15 -2 27.5t-8 22.5t-17.5 15.5t-29.5 5.5v70z" />
    <glyph glyph-name="bar" unicode="|" horiz-adv-x="269" 
d="M180 750v-1000h-92v1000h92z" />
    <glyph glyph-name="braceright" unicode="}" horiz-adv-x="298" 
d="M273 253q-18 0 -29.5 -5.5t-17.5 -15.5t-8 -22.5t-2 -27.5q0 -23 1 -46t1 -46q0 -35 -6 -69.5t-25.5 -62t-56.5 -46t-98 -21.5l-9 74q36 1 57 12t32.5 28.5t15 40t3.5 46.5q0 26 -0.5 41.5t-1 24t-0.5 12v6.5q0 35 6 64t26 48q-19 18 -25.5 48t-6.5 63v95q0 22 -4 43
t-15.5 36.5t-32 25.5t-53.5 11l8 75q61 -3 98 -21.5t56.5 -46t25.5 -62t6 -69.5q0 -23 -1 -46t-1 -46q0 -29 11 -50t46 -21v-70z" />
    <glyph glyph-name="asciitilde" unicode="~" horiz-adv-x="583" 
d="M97 411q17 -31 38 -43.5t45 -12.5q23 0 50 9t53 21q27 12 57 22t59 10q38 0 74 -23t68 -82l-50 -29q-20 36 -42 50.5t-46 14.5t-50 -8.5t-53 -21.5q-29 -13 -58.5 -23t-58.5 -10q-38 0 -74 23t-67 83l42 25z" />
    <glyph glyph-name="bracketleft" unicode="[" horiz-adv-x="285" 
d="M243 740v-85h-74v-620h74v-88h-175v793h175z" />
    <glyph glyph-name="backslash" unicode="\" horiz-adv-x="606" 
d="M590 -44h-97l-481 710h98z" />
    <glyph glyph-name="bracketright" unicode="]" horiz-adv-x="285" 
d="M217 730v-793h-175v83h75v627h-75v83h175z" />
    <glyph glyph-name="asciicircum" unicode="^" horiz-adv-x="363" 
d="M218 721l103 -226h-71l-60 131l-6 19h-3l-6 -19l-61 -131h-71l104 226h71z" />
    <glyph glyph-name="underscore" unicode="_" horiz-adv-x="463" 
d="M0 -86v70h463v-70h-463z" />
    <glyph glyph-name="grave" unicode="`" horiz-adv-x="289" 
d="M134 702l85 -141h-81l-134 141h130z" />
    <glyph glyph-name="Euro" unicode="&#x20ac;" horiz-adv-x="527" 
d="M62 338h-57v77h65q11 58 37.5 103t65 75.5t87.5 46t105 15.5q30 0 62.5 -5.5t69.5 -18.5l-20 -82q-65 21 -113 21q-73 0 -123.5 -37.5t-67.5 -117.5h243v-77h-252v-14q0 -8 -0.5 -10.5t0.5 -10.5h252v-77h-241q20 -77 71.5 -113t123.5 -35q46 0 111 21l17 -83
q-36 -11 -68 -16t-62 -6q-55 -1 -104 14t-88 44.5t-66 73t-39 100.5h-66v77h57v21v14z" />
    <glyph glyph-name="quotesinglbase" unicode="&#x201a;" horiz-adv-x="159" 
d="M68 -11q-26 1 -39 17.5t-13 36.5t13 36.5t41 17.5q16 0 26.5 -6.5t17.5 -17t10 -23t3 -25.5q0 -8 -1 -17t-3 -15q-4 -16 -12.5 -31.5t-21 -28t-29 -20t-35.5 -7.5v33q17 0 29 16.5t14 33.5z" />
    <glyph glyph-name="florin" unicode="&#x192;" horiz-adv-x="463" 
d="M51 -113q26 -8 35 -8q16 0 31 3.5t26.5 15.5t18.5 34.5t7 60.5v427h-81v81h81v43q0 85 35.5 131.5t113.5 46.5q39 0 98 -17l-25 -75q-11 3 -29.5 7t-32.5 4q-35 0 -53 -20.5t-18 -67.5v-52h114v-81h-114v-413q1 -97 -39 -149.5t-108 -53.5q-17 0 -37.5 4t-46.5 13z" />
    <glyph glyph-name="quotedblbase" unicode="&#x201e;" horiz-adv-x="309" 
d="M82 99q-2 17 -14 33.5t-29 16.5v33q19 0 35.5 -7.5t29 -20t21 -28t12.5 -31.5q2 -6 3 -15t1 -17q0 -13 -3 -25.5t-10 -23t-17.5 -17t-26.5 -6.5q-28 1 -41 17.5t-13 36.5t13 36.5t39 17.5zM215 99q-2 17 -14 33.5t-29 16.5v33q19 0 35.5 -7.5t29 -20t21 -28t12.5 -31.5
q2 -6 3 -15t1 -17q0 -13 -3 -25.5t-10 -23t-17.5 -17t-26.5 -6.5q-28 1 -41 17.5t-13 36.5t13 36.5t39 17.5z" />
    <glyph glyph-name="ellipsis" unicode="&#x2026;" horiz-adv-x="680" 
d="M136 -6q-30 0 -44.5 19t-14.5 42t14.5 42t44.5 19t44.5 -19t14.5 -42t-14.5 -42t-44.5 -19zM342 -6q-30 0 -44.5 19t-14.5 42t14.5 42t44.5 19t44.5 -19t14.5 -42t-14.5 -42t-44.5 -19zM545 -6q-30 0 -44.5 19t-14.5 42t14.5 42t44.5 19t44.5 -19t14.5 -42t-14.5 -42
t-44.5 -19z" />
    <glyph glyph-name="dagger" unicode="&#x2020;" horiz-adv-x="497" 
d="M294 352v-603h-92v603h-167v79h167v318h92v-318h168v-79h-168z" />
    <glyph glyph-name="daggerdbl" unicode="&#x2021;" horiz-adv-x="495" 
d="M294 56v-307h-92v307h-168v80h168v216h-168v79h168v318h92v-318h167v-79h-167v-216h167v-80h-167z" />
    <glyph glyph-name="circumflex" unicode="&#x2c6;" horiz-adv-x="276" 
d="M147 847l130 -137h-73l-67 62l-64 -62h-73l130 137h17z" />
    <glyph glyph-name="perthousand" unicode="&#x2030;" horiz-adv-x="1047" 
d="M555 381q76 0 106.5 -49.5t30.5 -143.5q0 -95 -30.5 -144.5t-106.5 -49.5q-38 0 -64.5 12.5t-42.5 37t-23 61t-7 83.5t7 83t23 60.5t42.5 37t64.5 12.5zM881 381q76 0 106.5 -49.5t30.5 -143.5q0 -95 -30.5 -144.5t-106.5 -49.5q-38 0 -64.5 12.5t-42.5 37t-23 61
t-7 83.5t7 83t23 60.5t42.5 37t64.5 12.5zM164 667q76 0 106.5 -49.5t30.5 -143.5q0 -95 -30.5 -144.5t-106.5 -49.5q-38 0 -64.5 12.5t-42.5 37t-23 61t-7 83.5t7 83t23 60.5t42.5 37t64.5 12.5zM555 57q21 0 33.5 11t18.5 29t8 41.5t2 49.5q0 25 -2 48.5t-8.5 41.5t-19 29
t-32.5 11t-32.5 -11t-19 -29t-8.5 -41.5t-2 -48.5q0 -26 2 -49.5t8 -41.5t18.5 -29t33.5 -11zM881 57q21 0 33.5 11t18.5 29t8 41.5t2 49.5q0 25 -2 48.5t-8.5 41.5t-19 29t-32.5 11t-32.5 -11t-19 -29t-8.5 -41.5t-2 -48.5q0 -26 2 -49.5t8 -41.5t18.5 -29t33.5 -11z
M164 343q21 0 33.5 11t18.5 29t8 41.5t2 49.5q0 25 -2 48.5t-8.5 41.5t-19 29t-32.5 11t-32.5 -11t-19 -29t-8.5 -41.5t-2 -48.5q0 -26 2 -49.5t8 -41.5t18.5 -29t33.5 -11zM579 721h95l-492 -721h-89z" />
    <glyph glyph-name="Scaron" unicode="&#x160;" horiz-adv-x="516" 
d="M263 863l111 -117h-46l-68 66h-3l-68 -66h-46l111 117h9zM419 554q-34 13 -71 23.5t-73 10.5q-66 0 -95.5 -25.5t-29.5 -70.5q0 -23 11.5 -39.5t30 -29.5t43 -23t51.5 -20q34 -13 68.5 -28t62 -36.5t44.5 -52.5t17 -76q0 -57 -18.5 -94t-49.5 -59t-71.5 -31t-85.5 -9
q-54 0 -107.5 12t-98.5 31l31 83q35 -16 80 -27.5t89 -11.5q24 0 46 7t39 20t27 31t10 40q0 24 -12 42t-32 32t-46 25t-53 22q-33 12 -66 27t-59.5 36t-43.5 49.5t-17 68.5q0 52 19.5 88.5t52 60t74 34t85.5 10.5q43 0 89.5 -12t88.5 -28z" />
    <glyph glyph-name="guilsinglleft" unicode="&#x2039;" horiz-adv-x="259" 
d="M104 252l133 -184h-79l-131 184l131 184h79z" />
    <glyph glyph-name="OE" unicode="&#x152;" horiz-adv-x="691" 
d="M331 0q-83 0 -139.5 28.5t-91.5 75.5t-50 107t-15 123q0 64 15 124t50 106.5t91.5 74.5t139.5 28h321v-63h-245v-196h226v-67h-226v-278h245v-63h-321zM117 334q0 -51 11.5 -98.5t37 -85t66.5 -60t99 -22.5v530q-58 0 -99 -22t-66.5 -58.5t-37 -84t-11.5 -99.5z" />
    <glyph glyph-name="quoteleft" unicode="&#x2018;" horiz-adv-x="159" 
d="M86 602q26 -1 39 -17.5t13 -36.5t-13 -36.5t-41 -17.5q-16 0 -27 6.5t-17.5 17t-9.5 23t-3 25.5q0 8 1 17t3 15q4 16 12.5 31.5t21 28t28.5 20t36 7.5v-33q-17 0 -29 -16.5t-14 -33.5z" />
    <glyph glyph-name="quoteright" unicode="&#x2019;" horiz-adv-x="159" 
d="M78 560q-26 1 -39 17.5t-13 36.5t13 36.5t41 17.5q16 0 26.5 -6.5t17.5 -17t10 -23t3 -25.5q0 -8 -1 -17t-3 -15q-4 -16 -12.5 -31.5t-21 -28t-29 -20t-35.5 -7.5v33q17 0 29 16.5t14 33.5z" />
    <glyph glyph-name="quotedblleft" unicode="&#x201c;" horiz-adv-x="290" 
d="M217 560q2 -17 14 -33.5t29 -16.5v-33q-20 0 -36 7.5t-28.5 20t-21 28t-12.5 31.5q-2 6 -3 15t-1 17q0 13 3 25.5t9.5 23t17.5 17t27 6.5q28 -1 41 -17.5t13 -36.5t-13 -36.5t-39 -17.5zM84 560q2 -17 14 -33.5t29 -16.5v-33q-20 0 -36 7.5t-28.5 20t-21 28t-12.5 31.5
q-2 6 -3 15t-1 17q0 13 3 25.5t9.5 23t17.5 17t27 6.5q28 -1 41 -17.5t13 -36.5t-13 -36.5t-39 -17.5z" />
    <glyph glyph-name="quotedblright" unicode="&#x201d;" horiz-adv-x="290" 
d="M76 560q-26 1 -39 17.5t-13 36.5t13 36.5t41 17.5q16 0 26.5 -6.5t17.5 -17t10 -23t3 -25.5q0 -8 -1 -17t-3 -15q-4 -16 -12.5 -31.5t-21 -28t-29 -20t-35.5 -7.5v33q17 0 29 16.5t14 33.5zM209 560q-26 1 -39 17.5t-13 36.5t13 36.5t41 17.5q16 0 26.5 -6.5t17.5 -17
t10 -23t3 -25.5q0 -8 -1 -17t-3 -15q-4 -16 -12.5 -31.5t-21 -28t-29 -20t-35.5 -7.5v33q17 0 29 16.5t14 33.5z" />
    <glyph glyph-name="bullet" unicode="&#x2022;" horiz-adv-x="252" 
d="M124 182q-18 0 -33.5 7t-27 18.5t-18.5 27.5t-7 34t6.5 34t18.5 28t28 19t34 7q36 0 62 -25.5t26 -62.5q0 -36 -26 -61.5t-63 -25.5z" />
    <glyph glyph-name="endash" unicode="&#x2013;" horiz-adv-x="399" 
d="M30 297v74h339v-74h-339z" />
    <glyph glyph-name="emdash" unicode="&#x2014;" horiz-adv-x="572" 
d="M30 280v74h512v-74h-512z" />
    <glyph glyph-name="tilde" unicode="&#x2dc;" horiz-adv-x="368" 
d="M191 659q18 -8 35.5 -14.5t33.5 -6.5q28 0 53 31l49 -28q-23 -44 -49.5 -61t-53.5 -17q-21 0 -41.5 7t-40.5 16q-18 8 -36.5 14t-35.5 6q-14 0 -26.5 -7t-26.5 -25l-45 32q23 43 48.5 59.5t53.5 16.5q21 0 41.5 -7t40.5 -16z" />
    <glyph glyph-name="trademark" unicode="&#x2122;" horiz-adv-x="532" 
d="M27 668h202v-42h-76v-224h-51v224h-75v42zM383 479h3l65 188h70v-265h-50l-1 174q-15 -42 -30.5 -87t-30.5 -87h-51l-57 171v-171h-49v265h70z" />
    <glyph glyph-name="scaron" unicode="&#x161;" horiz-adv-x="413" 
d="M332 396q-27 11 -56.5 18.5t-56.5 7.5q-38 0 -64 -12.5t-26 -44.5q0 -16 8.5 -27.5t22.5 -20.5t33 -17t39 -15q27 -9 53.5 -20t47.5 -27.5t34.5 -40.5t13.5 -58q0 -43 -15 -71t-40 -44.5t-57.5 -23t-68.5 -6.5q-40 0 -82.5 9.5t-79.5 23.5l26 76q29 -14 64.5 -22t67.5 -8
q36 0 61.5 15.5t26.5 44.5q0 17 -8.5 30t-23.5 23t-34.5 18t-40.5 16q-26 9 -51.5 19.5t-46 26.5t-33.5 37.5t-13 53.5q0 39 15.5 66.5t41 45t58.5 25.5t68 8q33 0 70.5 -9t70.5 -20zM198 710l-130 137h73l67 -62l64 62h73l-130 -137h-17z" />
    <glyph glyph-name="guilsinglright" unicode="&#x203a;" horiz-adv-x="271" 
d="M23 446h83l139 -194l-139 -194h-83l141 194z" />
    <glyph glyph-name="oe" unicode="&#x153;" horiz-adv-x="843" 
d="M130 249q0 -33 7 -64.5t22.5 -56t41 -39.5t63.5 -15q37 0 63 15t41.5 40t22.5 56.5t7 63.5v7q-1 31 -8.5 61t-23 53.5t-41 38t-61.5 14.5q-38 0 -63.5 -14.5t-41 -39t-22.5 -56t-7 -64.5zM718 313q-2 51 -27.5 82t-80.5 31q-48 0 -77.5 -31.5t-35.5 -81.5h221zM494 241
q1 -35 11 -66t28 -54t44.5 -36t61.5 -13q20 0 35 1t28.5 3.5t27.5 6t31 9.5l27 -72q-32 -11 -71 -19t-81 -7q-72 2 -117 24.5t-73 60.5q-27 -38 -71.5 -61.5t-110.5 -23.5q-64 0 -108 22t-71.5 58t-39.5 81.5t-12 93.5q0 47 12.5 92.5t40 81.5t71.5 58t107 22
q66 0 109.5 -23t70.5 -61q55 84 170 84q59 0 98.5 -22.5t62 -59.5t31 -83.5t5.5 -94.5h-315z" />
    <glyph glyph-name="Ydieresis" unicode="&#x178;" horiz-adv-x="498" 
d="M410 667h81l-203 -394v-273h-77v273l-202 394h82l159 -317h2zM169 742q-25 0 -37 15.5t-12 35.5q0 19 12 35t37 16t37 -16t12 -35q0 -20 -12 -35.5t-37 -15.5zM321 742q-25 0 -37 15.5t-12 35.5q0 19 12 35t37 16t37 -16t12 -35q0 -20 -12 -35.5t-37 -15.5z" />
    <glyph glyph-name="colon" unicode=":" horiz-adv-x="200" 
d="M110 -7q-30 0 -44.5 19t-14.5 42t14.5 42t44.5 19t44.5 -19t14.5 -42t-14.5 -42t-44.5 -19zM110 334q-30 0 -44.5 19t-14.5 42t14.5 42t44.5 19t44.5 -19t14.5 -42t-14.5 -42t-44.5 -19z" />
    <glyph glyph-name="semicolon" unicode=";" horiz-adv-x="168" 
d="M85 76q-29 0 -43.5 18.5t-14.5 41.5q0 22 14.5 40.5t43.5 18.5t43 -18.5t14 -40.5q0 -23 -14 -41.5t-43 -18.5zM2 -46q17 0 31 26.5t14 66.5h78q1 -24 -8 -49t-25.5 -45.5t-39.5 -34t-50 -13.5v49z" />
    <glyph glyph-name="less" unicode="&#x3c;" horiz-adv-x="591" 
d="M165 299v-2l46 -17l323 -151l-8 -82l-468 216v71l466 214l10 -83l-328 -151z" />
    <glyph glyph-name="equal" unicode="=" horiz-adv-x="516" 
d="M40 355v81h436v-81h-436zM40 195v81h436v-81h-436z" />
    <glyph glyph-name="greater" unicode="&#x3e;" horiz-adv-x="591" 
d="M385 314l-328 151l10 83l466 -214v-71l-468 -216l-8 82l323 151l46 17v2z" />
    <glyph glyph-name="question" unicode="?" horiz-adv-x="471" 
d="M150 428q37 16 69.5 32.5t57 35.5t39 41.5t14.5 49.5q0 15 -6 36h1q-9 27 -35 41.5t-61 14.5q-29 0 -64 -11q-20 -7 -44 -20.5t-44 -30.5l-40 69q46 38 99 57.5t103 19.5q30 0 60 -7t53 -21q20 -13 36.5 -33t26.5 -47q11 -28 11 -59q0 -38 -16 -70t-42.5 -58.5t-59.5 -47
t-67 -33.5v-146h-75zM198 64q-30 0 -44.5 18.5t-14.5 42.5q0 22 14.5 41t44.5 19q29 0 43.5 -19t14.5 -41q0 -24 -14.5 -42.5t-43.5 -18.5z" />
    <glyph glyph-name="at" unicode="@" horiz-adv-x="716" 
d="M332 139q25 0 51 17t43 43l28 158q-15 3 -29 5t-26 2q-23 0 -45.5 -5.5t-41.5 -18.5t-32.5 -35t-19.5 -54q-3 -15 -3 -28q0 -42 22.5 -63t52.5 -21zM446 139q-24 -30 -59.5 -43t-64.5 -13q-26 0 -49 8.5t-40 25.5t-27.5 42t-10.5 58q0 20 3 38q8 46 28.5 78.5t49 53
t63 29.5t69.5 9q59 0 116 -22l-35 -205v1q-5 -32 4.5 -45t28.5 -13q21 0 38 12.5t29 34t18 49t6 57.5q0 39 -11.5 77.5t-35.5 70t-62.5 51t-92.5 19.5q-52 0 -99.5 -15t-85.5 -45.5t-64.5 -76t-37.5 -105.5q-6 -33 -6 -58q0 -55 21 -97.5t56.5 -72t83.5 -44.5t102 -15
q40 0 72 11.5t63 24.5l21 9l22 -62q-42 -21 -88.5 -32.5t-97.5 -11.5q-66 0 -125 19t-103 55t-69.5 89t-25.5 121q0 15 1 32t4 34q13 65 43.5 120.5t76.5 95.5t106.5 62.5t132.5 22.5q68 0 117 -24.5t80.5 -64t46.5 -88.5t15 -98q0 -42 -10.5 -80.5t-30 -68.5t-47.5 -48
t-64 -18q-32 0 -56.5 13.5t-35.5 45.5z" />
    <glyph glyph-name="exclam" unicode="!" horiz-adv-x="207" 
d="M152 667l-11 -501h-66l-11 501h88zM105 112q29 0 43 -17.5t14 -41.5q0 -21 -14 -40t-43 -19t-43 19t-14 40q0 24 14 41.5t43 17.5z" />
    <glyph glyph-name="quotedbl" unicode="&#x22;" horiz-adv-x="288" 
d="M75 566q0 -23 13 -42.5t30 -19.5v-25q-36 0 -59 27t-30 60q-4 14 -4 31.5t5 33.5t16.5 26.5t31.5 10.5q26 -1 37.5 -17t11.5 -34q0 -20 -12 -35.5t-37 -15.5h-3zM194 566q0 -23 13 -42.5t30 -19.5v-25q-36 0 -59 27t-30 60q-4 14 -4 31.5t5 33.5t16.5 26.5t31.5 10.5
q26 -1 37.5 -17t11.5 -34q0 -20 -12 -35.5t-37 -15.5h-3z" />
    <glyph glyph-name="numbersign" unicode="#" horiz-adv-x="609" 
d="M297 18l29 176h-108q-8 -44 -14 -89t-14 -87h-83l30 176h-100v81h111l27 164h-98v80h111l27 167h86l-28 -167h104l28 167h86l-29 -167h111v-80h-124l-27 -164h111v-81h-126q-7 -44 -13.5 -89t-14.5 -87h-82zM232 275h106l27 164h-105z" />
    <glyph glyph-name="dollar" unicode="$" horiz-adv-x="503" 
d="M226 742h69v-97q28 -4 57.5 -11t58.5 -18l-18 -74q-32 14 -66.5 23.5t-66.5 9.5q-25 0 -46.5 -4.5t-37.5 -15.5t-25.5 -29t-9.5 -45q0 -26 11 -43t29.5 -28t42 -19t49.5 -15q31 -10 62.5 -22t57 -31.5t41 -48.5t15.5 -73q0 -46 -14 -78.5t-37.5 -53.5t-55 -32.5
t-66.5 -15.5v-91h-69v90q-37 4 -76.5 14t-72.5 23l26 78q33 -15 68.5 -26.5t73.5 -12.5h8q24 0 46.5 4t40.5 14.5t28.5 27.5t10.5 44q0 26 -12 44.5t-32 32t-45 23t-50 17.5q-29 10 -58.5 21.5t-53.5 30t-39 45t-15 66.5q0 44 14 75.5t37 53t54 33.5t66 17v97z" />
    <glyph glyph-name="percent" unicode="%" horiz-adv-x="720" 
d="M555 381q76 0 106.5 -49.5t30.5 -143.5q0 -95 -30.5 -144.5t-106.5 -49.5q-38 0 -64.5 12.5t-42.5 37t-23 61t-7 83.5t7 83t23 60.5t42.5 37t64.5 12.5zM164 667q76 0 106.5 -49.5t30.5 -143.5q0 -95 -30.5 -144.5t-106.5 -49.5q-38 0 -64.5 12.5t-42.5 37t-23 61
t-7 83.5t7 83t23 60.5t42.5 37t64.5 12.5zM555 57q21 0 33.5 11t18.5 29t8 41.5t2 49.5q0 25 -2 48.5t-8.5 41.5t-19 29t-32.5 11t-32.5 -11t-19 -29t-8.5 -41.5t-2 -48.5q0 -26 2 -49.5t8 -41.5t18.5 -29t33.5 -11zM164 343q21 0 33.5 11t18.5 29t8 41.5t2 49.5
q0 25 -2 48.5t-8.5 41.5t-19 29t-32.5 11t-32.5 -11t-19 -29t-8.5 -41.5t-2 -48.5q0 -26 2 -49.5t8 -41.5t18.5 -29t33.5 -11zM579 721h95l-492 -721h-89z" />
    <glyph glyph-name="ampersand" unicode="&#x26;" horiz-adv-x="548" 
d="M355 24l-10 -6q-38 -20 -99 -20q-40 0 -78.5 12t-69 36.5t-49 62t-18.5 87.5q0 72 31 116.5t82 58.5q-38 26 -58.5 65t-20.5 84q0 28 10 55q10 30 29 51t43 34t53 19t59 6q38 0 79.5 -9.5t80.5 -24.5l-29 -73q-37 15 -67.5 22t-53.5 7q-53 0 -82 -24.5t-30 -61.5
q0 -19 8 -40.5t27 -39.5t49.5 -29.5t74.5 -11.5h226v-77h-100v-91q0 -17 -1 -35v-447h-86v274zM355 323h-73q-50 0 -80 -12.5t-46 -31t-21 -40t-5 -40.5q0 -15 5.5 -35.5t19.5 -38.5t37.5 -30.5t58.5 -12.5q29 0 49.5 11.5t33 32.5t17.5 49.5t4 62.5v85z" />
    <glyph glyph-name="quotesingle" unicode="'" horiz-adv-x="144" 
d="M35 677h74l-6 -191h-61z" />
    <glyph glyph-name="parenleft" unicode="(" horiz-adv-x="382" 
d="M150 306q0 -59 13 -118t38.5 -114t62 -102t84.5 -82h-101q-50 37 -85 85.5t-58 103.5t-33.5 113t-10.5 114q0 55 10.5 113.5t33.5 113.5t58 104t85 85h101q-48 -34 -84.5 -80.5t-62 -101.5t-38.5 -114.5t-13 -119.5z" />
    <glyph glyph-name="parenright" unicode=")" horiz-adv-x="381" 
d="M232 306q0 60 -13 119.5t-38.5 114.5t-62 101.5t-84.5 80.5h101q49 -36 84.5 -85t58.5 -104t33.5 -113.5t10.5 -113.5q0 -56 -10.5 -114t-33.5 -113t-58.5 -103.5t-84.5 -85.5h-101q48 35 84.5 82t62 102t38.5 114t13 118z" />
    <glyph glyph-name="asterisk" unicode="*" horiz-adv-x="428" 
d="M246 473q32 12 66 27t64 26l23 -74l-132 -37l90 -113l-64 -43l-78 122q-17 -29 -38 -62.5t-38 -60.5l-65 44l90 113q-32 9 -67 19t-67 18l23 74l130 -52q-2 35 -4 71.5t-4 69.5h78z" />
    <glyph glyph-name="plus" unicode="+" horiz-adv-x="533" 
d="M306 507v-195h187v-74h-187v-197h-79v197h-187v74h187v195h79z" />
    <glyph glyph-name="comma" unicode="," horiz-adv-x="134" 
d="M2 -46q17 0 31 26.5t14 66.5h78q1 -24 -8 -49t-25.5 -45.5t-39.5 -34t-50 -13.5v49z" />
    <glyph glyph-name="hyphen" unicode="-" horiz-adv-x="399" 
d="M30 280v74h339v-74h-339z" />
    <glyph glyph-name="period" unicode="." horiz-adv-x="199" 
d="M109 -6q-30 0 -44.5 19t-14.5 42t14.5 42t44.5 19t44.5 -19t14.5 -42t-14.5 -42t-44.5 -19z" />
    <glyph glyph-name="slash" unicode="/" horiz-adv-x="588" 
d="M495 667h93l-485 -711h-87z" />
    <glyph glyph-name="zero" unicode="0" horiz-adv-x="532" 
d="M33 335q0 81 12 144t39 106t71.5 65.5t109.5 22.5q66 0 110.5 -25.5t72 -70.5t39.5 -107t12 -135q0 -74 -12 -136t-39.5 -108t-72 -71.5t-110.5 -25.5q-65 0 -109.5 22.5t-71.5 65.5t-39 106.5t-12 146.5zM123 335q0 -58 7 -107t23.5 -84t44 -55t67.5 -20t67.5 20.5
t44 56t24 84t7.5 105.5q0 58 -7.5 106t-24 83t-44 54.5t-67.5 19.5t-67.5 -19.5t-44 -55t-23.5 -83.5t-7 -105z" />
    <glyph glyph-name="one" unicode="1" 
d="M140 81h99v482l-119 -55l-24 70l167 90h66v-587h101v-81h-290v81z" />
    <glyph glyph-name="two" unicode="2" 
d="M207 82l2 -2h278v-80h-431v58l68 70q20 23 40 42.5t39 36.5q39 39 70.5 72t54 62.5t34.5 58t12 58.5q0 24 -7 47.5t-23 42t-42 29.5t-64 11q-39 -1 -79.5 -18t-88.5 -55l-32 77q51 43 107 62.5t113 19.5q38 0 76 -12.5t68 -38t49.5 -65t19.5 -93.5q0 -45 -13.5 -83
t-38.5 -74t-60 -72.5t-76 -77.5z" />
    <glyph glyph-name="three" unicode="3" 
d="M369 366v-1q46 -14 79 -58t33 -117q0 -49 -19 -86t-49.5 -61.5t-69.5 -36.5t-78 -12q-57 0 -111.5 19t-105.5 61l30 73q48 -38 88.5 -56t79.5 -19q38 0 64 11t42 30t23 43.5t7 50.5q0 17 -7.5 34.5t-21.5 32t-34 25t-45 13.5q-2 0 -5 0.5t-5 0.5q-10 1 -22 1.5t-31 0.5
v72q28 0 53 11t44.5 28t30.5 39.5t11 45.5q-1 38 -25.5 59t-72.5 18q-16 -1 -32 -3.5t-33.5 -8.5t-37.5 -16.5t-44 -26.5l-27 71q39 34 87.5 52t96.5 19q57 1 105 -25t68 -81q12 -32 12 -61q0 -43 -21 -80.5t-57 -61.5z" />
    <glyph glyph-name="four" unicode="4" 
d="M412 251h104v-86h-104v-165h-91v165h-305v68l295 433h101v-415zM133 252l1 -1h186v281q-6 -11 -12.5 -21.5t-11.5 -19.5q-6 -11 -13 -20z" />
    <glyph glyph-name="five" unicode="5" 
d="M168 424q22 11 46.5 16.5t59.5 6.5q49 0 90.5 -18t70 -50t43 -76t11.5 -96q-4 -62 -28 -103.5t-60 -66.5t-79.5 -35t-85.5 -8q-46 0 -101.5 21t-102.5 61l30 77q93 -75 173 -75q71 -1 112 33t46 100q1 32 -8 60.5t-27 49.5t-42.5 33.5t-54.5 12.5q-31 0 -57 -9t-53 -36
h-61l-10 9v337h373v-84h-286v-159l1 -1v0z" />
    <glyph glyph-name="six" unicode="6" 
d="M136 293q-1 -8 -1.5 -17t-0.5 -17q0 -33 6.5 -66t21 -58.5t38.5 -41.5t60 -16q31 0 54.5 11t39.5 30.5t24.5 45.5t8.5 57q0 27 -7.5 51.5t-23.5 42.5t-40.5 28.5t-57.5 10.5q-32 0 -64.5 -17t-57.5 -44zM139 393l1 -1q36 24 69.5 33t65.5 9q46 0 84.5 -15.5t66.5 -44
t43.5 -68t15.5 -86.5q0 -54 -17 -96.5t-47 -71t-69.5 -43.5t-84.5 -15q-75 0 -120 28.5t-69 73t-31.5 97.5t-7.5 102v29q2 79 16.5 143.5t46 110.5t81 71t120.5 25q45 0 80 -11.5t63 -26.5l-21 -74q-16 8 -34 14q-15 5 -34.5 9.5t-39.5 5.5q-75 3 -120 -46.5t-58 -151.5z
" />
    <glyph glyph-name="seven" unicode="7" 
d="M47 586v81h431v-56l-232 -612h-92l219 587h-326z" />
    <glyph glyph-name="eight" unicode="8" 
d="M263 77q19 0 42 5t42 16t32 29.5t13 45.5q0 22 -10.5 40.5t-28.5 33.5t-43 27t-53 23q-23 -9 -45 -21.5t-39.5 -28t-28 -34t-10.5 -40.5q0 -27 13 -45.5t32 -29.5t41.5 -16t42.5 -5zM364 492q0 100 -106 100q-46 0 -71 -25.5t-25 -74.5q0 -21 8.5 -36.5t23.5 -28
t35.5 -22.5t43.5 -20q40 20 65.5 46.5t25.5 60.5zM367 347l1 -3q25 -13 46.5 -29.5t38 -36.5t26 -45t9.5 -54q0 -53 -18.5 -88.5t-49.5 -57.5t-72 -31t-85 -9t-84.5 9t-71.5 31t-49.5 57.5t-19.5 88.5q0 30 10 54t27.5 44t40 35t46.5 27q-46 26 -71 64t-25 84q0 54 17 90
t44.5 58t63 31t72.5 9q36 0 72 -10.5t64 -32.5t44.5 -57t14.5 -83q-1 -18 -7 -38t-17 -39.5t-28 -37t-39 -30.5z" />
    <glyph glyph-name="nine" unicode="9" 
d="M391 375q1 8 1.5 17t0.5 17q0 33 -6.5 66t-21 58.5t-38.5 41.5t-60 16q-31 0 -54.5 -11t-39.5 -30.5t-24.5 -45.5t-8.5 -57q0 -27 7.5 -51.5t23.5 -42.5t40.5 -28.5t57.5 -10.5q32 0 64.5 17t57.5 44zM388 275l-1 1q-36 -24 -69.5 -33t-65.5 -9q-46 0 -84.5 15.5
t-66.5 44t-43.5 68t-15.5 86.5q0 54 17 96.5t47 71t69.5 43.5t84.5 15q75 0 120 -28.5t69 -73t31.5 -97.5t7.5 -102v-29q-2 -79 -16.5 -143.5t-46 -110.5t-81 -71t-120.5 -25q-45 0 -80 11.5t-63 26.5l21 74q16 -8 34 -14q15 -5 34.5 -9.5t39.5 -5.5q75 -3 120 46.5
t58 151.5z" />
    <glyph glyph-name="fraction" unicode="&#x2044;" horiz-adv-x="352" 
d="M-80 -45l410 722h92l-414 -722h-88z" />
    <glyph glyph-name="fi" unicode="&#xfb01;" horiz-adv-x="509" 
d="M338 590q-17 28 -39 41t-46 13q-31 0 -54.5 -22t-23.5 -64v-55h235v-504h-90v423h-145v-423h-88v423h-82v81h82v46q0 45 14 77.5t37 54.5t53 32.5t62 10.5q43 0 85.5 -21t68.5 -63q2 -15 -3 -27t-14 -19.5t-21 -9.5t-25 3z" />
    <glyph glyph-name="fl" unicode="&#xfb02;" horiz-adv-x="504" 
d="M404 1h-90v634q-5 1 -13.5 2t-17.5 2t-17.5 1.5t-14.5 0.5q-36 0 -54.5 -19.5t-18.5 -66.5v-54h118v-79h-118v-421h-91v421h-82v79h82v45q0 83 37 129.5t115 46.5q17 0 38.5 -3t43.5 -7.5t43.5 -10.5t39.5 -12v-688z" />
    <glyph glyph-name="Lslash" unicode="&#x141;" horiz-adv-x="449" 
d="M161 339v-257h273v-81h-369v294l-130 -61l-32 64l162 75v293h96v-247q32 14 66.5 30t64.5 31l31 -65z" />
    <glyph glyph-name="lslash" unicode="&#x142;" horiz-adv-x="481" 
d="M244 338v-258h277v-81h-375v295l-132 -61l-32 64l164 75v223h-115v72h213v-249q32 14 67.5 30.5t65.5 31.5l31 -66z" />
    <glyph glyph-name="Zcaron" unicode="&#x17d;" horiz-adv-x="565" 
d="M20 1v82l372 502h-353v81h462v-95l-361 -489h405v-81h-525zM274 881l-130 137h73l67 -62l64 62h73l-130 -137h-17z" />
    <glyph glyph-name="zcaron" unicode="&#x17e;" horiz-adv-x="408" 
d="M8 0v68l267 349h-250v79h360v-78l-255 -339h276v-79h-398zM195 710l-130 137h73l67 -62l64 62h73l-130 -137h-17z" />
    <glyph glyph-name="D" unicode="D" horiz-adv-x="598" 
d="M202 87q55 0 102 13t80.5 42.5t52 76.5t18.5 116t-19 116t-52.5 76t-80 41.5t-101.5 12.5h-34v-494h34zM66 0v668h161q85 0 148 -24t105 -68t63 -105.5t21 -136.5q0 -74 -20.5 -135.5t-62.5 -105.5t-105.5 -68.5t-148.5 -24.5h-161z" />
    <glyph glyph-name="uni00A0" unicode="&#xa0;" horiz-adv-x="0" 
 />
    <glyph glyph-name="Agrave" unicode="&#xc0;" horiz-adv-x="574" 
d="M376 221h-181l-74 -221h-103l222 667h91l220 -667h-105zM275 475l-50 -160h116l-47 160l-8 34h-3zM239 902l85 -141h-81l-134 141h130z" />
    <glyph glyph-name="Aacute" unicode="&#xc1;" horiz-adv-x="574" 
d="M376 221h-181l-74 -221h-103l222 667h91l220 -667h-105zM275 475l-50 -160h116l-47 160l-8 34h-3zM479 902l-134 -141h-81l85 141h130z" />
    <glyph glyph-name="Acircumflex" unicode="&#xc2;" horiz-adv-x="574" 
d="M376 221h-181l-74 -221h-103l222 667h91l220 -667h-105zM275 475l-50 -160h116l-47 160l-8 34h-3zM293 886l130 -137h-73l-67 62l-64 -62h-73l130 137h17z" />
    <glyph glyph-name="Atilde" unicode="&#xc3;" horiz-adv-x="575" 
d="M376 221h-181l-74 -221h-103l222 667h91l220 -667h-105zM275 475l-50 -160h116l-47 160l-8 34h-3zM264 859q18 -8 35.5 -14.5t33.5 -6.5q28 0 53 31l49 -28q-23 -44 -49.5 -61t-53.5 -17q-21 0 -41.5 7t-40.5 16q-18 8 -36.5 14t-35.5 6q-14 0 -26.5 -7t-26.5 -25l-45 32
q23 43 48.5 59.5t53.5 16.5q21 0 41.5 -7t40.5 -16z" />
    <glyph glyph-name="Adieresis" unicode="&#xc4;" horiz-adv-x="574" 
d="M376 221h-181l-74 -221h-103l222 667h91l220 -667h-105zM275 475l-50 -160h116l-47 160l-8 34h-3zM208 761q-30 0 -44.5 19t-14.5 42t14.5 42t44.5 19t44.5 -19t14.5 -42t-14.5 -42t-44.5 -19zM360 761q-30 0 -44.5 19t-14.5 42t14.5 42t44.5 19t44.5 -19t14.5 -42
t-14.5 -42t-44.5 -19z" />
    <glyph glyph-name="Egrave" unicode="&#xc8;" horiz-adv-x="463" 
d="M67 0v668h358v-87h-256v-168h241v-89h-241v-237h256v-87h-358zM211 902l85 -141h-81l-134 141h130z" />
    <glyph glyph-name="Eacute" unicode="&#xc9;" horiz-adv-x="463" 
d="M67 0v668h358v-87h-256v-168h241v-89h-241v-237h256v-87h-358zM427 902l-134 -141h-81l85 141h130z" />
    <glyph glyph-name="Ecircumflex" unicode="&#xca;" horiz-adv-x="463" 
d="M67 0v668h358v-87h-256v-168h241v-89h-241v-237h256v-87h-358zM227 887l130 -137h-73l-67 62l-64 -62h-73l130 137h17z" />
    <glyph glyph-name="Edieresis" unicode="&#xcb;" horiz-adv-x="463" 
d="M67 0v668h358v-87h-256v-168h241v-89h-241v-237h256v-87h-358zM142 761q-30 0 -44.5 19t-14.5 42t14.5 42t44.5 19t44.5 -19t14.5 -42t-14.5 -42t-44.5 -19zM294 761q-30 0 -44.5 19t-14.5 42t14.5 42t44.5 19t44.5 -19t14.5 -42t-14.5 -42t-44.5 -19z" />
    <glyph glyph-name="Igrave" unicode="&#xcc;" horiz-adv-x="256" 
d="M190 0h-101v667h101v-667zM103 902l85 -141h-81l-134 141h130z" />
    <glyph glyph-name="Iacute" unicode="&#xcd;" horiz-adv-x="255" 
d="M168 0h-101v667h101v-667zM284 902l-134 -141h-81l85 141h130z" />
    <glyph glyph-name="Icircumflex" unicode="&#xce;" horiz-adv-x="247" 
d="M178 0h-101v667h101v-667zM133 886l130 -137h-73l-67 62l-64 -62h-73l130 137h17z" />
    <glyph glyph-name="Idieresis" unicode="&#xcf;" horiz-adv-x="212" 
d="M162 0h-101v667h101v-667zM31 761q-30 0 -44.5 19t-14.5 42t14.5 42t44.5 19t44.5 -19t14.5 -42t-14.5 -42t-44.5 -19zM183 761q-30 0 -44.5 19t-14.5 42t14.5 42t44.5 19t44.5 -19t14.5 -42t-14.5 -42t-44.5 -19z" />
    <glyph glyph-name="Eth" unicode="&#xd0;" horiz-adv-x="631" 
d="M98 0v326h-95v74h95v268h161q85 0 148 -24t105 -68t63 -105.5t21 -136.5q0 -74 -20.5 -135.5t-62.5 -105.5t-105.5 -68.5t-148.5 -24.5h-161zM234 87q55 0 102 13t80.5 42.5t52 76.5t18.5 116t-19 116t-52.5 76t-80 41.5t-101.5 12.5h-34v-181h142v-74h-142v-239h34z" />
    <glyph glyph-name="Ntilde" unicode="&#xd1;" horiz-adv-x="602" 
d="M434 667h102v-667h-100l-267 485h-1v-485h-102v667h105l260 -473h4zM280 859q18 -8 35.5 -14.5t33.5 -6.5q28 0 53 31l49 -28q-23 -44 -49.5 -61t-53.5 -17q-21 0 -41.5 7t-40.5 16q-18 8 -36.5 14t-35.5 6q-14 0 -26.5 -7t-26.5 -25l-45 32q23 43 48.5 59.5t53.5 16.5
q21 0 41.5 -7t40.5 -16z" />
    <glyph glyph-name="Ograve" unicode="&#xd2;" horiz-adv-x="664" 
d="M630 334q0 -62 -15.5 -123t-50 -109t-91.5 -78t-139 -30q-83 0 -140.5 31t-92.5 79.5t-50.5 109t-15.5 120.5q0 63 15.5 124t50.5 109t92.5 77.5t140.5 29.5q82 0 139 -29t91.5 -77t50 -109t15.5 -125zM521 334q0 52 -10 98.5t-32.5 81t-58 54.5t-86.5 20q-53 0 -89 -21
t-58.5 -56t-32.5 -81t-10 -96t10 -96t32.5 -81t58.5 -55.5t89 -20.5q51 0 86.5 20t58 54t32.5 80t10 99zM267 902l85 -141h-81l-134 141h130z" />
    <glyph glyph-name="Oacute" unicode="&#xd3;" horiz-adv-x="664" 
d="M630 334q0 -62 -15.5 -123t-50 -109t-91.5 -78t-139 -30q-83 0 -140.5 31t-92.5 79.5t-50.5 109t-15.5 120.5q0 63 15.5 124t50.5 109t92.5 77.5t140.5 29.5q82 0 139 -29t91.5 -77t50 -109t15.5 -125zM521 334q0 52 -10 98.5t-32.5 81t-58 54.5t-86.5 20q-53 0 -89 -21
t-58.5 -56t-32.5 -81t-10 -96t10 -96t32.5 -81t58.5 -55.5t89 -20.5q51 0 86.5 20t58 54t32.5 80t10 99zM544 902l-134 -141h-81l85 141h130z" />
    <glyph glyph-name="Ocircumflex" unicode="&#xd4;" horiz-adv-x="664" 
d="M630 334q0 -62 -15.5 -123t-50 -109t-91.5 -78t-139 -30q-83 0 -140.5 31t-92.5 79.5t-50.5 109t-15.5 120.5q0 63 15.5 124t50.5 109t92.5 77.5t140.5 29.5q82 0 139 -29t91.5 -77t50 -109t15.5 -125zM521 334q0 52 -10 98.5t-32.5 81t-58 54.5t-86.5 20q-53 0 -89 -21
t-58.5 -56t-32.5 -81t-10 -96t10 -96t32.5 -81t58.5 -55.5t89 -20.5q51 0 86.5 20t58 54t32.5 80t10 99zM342 887l130 -137h-73l-67 62l-64 -62h-73l130 137h17z" />
    <glyph glyph-name="Otilde" unicode="&#xd5;" horiz-adv-x="664" 
d="M630 334q0 -62 -15.5 -123t-50 -109t-91.5 -78t-139 -30q-83 0 -140.5 31t-92.5 79.5t-50.5 109t-15.5 120.5q0 63 15.5 124t50.5 109t92.5 77.5t140.5 29.5q82 0 139 -29t91.5 -77t50 -109t15.5 -125zM521 334q0 52 -10 98.5t-32.5 81t-58 54.5t-86.5 20q-53 0 -89 -21
t-58.5 -56t-32.5 -81t-10 -96t10 -96t32.5 -81t58.5 -55.5t89 -20.5q51 0 86.5 20t58 54t32.5 80t10 99zM308 859q18 -8 35.5 -14.5t33.5 -6.5q28 0 53 31l49 -28q-23 -44 -49.5 -61t-53.5 -17q-21 0 -41.5 7t-40.5 16q-18 8 -36.5 14t-35.5 6q-14 0 -26.5 -7t-26.5 -25
l-45 32q23 43 48.5 59.5t53.5 16.5q21 0 41.5 -7t40.5 -16z" />
    <glyph glyph-name="Odieresis" unicode="&#xd6;" horiz-adv-x="664" 
d="M630 334q0 -62 -15.5 -123t-50 -109t-91.5 -78t-139 -30q-83 0 -140.5 31t-92.5 79.5t-50.5 109t-15.5 120.5q0 63 15.5 124t50.5 109t92.5 77.5t140.5 29.5q82 0 139 -29t91.5 -77t50 -109t15.5 -125zM521 334q0 52 -10 98.5t-32.5 81t-58 54.5t-86.5 20q-53 0 -89 -21
t-58.5 -56t-32.5 -81t-10 -96t10 -96t32.5 -81t58.5 -55.5t89 -20.5q51 0 86.5 20t58 54t32.5 80t10 99zM256 761q-30 0 -44.5 19t-14.5 42t14.5 42t44.5 19t44.5 -19t14.5 -42t-14.5 -42t-44.5 -19zM408 761q-30 0 -44.5 19t-14.5 42t14.5 42t44.5 19t44.5 -19t14.5 -42
t-14.5 -42t-44.5 -19z" />
    <glyph glyph-name="multiply" unicode="&#xd7;" horiz-adv-x="482" 
d="M384 75l-144 144l-139 -138l-55 55l139 138l-145 145l58 58l145 -145l138 139l55 -55l-138 -139l144 -144z" />
    <glyph glyph-name="Oslash" unicode="&#xd8;" horiz-adv-x="665" 
d="M630 334q0 -62 -15.5 -123t-50 -109t-91.5 -78t-139 -30q-83 0 -141 31q-8 4 -16 9l-45 -66h-91l77 114q-9 11 -17 22q-35 49 -50.5 109.5t-15.5 120.5q0 63 15.5 124t50.5 109t92.5 77.5t140.5 29.5q82 0 139 -29l18 -10l43 64h97l-79 -116q7 -7 12 -15
q35 -48 50.5 -109t15.5 -125zM154 238q8 -37 24 -67l260 385q-8 7 -18 12q-35 20 -86 20q-53 0 -89 -21t-58.5 -56t-32.5 -81t-10 -96t10 -96zM521 334q0 52 -10 98q-7 34 -21 61l-261 -382l16 -10q36 -20 89 -20q51 0 86.5 20t58 54t32.5 80t10 99z" />
    <glyph glyph-name="germandbls" unicode="&#xdf;" horiz-adv-x="480" 
d="M31 0v450q0 55 7.5 104.5t28.5 86.5t59 58.5t100 21.5q39 0 72 -15t57 -40.5t37.5 -59.5t13.5 -71q0 -45 -20 -88q-35 -24 -49.5 -42t-14.5 -35q0 -20 15 -39.5t34 -40.5q27 -28 50.5 -60.5t23.5 -75.5q0 -38 -15.5 -67.5t-41 -49.5t-59 -30.5t-69.5 -10.5
q-28 0 -56.5 5.5t-57.5 19.5l19 72q23 -10 44 -15.5t41 -5.5q21 0 40 5t33.5 14.5t23 23.5t8.5 32q0 17 -15 36t-35 42q-13 15 -26 31t-23.5 33.5t-17.5 36.5t-7 40q0 32 18.5 65.5t64.5 71.5q5 18 5 35q0 21 -8 39.5t-21.5 32.5t-32.5 22t-41 8q-57 0 -77.5 -46t-20.5 -140
v-454h-87z" />
    <glyph glyph-name="Thorn" unicode="&#xde;" horiz-adv-x="489" 
d="M145 664v-120h89q41 0 81 -11.5t72 -35.5t51.5 -61t19.5 -88q0 -69 -30.5 -111t-77 -64.5t-101.5 -30.5t-104 -8v-133h-79v663h79zM145 214q33 0 72 3.5t72.5 17t56 40t22.5 73.5q0 33 -11.5 55t-31.5 35.5t-46.5 19.5t-56.5 6h-77v-250z" />
    <glyph glyph-name="divide" unicode="&#xf7;" horiz-adv-x="534" 
d="M273 136q-30 0 -44.5 19t-14.5 42t14.5 42t44.5 19t44.5 -19t14.5 -42t-14.5 -42t-44.5 -19zM273 477q-30 0 -44.5 19t-14.5 42t14.5 42t44.5 19t44.5 -19t14.5 -42t-14.5 -42t-44.5 -19zM40 330v79h454v-79h-454z" />
    <glyph glyph-name="thorn" unicode="&#xfe;" horiz-adv-x="529" 
d="M149 474q28 15 58 23.5t71 8.5q66 0 119.5 -36.5t79.5 -108.5v1q18 -51 18 -115q0 -32 -4.5 -60.5t-12.5 -55.5q-13 -40 -32 -66.5t-43 -43t-53.5 -23.5t-62.5 -8q-47 -1 -87.5 19.5t-64.5 55.5l8 -4q-1 0 -2 0.5t-2 0.5l10 10v-289h-88v938h88v-247zM149 255
q1 -67 12 -97q5 -14 12.5 -25.5t17.5 -22.5h-1q36 -39 91 -39q39 0 67 21.5t42 72.5v-1q5 18 7.5 38.5t2.5 43.5q0 45 -11 86q-11 36 -29 55t-43 28q-13 5 -26 7.5t-29 2.5q-29 0 -58 -10.5t-55 -31.5v-128z" />
    <glyph glyph-name="zeroinferior" unicode="&#x2080;" horiz-adv-x="530" 
d="M33 246q0 53 11.5 98.5t38.5 79.5t70.5 53t107.5 19t108 -21.5t71 -57t38.5 -80.5t11.5 -91q0 -47 -11.5 -92t-38.5 -80.5t-71 -57.5t-108 -22t-107.5 19.5t-70.5 53t-38.5 79.5t-11.5 100zM121 246q0 -42 7 -75.5t23.5 -56.5t43.5 -35t66 -12t66 12.5t43.5 35.5
t23.5 56.5t7 74.5q0 42 -7 76t-23.5 57.5t-43.5 36.5t-66 13t-66 -13t-43.5 -37t-23.5 -57.5t-7 -75.5z" />
    <glyph glyph-name="oneinferior" unicode="&#x2081;" horiz-adv-x="530" 
d="M124 79h123q0 81 -1 155t-1 156q-43 -20 -88 -40t-87 -38l-19 81l215 92h72v-406h126v-79h-340v79z" />
    <glyph glyph-name="twoinferior" unicode="&#x2082;" horiz-adv-x="530" 
d="M73 0v61l51 35l44 32q39 29 73 55.5t59 51.5t39 48t14 46q0 21 -8.5 38.5t-23.5 30t-34 19t-40 6.5t-42.5 -6t-42.5 -15t-39 -19.5t-31 -19.5l-33 72q15 10 35 21t44.5 21t52.5 17t60 8q49 1 86 -11t61.5 -34t36.5 -52t12 -64q0 -35 -14.5 -66t-39.5 -60.5t-58 -56.5
t-70 -54l-26 -22h51h183v-82h-400z" />
    <glyph glyph-name="threeinferior" unicode="&#x2083;" horiz-adv-x="530" 
d="M354 219v-2q0 -1 1 -2q40 -14 68 -53t28 -103q0 -44 -17 -77t-45 -55t-62.5 -33t-70.5 -11q-51 0 -100.5 17.5t-96.5 56.5l29 71q43 -35 79 -51.5t71 -17.5q35 0 58.5 9t37.5 25t20 37.5t6 44.5q0 31 -25.5 59t-70.5 34q-2 0 -4 0.5t-4 0.5q-10 1 -21 1.5t-28 0.5v67
q25 0 48.5 9.5t41.5 24.5t28.5 34.5t10.5 40.5q0 35 -24.5 56t-67.5 18q-27 -1 -57.5 -12t-73.5 -41l-26 64q35 30 79 46.5t88 17.5q52 1 95 -22.5t60 -72.5v1q6 -14 8.5 -28.5t2.5 -28.5q0 -38 -17.5 -71t-48.5 -55z" />
    <glyph glyph-name="fourinferior" unicode="&#x2084;" horiz-adv-x="530" 
d="M406 127h97v-80h-97v-148h-85v148h-286v64l276 391h95v-375zM145 128l1 -1h175v199l-1 52q-6 -9 -12 -18.5t-11 -17.5q-6 -10 -11 -18z" />
    <glyph glyph-name="fiveinferior" unicode="&#x2085;" horiz-adv-x="530" 
d="M166 271l1 -1q19 9 40 14t52 5q44 0 81 -16t62.5 -44.5t39 -68t10.5 -85.5q-4 -56 -25.5 -93t-53.5 -59t-71 -31t-76 -7q-41 0 -90.5 18.5t-92.5 55.5l29 70q42 -35 80 -51.5t73 -16.5q63 0 99 30t40 88q2 28 -6 53t-24 43.5t-38 29.5t-47 11q-27 0 -50.5 -8t-48.5 -33
h-64v80v72v94v65h335v-77h-255v-138z" />
    <glyph glyph-name="sixinferior" unicode="&#x2086;" horiz-adv-x="530" 
d="M160 233q0 -30 6 -58.5t19.5 -51t36.5 -36t56 -13.5q59 0 89.5 34.5t31.5 91.5q0 25 -7 46.5t-22.5 38t-38.5 26t-54 9.5q-32 0 -63.5 -16t-53.5 -42v-29zM164 358h2q33 21 64.5 29t61.5 8q44 0 80.5 -14.5t63 -40t41 -62t14.5 -79.5q0 -50 -16 -88.5t-44 -65t-65.5 -40
t-80.5 -13.5q-71 0 -113.5 30.5t-65.5 75.5t-30.5 97.5t-7.5 97.5q3 69 18 128t45 102t76 67t111 24q44 0 77 -10.5t59 -24.5l-20 -71q-16 7 -33 13q-14 5 -32.5 9t-35.5 5q-145 5 -169 -177z" />
    <glyph glyph-name="seveninferior" unicode="&#x2087;" horiz-adv-x="530" 
d="M69 412v75h387v-52l-208 -548h-84l195 525h-290z" />
    <glyph glyph-name="eightinferior" unicode="&#x2088;" horiz-adv-x="530" 
d="M268 74q19 0 42 3.5t42.5 12.5t32.5 24.5t13 39.5q0 20 -11 37t-29 30.5t-40.5 24.5t-45.5 20q-27 -10 -51.5 -21t-43 -24.5t-29 -29.5t-10.5 -37q0 -24 13 -39.5t32.5 -24.5t42 -12.5t42.5 -3.5zM167 442q0 -31 26 -54t67 -42q22 8 42 17t35 20.5t24 25.5t9 33
q0 44 -27 63.5t-72 19.5q-49 0 -76.5 -19.5t-27.5 -63.5zM161 313q-42 23 -63 59.5t-22 69.5q-2 43 14 74.5t43.5 51.5t63 29.5t71.5 9.5t71 -8t62.5 -27.5t44 -52t16.5 -81.5q0 -41 -23.5 -76t-67.5 -58q23 -11 45 -24.5t38.5 -31t26.5 -39.5t10 -49q-1 -48 -19.5 -80
t-49.5 -51.5t-71 -27.5t-83 -8q-44 0 -84.5 8t-71 27.5t-49 51.5t-18.5 80q0 53 34 90t83 60z" />
    <glyph glyph-name="nineinferior" unicode="&#x2089;" horiz-adv-x="530" 
d="M382 260q0 30 -6 58.5t-19.5 51t-36.5 36t-56 13.5q-59 0 -89.5 -34.5t-31.5 -91.5q0 -25 7 -46.5t22.5 -38t38.5 -26t54 -9.5q32 0 63.5 16t53.5 42v29zM378 135h-2q-33 -21 -64.5 -29t-61.5 -8q-44 0 -80.5 14.5t-63 40t-41 61.5t-14.5 80q0 50 16 88.5t44 65t65.5 40
t80.5 13.5q70 0 113 -30.5t66 -75.5t30.5 -97.5t7.5 -97.5q-3 -69 -18 -128t-45 -102t-76 -67t-111 -24q-44 0 -77 10.5t-59 24.5l20 71q16 -8 33 -13q14 -5 32 -9t36 -5q145 -5 169 177z" />
    <glyph glyph-name="ydieresis" unicode="&#xff;" horiz-adv-x="453" 
d="M171 -83q1 1 3.5 10t6 20.5t7 24t6.5 22.5h-15l-169 504h96l124 -392l72 229l50 163h95l-197 -589q-23 -65 -50 -96.5t-73 -31.5h-8t-13 2l-23 71h22q26 0 40.5 18.5t25.5 44.5zM153 561q-30 0 -44.5 19t-14.5 42t14.5 42t44.5 19t44.5 -19t14.5 -42t-14.5 -42t-44.5 -19
zM305 561q-30 0 -44.5 19t-14.5 42t14.5 42t44.5 19t44.5 -19t14.5 -42t-14.5 -42t-44.5 -19z" />
    <glyph glyph-name="igrave" unicode="&#xec;" horiz-adv-x="246" 
d="M165 0v496h-90v-496h90zM81 702l85 -141h-81l-134 141h130z" />
    <glyph glyph-name="iacute" unicode="&#xed;" horiz-adv-x="251" 
d="M165 0v496h-90v-496h90zM293 702l-134 -141h-81l85 141h130z" />
    <glyph glyph-name="icircumflex" unicode="&#xee;" horiz-adv-x="250" 
d="M101 496h89v-500h-89v500zM150 701l130 -137h-73l-67 62l-64 -62h-73l130 137h17z" />
    <glyph glyph-name="idieresis" unicode="&#xef;" horiz-adv-x="193" 
d="M71 496h89v-500h-89v500zM37 561q-30 0 -44.5 19t-14.5 42t14.5 42t44.5 19t44.5 -19t14.5 -42t-14.5 -42t-44.5 -19zM189 561q-30 0 -44.5 19t-14.5 42t14.5 42t44.5 19t44.5 -19t14.5 -42t-14.5 -42t-44.5 -19z" />
    <glyph glyph-name="ntilde" unicode="&#xf1;" horiz-adv-x="553" 
d="M173 446l2 -2q32 32 67.5 46.5t73.5 15.5h4q24 0 48 -5.5t45 -16t38 -27.5t27 -39q14 -29 14 -107v-311h-90v329q0 30 -7.5 48.5t-19.5 29.5t-28 15t-32 4q-35 0 -62 -14.5t-45 -39t-26.5 -57t-8.5 -68.5v-247h-90v500h90v-54zM291 659q18 -8 35.5 -14.5t33.5 -6.5
q28 0 53 31l49 -28q-23 -44 -49.5 -61t-53.5 -17q-21 0 -41.5 7t-40.5 16q-18 8 -36.5 14t-35.5 6q-14 0 -26.5 -7t-26.5 -25l-45 32q23 43 48.5 59.5t53.5 16.5q21 0 41.5 -7t40.5 -16z" />
    <glyph glyph-name="ograve" unicode="&#xf2;" horiz-adv-x="529" 
d="M496 249q0 -47 -12 -93t-39.5 -82t-71.5 -58t-108 -22q-65 0 -109.5 22.5t-71.5 59t-39 82t-12 91.5q0 45 12 91t39 83t71.5 60t109.5 23q63 0 107 -22.5t71.5 -59t40 -82.5t12.5 -93zM399 249q0 34 -7 65.5t-23 56.5t-41.5 40t-62.5 15q-38 0 -64 -15.5t-41.5 -40.5
t-22.5 -57t-7 -64t7 -63.5t22.5 -56.5t41.5 -40t64 -15q37 0 62.5 15t41.5 39.5t23 56t7 64.5zM223 702l85 -141h-81l-134 141h130z" />
    <glyph glyph-name="oacute" unicode="&#xf3;" horiz-adv-x="529" 
d="M496 249q0 -47 -12 -93t-39.5 -82t-71.5 -58t-108 -22q-65 0 -109.5 22.5t-71.5 59t-39 82t-12 91.5q0 45 12 91t39 83t71.5 60t109.5 23q63 0 107 -22.5t71.5 -59t40 -82.5t12.5 -93zM399 249q0 34 -7 65.5t-23 56.5t-41.5 40t-62.5 15q-38 0 -64 -15.5t-41.5 -40.5
t-22.5 -57t-7 -64t7 -63.5t22.5 -56.5t41.5 -40t64 -15q37 0 62.5 15t41.5 39.5t23 56t7 64.5zM432 702l-134 -141h-81l85 141h130z" />
    <glyph glyph-name="ocircumflex" unicode="&#xf4;" horiz-adv-x="529" 
d="M496 249q0 -47 -12 -93t-39.5 -82t-71.5 -58t-108 -22q-65 0 -109.5 22.5t-71.5 59t-39 82t-12 91.5q0 45 12 91t39 83t71.5 60t109.5 23q63 0 107 -22.5t71.5 -59t40 -82.5t12.5 -93zM399 249q0 34 -7 65.5t-23 56.5t-41.5 40t-62.5 15q-38 0 -64 -15.5t-41.5 -40.5
t-22.5 -57t-7 -64t7 -63.5t22.5 -56.5t41.5 -40t64 -15q37 0 62.5 15t41.5 39.5t23 56t7 64.5zM275 702l130 -137h-73l-67 62l-64 -62h-73l130 137h17z" />
    <glyph glyph-name="otilde" unicode="&#xf5;" horiz-adv-x="536" 
d="M503 249q0 -47 -12 -93t-39.5 -82t-71.5 -58t-108 -22q-65 0 -109.5 22.5t-71.5 59t-39 82t-12 91.5q0 45 12 91t39 83t71.5 60t109.5 23q63 0 107 -22.5t71.5 -59t40 -82.5t12.5 -93zM406 249q0 34 -7 65.5t-23 56.5t-41.5 40t-62.5 15q-38 0 -64 -15.5t-41.5 -40.5
t-22.5 -57t-7 -64t7 -63.5t22.5 -56.5t41.5 -40t64 -15q37 0 62.5 15t41.5 39.5t23 56t7 64.5zM275 659q18 -8 35.5 -14.5t33.5 -6.5q28 0 53 31l49 -28q-23 -44 -49.5 -61t-53.5 -17q-21 0 -41.5 7t-40.5 16q-18 8 -36.5 14t-35.5 6q-14 0 -26.5 -7t-26.5 -25l-45 32
q23 43 48.5 59.5t53.5 16.5q21 0 41.5 -7t40.5 -16z" />
    <glyph glyph-name="odieresis" unicode="&#xf6;" horiz-adv-x="529" 
d="M496 249q0 -47 -12 -93t-39.5 -82t-71.5 -58t-108 -22q-65 0 -109.5 22.5t-71.5 59t-39 82t-12 91.5q0 45 12 91t39 83t71.5 60t109.5 23q63 0 107 -22.5t71.5 -59t40 -82.5t12.5 -93zM399 249q0 34 -7 65.5t-23 56.5t-41.5 40t-62.5 15q-38 0 -64 -15.5t-41.5 -40.5
t-22.5 -57t-7 -64t7 -63.5t22.5 -56.5t41.5 -40t64 -15q37 0 62.5 15t41.5 39.5t23 56t7 64.5zM190 561q-30 0 -44.5 19t-14.5 42t14.5 42t44.5 19t44.5 -19t14.5 -42t-14.5 -42t-44.5 -19zM342 561q-30 0 -44.5 19t-14.5 42t14.5 42t44.5 19t44.5 -19t14.5 -42t-14.5 -42
t-44.5 -19z" />
    <glyph glyph-name="oslash" unicode="&#xf8;" horiz-adv-x="638" 
d="M146 57q-8 9 -15 18q-27 37 -39 82.5t-12 91.5q0 45 12 91t39 83t71.5 60t109.5 23q63 0 107 -23q6 -3 11 -6l82 123h93l-118 -172q2 -2 3 -4q28 -36 40.5 -82t12.5 -93t-12 -93t-39.5 -82t-71.5 -58t-108 -22q-63 0 -106 21l-86 -126h-87zM184 185q5 -26 17 -47l181 268
q-4 2 -8 5q-25 15 -62 15q-38 0 -64 -15.5t-41.5 -40.5t-22.5 -57t-7 -64t7 -64zM446 249q0 34 -7 65q-4 15 -9 29l-176 -258q24 -11 58 -11q37 0 62.5 15t41.5 39.5t23 56t7 64.5z" />
    <glyph glyph-name="ugrave" unicode="&#xf9;" horiz-adv-x="528" 
d="M371 163q10 30 10 94v242h90v-499h-90v50l-3 1q-33 -32 -72.5 -44.5t-74.5 -12.5q-25 0 -49 5t-45 15.5t-38 27.5t-27 40q-13 30 -13 105v312h90v-314q0 -33 7.5 -54t19.5 -33t27.5 -16.5t31.5 -4.5q17 0 31.5 2.5t25.5 6.5q23 9 45.5 28.5t33.5 48.5zM222 702l85 -141
h-81l-134 141h130z" />
    <glyph glyph-name="uacute" unicode="&#xfa;" horiz-adv-x="528" 
d="M371 163q10 30 10 94v242h90v-499h-90v50l-3 1q-33 -32 -72.5 -44.5t-74.5 -12.5q-25 0 -49 5t-45 15.5t-38 27.5t-27 40q-13 30 -13 105v312h90v-314q0 -33 7.5 -54t19.5 -33t27.5 -16.5t31.5 -4.5q17 0 31.5 2.5t25.5 6.5q23 9 45.5 28.5t33.5 48.5zM428 702l-134 -141
h-81l85 141h130z" />
    <glyph glyph-name="ucircumflex" unicode="&#xfb;" horiz-adv-x="528" 
d="M371 163q10 30 10 94v242h90v-499h-90v50l-3 1q-33 -32 -72.5 -44.5t-74.5 -12.5q-25 0 -49 5t-45 15.5t-38 27.5t-27 40q-13 30 -13 105v312h90v-314q0 -33 7.5 -54t19.5 -33t27.5 -16.5t31.5 -4.5q17 0 31.5 2.5t25.5 6.5q23 9 45.5 28.5t33.5 48.5zM272 701l130 -137
h-73l-67 62l-64 -62h-73l130 137h17z" />
    <glyph glyph-name="udieresis" unicode="&#xfc;" horiz-adv-x="528" 
d="M371 163q10 30 10 94v242h90v-499h-90v50l-3 1q-33 -32 -72.5 -44.5t-74.5 -12.5q-25 0 -49 5t-45 15.5t-38 27.5t-27 40q-13 30 -13 105v312h90v-314q0 -33 7.5 -54t19.5 -33t27.5 -16.5t31.5 -4.5q17 0 31.5 2.5t25.5 6.5q23 9 45.5 28.5t33.5 48.5zM191 561
q-30 0 -44.5 19t-14.5 42t14.5 42t44.5 19t44.5 -19t14.5 -42t-14.5 -42t-44.5 -19zM343 561q-30 0 -44.5 19t-14.5 42t14.5 42t44.5 19t44.5 -19t14.5 -42t-14.5 -42t-44.5 -19z" />
    <glyph glyph-name="yacute" unicode="&#xfd;" horiz-adv-x="453" 
d="M171 -83q1 1 3.5 10t6 20.5t7 24t6.5 22.5h-15l-169 504h96l124 -392l72 229l50 163h95l-197 -589q-23 -65 -50 -96.5t-73 -31.5h-8t-13 2l-23 71h22q26 0 40.5 18.5t25.5 44.5zM382 702l-134 -141h-81l85 141h130z" />
    <glyph glyph-name="Udieresis" unicode="&#xdc;" horiz-adv-x="635" 
d="M66 668h105v-334q0 -48 5 -91.5t20.5 -76.5t44.5 -53t77 -20t77 19.5t44.5 52.5t20.5 77t5 92v334h106v-334q0 -62 -8 -122.5t-34 -109t-76 -78.5t-135 -30q-84 0 -134 30t-77 78.5t-35 109t-8 122.5zM238 761q-30 0 -44.5 19t-14.5 42t14.5 42t44.5 19t44.5 -19
t14.5 -42t-14.5 -42t-44.5 -19zM390 761q-30 0 -44.5 19t-14.5 42t14.5 42t44.5 19t44.5 -19t14.5 -42t-14.5 -42t-44.5 -19z" />
    <glyph glyph-name="Yacute" unicode="&#xdd;" 
d="M409 667h115l-209 -393v-274h-101v274q-50 96 -103 197t-102 196h115l144 -286zM446 902l-134 -141h-81l85 141h130z" />
    <glyph glyph-name="agrave" unicode="&#xe0;" horiz-adv-x="487" 
d="M345 205q-26 14 -50.5 20.5t-54.5 6.5q-52 0 -83.5 -22t-31.5 -67q0 -30 22 -50.5t64 -19.5q25 0 49 8.5t42.5 25t30 41t12.5 57.5zM342 49q-34 -30 -71.5 -42.5t-76.5 -12.5q-33 0 -63 8t-52.5 25.5t-36 44.5t-13.5 65q0 45 17 77t45.5 52.5t65 30.5t75.5 10
q56 0 113 -23v14q0 35 -10 58.5t-26.5 38t-39 21t-47.5 6.5q-37 0 -74.5 -10t-63.5 -18l-26 74q43 16 86 25t83 9q42 0 79.5 -10t66 -33.5t45.5 -62t17 -96.5v-300h-90v48zM187 702l85 -141h-81l-134 141h130z" />
    <glyph glyph-name="aacute" unicode="&#xe1;" horiz-adv-x="487" 
d="M345 205q-26 14 -50.5 20.5t-54.5 6.5q-52 0 -83.5 -22t-31.5 -67q0 -30 22 -50.5t64 -19.5q25 0 49 8.5t42.5 25t30 41t12.5 57.5zM342 49q-34 -30 -71.5 -42.5t-76.5 -12.5q-33 0 -63 8t-52.5 25.5t-36 44.5t-13.5 65q0 45 17 77t45.5 52.5t65 30.5t75.5 10
q56 0 113 -23v14q0 35 -10 58.5t-26.5 38t-39 21t-47.5 6.5q-37 0 -74.5 -10t-63.5 -18l-26 74q43 16 86 25t83 9q42 0 79.5 -10t66 -33.5t45.5 -62t17 -96.5v-300h-90v48zM413 702l-134 -141h-81l85 141h130z" />
    <glyph glyph-name="acircumflex" unicode="&#xe2;" horiz-adv-x="487" 
d="M345 205q-26 14 -50.5 20.5t-54.5 6.5q-52 0 -83.5 -22t-31.5 -67q0 -30 22 -50.5t64 -19.5q25 0 49 8.5t42.5 25t30 41t12.5 57.5zM342 49q-34 -30 -71.5 -42.5t-76.5 -12.5q-33 0 -63 8t-52.5 25.5t-36 44.5t-13.5 65q0 45 17 77t45.5 52.5t65 30.5t75.5 10
q56 0 113 -23v14q0 35 -10 58.5t-26.5 38t-39 21t-47.5 6.5q-37 0 -74.5 -10t-63.5 -18l-26 74q43 16 86 25t83 9q42 0 79.5 -10t66 -33.5t45.5 -62t17 -96.5v-300h-90v48zM222 750l130 -137h-73l-67 62l-64 -62h-73l130 137h17z" />
    <glyph glyph-name="atilde" unicode="&#xe3;" horiz-adv-x="506" 
d="M364 205q-26 14 -50.5 20.5t-54.5 6.5q-52 0 -83.5 -22t-31.5 -67q0 -30 22 -50.5t64 -19.5q25 0 49 8.5t42.5 25t30 41t12.5 57.5zM361 49q-34 -30 -71.5 -42.5t-76.5 -12.5q-33 0 -63 8t-52.5 25.5t-36 44.5t-13.5 65q0 45 17 77t45.5 52.5t65 30.5t75.5 10
q56 0 113 -23v14q0 35 -10 58.5t-26.5 38t-39 21t-47.5 6.5q-37 0 -74.5 -10t-63.5 -18l-26 74q43 16 86 25t83 9q42 0 79.5 -10t66 -33.5t45.5 -62t17 -96.5v-300h-90v48zM276 659q18 -8 35.5 -14.5t33.5 -6.5q28 0 53 31l49 -28q-23 -44 -49.5 -61t-53.5 -17
q-21 0 -41.5 7t-40.5 16q-18 8 -36.5 14t-35.5 6q-14 0 -26.5 -7t-26.5 -25l-45 32q23 43 48.5 59.5t53.5 16.5q21 0 41.5 -7t40.5 -16z" />
    <glyph glyph-name="adieresis" unicode="&#xe4;" horiz-adv-x="487" 
d="M345 205q-26 14 -50.5 20.5t-54.5 6.5q-52 0 -83.5 -22t-31.5 -67q0 -30 22 -50.5t64 -19.5q25 0 49 8.5t42.5 25t30 41t12.5 57.5zM342 49q-34 -30 -71.5 -42.5t-76.5 -12.5q-33 0 -63 8t-52.5 25.5t-36 44.5t-13.5 65q0 45 17 77t45.5 52.5t65 30.5t75.5 10
q56 0 113 -23v14q0 35 -10 58.5t-26.5 38t-39 21t-47.5 6.5q-37 0 -74.5 -10t-63.5 -18l-26 74q43 16 86 25t83 9q42 0 79.5 -10t66 -33.5t45.5 -62t17 -96.5v-300h-90v48zM159 561q-30 0 -44.5 19t-14.5 42t14.5 42t44.5 19t44.5 -19t14.5 -42t-14.5 -42t-44.5 -19z
M311 561q-30 0 -44.5 19t-14.5 42t14.5 42t44.5 19t44.5 -19t14.5 -42t-14.5 -42t-44.5 -19z" />
    <glyph glyph-name="ae" unicode="&#xe6;" horiz-adv-x="815" 
d="M725 20q-31 -11 -67 -18.5t-75 -7.5h-7q-74 2 -120.5 29t-72.5 72q-15 -26 -37.5 -45t-48 -31.5t-52.5 -18.5t-51 -6q-30 0 -58 10t-49.5 29t-34.5 46t-13 61q0 44 16 75.5t43 51.5t62 29.5t72 9.5q29 0 58.5 -5t55.5 -17v8q0 68 -27 99.5t-85 31.5h-8q-33 -1 -63 -7.5
t-66 -20.5l-26 75q37 14 78 22.5t81 8.5q49 0 95 -15t75 -56q54 72 156 72q53 0 89.5 -19.5t59 -51.5t32.5 -73.5t10 -85.5v-15t-1 -15h-307q1 -36 10.5 -66.5t26.5 -53.5t43 -36t60 -13q18 0 32 1t27.5 3.5t27.5 6t32 9.5zM345 200q-22 16 -48.5 23t-52.5 7
q-22 0 -42.5 -5.5t-36 -16.5t-24.5 -27t-9 -38q0 -20 7.5 -33t19.5 -21.5t27 -12t30 -3.5q22 0 43.5 9t39 26t29.5 40t17 52zM656 313q-2 51 -26 82t-78 31q-46 0 -75.5 -32.5t-34.5 -80.5h214z" />
    <glyph glyph-name="egrave" unicode="&#xe8;" horiz-adv-x="483" 
d="M427 19q-32 -11 -71.5 -18.5t-81.5 -6.5q-69 1 -114.5 23t-73 57t-39.5 80.5t-13 93.5q-1 55 13 102t42 81.5t69 54.5t94 20q60 0 99 -23.5t62 -60.5t31.5 -82.5t5.5 -89.5h-319q0 -37 10 -69.5t28.5 -56.5t45.5 -37.5t62 -13.5q20 0 35 1.5t28.5 3.5t27.5 6t32 10z
M356 321q-2 20 -9.5 39t-20.5 33.5t-32.5 23.5t-45.5 9q-23 0 -42.5 -9t-34 -23.5t-24 -33.5t-13.5 -39h222zM199 702l85 -141h-81l-134 141h130z" />
    <glyph glyph-name="eacute" unicode="&#xe9;" horiz-adv-x="483" 
d="M427 19q-32 -11 -71.5 -18.5t-81.5 -6.5q-69 1 -114.5 23t-73 57t-39.5 80.5t-13 93.5q-1 55 13 102t42 81.5t69 54.5t94 20q60 0 99 -23.5t62 -60.5t31.5 -82.5t5.5 -89.5h-319q0 -37 10 -69.5t28.5 -56.5t45.5 -37.5t62 -13.5q20 0 35 1.5t28.5 3.5t27.5 6t32 10z
M356 321q-2 20 -9.5 39t-20.5 33.5t-32.5 23.5t-45.5 9q-23 0 -42.5 -9t-34 -23.5t-24 -33.5t-13.5 -39h222zM437 702l-134 -141h-81l85 141h130z" />
    <glyph glyph-name="ecircumflex" unicode="&#xea;" horiz-adv-x="483" 
d="M427 19q-32 -11 -71.5 -18.5t-81.5 -6.5q-69 1 -114.5 23t-73 57t-39.5 80.5t-13 93.5q-1 55 13 102t42 81.5t69 54.5t94 20q60 0 99 -23.5t62 -60.5t31.5 -82.5t5.5 -89.5h-319q0 -37 10 -69.5t28.5 -56.5t45.5 -37.5t62 -13.5q20 0 35 1.5t28.5 3.5t27.5 6t32 10z
M356 321q-2 20 -9.5 39t-20.5 33.5t-32.5 23.5t-45.5 9q-23 0 -42.5 -9t-34 -23.5t-24 -33.5t-13.5 -39h222zM245 701l130 -137h-73l-67 62l-64 -62h-73l130 137h17z" />
    <glyph glyph-name="edieresis" unicode="&#xeb;" horiz-adv-x="483" 
d="M427 19q-32 -11 -71.5 -18.5t-81.5 -6.5q-69 1 -114.5 23t-73 57t-39.5 80.5t-13 93.5q-1 55 13 102t42 81.5t69 54.5t94 20q60 0 99 -23.5t62 -60.5t31.5 -82.5t5.5 -89.5h-319q0 -37 10 -69.5t28.5 -56.5t45.5 -37.5t62 -13.5q20 0 35 1.5t28.5 3.5t27.5 6t32 10z
M356 321q-2 20 -9.5 39t-20.5 33.5t-32.5 23.5t-45.5 9q-23 0 -42.5 -9t-34 -23.5t-24 -33.5t-13.5 -39h222zM168 561q-30 0 -44.5 19t-14.5 42t14.5 42t44.5 19t44.5 -19t14.5 -42t-14.5 -42t-44.5 -19zM320 561q-30 0 -44.5 19t-14.5 42t14.5 42t44.5 19t44.5 -19
t14.5 -42t-14.5 -42t-44.5 -19z" />
    <glyph glyph-name="Ucircumflex" unicode="&#xdb;" horiz-adv-x="635" 
d="M66 668h105v-334q0 -48 5 -91.5t20.5 -76.5t44.5 -53t77 -20t77 19.5t44.5 52.5t20.5 77t5 92v334h106v-334q0 -62 -8 -122.5t-34 -109t-76 -78.5t-135 -30q-84 0 -134 30t-77 78.5t-35 109t-8 122.5zM323 886l130 -137h-73l-67 62l-64 -62h-73l130 137h17z" />
    <glyph glyph-name="Uacute" unicode="&#xda;" horiz-adv-x="635" 
d="M66 668h105v-334q0 -48 5 -91.5t20.5 -76.5t44.5 -53t77 -20t77 19.5t44.5 52.5t20.5 77t5 92v334h106v-334q0 -62 -8 -122.5t-34 -109t-76 -78.5t-135 -30q-84 0 -134 30t-77 78.5t-35 109t-8 122.5zM510 902l-134 -141h-81l85 141h130z" />
    <glyph glyph-name="Ugrave" unicode="&#xd9;" horiz-adv-x="635" 
d="M66 668h105v-334q0 -48 5 -91.5t20.5 -76.5t44.5 -53t77 -20t77 19.5t44.5 52.5t20.5 77t5 92v334h106v-334q0 -62 -8 -122.5t-34 -109t-76 -78.5t-135 -30q-84 0 -134 30t-77 78.5t-35 109t-8 122.5zM259 902l85 -141h-81l-134 141h130z" />
    <glyph glyph-name="AE" unicode="&#xc6;" horiz-adv-x="814" 
d="M454 264h-176l-175 -265h-100l443 668h340v-81h-238v-171h220v-84h-220v-251h238v-81h-333zM427 495l-95 -144h121q0 18 0.5 34.5t0.5 34.5v79l3 50z" />
    <glyph glyph-name="aring" unicode="&#xe5;" horiz-adv-x="487" 
d="M244 735q42 0 64.5 -26.5t22.5 -60.5q0 -21 -7.5 -37.5t-20 -28.5t-28.5 -18.5t-34 -6.5q-39 0 -63.5 26t-24.5 61q0 39 26.5 65t64.5 26zM241 694q-21 0 -31.5 -16t-10.5 -35t12 -32t31 -13t31.5 14t12.5 35q0 16 -10 31.5t-35 15.5zM345 205q-26 14 -50.5 20.5
t-54.5 6.5q-52 0 -83.5 -22t-31.5 -67q0 -30 22 -50.5t64 -19.5q25 0 49 8.5t42.5 25t30 41t12.5 57.5zM342 49q-34 -30 -71.5 -42.5t-76.5 -12.5q-33 0 -63 8t-52.5 25.5t-36 44.5t-13.5 65q0 45 17 77t45.5 52.5t65 30.5t75.5 10q56 0 113 -23v14q0 35 -10 58.5t-26.5 38
t-39 21t-47.5 6.5q-37 0 -74.5 -10t-63.5 -18l-26 74q43 16 86 25t83 9q42 0 79.5 -10t66 -33.5t45.5 -62t17 -96.5v-300h-90v48z" />
    <glyph glyph-name="Aring" unicode="&#xc5;" horiz-adv-x="574" 
d="M288 950q42 0 64.5 -26.5t22.5 -60.5q0 -21 -7.5 -37.5t-20 -28.5t-28.5 -18.5t-34 -6.5q-39 0 -63.5 26t-24.5 61q0 39 26.5 65t64.5 26zM285 909q-21 0 -31.5 -16t-10.5 -35t12 -32t31 -13t31.5 14t12.5 35q0 16 -10 31.5t-35 15.5zM376 221h-181l-74 -221h-103
l222 667h91l220 -667h-105zM275 475l-50 -160h116l-47 160l-8 34h-3z" />
    <glyph glyph-name="eth" unicode="&#xf0;" horiz-adv-x="549" 
d="M161 522l116 55q-34 15 -76 14q-20 -1 -39.5 -5.5t-34.5 -9.5q-18 -6 -34 -14l-21 74q28 15 63 26.5t80 11.5q100 0 160 -51l111 52l30 -60l-94 -45h-1q29 -46 42.5 -108.5t15.5 -137.5v-29q0 -49 -7.5 -102t-31.5 -97.5t-69 -73t-120 -28.5q-45 0 -84.5 15t-69.5 43.5
t-47 71t-17 96.5q0 47 15.5 86.5t43.5 68t66.5 44t84.5 15.5q32 0 65.5 -9t69.5 -33l1 1q-6 44 -17.5 78t-29.5 58q-21 -9 -42.5 -19t-41 -19t-35.5 -16.5t-25 -11.5zM382 293q-25 27 -57.5 44t-64.5 17q-33 0 -57.5 -10.5t-40.5 -28.5t-23.5 -42.5t-7.5 -51.5
q0 -31 8.5 -57t24.5 -45.5t39.5 -30.5t54.5 -11q36 0 60 16t38.5 41.5t21 58.5t6.5 66q0 8 -0.5 17t-1.5 17z" />
    <glyph glyph-name="A" unicode="A" horiz-adv-x="574" 
d="M376 221h-181l-74 -221h-103l222 667h91l220 -667h-105zM275 475l-50 -160h116l-47 160l-8 34h-3z" />
    <glyph glyph-name="B" unicode="B" horiz-adv-x="557" 
d="M354 361q78 -7 121.5 -54.5t43.5 -132.5q0 -49 -22 -82.5t-57.5 -54.5t-80.5 -29.5t-92 -7.5h-201v668h218q29 0 60 -10t57 -30t42.5 -49.5t17.5 -68.5q0 -52 -27 -92t-80 -57zM168 404h49h24.5t46 7.5t44 27t19.5 59.5q0 27 -10.5 43.5t-26 25t-35 11.5t-37.5 3h-74
v-177zM410 185q0 37 -15 60t-39 35t-53.5 16t-57.5 4h-77v-213h49q24 0 57 -0.5t63.5 7t51.5 28.5t21 63z" />
    <glyph glyph-name="C" unicode="C" horiz-adv-x="565" 
d="M35 333q0 82 25 145.5t68 107t100.5 66t122.5 22.5h7q44 -2 89 -12.5t92 -33.5l-22 -79q-42 22 -84 30.5t-80 8.5q-35 0 -72 -14t-67.5 -44.5t-50 -79t-19.5 -117.5q0 -57 17 -103.5t46.5 -79.5t68 -51t82.5 -18q38 0 77.5 8t81.5 30l18 -81q-46 -23 -91 -33t-89 -11h-5
q-65 0 -122.5 22.5t-100 65.5t-67.5 106.5t-25 144.5z" />
    <glyph glyph-name="ccedilla" unicode="&#xe7;" horiz-adv-x="453" 
d="M160 -42q-1 11 6 25.5t24 27.5q-45 16 -80 46q-35 32 -56 79.5t-21 110.5q0 61 20 109.5t53.5 81.5t78.5 50.5t96 17.5q35 0 72.5 -8.5t77.5 -31.5l-22 -74q-32 18 -62.5 26t-56.5 8q-33 0 -62 -11t-50.5 -33t-34 -56t-12.5 -79q0 -37 10.5 -69t31.5 -55t51.5 -36.5
t71.5 -13.5q27 0 56.5 7t61.5 22l17 -80q-35 -12 -70 -20t-70 -8q-10 0 -20 1q-15 -3 -32 -9t-17 -18q0 -5 13 -5h40q54 0 85.5 -23.5t31.5 -73.5q0 -48 -30.5 -74t-72.5 -26q-29 0 -60 14t-57 43l19 56q17 -17 39.5 -34t50.5 -19q21 0 33.5 7.5t13.5 32.5q1 24 -17.5 33
t-46.5 9h-37q-66 0 -67 50z" />
    <glyph glyph-name="Ccedilla" unicode="&#xc7;" horiz-adv-x="565" 
d="M35 333q0 82 25 145.5t68 107t100.5 66t122.5 22.5h7q44 -2 89 -12.5t92 -33.5l-22 -79q-42 22 -84 30.5t-80 8.5q-35 0 -72 -14t-67.5 -44.5t-50 -79t-19.5 -117.5q0 -57 17 -103.5t46.5 -79.5t68 -51t82.5 -18q38 0 77.5 8t81.5 30l18 -81q-46 -23 -91 -33t-89 -11h-5
h-6q-8 0 -17 -1.5t-17.5 -5t-14 -8.5t-5.5 -11q0 -5 13 -5h40q54 0 85.5 -23.5t31.5 -73.5q0 -48 -30.5 -74t-72.5 -26q-29 0 -60 14t-57 43l19 56q17 -17 39.5 -34t50.5 -19q21 0 33.5 7.5t13.5 32.5q1 24 -17.5 33t-46.5 9h-37q-66 0 -67 49q-1 10 5 24t20 26q-13 4 -26 9
q-57 23 -99.5 66t-67.5 106.5t-25 144.5z" />
  </font>
</defs>
</svg>
